G04 #@! TF.FileFunction,Paste,Bot*
%FSLAX46Y46*%
G04 Gerber Fmt 4.6, Leading zero omitted, Abs format (unit mm)*
G04 Created by KiCad (PCBNEW 4.0.6) date 10/02/17 14:09:37*
%MOMM*%
%LPD*%
G01*
G04 APERTURE LIST*
%ADD10C,0.100000*%
%ADD11R,1.250000X1.500000*%
%ADD12R,1.500000X1.250000*%
%ADD13R,0.400000X1.350000*%
%ADD14R,1.500000X1.300000*%
%ADD15R,1.800000X1.100000*%
%ADD16R,1.560000X0.650000*%
%ADD17R,1.950000X1.500000*%
%ADD18R,1.000000X1.600000*%
G04 APERTURE END LIST*
D10*
D11*
X149300000Y-69250000D03*
X149300000Y-71750000D03*
X147446197Y-69247797D03*
X147446197Y-71747797D03*
X151200000Y-69250000D03*
X151200000Y-71750000D03*
X153100000Y-69250000D03*
X153100000Y-71750000D03*
D12*
X142250000Y-71400000D03*
X144750000Y-71400000D03*
D13*
X145900000Y-57750000D03*
X146550000Y-57750000D03*
X147200000Y-57750000D03*
X147850000Y-57750000D03*
X148500000Y-57750000D03*
D14*
X138150000Y-60000000D03*
X135450000Y-60000000D03*
X142150000Y-67400000D03*
X144850000Y-67400000D03*
D15*
X135200000Y-57850000D03*
X141400000Y-57850000D03*
X135200000Y-54150000D03*
X141400000Y-54150000D03*
D16*
X142150000Y-65450000D03*
X142150000Y-64500000D03*
X142150000Y-63550000D03*
X144850000Y-63550000D03*
X144850000Y-65450000D03*
X149150000Y-65450000D03*
X149150000Y-64500000D03*
X149150000Y-63550000D03*
X151850000Y-63550000D03*
X151850000Y-65450000D03*
D17*
X154625000Y-64000000D03*
X157375000Y-64000000D03*
X154625000Y-66600000D03*
X157375000Y-66600000D03*
D18*
X159500000Y-57200000D03*
X157000000Y-57200000D03*
X154500000Y-57200000D03*
X159500000Y-54800000D03*
X154500000Y-54800000D03*
X157000000Y-54800000D03*
M02*
