M48
;DRILL file {KiCad 4.0.6} date 11/07/17 14:14:13
;FORMAT={3:3/ absolute / metric / suppress leading zeros}
FMAT,2
METRIC,TZ
T1C0.400
T2C0.500
T3C0.550
T4C1.000
%
G90
G05
M71
T1
X135500Y-56500
X137000Y-73000
X139500Y-73550
X142000Y-56800
X144000Y-58700
X145222Y-60026
X146000Y-70000
X146021Y-59999
X147000Y-56000
X147000Y-85000
X151000Y-64500
X151300Y-57500
X153300Y-62200
X155000Y-85000
X155284Y-71653
X156000Y-65500
X156372Y-74100
X156400Y-73000
X156450Y-74896
X158950Y-73750
X159000Y-59000
X159000Y-64700
X159000Y-65500
X160000Y-84000
X161450Y-64700
X161450Y-65500
X164000Y-74500
X167500Y-72500
T2
X162000Y-69500
X162000Y-70500
X162000Y-71500
X163000Y-69500
X163000Y-70500
X163000Y-71500
T4
X135500Y-62690
X135500Y-65230
X135500Y-67770
X135500Y-70310
X137000Y-76000
X137000Y-78540
X138040Y-62690
X138040Y-65230
X138040Y-67770
X138040Y-70310
X139460Y-85000
X147660Y-60500
X150200Y-60500
X152740Y-60500
X155280Y-60500
X163460Y-85000
X164300Y-66500
X164500Y-63800
X166467Y-71141
X166840Y-66500
X167000Y-54500
X167000Y-57040
X167000Y-59580
X167000Y-62120
T2
X143700Y-54725G85X143700Y-55375
G05
X150700Y-54725G85X150700Y-55375
G05
T3
X144850Y-57750G85X144550Y-57750
G05
X149850Y-57750G85X149550Y-57750
G05
T0
M30
