G04 #@! TF.FileFunction,Legend,Top*
%FSLAX46Y46*%
G04 Gerber Fmt 4.6, Leading zero omitted, Abs format (unit mm)*
G04 Created by KiCad (PCBNEW 4.0.6) date 11/07/17 14:14:17*
%MOMM*%
%LPD*%
G01*
G04 APERTURE LIST*
%ADD10C,0.100000*%
%ADD11C,0.200000*%
%ADD12C,0.300000*%
%ADD13C,0.120000*%
%ADD14C,0.150000*%
%ADD15C,0.125000*%
G04 APERTURE END LIST*
D10*
D11*
X142833332Y-81054762D02*
X142976189Y-81102381D01*
X143214285Y-81102381D01*
X143309523Y-81054762D01*
X143357142Y-81007143D01*
X143404761Y-80911905D01*
X143404761Y-80816667D01*
X143357142Y-80721429D01*
X143309523Y-80673810D01*
X143214285Y-80626190D01*
X143023808Y-80578571D01*
X142928570Y-80530952D01*
X142880951Y-80483333D01*
X142833332Y-80388095D01*
X142833332Y-80292857D01*
X142880951Y-80197619D01*
X142928570Y-80150000D01*
X143023808Y-80102381D01*
X143261904Y-80102381D01*
X143404761Y-80150000D01*
X144261904Y-80435714D02*
X144261904Y-81102381D01*
X143833332Y-80435714D02*
X143833332Y-80959524D01*
X143880951Y-81054762D01*
X143976189Y-81102381D01*
X144119047Y-81102381D01*
X144214285Y-81054762D01*
X144261904Y-81007143D01*
X144738094Y-80435714D02*
X144738094Y-81435714D01*
X144738094Y-80483333D02*
X144833332Y-80435714D01*
X145023809Y-80435714D01*
X145119047Y-80483333D01*
X145166666Y-80530952D01*
X145214285Y-80626190D01*
X145214285Y-80911905D01*
X145166666Y-81007143D01*
X145119047Y-81054762D01*
X145023809Y-81102381D01*
X144833332Y-81102381D01*
X144738094Y-81054762D01*
X146023809Y-81054762D02*
X145928571Y-81102381D01*
X145738094Y-81102381D01*
X145642856Y-81054762D01*
X145595237Y-80959524D01*
X145595237Y-80578571D01*
X145642856Y-80483333D01*
X145738094Y-80435714D01*
X145928571Y-80435714D01*
X146023809Y-80483333D01*
X146071428Y-80578571D01*
X146071428Y-80673810D01*
X145595237Y-80769048D01*
X146499999Y-81102381D02*
X146499999Y-80435714D01*
X146499999Y-80626190D02*
X146547618Y-80530952D01*
X146595237Y-80483333D01*
X146690475Y-80435714D01*
X146785714Y-80435714D01*
X147119047Y-81102381D02*
X147119047Y-80102381D01*
X147452381Y-80816667D01*
X147785714Y-80102381D01*
X147785714Y-81102381D01*
X148642857Y-81054762D02*
X148547619Y-81102381D01*
X148357142Y-81102381D01*
X148261904Y-81054762D01*
X148214285Y-80959524D01*
X148214285Y-80578571D01*
X148261904Y-80483333D01*
X148357142Y-80435714D01*
X148547619Y-80435714D01*
X148642857Y-80483333D01*
X148690476Y-80578571D01*
X148690476Y-80673810D01*
X148214285Y-80769048D01*
X149547619Y-81054762D02*
X149452381Y-81102381D01*
X149261904Y-81102381D01*
X149166666Y-81054762D01*
X149119047Y-81007143D01*
X149071428Y-80911905D01*
X149071428Y-80626190D01*
X149119047Y-80530952D01*
X149166666Y-80483333D01*
X149261904Y-80435714D01*
X149452381Y-80435714D01*
X149547619Y-80483333D01*
X149976190Y-81102381D02*
X149976190Y-80102381D01*
X150404762Y-81102381D02*
X150404762Y-80578571D01*
X150357143Y-80483333D01*
X150261905Y-80435714D01*
X150119047Y-80435714D01*
X150023809Y-80483333D01*
X149976190Y-80530952D01*
X151309524Y-81102381D02*
X151309524Y-80578571D01*
X151261905Y-80483333D01*
X151166667Y-80435714D01*
X150976190Y-80435714D01*
X150880952Y-80483333D01*
X151309524Y-81054762D02*
X151214286Y-81102381D01*
X150976190Y-81102381D01*
X150880952Y-81054762D01*
X150833333Y-80959524D01*
X150833333Y-80864286D01*
X150880952Y-80769048D01*
X150976190Y-80721429D01*
X151214286Y-80721429D01*
X151309524Y-80673810D01*
X152357143Y-81007143D02*
X152309524Y-81054762D01*
X152166667Y-81102381D01*
X152071429Y-81102381D01*
X151928571Y-81054762D01*
X151833333Y-80959524D01*
X151785714Y-80864286D01*
X151738095Y-80673810D01*
X151738095Y-80530952D01*
X151785714Y-80340476D01*
X151833333Y-80245238D01*
X151928571Y-80150000D01*
X152071429Y-80102381D01*
X152166667Y-80102381D01*
X152309524Y-80150000D01*
X152357143Y-80197619D01*
X152928571Y-81102381D02*
X152833333Y-81054762D01*
X152785714Y-81007143D01*
X152738095Y-80911905D01*
X152738095Y-80626190D01*
X152785714Y-80530952D01*
X152833333Y-80483333D01*
X152928571Y-80435714D01*
X153071429Y-80435714D01*
X153166667Y-80483333D01*
X153214286Y-80530952D01*
X153261905Y-80626190D01*
X153261905Y-80911905D01*
X153214286Y-81007143D01*
X153166667Y-81054762D01*
X153071429Y-81102381D01*
X152928571Y-81102381D01*
X153595238Y-80435714D02*
X153785714Y-81102381D01*
X153976191Y-80626190D01*
X154166667Y-81102381D01*
X154357143Y-80435714D01*
X144595236Y-81802381D02*
X144785713Y-81802381D01*
X144880951Y-81850000D01*
X144976189Y-81945238D01*
X145023808Y-82135714D01*
X145023808Y-82469048D01*
X144976189Y-82659524D01*
X144880951Y-82754762D01*
X144785713Y-82802381D01*
X144595236Y-82802381D01*
X144499998Y-82754762D01*
X144404760Y-82659524D01*
X144357141Y-82469048D01*
X144357141Y-82135714D01*
X144404760Y-81945238D01*
X144499998Y-81850000D01*
X144595236Y-81802381D01*
X145880951Y-82754762D02*
X145785713Y-82802381D01*
X145595236Y-82802381D01*
X145499998Y-82754762D01*
X145452379Y-82707143D01*
X145404760Y-82611905D01*
X145404760Y-82326190D01*
X145452379Y-82230952D01*
X145499998Y-82183333D01*
X145595236Y-82135714D01*
X145785713Y-82135714D01*
X145880951Y-82183333D01*
X146166665Y-82135714D02*
X146547617Y-82135714D01*
X146309522Y-81802381D02*
X146309522Y-82659524D01*
X146357141Y-82754762D01*
X146452379Y-82802381D01*
X146547617Y-82802381D01*
X147023808Y-82802381D02*
X146928570Y-82754762D01*
X146880951Y-82707143D01*
X146833332Y-82611905D01*
X146833332Y-82326190D01*
X146880951Y-82230952D01*
X146928570Y-82183333D01*
X147023808Y-82135714D01*
X147166666Y-82135714D01*
X147261904Y-82183333D01*
X147309523Y-82230952D01*
X147357142Y-82326190D01*
X147357142Y-82611905D01*
X147309523Y-82707143D01*
X147261904Y-82754762D01*
X147166666Y-82802381D01*
X147023808Y-82802381D01*
X147785713Y-82802381D02*
X147785713Y-81802381D01*
X147785713Y-82183333D02*
X147880951Y-82135714D01*
X148071428Y-82135714D01*
X148166666Y-82183333D01*
X148214285Y-82230952D01*
X148261904Y-82326190D01*
X148261904Y-82611905D01*
X148214285Y-82707143D01*
X148166666Y-82754762D01*
X148071428Y-82802381D01*
X147880951Y-82802381D01*
X147785713Y-82754762D01*
X149071428Y-82754762D02*
X148976190Y-82802381D01*
X148785713Y-82802381D01*
X148690475Y-82754762D01*
X148642856Y-82659524D01*
X148642856Y-82278571D01*
X148690475Y-82183333D01*
X148785713Y-82135714D01*
X148976190Y-82135714D01*
X149071428Y-82183333D01*
X149119047Y-82278571D01*
X149119047Y-82373810D01*
X148642856Y-82469048D01*
X149547618Y-82802381D02*
X149547618Y-82135714D01*
X149547618Y-82326190D02*
X149595237Y-82230952D01*
X149642856Y-82183333D01*
X149738094Y-82135714D01*
X149833333Y-82135714D01*
X150880952Y-81897619D02*
X150928571Y-81850000D01*
X151023809Y-81802381D01*
X151261905Y-81802381D01*
X151357143Y-81850000D01*
X151404762Y-81897619D01*
X151452381Y-81992857D01*
X151452381Y-82088095D01*
X151404762Y-82230952D01*
X150833333Y-82802381D01*
X151452381Y-82802381D01*
X152071428Y-81802381D02*
X152166667Y-81802381D01*
X152261905Y-81850000D01*
X152309524Y-81897619D01*
X152357143Y-81992857D01*
X152404762Y-82183333D01*
X152404762Y-82421429D01*
X152357143Y-82611905D01*
X152309524Y-82707143D01*
X152261905Y-82754762D01*
X152166667Y-82802381D01*
X152071428Y-82802381D01*
X151976190Y-82754762D01*
X151928571Y-82707143D01*
X151880952Y-82611905D01*
X151833333Y-82421429D01*
X151833333Y-82183333D01*
X151880952Y-81992857D01*
X151928571Y-81897619D01*
X151976190Y-81850000D01*
X152071428Y-81802381D01*
X153357143Y-82802381D02*
X152785714Y-82802381D01*
X153071428Y-82802381D02*
X153071428Y-81802381D01*
X152976190Y-81945238D01*
X152880952Y-82040476D01*
X152785714Y-82088095D01*
X153690476Y-81802381D02*
X154357143Y-81802381D01*
X153928571Y-82802381D01*
D10*
X162500000Y-54500000D02*
X161600000Y-55200000D01*
X161600000Y-55200000D02*
X161600000Y-53800000D01*
X161600000Y-53800000D02*
X162500000Y-54500000D01*
X153600000Y-53800000D02*
X154500000Y-54500000D01*
X153600000Y-55200000D02*
X153600000Y-53800000D01*
X154500000Y-54500000D02*
X153600000Y-55200000D01*
X147500000Y-54500000D02*
X146600000Y-55200000D01*
X146600000Y-53800000D02*
X147500000Y-54500000D01*
X146600000Y-55200000D02*
X146600000Y-53800000D01*
D12*
X155942857Y-78703571D02*
X156228571Y-78703571D01*
X156371429Y-78775000D01*
X156514286Y-78917857D01*
X156585714Y-79203571D01*
X156585714Y-79703571D01*
X156514286Y-79989286D01*
X156371429Y-80132143D01*
X156228571Y-80203571D01*
X155942857Y-80203571D01*
X155800000Y-80132143D01*
X155657143Y-79989286D01*
X155585714Y-79703571D01*
X155585714Y-79203571D01*
X155657143Y-78917857D01*
X155800000Y-78775000D01*
X155942857Y-78703571D01*
X157228572Y-79203571D02*
X157228572Y-80703571D01*
X157228572Y-79275000D02*
X157371429Y-79203571D01*
X157657143Y-79203571D01*
X157800000Y-79275000D01*
X157871429Y-79346429D01*
X157942858Y-79489286D01*
X157942858Y-79917857D01*
X157871429Y-80060714D01*
X157800000Y-80132143D01*
X157657143Y-80203571D01*
X157371429Y-80203571D01*
X157228572Y-80132143D01*
X159157143Y-80132143D02*
X159014286Y-80203571D01*
X158728572Y-80203571D01*
X158585715Y-80132143D01*
X158514286Y-79989286D01*
X158514286Y-79417857D01*
X158585715Y-79275000D01*
X158728572Y-79203571D01*
X159014286Y-79203571D01*
X159157143Y-79275000D01*
X159228572Y-79417857D01*
X159228572Y-79560714D01*
X158514286Y-79703571D01*
X159871429Y-79203571D02*
X159871429Y-80203571D01*
X159871429Y-79346429D02*
X159942857Y-79275000D01*
X160085715Y-79203571D01*
X160300000Y-79203571D01*
X160442857Y-79275000D01*
X160514286Y-79417857D01*
X160514286Y-80203571D01*
X162085715Y-80060714D02*
X162014286Y-80132143D01*
X161800000Y-80203571D01*
X161657143Y-80203571D01*
X161442858Y-80132143D01*
X161300000Y-79989286D01*
X161228572Y-79846429D01*
X161157143Y-79560714D01*
X161157143Y-79346429D01*
X161228572Y-79060714D01*
X161300000Y-78917857D01*
X161442858Y-78775000D01*
X161657143Y-78703571D01*
X161800000Y-78703571D01*
X162014286Y-78775000D01*
X162085715Y-78846429D01*
X162728572Y-80203571D02*
X162728572Y-79203571D01*
X162728572Y-79489286D02*
X162800000Y-79346429D01*
X162871429Y-79275000D01*
X163014286Y-79203571D01*
X163157143Y-79203571D01*
X163657143Y-80203571D02*
X163657143Y-79203571D01*
X163657143Y-78703571D02*
X163585714Y-78775000D01*
X163657143Y-78846429D01*
X163728571Y-78775000D01*
X163657143Y-78703571D01*
X163657143Y-78846429D01*
X164157143Y-79203571D02*
X164728572Y-79203571D01*
X164371429Y-78703571D02*
X164371429Y-79989286D01*
X164442857Y-80132143D01*
X164585715Y-80203571D01*
X164728572Y-80203571D01*
X165014286Y-79203571D02*
X165585715Y-79203571D01*
X165228572Y-78703571D02*
X165228572Y-79989286D01*
X165300000Y-80132143D01*
X165442858Y-80203571D01*
X165585715Y-80203571D01*
X166657143Y-80132143D02*
X166514286Y-80203571D01*
X166228572Y-80203571D01*
X166085715Y-80132143D01*
X166014286Y-79989286D01*
X166014286Y-79417857D01*
X166085715Y-79275000D01*
X166228572Y-79203571D01*
X166514286Y-79203571D01*
X166657143Y-79275000D01*
X166728572Y-79417857D01*
X166728572Y-79560714D01*
X166014286Y-79703571D01*
X167371429Y-80203571D02*
X167371429Y-79203571D01*
X167371429Y-79489286D02*
X167442857Y-79346429D01*
X167514286Y-79275000D01*
X167657143Y-79203571D01*
X167800000Y-79203571D01*
X155657143Y-82753571D02*
X155657143Y-81253571D01*
X156228571Y-81253571D01*
X156371429Y-81325000D01*
X156442857Y-81396429D01*
X156514286Y-81539286D01*
X156514286Y-81753571D01*
X156442857Y-81896429D01*
X156371429Y-81967857D01*
X156228571Y-82039286D01*
X155657143Y-82039286D01*
X157157143Y-82753571D02*
X157157143Y-81753571D01*
X157157143Y-82039286D02*
X157228571Y-81896429D01*
X157300000Y-81825000D01*
X157442857Y-81753571D01*
X157585714Y-81753571D01*
X158300000Y-82753571D02*
X158157142Y-82682143D01*
X158085714Y-82610714D01*
X158014285Y-82467857D01*
X158014285Y-82039286D01*
X158085714Y-81896429D01*
X158157142Y-81825000D01*
X158300000Y-81753571D01*
X158514285Y-81753571D01*
X158657142Y-81825000D01*
X158728571Y-81896429D01*
X158800000Y-82039286D01*
X158800000Y-82467857D01*
X158728571Y-82610714D01*
X158657142Y-82682143D01*
X158514285Y-82753571D01*
X158300000Y-82753571D01*
X161442857Y-82753571D02*
X160942857Y-82039286D01*
X160585714Y-82753571D02*
X160585714Y-81253571D01*
X161157142Y-81253571D01*
X161300000Y-81325000D01*
X161371428Y-81396429D01*
X161442857Y-81539286D01*
X161442857Y-81753571D01*
X161371428Y-81896429D01*
X161300000Y-81967857D01*
X161157142Y-82039286D01*
X160585714Y-82039286D01*
X162657142Y-82682143D02*
X162514285Y-82753571D01*
X162228571Y-82753571D01*
X162085714Y-82682143D01*
X162014285Y-82539286D01*
X162014285Y-81967857D01*
X162085714Y-81825000D01*
X162228571Y-81753571D01*
X162514285Y-81753571D01*
X162657142Y-81825000D01*
X162728571Y-81967857D01*
X162728571Y-82110714D01*
X162014285Y-82253571D01*
X163228571Y-81753571D02*
X163585714Y-82753571D01*
X163942856Y-81753571D01*
X166442856Y-82753571D02*
X165585713Y-82753571D01*
X166014285Y-82753571D02*
X166014285Y-81253571D01*
X165871428Y-81467857D01*
X165728570Y-81610714D01*
X165585713Y-81682143D01*
X157428571Y-77257143D02*
X156428571Y-75828571D01*
X155714286Y-77257143D02*
X155714286Y-74257143D01*
X156857143Y-74257143D01*
X157142857Y-74400000D01*
X157285714Y-74542857D01*
X157428571Y-74828571D01*
X157428571Y-75257143D01*
X157285714Y-75542857D01*
X157142857Y-75685714D01*
X156857143Y-75828571D01*
X155714286Y-75828571D01*
X160000000Y-77257143D02*
X160000000Y-75685714D01*
X159857143Y-75400000D01*
X159571429Y-75257143D01*
X159000000Y-75257143D01*
X158714286Y-75400000D01*
X160000000Y-77114286D02*
X159714286Y-77257143D01*
X159000000Y-77257143D01*
X158714286Y-77114286D01*
X158571429Y-76828571D01*
X158571429Y-76542857D01*
X158714286Y-76257143D01*
X159000000Y-76114286D01*
X159714286Y-76114286D01*
X160000000Y-75971429D01*
X161428572Y-75257143D02*
X161428572Y-77828571D01*
X161285715Y-78114286D01*
X161000000Y-78257143D01*
X160857143Y-78257143D01*
X161428572Y-74257143D02*
X161285715Y-74400000D01*
X161428572Y-74542857D01*
X161571429Y-74400000D01*
X161428572Y-74257143D01*
X161428572Y-74542857D01*
X164142857Y-75257143D02*
X164142857Y-77257143D01*
X162857143Y-75257143D02*
X162857143Y-76828571D01*
X163000000Y-77114286D01*
X163285714Y-77257143D01*
X163714286Y-77257143D01*
X164000000Y-77114286D01*
X164142857Y-76971429D01*
X165571429Y-77257143D02*
X165571429Y-75257143D01*
X165571429Y-75828571D02*
X165714286Y-75542857D01*
X165857143Y-75400000D01*
X166142857Y-75257143D01*
X166428572Y-75257143D01*
D13*
X135670000Y-79870000D02*
X138330000Y-79870000D01*
X135670000Y-77270000D02*
X135670000Y-79870000D01*
X138330000Y-77270000D02*
X138330000Y-79870000D01*
X135670000Y-77270000D02*
X138330000Y-77270000D01*
X135670000Y-76000000D02*
X135670000Y-74670000D01*
X135670000Y-74670000D02*
X137000000Y-74670000D01*
X158550000Y-56300000D02*
X158550000Y-55300000D01*
X156850000Y-55300000D02*
X156850000Y-56300000D01*
X146000000Y-53750000D02*
X149200000Y-53750000D01*
X149200000Y-55250000D02*
X146000000Y-55250000D01*
X149200000Y-55250000D02*
X149200000Y-53750000D01*
X153000000Y-53750000D02*
X156200000Y-53750000D01*
X156200000Y-55250000D02*
X153000000Y-55250000D01*
X156200000Y-55250000D02*
X156200000Y-53750000D01*
X161000000Y-53750000D02*
X164200000Y-53750000D01*
X164200000Y-55250000D02*
X161000000Y-55250000D01*
X164200000Y-55250000D02*
X164200000Y-53750000D01*
X168170000Y-67830000D02*
X168170000Y-65170000D01*
X165570000Y-67830000D02*
X168170000Y-67830000D01*
X165570000Y-65170000D02*
X168170000Y-65170000D01*
X165570000Y-67830000D02*
X165570000Y-65170000D01*
X164300000Y-67830000D02*
X162970000Y-67830000D01*
X162970000Y-67830000D02*
X162970000Y-66500000D01*
X152120000Y-71600000D02*
X152120000Y-70400000D01*
X153880000Y-70400000D02*
X153880000Y-71600000D01*
X150120000Y-71600000D02*
X150120000Y-70400000D01*
X151880000Y-70400000D02*
X151880000Y-71600000D01*
X145400000Y-65120000D02*
X146600000Y-65120000D01*
X146600000Y-66880000D02*
X145400000Y-66880000D01*
X147600000Y-57380000D02*
X146400000Y-57380000D01*
X146400000Y-55620000D02*
X147600000Y-55620000D01*
X153400000Y-56520000D02*
X154600000Y-56520000D01*
X154600000Y-58280000D02*
X153400000Y-58280000D01*
X144600000Y-86880000D02*
X143400000Y-86880000D01*
X143400000Y-85120000D02*
X144600000Y-85120000D01*
X161400000Y-56520000D02*
X162600000Y-56520000D01*
X162600000Y-58280000D02*
X161400000Y-58280000D01*
X152200000Y-86880000D02*
X151000000Y-86880000D01*
X151000000Y-85120000D02*
X152200000Y-85120000D01*
X159600000Y-86880000D02*
X158400000Y-86880000D01*
X158400000Y-85120000D02*
X159600000Y-85120000D01*
X139750000Y-58700000D02*
X136850000Y-58700000D01*
X140200000Y-58250000D02*
X139750000Y-58700000D01*
X141000000Y-55000000D02*
X141000000Y-57000000D01*
X139750000Y-53300000D02*
X140200000Y-53750000D01*
X136850000Y-53300000D02*
X139750000Y-53300000D01*
X136400000Y-53750000D02*
X136850000Y-53300000D01*
X135600000Y-57000000D02*
X135600000Y-55000000D01*
X136850000Y-58700000D02*
X136400000Y-58250000D01*
X136850000Y-87800000D02*
X136850000Y-87550000D01*
X136850000Y-87550000D02*
X143150000Y-87550000D01*
X143150000Y-87550000D02*
X143150000Y-87800000D01*
X136850000Y-92300000D02*
X136850000Y-89700000D01*
X143150000Y-94200000D02*
X143150000Y-94450000D01*
X143150000Y-94450000D02*
X136850000Y-94450000D01*
X136850000Y-94450000D02*
X136850000Y-94200000D01*
X143150000Y-89700000D02*
X143150000Y-92300000D01*
X148350000Y-87800000D02*
X148350000Y-87550000D01*
X148350000Y-87550000D02*
X154650000Y-87550000D01*
X154650000Y-87550000D02*
X154650000Y-87800000D01*
X148350000Y-92300000D02*
X148350000Y-89700000D01*
X154650000Y-94200000D02*
X154650000Y-94450000D01*
X154650000Y-94450000D02*
X148350000Y-94450000D01*
X148350000Y-94450000D02*
X148350000Y-94200000D01*
X154650000Y-89700000D02*
X154650000Y-92300000D01*
X159850000Y-87800000D02*
X159850000Y-87550000D01*
X159850000Y-87550000D02*
X166150000Y-87550000D01*
X166150000Y-87550000D02*
X166150000Y-87800000D01*
X159850000Y-92300000D02*
X159850000Y-89700000D01*
X166150000Y-94200000D02*
X166150000Y-94450000D01*
X166150000Y-94450000D02*
X159850000Y-94450000D01*
X159850000Y-94450000D02*
X159850000Y-94200000D01*
X166150000Y-89700000D02*
X166150000Y-92300000D01*
D14*
X143850000Y-72150000D02*
X143850000Y-71625000D01*
X148150000Y-67850000D02*
X148150000Y-68375000D01*
X143850000Y-67850000D02*
X143850000Y-68375000D01*
X148150000Y-72150000D02*
X147625000Y-72150000D01*
X148150000Y-67850000D02*
X147625000Y-67850000D01*
X143850000Y-67850000D02*
X144375000Y-67850000D01*
X143850000Y-72150000D02*
X144375000Y-72150000D01*
X154850000Y-67850000D02*
X155625000Y-67850000D01*
X159150000Y-72150000D02*
X158375000Y-72150000D01*
X159150000Y-67850000D02*
X158375000Y-67850000D01*
X154850000Y-72150000D02*
X154850000Y-71375000D01*
X159150000Y-72150000D02*
X159150000Y-71375000D01*
X159150000Y-67850000D02*
X159150000Y-68625000D01*
X154850000Y-67850000D02*
X154850000Y-68625000D01*
D13*
X161290000Y-72060000D02*
X161605507Y-72060000D01*
X163394493Y-72060000D02*
X163710000Y-72060000D01*
X162394493Y-72060000D02*
X162605507Y-72060000D01*
X161290000Y-70185000D02*
X161290000Y-72060000D01*
X163710000Y-68940000D02*
X163710000Y-72060000D01*
X161290000Y-70185000D02*
X161391724Y-70185000D01*
X163394493Y-68940000D02*
X163710000Y-68940000D01*
X161290000Y-69500000D02*
X161290000Y-68815000D01*
X161290000Y-68815000D02*
X162000000Y-68815000D01*
D14*
X156460000Y-62000000D02*
X156460000Y-59000000D01*
X146460000Y-62000000D02*
X156460000Y-62000000D01*
X146460000Y-59000000D02*
X146460000Y-62000000D01*
X137460000Y-87000000D02*
X137460000Y-85000000D01*
X146460000Y-59000000D02*
X156460000Y-59000000D01*
X137460000Y-87000000D02*
X139460000Y-87000000D01*
X165464561Y-87000000D02*
X163464561Y-87000000D01*
X165460000Y-87000000D02*
X165460000Y-85000000D01*
X165460000Y-59000000D02*
X165460000Y-61000000D01*
X165460000Y-59000000D02*
X163460000Y-59000000D01*
X137460000Y-59000000D02*
X137460000Y-61000000D01*
X137460000Y-59000000D02*
X139460000Y-59000000D01*
D13*
X165670000Y-63450000D02*
X168330000Y-63450000D01*
X165670000Y-55770000D02*
X165670000Y-63450000D01*
X168330000Y-55770000D02*
X168330000Y-63450000D01*
X165670000Y-55770000D02*
X168330000Y-55770000D01*
X165670000Y-54500000D02*
X165670000Y-53170000D01*
X165670000Y-53170000D02*
X167000000Y-53170000D01*
D14*
X159367857Y-54625000D02*
X159403571Y-54660714D01*
X159439286Y-54767857D01*
X159439286Y-54839286D01*
X159403571Y-54946429D01*
X159332143Y-55017857D01*
X159260714Y-55053572D01*
X159117857Y-55089286D01*
X159010714Y-55089286D01*
X158867857Y-55053572D01*
X158796429Y-55017857D01*
X158725000Y-54946429D01*
X158689286Y-54839286D01*
X158689286Y-54767857D01*
X158725000Y-54660714D01*
X158760714Y-54625000D01*
X158689286Y-54375000D02*
X158689286Y-53875000D01*
X159439286Y-54196429D01*
D15*
X150026190Y-54869047D02*
X149526190Y-54869047D01*
X149526190Y-54750000D01*
X149550000Y-54678571D01*
X149597619Y-54630952D01*
X149645238Y-54607143D01*
X149740476Y-54583333D01*
X149811905Y-54583333D01*
X149907143Y-54607143D01*
X149954762Y-54630952D01*
X150002381Y-54678571D01*
X150026190Y-54750000D01*
X150026190Y-54869047D01*
X150026190Y-54107143D02*
X150026190Y-54392857D01*
X150026190Y-54250000D02*
X149526190Y-54250000D01*
X149597619Y-54297619D01*
X149645238Y-54345238D01*
X149669048Y-54392857D01*
D14*
X155146428Y-56239286D02*
X155146428Y-55489286D01*
X155325000Y-55489286D01*
X155432143Y-55525000D01*
X155503571Y-55596429D01*
X155539286Y-55667857D01*
X155575000Y-55810714D01*
X155575000Y-55917857D01*
X155539286Y-56060714D01*
X155503571Y-56132143D01*
X155432143Y-56203571D01*
X155325000Y-56239286D01*
X155146428Y-56239286D01*
X155860714Y-55560714D02*
X155896428Y-55525000D01*
X155967857Y-55489286D01*
X156146428Y-55489286D01*
X156217857Y-55525000D01*
X156253571Y-55560714D01*
X156289286Y-55632143D01*
X156289286Y-55703571D01*
X156253571Y-55810714D01*
X155825000Y-56239286D01*
X156289286Y-56239286D01*
X161446428Y-56339286D02*
X161446428Y-55589286D01*
X161625000Y-55589286D01*
X161732143Y-55625000D01*
X161803571Y-55696429D01*
X161839286Y-55767857D01*
X161875000Y-55910714D01*
X161875000Y-56017857D01*
X161839286Y-56160714D01*
X161803571Y-56232143D01*
X161732143Y-56303571D01*
X161625000Y-56339286D01*
X161446428Y-56339286D01*
X162125000Y-55589286D02*
X162589286Y-55589286D01*
X162339286Y-55875000D01*
X162446428Y-55875000D01*
X162517857Y-55910714D01*
X162553571Y-55946429D01*
X162589286Y-56017857D01*
X162589286Y-56196429D01*
X162553571Y-56267857D01*
X162517857Y-56303571D01*
X162446428Y-56339286D01*
X162232143Y-56339286D01*
X162160714Y-56303571D01*
X162125000Y-56267857D01*
X160690476Y-66952381D02*
X160690476Y-65952381D01*
X161023810Y-66666667D01*
X161357143Y-65952381D01*
X161357143Y-66952381D01*
X162357143Y-66952381D02*
X161785714Y-66952381D01*
X162071428Y-66952381D02*
X162071428Y-65952381D01*
X161976190Y-66095238D01*
X161880952Y-66190476D01*
X161785714Y-66238095D01*
X153452381Y-67666666D02*
X152976190Y-68000000D01*
X153452381Y-68238095D02*
X152452381Y-68238095D01*
X152452381Y-67857142D01*
X152500000Y-67761904D01*
X152547619Y-67714285D01*
X152642857Y-67666666D01*
X152785714Y-67666666D01*
X152880952Y-67714285D01*
X152928571Y-67761904D01*
X152976190Y-67857142D01*
X152976190Y-68238095D01*
X153452381Y-66714285D02*
X153452381Y-67285714D01*
X153452381Y-67000000D02*
X152452381Y-67000000D01*
X152595238Y-67095238D01*
X152690476Y-67190476D01*
X152738095Y-67285714D01*
X151452381Y-67666666D02*
X150976190Y-68000000D01*
X151452381Y-68238095D02*
X150452381Y-68238095D01*
X150452381Y-67857142D01*
X150500000Y-67761904D01*
X150547619Y-67714285D01*
X150642857Y-67666666D01*
X150785714Y-67666666D01*
X150880952Y-67714285D01*
X150928571Y-67761904D01*
X150976190Y-67857142D01*
X150976190Y-68238095D01*
X150547619Y-67285714D02*
X150500000Y-67238095D01*
X150452381Y-67142857D01*
X150452381Y-66904761D01*
X150500000Y-66809523D01*
X150547619Y-66761904D01*
X150642857Y-66714285D01*
X150738095Y-66714285D01*
X150880952Y-66761904D01*
X151452381Y-67333333D01*
X151452381Y-66714285D01*
X142333334Y-66452381D02*
X142000000Y-65976190D01*
X141761905Y-66452381D02*
X141761905Y-65452381D01*
X142142858Y-65452381D01*
X142238096Y-65500000D01*
X142285715Y-65547619D01*
X142333334Y-65642857D01*
X142333334Y-65785714D01*
X142285715Y-65880952D01*
X142238096Y-65928571D01*
X142142858Y-65976190D01*
X141761905Y-65976190D01*
X143190477Y-65785714D02*
X143190477Y-66452381D01*
X142952381Y-65404762D02*
X142714286Y-66119048D01*
X143333334Y-66119048D01*
X146875000Y-58339286D02*
X146625000Y-57982143D01*
X146446428Y-58339286D02*
X146446428Y-57589286D01*
X146732143Y-57589286D01*
X146803571Y-57625000D01*
X146839286Y-57660714D01*
X146875000Y-57732143D01*
X146875000Y-57839286D01*
X146839286Y-57910714D01*
X146803571Y-57946429D01*
X146732143Y-57982143D01*
X146446428Y-57982143D01*
X147553571Y-57589286D02*
X147196428Y-57589286D01*
X147160714Y-57946429D01*
X147196428Y-57910714D01*
X147267857Y-57875000D01*
X147446428Y-57875000D01*
X147517857Y-57910714D01*
X147553571Y-57946429D01*
X147589286Y-58017857D01*
X147589286Y-58196429D01*
X147553571Y-58267857D01*
X147517857Y-58303571D01*
X147446428Y-58339286D01*
X147267857Y-58339286D01*
X147196428Y-58303571D01*
X147160714Y-58267857D01*
X152275000Y-56339286D02*
X152025000Y-55982143D01*
X151846428Y-56339286D02*
X151846428Y-55589286D01*
X152132143Y-55589286D01*
X152203571Y-55625000D01*
X152239286Y-55660714D01*
X152275000Y-55732143D01*
X152275000Y-55839286D01*
X152239286Y-55910714D01*
X152203571Y-55946429D01*
X152132143Y-55982143D01*
X151846428Y-55982143D01*
X152525000Y-55589286D02*
X153025000Y-55589286D01*
X152703571Y-56339286D01*
X143833334Y-84752381D02*
X143500000Y-84276190D01*
X143261905Y-84752381D02*
X143261905Y-83752381D01*
X143642858Y-83752381D01*
X143738096Y-83800000D01*
X143785715Y-83847619D01*
X143833334Y-83942857D01*
X143833334Y-84085714D01*
X143785715Y-84180952D01*
X143738096Y-84228571D01*
X143642858Y-84276190D01*
X143261905Y-84276190D01*
X144309524Y-84752381D02*
X144500000Y-84752381D01*
X144595239Y-84704762D01*
X144642858Y-84657143D01*
X144738096Y-84514286D01*
X144785715Y-84323810D01*
X144785715Y-83942857D01*
X144738096Y-83847619D01*
X144690477Y-83800000D01*
X144595239Y-83752381D01*
X144404762Y-83752381D01*
X144309524Y-83800000D01*
X144261905Y-83847619D01*
X144214286Y-83942857D01*
X144214286Y-84180952D01*
X144261905Y-84276190D01*
X144309524Y-84323810D01*
X144404762Y-84371429D01*
X144595239Y-84371429D01*
X144690477Y-84323810D01*
X144738096Y-84276190D01*
X144785715Y-84180952D01*
X161517857Y-59239286D02*
X161267857Y-58882143D01*
X161089285Y-59239286D02*
X161089285Y-58489286D01*
X161375000Y-58489286D01*
X161446428Y-58525000D01*
X161482143Y-58560714D01*
X161517857Y-58632143D01*
X161517857Y-58739286D01*
X161482143Y-58810714D01*
X161446428Y-58846429D01*
X161375000Y-58882143D01*
X161089285Y-58882143D01*
X162232143Y-59239286D02*
X161803571Y-59239286D01*
X162017857Y-59239286D02*
X162017857Y-58489286D01*
X161946428Y-58596429D01*
X161875000Y-58667857D01*
X161803571Y-58703571D01*
X162696429Y-58489286D02*
X162767857Y-58489286D01*
X162839286Y-58525000D01*
X162875000Y-58560714D01*
X162910714Y-58632143D01*
X162946429Y-58775000D01*
X162946429Y-58953571D01*
X162910714Y-59096429D01*
X162875000Y-59167857D01*
X162839286Y-59203571D01*
X162767857Y-59239286D01*
X162696429Y-59239286D01*
X162625000Y-59203571D01*
X162589286Y-59167857D01*
X162553571Y-59096429D01*
X162517857Y-58953571D01*
X162517857Y-58775000D01*
X162553571Y-58632143D01*
X162589286Y-58560714D01*
X162625000Y-58525000D01*
X162696429Y-58489286D01*
X150957143Y-84752381D02*
X150623809Y-84276190D01*
X150385714Y-84752381D02*
X150385714Y-83752381D01*
X150766667Y-83752381D01*
X150861905Y-83800000D01*
X150909524Y-83847619D01*
X150957143Y-83942857D01*
X150957143Y-84085714D01*
X150909524Y-84180952D01*
X150861905Y-84228571D01*
X150766667Y-84276190D01*
X150385714Y-84276190D01*
X151909524Y-84752381D02*
X151338095Y-84752381D01*
X151623809Y-84752381D02*
X151623809Y-83752381D01*
X151528571Y-83895238D01*
X151433333Y-83990476D01*
X151338095Y-84038095D01*
X152861905Y-84752381D02*
X152290476Y-84752381D01*
X152576190Y-84752381D02*
X152576190Y-83752381D01*
X152480952Y-83895238D01*
X152385714Y-83990476D01*
X152290476Y-84038095D01*
X158357143Y-84752381D02*
X158023809Y-84276190D01*
X157785714Y-84752381D02*
X157785714Y-83752381D01*
X158166667Y-83752381D01*
X158261905Y-83800000D01*
X158309524Y-83847619D01*
X158357143Y-83942857D01*
X158357143Y-84085714D01*
X158309524Y-84180952D01*
X158261905Y-84228571D01*
X158166667Y-84276190D01*
X157785714Y-84276190D01*
X159309524Y-84752381D02*
X158738095Y-84752381D01*
X159023809Y-84752381D02*
X159023809Y-83752381D01*
X158928571Y-83895238D01*
X158833333Y-83990476D01*
X158738095Y-84038095D01*
X159690476Y-83847619D02*
X159738095Y-83800000D01*
X159833333Y-83752381D01*
X160071429Y-83752381D01*
X160166667Y-83800000D01*
X160214286Y-83847619D01*
X160261905Y-83942857D01*
X160261905Y-84038095D01*
X160214286Y-84180952D01*
X159642857Y-84752381D01*
X160261905Y-84752381D01*
X136966667Y-55404762D02*
X137109524Y-55452381D01*
X137347620Y-55452381D01*
X137442858Y-55404762D01*
X137490477Y-55357143D01*
X137538096Y-55261905D01*
X137538096Y-55166667D01*
X137490477Y-55071429D01*
X137442858Y-55023810D01*
X137347620Y-54976190D01*
X137157143Y-54928571D01*
X137061905Y-54880952D01*
X137014286Y-54833333D01*
X136966667Y-54738095D01*
X136966667Y-54642857D01*
X137014286Y-54547619D01*
X137061905Y-54500000D01*
X137157143Y-54452381D01*
X137395239Y-54452381D01*
X137538096Y-54500000D01*
X137871429Y-54452381D02*
X138109524Y-55452381D01*
X138300001Y-54738095D01*
X138490477Y-55452381D01*
X138728572Y-54452381D01*
X139633334Y-55452381D02*
X139061905Y-55452381D01*
X139347619Y-55452381D02*
X139347619Y-54452381D01*
X139252381Y-54595238D01*
X139157143Y-54690476D01*
X139061905Y-54738095D01*
X138666667Y-89404762D02*
X138809524Y-89452381D01*
X139047620Y-89452381D01*
X139142858Y-89404762D01*
X139190477Y-89357143D01*
X139238096Y-89261905D01*
X139238096Y-89166667D01*
X139190477Y-89071429D01*
X139142858Y-89023810D01*
X139047620Y-88976190D01*
X138857143Y-88928571D01*
X138761905Y-88880952D01*
X138714286Y-88833333D01*
X138666667Y-88738095D01*
X138666667Y-88642857D01*
X138714286Y-88547619D01*
X138761905Y-88500000D01*
X138857143Y-88452381D01*
X139095239Y-88452381D01*
X139238096Y-88500000D01*
X139571429Y-88452381D02*
X139809524Y-89452381D01*
X140000001Y-88738095D01*
X140190477Y-89452381D01*
X140428572Y-88452381D01*
X141238096Y-88785714D02*
X141238096Y-89452381D01*
X141000000Y-88404762D02*
X140761905Y-89119048D01*
X141380953Y-89119048D01*
X143642857Y-91250000D02*
X144357143Y-91250000D01*
X143500000Y-91678571D02*
X144000000Y-90178571D01*
X144500000Y-91678571D01*
X150166667Y-89404762D02*
X150309524Y-89452381D01*
X150547620Y-89452381D01*
X150642858Y-89404762D01*
X150690477Y-89357143D01*
X150738096Y-89261905D01*
X150738096Y-89166667D01*
X150690477Y-89071429D01*
X150642858Y-89023810D01*
X150547620Y-88976190D01*
X150357143Y-88928571D01*
X150261905Y-88880952D01*
X150214286Y-88833333D01*
X150166667Y-88738095D01*
X150166667Y-88642857D01*
X150214286Y-88547619D01*
X150261905Y-88500000D01*
X150357143Y-88452381D01*
X150595239Y-88452381D01*
X150738096Y-88500000D01*
X151071429Y-88452381D02*
X151309524Y-89452381D01*
X151500001Y-88738095D01*
X151690477Y-89452381D01*
X151928572Y-88452381D01*
X152785715Y-88452381D02*
X152309524Y-88452381D01*
X152261905Y-88928571D01*
X152309524Y-88880952D01*
X152404762Y-88833333D01*
X152642858Y-88833333D01*
X152738096Y-88880952D01*
X152785715Y-88928571D01*
X152833334Y-89023810D01*
X152833334Y-89261905D01*
X152785715Y-89357143D01*
X152738096Y-89404762D01*
X152642858Y-89452381D01*
X152404762Y-89452381D01*
X152309524Y-89404762D01*
X152261905Y-89357143D01*
X155607143Y-90892857D02*
X155821429Y-90964286D01*
X155892857Y-91035714D01*
X155964286Y-91178571D01*
X155964286Y-91392857D01*
X155892857Y-91535714D01*
X155821429Y-91607143D01*
X155678571Y-91678571D01*
X155107143Y-91678571D01*
X155107143Y-90178571D01*
X155607143Y-90178571D01*
X155750000Y-90250000D01*
X155821429Y-90321429D01*
X155892857Y-90464286D01*
X155892857Y-90607143D01*
X155821429Y-90750000D01*
X155750000Y-90821429D01*
X155607143Y-90892857D01*
X155107143Y-90892857D01*
X161666667Y-89404762D02*
X161809524Y-89452381D01*
X162047620Y-89452381D01*
X162142858Y-89404762D01*
X162190477Y-89357143D01*
X162238096Y-89261905D01*
X162238096Y-89166667D01*
X162190477Y-89071429D01*
X162142858Y-89023810D01*
X162047620Y-88976190D01*
X161857143Y-88928571D01*
X161761905Y-88880952D01*
X161714286Y-88833333D01*
X161666667Y-88738095D01*
X161666667Y-88642857D01*
X161714286Y-88547619D01*
X161761905Y-88500000D01*
X161857143Y-88452381D01*
X162095239Y-88452381D01*
X162238096Y-88500000D01*
X162571429Y-88452381D02*
X162809524Y-89452381D01*
X163000001Y-88738095D01*
X163190477Y-89452381D01*
X163428572Y-88452381D01*
X164238096Y-88452381D02*
X164047619Y-88452381D01*
X163952381Y-88500000D01*
X163904762Y-88547619D01*
X163809524Y-88690476D01*
X163761905Y-88880952D01*
X163761905Y-89261905D01*
X163809524Y-89357143D01*
X163857143Y-89404762D01*
X163952381Y-89452381D01*
X164142858Y-89452381D01*
X164238096Y-89404762D01*
X164285715Y-89357143D01*
X164333334Y-89261905D01*
X164333334Y-89023810D01*
X164285715Y-88928571D01*
X164238096Y-88880952D01*
X164142858Y-88833333D01*
X163952381Y-88833333D01*
X163857143Y-88880952D01*
X163809524Y-88928571D01*
X163761905Y-89023810D01*
X167464286Y-91535714D02*
X167392857Y-91607143D01*
X167178571Y-91678571D01*
X167035714Y-91678571D01*
X166821429Y-91607143D01*
X166678571Y-91464286D01*
X166607143Y-91321429D01*
X166535714Y-91035714D01*
X166535714Y-90821429D01*
X166607143Y-90535714D01*
X166678571Y-90392857D01*
X166821429Y-90250000D01*
X167035714Y-90178571D01*
X167178571Y-90178571D01*
X167392857Y-90250000D01*
X167464286Y-90321429D01*
X145238095Y-72827381D02*
X145238095Y-73636905D01*
X145285714Y-73732143D01*
X145333333Y-73779762D01*
X145428571Y-73827381D01*
X145619048Y-73827381D01*
X145714286Y-73779762D01*
X145761905Y-73732143D01*
X145809524Y-73636905D01*
X145809524Y-72827381D01*
X146809524Y-73827381D02*
X146238095Y-73827381D01*
X146523809Y-73827381D02*
X146523809Y-72827381D01*
X146428571Y-72970238D01*
X146333333Y-73065476D01*
X146238095Y-73113095D01*
X156238095Y-66252381D02*
X156238095Y-67061905D01*
X156285714Y-67157143D01*
X156333333Y-67204762D01*
X156428571Y-67252381D01*
X156619048Y-67252381D01*
X156714286Y-67204762D01*
X156761905Y-67157143D01*
X156809524Y-67061905D01*
X156809524Y-66252381D01*
X157714286Y-66585714D02*
X157714286Y-67252381D01*
X157476190Y-66204762D02*
X157238095Y-66919048D01*
X157857143Y-66919048D01*
X142547619Y-59952381D02*
X142738096Y-59952381D01*
X142833334Y-60000000D01*
X142928572Y-60095238D01*
X142976191Y-60285714D01*
X142976191Y-60619048D01*
X142928572Y-60809524D01*
X142833334Y-60904762D01*
X142738096Y-60952381D01*
X142547619Y-60952381D01*
X142452381Y-60904762D01*
X142357143Y-60809524D01*
X142309524Y-60619048D01*
X142309524Y-60285714D01*
X142357143Y-60095238D01*
X142452381Y-60000000D01*
X142547619Y-59952381D01*
X143880953Y-60952381D02*
X143404762Y-60952381D01*
X143404762Y-59952381D01*
X144214286Y-60428571D02*
X144547620Y-60428571D01*
X144690477Y-60952381D02*
X144214286Y-60952381D01*
X144214286Y-59952381D01*
X144690477Y-59952381D01*
X145119048Y-60952381D02*
X145119048Y-59952381D01*
X145357143Y-59952381D01*
X145500001Y-60000000D01*
X145595239Y-60095238D01*
X145642858Y-60190476D01*
X145690477Y-60380952D01*
X145690477Y-60523810D01*
X145642858Y-60714286D01*
X145595239Y-60809524D01*
X145500001Y-60904762D01*
X145357143Y-60952381D01*
X145119048Y-60952381D01*
M02*
