G04 #@! TF.FileFunction,Copper,L1,Top,Signal*
%FSLAX46Y46*%
G04 Gerber Fmt 4.6, Leading zero omitted, Abs format (unit mm)*
G04 Created by KiCad (PCBNEW 4.0.6) date 10/02/17 14:09:37*
%MOMM*%
%LPD*%
G01*
G04 APERTURE LIST*
%ADD10C,0.100000*%
%ADD11R,1.700000X1.700000*%
%ADD12C,1.700000*%
%ADD13O,1.700000X1.700000*%
%ADD14C,2.000000*%
%ADD15R,1.250000X1.500000*%
%ADD16R,1.500000X1.300000*%
%ADD17O,1.250000X0.950000*%
%ADD18O,1.000000X1.550000*%
%ADD19R,1.300000X1.500000*%
%ADD20R,1.800000X1.100000*%
%ADD21R,1.550000X1.300000*%
%ADD22R,0.850000X0.300000*%
%ADD23R,0.300000X0.850000*%
%ADD24R,0.300000X0.730000*%
%ADD25R,0.730000X0.300000*%
%ADD26R,1.250000X1.250000*%
%ADD27R,0.850000X0.850000*%
%ADD28O,0.850000X0.850000*%
%ADD29C,0.600000*%
%ADD30C,0.250000*%
%ADD31C,0.254000*%
G04 APERTURE END LIST*
D10*
D11*
X135500000Y-62690000D03*
D12*
X138040000Y-62690000D03*
X135500000Y-65230000D03*
X138040000Y-65230000D03*
X135500000Y-67770000D03*
X138040000Y-67770000D03*
X135500000Y-70310000D03*
X138040000Y-70310000D03*
D11*
X137000000Y-76000000D03*
D13*
X137000000Y-78540000D03*
D10*
G36*
X167691770Y-71848143D02*
X165759918Y-72365781D01*
X165242280Y-70433929D01*
X167174132Y-69916291D01*
X167691770Y-71848143D01*
X167691770Y-71848143D01*
G37*
D14*
X164500000Y-63800000D03*
D15*
X157700000Y-54550000D03*
X157700000Y-57050000D03*
D16*
X148350000Y-54500000D03*
X145650000Y-54500000D03*
X155350000Y-54500000D03*
X152650000Y-54500000D03*
X163350000Y-54500000D03*
X160650000Y-54500000D03*
D17*
X144700000Y-57750000D03*
X149700000Y-57750000D03*
D18*
X143700000Y-55050000D03*
X150700000Y-55050000D03*
D11*
X164300000Y-66500000D03*
D13*
X166840000Y-66500000D03*
D19*
X153000000Y-69650000D03*
X153000000Y-72350000D03*
X151000000Y-69650000D03*
X151000000Y-72350000D03*
D16*
X147350000Y-66000000D03*
X144650000Y-66000000D03*
X145650000Y-56500000D03*
X148350000Y-56500000D03*
X155350000Y-57400000D03*
X152650000Y-57400000D03*
X142650000Y-86000000D03*
X145350000Y-86000000D03*
X163350000Y-57400000D03*
X160650000Y-57400000D03*
X150250000Y-86000000D03*
X152950000Y-86000000D03*
X157650000Y-86000000D03*
X160350000Y-86000000D03*
D20*
X141400000Y-57850000D03*
X135200000Y-57850000D03*
X141400000Y-54150000D03*
X135200000Y-54150000D03*
D21*
X136025000Y-88750000D03*
X143975000Y-88750000D03*
X136025000Y-93250000D03*
X143975000Y-93250000D03*
X147525000Y-88750000D03*
X155475000Y-88750000D03*
X147525000Y-93250000D03*
X155475000Y-93250000D03*
X159025000Y-88750000D03*
X166975000Y-88750000D03*
X159025000Y-93250000D03*
X166975000Y-93250000D03*
D22*
X147950000Y-71250000D03*
X147950000Y-70750000D03*
X147950000Y-70250000D03*
X147950000Y-69750000D03*
X147950000Y-69250000D03*
X147950000Y-68750000D03*
D23*
X147250000Y-68050000D03*
X146750000Y-68050000D03*
X146250000Y-68050000D03*
X145750000Y-68050000D03*
X145250000Y-68050000D03*
X144750000Y-68050000D03*
D22*
X144050000Y-68750000D03*
X144050000Y-69250000D03*
X144050000Y-69750000D03*
X144050000Y-70250000D03*
X144050000Y-70750000D03*
X144050000Y-71250000D03*
D23*
X144750000Y-71950000D03*
X145250000Y-71950000D03*
X145750000Y-71950000D03*
X146250000Y-71950000D03*
X146750000Y-71950000D03*
X147250000Y-71950000D03*
D24*
X156000000Y-71965000D03*
X156500000Y-71965000D03*
X157000000Y-71965000D03*
X157500000Y-71965000D03*
X158000000Y-71965000D03*
D25*
X158965000Y-71000000D03*
X158965000Y-70500000D03*
X158965000Y-70000000D03*
X158965000Y-69500000D03*
X158965000Y-69000000D03*
D24*
X158000000Y-68035000D03*
X157500000Y-68035000D03*
X157000000Y-68035000D03*
X156500000Y-68035000D03*
X156000000Y-68035000D03*
D25*
X155035000Y-69000000D03*
X155035000Y-69500000D03*
X155035000Y-70000000D03*
X155035000Y-70500000D03*
X155035000Y-71000000D03*
D26*
X157625000Y-69375000D03*
X156375000Y-69375000D03*
X157625000Y-70625000D03*
X156375000Y-70625000D03*
D27*
X162000000Y-69500000D03*
D28*
X163000000Y-69500000D03*
X162000000Y-70500000D03*
X163000000Y-70500000D03*
X162000000Y-71500000D03*
X163000000Y-71500000D03*
D11*
X147660000Y-60500000D03*
D12*
X150200000Y-60500000D03*
X152740000Y-60500000D03*
X155280000Y-60500000D03*
X139460000Y-85000000D03*
X163460000Y-85000000D03*
D11*
X167000000Y-54500000D03*
D13*
X167000000Y-57040000D03*
X167000000Y-59580000D03*
X167000000Y-62120000D03*
D29*
X158950000Y-73750000D03*
X160000000Y-84000000D03*
X155000000Y-85000000D03*
X147000000Y-85000000D03*
X161450000Y-64699997D03*
X159000000Y-64699997D03*
X146800000Y-67150002D03*
X147000000Y-56000000D03*
X151300000Y-57500000D03*
X146000000Y-70000000D03*
X137000000Y-73000000D03*
X156000000Y-65500000D03*
X151000000Y-64500000D03*
X159000000Y-59000000D03*
X156400000Y-73000000D03*
X156372207Y-74100001D03*
X145221500Y-60026228D03*
X146021059Y-59999320D03*
X155283716Y-71653465D03*
X142000000Y-56799998D03*
X135500000Y-56500000D03*
X156450000Y-74896211D03*
X139500000Y-73550000D03*
X161450000Y-65500000D03*
X159000000Y-65500000D03*
X144000000Y-58700000D03*
X167500000Y-72500000D03*
X164000000Y-74500000D03*
X153300000Y-62200000D03*
D10*
X158300001Y-58300001D02*
X158100000Y-58300001D01*
X158100000Y-58300001D02*
X155900001Y-58300001D01*
X157700000Y-57050000D02*
X157700000Y-57900000D01*
X157700000Y-57900000D02*
X158100000Y-58300000D01*
X158100000Y-58300000D02*
X158100000Y-58300001D01*
X153650001Y-58300001D02*
X155899999Y-58300001D01*
X152650000Y-57400000D02*
X152750000Y-57400000D01*
X152750000Y-57400000D02*
X153650001Y-58300001D01*
X150700000Y-55050000D02*
X150700000Y-57714002D01*
X152550000Y-57400000D02*
X152650000Y-57400000D01*
X150700000Y-57714002D02*
X151135998Y-58150000D01*
X151135998Y-58150000D02*
X151800000Y-58150000D01*
X151800000Y-58150000D02*
X152550000Y-57400000D01*
X160650000Y-57400000D02*
X160650000Y-56650000D01*
X160650000Y-56650000D02*
X161650001Y-55649999D01*
X161600001Y-53599999D02*
X159699999Y-53599999D01*
X161650001Y-55649999D02*
X161650001Y-53649999D01*
X161650001Y-53649999D02*
X161600001Y-53599999D01*
X159699999Y-53599999D02*
X158699990Y-54600008D01*
X158699990Y-54600008D02*
X158699990Y-57900012D01*
X158699990Y-57900012D02*
X158300001Y-58300001D01*
X143975000Y-57750000D02*
X143400000Y-58325000D01*
X143400000Y-58325000D02*
X143400000Y-59300000D01*
X144700000Y-57750000D02*
X143975000Y-57750000D01*
X148975000Y-57750000D02*
X149700000Y-57750000D01*
X143400000Y-59300000D02*
X144749597Y-59300000D01*
X144749597Y-59300000D02*
X146299597Y-57750000D01*
X146299597Y-57750000D02*
X148975000Y-57750000D01*
X143700000Y-55050000D02*
X141650000Y-55050000D01*
X141650000Y-55050000D02*
X141400000Y-54800000D01*
X141400000Y-54800000D02*
X141400000Y-54150000D01*
X144700000Y-57750000D02*
X144550000Y-57750000D01*
X144550000Y-57750000D02*
X143700000Y-56900000D01*
X143700000Y-56900000D02*
X143700000Y-55925000D01*
X143700000Y-55925000D02*
X143700000Y-55050000D01*
X135200000Y-54150000D02*
X141400000Y-54150000D01*
X158965000Y-70000000D02*
X159430000Y-70000000D01*
X159430000Y-70000000D02*
X159580001Y-70150001D01*
X159580001Y-70150001D02*
X159580001Y-73119999D01*
X159580001Y-73119999D02*
X158950000Y-73750000D01*
X149700000Y-57750000D02*
X149700000Y-55450000D01*
X150100000Y-55050000D02*
X150700000Y-55050000D01*
X149700000Y-55450000D02*
X150100000Y-55050000D01*
X150700000Y-55050000D02*
X150700000Y-55325000D01*
X152500000Y-57125000D02*
X152500000Y-57250000D01*
X160350000Y-86000000D02*
X160350000Y-84350000D01*
X160350000Y-84350000D02*
X160000000Y-84000000D01*
X152950000Y-86000000D02*
X154000000Y-86000000D01*
X154000000Y-86000000D02*
X155000000Y-85000000D01*
X145350000Y-86000000D02*
X145450000Y-86000000D01*
X145450000Y-86000000D02*
X146450000Y-85000000D01*
X146450000Y-85000000D02*
X147000000Y-85000000D01*
X161450000Y-64699997D02*
X161874264Y-64699997D01*
X161874264Y-64699997D02*
X162374257Y-65199990D01*
X162374257Y-65199990D02*
X165149992Y-65199990D01*
X165149992Y-65199990D02*
X165739999Y-65789997D01*
X165739999Y-65789997D02*
X165739999Y-69278734D01*
X165739999Y-69278734D02*
X166467025Y-70005760D01*
X166467025Y-70005760D02*
X166467025Y-71141036D01*
X156000000Y-67570000D02*
X158870003Y-64699997D01*
X158870003Y-64699997D02*
X159000000Y-64699997D01*
X156000000Y-68035000D02*
X156000000Y-67570000D01*
X147000000Y-56000000D02*
X147000000Y-53999998D01*
X147000000Y-53999998D02*
X147399999Y-53599999D01*
X147399999Y-53599999D02*
X156874999Y-53599999D01*
X156874999Y-53599999D02*
X157700000Y-54425000D01*
X157700000Y-54425000D02*
X157700000Y-54550000D01*
X146750000Y-68050000D02*
X147250000Y-68050000D01*
X146800000Y-67150002D02*
X146800000Y-68000000D01*
X146800000Y-68000000D02*
X146750000Y-68050000D01*
X147000000Y-56000000D02*
X145650000Y-54650000D01*
X145650000Y-54650000D02*
X145650000Y-54500000D01*
X152650000Y-54500000D02*
X152650000Y-55250000D01*
X152650000Y-55250000D02*
X151300000Y-56600000D01*
X151300000Y-56600000D02*
X151300000Y-57500000D01*
X147950000Y-68750000D02*
X147950000Y-69250000D01*
X163000000Y-69500000D02*
X163700000Y-69500000D01*
X158965000Y-69500000D02*
X160000000Y-69500000D01*
X147950000Y-68750000D02*
X147425000Y-68750000D01*
X147425000Y-68750000D02*
X146175000Y-70000000D01*
X146175000Y-70000000D02*
X146000000Y-70000000D01*
D30*
X166975000Y-93250000D02*
X166975000Y-92350000D01*
X166975000Y-92350000D02*
X168075001Y-91249999D01*
X168075001Y-91249999D02*
X168075001Y-87075001D01*
X136025000Y-93250000D02*
X136025000Y-92350000D01*
X136025000Y-92350000D02*
X134924999Y-91249999D01*
X134924999Y-87839999D02*
X135764998Y-87000000D01*
X134924999Y-91249999D02*
X134924999Y-87839999D01*
D10*
X135500000Y-62690000D02*
X136450000Y-62690000D01*
X136600001Y-66669999D02*
X136349999Y-66920001D01*
X136450000Y-62690000D02*
X136600001Y-62840001D01*
X136600001Y-62840001D02*
X136600001Y-66669999D01*
X136349999Y-66920001D02*
X135500000Y-67770000D01*
X147350000Y-66000000D02*
X148200000Y-66000000D01*
X148200000Y-66000000D02*
X148625001Y-66425001D01*
X148625001Y-66425001D02*
X148625001Y-69100001D01*
X148625001Y-69100001D02*
X148475000Y-69250000D01*
X148475000Y-69250000D02*
X147950000Y-69250000D01*
X148350000Y-56500000D02*
X148350000Y-54500000D01*
X155350000Y-57400000D02*
X155350000Y-54500000D01*
X163350000Y-54500000D02*
X163350000Y-57400000D01*
X159000000Y-56050000D02*
X159000000Y-59000000D01*
X156500000Y-71965000D02*
X156500000Y-72900000D01*
X156500000Y-72900000D02*
X156400000Y-73000000D01*
X160650000Y-54500000D02*
X160550000Y-54500000D01*
X160550000Y-54500000D02*
X159000000Y-56050000D01*
X149450000Y-59400000D02*
X149099999Y-59750001D01*
X149099999Y-59750001D02*
X149099999Y-62140001D01*
X149099999Y-62140001D02*
X150099999Y-63140001D01*
X151640000Y-59400000D02*
X149450000Y-59400000D01*
X152740000Y-60500000D02*
X151640000Y-59400000D01*
X156000000Y-71965000D02*
X156000000Y-72180000D01*
X156000000Y-72180000D02*
X155849999Y-72330001D01*
X155849999Y-72330001D02*
X155849999Y-73577793D01*
X155849999Y-73577793D02*
X156372207Y-74100001D01*
X152740000Y-60500000D02*
X153651998Y-60500000D01*
X154751999Y-61600001D02*
X162439999Y-61600001D01*
X153651998Y-60500000D02*
X154751999Y-61600001D01*
X162439999Y-61600001D02*
X166150001Y-57889999D01*
X166150001Y-57889999D02*
X167000000Y-57040000D01*
X151000000Y-72350000D02*
X151000000Y-73200000D01*
X151000000Y-73200000D02*
X151150001Y-73350001D01*
X151150001Y-73350001D02*
X154364999Y-73350001D01*
X155750000Y-71965000D02*
X156000000Y-71965000D01*
X154364999Y-73350001D02*
X155750000Y-71965000D01*
X151000000Y-72350000D02*
X151000000Y-71500000D01*
X151000000Y-71500000D02*
X150099999Y-70599999D01*
X150099999Y-70599999D02*
X150099999Y-63140001D01*
X146999981Y-73225021D02*
X147875002Y-72350000D01*
X147875002Y-72350000D02*
X151000000Y-72350000D01*
X142774981Y-71874981D02*
X144125021Y-73225021D01*
X144125021Y-73225021D02*
X146999981Y-73225021D01*
X139243724Y-67770000D02*
X142774981Y-71301257D01*
X142774981Y-71301257D02*
X142774981Y-71874981D01*
X138040000Y-67770000D02*
X139243724Y-67770000D01*
X147950000Y-69750000D02*
X148475000Y-69750000D01*
X145221500Y-60450492D02*
X145221500Y-60026228D01*
X149000000Y-63624278D02*
X147275733Y-61900011D01*
X148475000Y-69750000D02*
X149000000Y-69225000D01*
X147275733Y-61900011D02*
X146485731Y-61900011D01*
X146485731Y-61900011D02*
X145221500Y-60635780D01*
X145221500Y-60635780D02*
X145221500Y-60450492D01*
X149000000Y-69225000D02*
X149000000Y-63624278D01*
X146021059Y-60423584D02*
X146021059Y-59999320D01*
X146021059Y-61011061D02*
X146021059Y-60423584D01*
X147400001Y-61600001D02*
X146609999Y-61600001D01*
X149300010Y-69424990D02*
X149300010Y-63500010D01*
X147950000Y-70250000D02*
X148475000Y-70250000D01*
X149300010Y-63500010D02*
X147400001Y-61600001D01*
X146609999Y-61600001D02*
X146021059Y-61011061D01*
X148475000Y-70250000D02*
X149300010Y-69424990D01*
X155035000Y-71000000D02*
X155035000Y-71404749D01*
X155035000Y-71404749D02*
X155283716Y-71653465D01*
X135500000Y-56500000D02*
X141700002Y-56500000D01*
X141700002Y-56500000D02*
X142000000Y-56799998D01*
X157000000Y-68035000D02*
X157000000Y-67569998D01*
X157000000Y-67569998D02*
X157769998Y-66800000D01*
X157769998Y-66800000D02*
X160000000Y-66800000D01*
X160000000Y-66800000D02*
X161000000Y-67800000D01*
X161000000Y-67800000D02*
X161000000Y-70500000D01*
X161000000Y-70500000D02*
X162000000Y-71500000D01*
X139500000Y-73550000D02*
X140846211Y-74896211D01*
X140846211Y-74896211D02*
X156450000Y-74896211D01*
X161450000Y-65500000D02*
X164250000Y-65500000D01*
X164250000Y-65500000D02*
X164300000Y-65550000D01*
X164300000Y-65550000D02*
X164300000Y-66500000D01*
X156500000Y-67569998D02*
X158569998Y-65500000D01*
X158569998Y-65500000D02*
X159000000Y-65500000D01*
X156500000Y-68035000D02*
X156500000Y-67569998D01*
X163350000Y-66500000D02*
X164300000Y-66500000D01*
X144650000Y-66000000D02*
X144750000Y-66000000D01*
X144750000Y-66000000D02*
X146250000Y-67500000D01*
X146250000Y-67500000D02*
X146250000Y-67525000D01*
X146250000Y-67525000D02*
X146250000Y-68050000D01*
X145650000Y-57975318D02*
X145075327Y-58549991D01*
X145650000Y-56500000D02*
X145650000Y-57975318D01*
X145075327Y-58549991D02*
X144574273Y-58549991D01*
X144574273Y-58549991D02*
X144424264Y-58700000D01*
X144424264Y-58700000D02*
X144000000Y-58700000D01*
X165200019Y-77100019D02*
X160637460Y-77100018D01*
X160637460Y-77100018D02*
X157000000Y-73462558D01*
X157000000Y-73462558D02*
X157000000Y-72430000D01*
X157000000Y-72430000D02*
X157000000Y-71965000D01*
X165398316Y-81949980D02*
X165398316Y-77298316D01*
X165398316Y-77298316D02*
X165200019Y-77100019D01*
X160101464Y-81949980D02*
X165398316Y-81949980D01*
X142750000Y-86000000D02*
X145050010Y-83699990D01*
X158351454Y-83699990D02*
X160101464Y-81949980D01*
X145050010Y-83699990D02*
X158351454Y-83699990D01*
X136025000Y-88750000D02*
X136900000Y-88750000D01*
X136900000Y-88750000D02*
X143975000Y-88750000D01*
X143250000Y-88750000D02*
X143975000Y-88750000D01*
X136025000Y-88750000D02*
X136150000Y-88750000D01*
X143975000Y-88750000D02*
X143975000Y-87225000D01*
X143975000Y-87225000D02*
X142750000Y-86000000D01*
X142750000Y-86000000D02*
X142650000Y-86000000D01*
X165698327Y-77148327D02*
X165350010Y-76800010D01*
X165350010Y-76800010D02*
X160761729Y-76800009D01*
X157500000Y-73538280D02*
X157500000Y-72430000D01*
X160761729Y-76800009D02*
X157500000Y-73538280D01*
X157500000Y-72430000D02*
X157500000Y-71965000D01*
X165698327Y-82074248D02*
X165698327Y-77148327D01*
X160225732Y-82249991D02*
X165522584Y-82249991D01*
X151100000Y-86000000D02*
X153099999Y-84000001D01*
X158475722Y-84000001D02*
X160225732Y-82249991D01*
X153099999Y-84000001D02*
X158475722Y-84000001D01*
X165522584Y-82249991D02*
X165698327Y-82074248D01*
X150250000Y-86000000D02*
X151100000Y-86000000D01*
X147525000Y-88750000D02*
X147650000Y-88750000D01*
X147650000Y-88750000D02*
X150250000Y-86150000D01*
X150250000Y-86150000D02*
X150250000Y-86000000D01*
X147525000Y-88750000D02*
X148400000Y-88750000D01*
X148400000Y-88750000D02*
X155475000Y-88750000D01*
X165500000Y-76500000D02*
X165998338Y-76998338D01*
X165998338Y-76998338D02*
X165998338Y-82198516D01*
X160885998Y-76500000D02*
X165500000Y-76500000D01*
X158000000Y-71965000D02*
X158000000Y-73614002D01*
X158000000Y-73614002D02*
X160885998Y-76500000D01*
X165646852Y-82550002D02*
X165998338Y-82198516D01*
X160349998Y-82550002D02*
X165646852Y-82550002D01*
X157650000Y-85250000D02*
X160349998Y-82550002D01*
X157650000Y-86000000D02*
X157650000Y-85250000D01*
X159025000Y-88750000D02*
X159900000Y-88750000D01*
X159900000Y-88750000D02*
X166975000Y-88750000D01*
X166725000Y-89000000D02*
X166975000Y-88750000D01*
X159025000Y-88750000D02*
X159025000Y-87275000D01*
X159025000Y-87275000D02*
X157750000Y-86000000D01*
X157750000Y-86000000D02*
X157650000Y-86000000D01*
X143074990Y-71724270D02*
X144275731Y-72925011D01*
X144275731Y-72925011D02*
X145299991Y-72925011D01*
X145299991Y-72925011D02*
X145750000Y-72475000D01*
X145750000Y-72475000D02*
X145750000Y-71950000D01*
X135500000Y-70310000D02*
X136900011Y-68909989D01*
X136900011Y-68909989D02*
X136900011Y-66941989D01*
X136900011Y-66941989D02*
X137172001Y-66669999D01*
X137172001Y-66669999D02*
X138568001Y-66669999D01*
X138568001Y-66669999D02*
X143074989Y-71176987D01*
X143074989Y-71176987D02*
X143074990Y-71724270D01*
X138040000Y-62690000D02*
X143374999Y-68024999D01*
X143374999Y-68024999D02*
X143374999Y-71600001D01*
X143374999Y-71600001D02*
X144399999Y-72625001D01*
X144399999Y-72625001D02*
X145100001Y-72625001D01*
X145100001Y-72625001D02*
X145250000Y-72475000D01*
X145250000Y-72475000D02*
X145250000Y-71950000D01*
X143075733Y-59600011D02*
X142875721Y-59399999D01*
X142875721Y-59399999D02*
X138850001Y-59399999D01*
X145073876Y-59399999D02*
X144873865Y-59600011D01*
X149025723Y-59399999D02*
X145073876Y-59399999D01*
X153829991Y-59049991D02*
X149375731Y-59049991D01*
X149375731Y-59049991D02*
X149025723Y-59399999D01*
X138850001Y-59399999D02*
X138010001Y-60239999D01*
X144873865Y-59600011D02*
X143075733Y-59600011D01*
X141400000Y-57850000D02*
X140400000Y-57850000D01*
X155280000Y-60500000D02*
X153829991Y-59049991D01*
X140400000Y-57850000D02*
X138010001Y-60239999D01*
X163000000Y-70500000D02*
X163000000Y-70500998D01*
X163675001Y-74175001D02*
X164000000Y-74500000D01*
X163000000Y-70500998D02*
X163675001Y-71175999D01*
X163675001Y-71175999D02*
X163675001Y-74175001D01*
X167500000Y-72500000D02*
X168100001Y-71899999D01*
X167000000Y-55450000D02*
X167000000Y-54500000D01*
X168100001Y-71899999D02*
X168100001Y-56550001D01*
X168100001Y-56550001D02*
X167000000Y-55450000D01*
X164175001Y-74324999D02*
X164000000Y-74500000D01*
X155280000Y-60500000D02*
X161950000Y-60500000D01*
X161950000Y-60500000D02*
X167000000Y-55450000D01*
X155035000Y-69000000D02*
X154570000Y-69000000D01*
X154570000Y-69000000D02*
X154269999Y-68699999D01*
X154269999Y-68699999D02*
X153900001Y-68699999D01*
X153900001Y-70599999D02*
X153900001Y-68699999D01*
X153300000Y-68099998D02*
X153300000Y-62200000D01*
X153000000Y-72350000D02*
X153000000Y-71500000D01*
X153000000Y-71500000D02*
X153900001Y-70599999D01*
X153900001Y-68699999D02*
X153300000Y-68099998D01*
X138010001Y-60239999D02*
X136939999Y-60239999D01*
X135200000Y-57850000D02*
X135200000Y-58500000D01*
X135200000Y-58500000D02*
X136939999Y-60239999D01*
X136939999Y-60239999D02*
X136939999Y-64129999D01*
X136939999Y-64129999D02*
X137190001Y-64380001D01*
X137190001Y-64380001D02*
X138040000Y-65230000D01*
D31*
G36*
X151326628Y-84804636D02*
X151251890Y-84753569D01*
X151000000Y-84702560D01*
X149500000Y-84702560D01*
X149264683Y-84746838D01*
X149048559Y-84885910D01*
X148903569Y-85098110D01*
X148852560Y-85350000D01*
X148852560Y-86578704D01*
X147978704Y-87452560D01*
X146750000Y-87452560D01*
X146514683Y-87496838D01*
X146298559Y-87635910D01*
X146153569Y-87848110D01*
X146102560Y-88100000D01*
X146102560Y-89400000D01*
X146146838Y-89635317D01*
X146285910Y-89851441D01*
X146498110Y-89996431D01*
X146750000Y-90047440D01*
X148300000Y-90047440D01*
X148535317Y-90003162D01*
X148751441Y-89864090D01*
X148896431Y-89651890D01*
X148940352Y-89435000D01*
X154059146Y-89435000D01*
X154096838Y-89635317D01*
X154235910Y-89851441D01*
X154448110Y-89996431D01*
X154700000Y-90047440D01*
X156250000Y-90047440D01*
X156485317Y-90003162D01*
X156701441Y-89864090D01*
X156846431Y-89651890D01*
X156897440Y-89400000D01*
X156897440Y-88100000D01*
X156853162Y-87864683D01*
X156714090Y-87648559D01*
X156501890Y-87503569D01*
X156250000Y-87452560D01*
X154700000Y-87452560D01*
X154464683Y-87496838D01*
X154248559Y-87635910D01*
X154103569Y-87848110D01*
X154059648Y-88065000D01*
X149303736Y-88065000D01*
X150071296Y-87297440D01*
X151000000Y-87297440D01*
X151235317Y-87253162D01*
X151451441Y-87114090D01*
X151596431Y-86901890D01*
X151599081Y-86888803D01*
X151735910Y-87101441D01*
X151948110Y-87246431D01*
X152200000Y-87297440D01*
X153700000Y-87297440D01*
X153935317Y-87253162D01*
X154151441Y-87114090D01*
X154296431Y-86901890D01*
X154347440Y-86650000D01*
X154347440Y-86575860D01*
X154484368Y-86484368D01*
X155033706Y-85935030D01*
X155185167Y-85935162D01*
X155528943Y-85793117D01*
X155792192Y-85530327D01*
X155934838Y-85186799D01*
X155935162Y-84814833D01*
X155881517Y-84685001D01*
X157246263Y-84685001D01*
X157228704Y-84702560D01*
X156900000Y-84702560D01*
X156664683Y-84746838D01*
X156448559Y-84885910D01*
X156303569Y-85098110D01*
X156252560Y-85350000D01*
X156252560Y-86650000D01*
X156296838Y-86885317D01*
X156435910Y-87101441D01*
X156648110Y-87246431D01*
X156900000Y-87297440D01*
X158078704Y-87297440D01*
X158236386Y-87455122D01*
X158014683Y-87496838D01*
X157798559Y-87635910D01*
X157653569Y-87848110D01*
X157602560Y-88100000D01*
X157602560Y-89400000D01*
X157646838Y-89635317D01*
X157785910Y-89851441D01*
X157998110Y-89996431D01*
X158250000Y-90047440D01*
X159800000Y-90047440D01*
X160035317Y-90003162D01*
X160251441Y-89864090D01*
X160396431Y-89651890D01*
X160440352Y-89435000D01*
X165559146Y-89435000D01*
X165596838Y-89635317D01*
X165735910Y-89851441D01*
X165948110Y-89996431D01*
X166200000Y-90047440D01*
X167750000Y-90047440D01*
X167985317Y-90003162D01*
X168201441Y-89864090D01*
X168315000Y-89697891D01*
X168315000Y-92304695D01*
X168288327Y-92240301D01*
X168109698Y-92061673D01*
X167876309Y-91965000D01*
X167260750Y-91965000D01*
X167102000Y-92123750D01*
X167102000Y-93123000D01*
X167122000Y-93123000D01*
X167122000Y-93377000D01*
X167102000Y-93377000D01*
X167102000Y-94376250D01*
X167260750Y-94535000D01*
X167876309Y-94535000D01*
X168109698Y-94438327D01*
X168288327Y-94259699D01*
X168315000Y-94195305D01*
X168315000Y-95315000D01*
X134685000Y-95315000D01*
X134685000Y-94195305D01*
X134711673Y-94259699D01*
X134890302Y-94438327D01*
X135123691Y-94535000D01*
X135739250Y-94535000D01*
X135898000Y-94376250D01*
X135898000Y-93377000D01*
X136152000Y-93377000D01*
X136152000Y-94376250D01*
X136310750Y-94535000D01*
X136926309Y-94535000D01*
X137159698Y-94438327D01*
X137338327Y-94259699D01*
X137435000Y-94026310D01*
X137435000Y-93535750D01*
X142565000Y-93535750D01*
X142565000Y-94026310D01*
X142661673Y-94259699D01*
X142840302Y-94438327D01*
X143073691Y-94535000D01*
X143689250Y-94535000D01*
X143848000Y-94376250D01*
X143848000Y-93377000D01*
X144102000Y-93377000D01*
X144102000Y-94376250D01*
X144260750Y-94535000D01*
X144876309Y-94535000D01*
X145109698Y-94438327D01*
X145288327Y-94259699D01*
X145385000Y-94026310D01*
X145385000Y-93535750D01*
X146115000Y-93535750D01*
X146115000Y-94026310D01*
X146211673Y-94259699D01*
X146390302Y-94438327D01*
X146623691Y-94535000D01*
X147239250Y-94535000D01*
X147398000Y-94376250D01*
X147398000Y-93377000D01*
X147652000Y-93377000D01*
X147652000Y-94376250D01*
X147810750Y-94535000D01*
X148426309Y-94535000D01*
X148659698Y-94438327D01*
X148838327Y-94259699D01*
X148935000Y-94026310D01*
X148935000Y-93535750D01*
X154065000Y-93535750D01*
X154065000Y-94026310D01*
X154161673Y-94259699D01*
X154340302Y-94438327D01*
X154573691Y-94535000D01*
X155189250Y-94535000D01*
X155348000Y-94376250D01*
X155348000Y-93377000D01*
X155602000Y-93377000D01*
X155602000Y-94376250D01*
X155760750Y-94535000D01*
X156376309Y-94535000D01*
X156609698Y-94438327D01*
X156788327Y-94259699D01*
X156885000Y-94026310D01*
X156885000Y-93535750D01*
X157615000Y-93535750D01*
X157615000Y-94026310D01*
X157711673Y-94259699D01*
X157890302Y-94438327D01*
X158123691Y-94535000D01*
X158739250Y-94535000D01*
X158898000Y-94376250D01*
X158898000Y-93377000D01*
X159152000Y-93377000D01*
X159152000Y-94376250D01*
X159310750Y-94535000D01*
X159926309Y-94535000D01*
X160159698Y-94438327D01*
X160338327Y-94259699D01*
X160435000Y-94026310D01*
X160435000Y-93535750D01*
X165565000Y-93535750D01*
X165565000Y-94026310D01*
X165661673Y-94259699D01*
X165840302Y-94438327D01*
X166073691Y-94535000D01*
X166689250Y-94535000D01*
X166848000Y-94376250D01*
X166848000Y-93377000D01*
X165723750Y-93377000D01*
X165565000Y-93535750D01*
X160435000Y-93535750D01*
X160276250Y-93377000D01*
X159152000Y-93377000D01*
X158898000Y-93377000D01*
X157773750Y-93377000D01*
X157615000Y-93535750D01*
X156885000Y-93535750D01*
X156726250Y-93377000D01*
X155602000Y-93377000D01*
X155348000Y-93377000D01*
X154223750Y-93377000D01*
X154065000Y-93535750D01*
X148935000Y-93535750D01*
X148776250Y-93377000D01*
X147652000Y-93377000D01*
X147398000Y-93377000D01*
X146273750Y-93377000D01*
X146115000Y-93535750D01*
X145385000Y-93535750D01*
X145226250Y-93377000D01*
X144102000Y-93377000D01*
X143848000Y-93377000D01*
X142723750Y-93377000D01*
X142565000Y-93535750D01*
X137435000Y-93535750D01*
X137276250Y-93377000D01*
X136152000Y-93377000D01*
X135898000Y-93377000D01*
X135878000Y-93377000D01*
X135878000Y-93123000D01*
X135898000Y-93123000D01*
X135898000Y-92123750D01*
X136152000Y-92123750D01*
X136152000Y-93123000D01*
X137276250Y-93123000D01*
X137435000Y-92964250D01*
X137435000Y-92473690D01*
X142565000Y-92473690D01*
X142565000Y-92964250D01*
X142723750Y-93123000D01*
X143848000Y-93123000D01*
X143848000Y-92123750D01*
X144102000Y-92123750D01*
X144102000Y-93123000D01*
X145226250Y-93123000D01*
X145385000Y-92964250D01*
X145385000Y-92473690D01*
X146115000Y-92473690D01*
X146115000Y-92964250D01*
X146273750Y-93123000D01*
X147398000Y-93123000D01*
X147398000Y-92123750D01*
X147652000Y-92123750D01*
X147652000Y-93123000D01*
X148776250Y-93123000D01*
X148935000Y-92964250D01*
X148935000Y-92473690D01*
X154065000Y-92473690D01*
X154065000Y-92964250D01*
X154223750Y-93123000D01*
X155348000Y-93123000D01*
X155348000Y-92123750D01*
X155602000Y-92123750D01*
X155602000Y-93123000D01*
X156726250Y-93123000D01*
X156885000Y-92964250D01*
X156885000Y-92473690D01*
X157615000Y-92473690D01*
X157615000Y-92964250D01*
X157773750Y-93123000D01*
X158898000Y-93123000D01*
X158898000Y-92123750D01*
X159152000Y-92123750D01*
X159152000Y-93123000D01*
X160276250Y-93123000D01*
X160435000Y-92964250D01*
X160435000Y-92473690D01*
X165565000Y-92473690D01*
X165565000Y-92964250D01*
X165723750Y-93123000D01*
X166848000Y-93123000D01*
X166848000Y-92123750D01*
X166689250Y-91965000D01*
X166073691Y-91965000D01*
X165840302Y-92061673D01*
X165661673Y-92240301D01*
X165565000Y-92473690D01*
X160435000Y-92473690D01*
X160338327Y-92240301D01*
X160159698Y-92061673D01*
X159926309Y-91965000D01*
X159310750Y-91965000D01*
X159152000Y-92123750D01*
X158898000Y-92123750D01*
X158739250Y-91965000D01*
X158123691Y-91965000D01*
X157890302Y-92061673D01*
X157711673Y-92240301D01*
X157615000Y-92473690D01*
X156885000Y-92473690D01*
X156788327Y-92240301D01*
X156609698Y-92061673D01*
X156376309Y-91965000D01*
X155760750Y-91965000D01*
X155602000Y-92123750D01*
X155348000Y-92123750D01*
X155189250Y-91965000D01*
X154573691Y-91965000D01*
X154340302Y-92061673D01*
X154161673Y-92240301D01*
X154065000Y-92473690D01*
X148935000Y-92473690D01*
X148838327Y-92240301D01*
X148659698Y-92061673D01*
X148426309Y-91965000D01*
X147810750Y-91965000D01*
X147652000Y-92123750D01*
X147398000Y-92123750D01*
X147239250Y-91965000D01*
X146623691Y-91965000D01*
X146390302Y-92061673D01*
X146211673Y-92240301D01*
X146115000Y-92473690D01*
X145385000Y-92473690D01*
X145288327Y-92240301D01*
X145109698Y-92061673D01*
X144876309Y-91965000D01*
X144260750Y-91965000D01*
X144102000Y-92123750D01*
X143848000Y-92123750D01*
X143689250Y-91965000D01*
X143073691Y-91965000D01*
X142840302Y-92061673D01*
X142661673Y-92240301D01*
X142565000Y-92473690D01*
X137435000Y-92473690D01*
X137338327Y-92240301D01*
X137159698Y-92061673D01*
X136926309Y-91965000D01*
X136310750Y-91965000D01*
X136152000Y-92123750D01*
X135898000Y-92123750D01*
X135739250Y-91965000D01*
X135123691Y-91965000D01*
X134890302Y-92061673D01*
X134711673Y-92240301D01*
X134685000Y-92304695D01*
X134685000Y-89694622D01*
X134785910Y-89851441D01*
X134998110Y-89996431D01*
X135250000Y-90047440D01*
X136800000Y-90047440D01*
X137035317Y-90003162D01*
X137251441Y-89864090D01*
X137396431Y-89651890D01*
X137440352Y-89435000D01*
X142559146Y-89435000D01*
X142596838Y-89635317D01*
X142735910Y-89851441D01*
X142948110Y-89996431D01*
X143200000Y-90047440D01*
X144750000Y-90047440D01*
X144985317Y-90003162D01*
X145201441Y-89864090D01*
X145346431Y-89651890D01*
X145397440Y-89400000D01*
X145397440Y-88100000D01*
X145353162Y-87864683D01*
X145214090Y-87648559D01*
X145001890Y-87503569D01*
X144750000Y-87452560D01*
X144660000Y-87452560D01*
X144660000Y-87297440D01*
X146100000Y-87297440D01*
X146335317Y-87253162D01*
X146551441Y-87114090D01*
X146696431Y-86901890D01*
X146747440Y-86650000D01*
X146747440Y-85907532D01*
X146813201Y-85934838D01*
X147185167Y-85935162D01*
X147528943Y-85793117D01*
X147792192Y-85530327D01*
X147934838Y-85186799D01*
X147935162Y-84814833D01*
X147793117Y-84471057D01*
X147707200Y-84384990D01*
X151746274Y-84384990D01*
X151326628Y-84804636D01*
X151326628Y-84804636D01*
G37*
X151326628Y-84804636D02*
X151251890Y-84753569D01*
X151000000Y-84702560D01*
X149500000Y-84702560D01*
X149264683Y-84746838D01*
X149048559Y-84885910D01*
X148903569Y-85098110D01*
X148852560Y-85350000D01*
X148852560Y-86578704D01*
X147978704Y-87452560D01*
X146750000Y-87452560D01*
X146514683Y-87496838D01*
X146298559Y-87635910D01*
X146153569Y-87848110D01*
X146102560Y-88100000D01*
X146102560Y-89400000D01*
X146146838Y-89635317D01*
X146285910Y-89851441D01*
X146498110Y-89996431D01*
X146750000Y-90047440D01*
X148300000Y-90047440D01*
X148535317Y-90003162D01*
X148751441Y-89864090D01*
X148896431Y-89651890D01*
X148940352Y-89435000D01*
X154059146Y-89435000D01*
X154096838Y-89635317D01*
X154235910Y-89851441D01*
X154448110Y-89996431D01*
X154700000Y-90047440D01*
X156250000Y-90047440D01*
X156485317Y-90003162D01*
X156701441Y-89864090D01*
X156846431Y-89651890D01*
X156897440Y-89400000D01*
X156897440Y-88100000D01*
X156853162Y-87864683D01*
X156714090Y-87648559D01*
X156501890Y-87503569D01*
X156250000Y-87452560D01*
X154700000Y-87452560D01*
X154464683Y-87496838D01*
X154248559Y-87635910D01*
X154103569Y-87848110D01*
X154059648Y-88065000D01*
X149303736Y-88065000D01*
X150071296Y-87297440D01*
X151000000Y-87297440D01*
X151235317Y-87253162D01*
X151451441Y-87114090D01*
X151596431Y-86901890D01*
X151599081Y-86888803D01*
X151735910Y-87101441D01*
X151948110Y-87246431D01*
X152200000Y-87297440D01*
X153700000Y-87297440D01*
X153935317Y-87253162D01*
X154151441Y-87114090D01*
X154296431Y-86901890D01*
X154347440Y-86650000D01*
X154347440Y-86575860D01*
X154484368Y-86484368D01*
X155033706Y-85935030D01*
X155185167Y-85935162D01*
X155528943Y-85793117D01*
X155792192Y-85530327D01*
X155934838Y-85186799D01*
X155935162Y-84814833D01*
X155881517Y-84685001D01*
X157246263Y-84685001D01*
X157228704Y-84702560D01*
X156900000Y-84702560D01*
X156664683Y-84746838D01*
X156448559Y-84885910D01*
X156303569Y-85098110D01*
X156252560Y-85350000D01*
X156252560Y-86650000D01*
X156296838Y-86885317D01*
X156435910Y-87101441D01*
X156648110Y-87246431D01*
X156900000Y-87297440D01*
X158078704Y-87297440D01*
X158236386Y-87455122D01*
X158014683Y-87496838D01*
X157798559Y-87635910D01*
X157653569Y-87848110D01*
X157602560Y-88100000D01*
X157602560Y-89400000D01*
X157646838Y-89635317D01*
X157785910Y-89851441D01*
X157998110Y-89996431D01*
X158250000Y-90047440D01*
X159800000Y-90047440D01*
X160035317Y-90003162D01*
X160251441Y-89864090D01*
X160396431Y-89651890D01*
X160440352Y-89435000D01*
X165559146Y-89435000D01*
X165596838Y-89635317D01*
X165735910Y-89851441D01*
X165948110Y-89996431D01*
X166200000Y-90047440D01*
X167750000Y-90047440D01*
X167985317Y-90003162D01*
X168201441Y-89864090D01*
X168315000Y-89697891D01*
X168315000Y-92304695D01*
X168288327Y-92240301D01*
X168109698Y-92061673D01*
X167876309Y-91965000D01*
X167260750Y-91965000D01*
X167102000Y-92123750D01*
X167102000Y-93123000D01*
X167122000Y-93123000D01*
X167122000Y-93377000D01*
X167102000Y-93377000D01*
X167102000Y-94376250D01*
X167260750Y-94535000D01*
X167876309Y-94535000D01*
X168109698Y-94438327D01*
X168288327Y-94259699D01*
X168315000Y-94195305D01*
X168315000Y-95315000D01*
X134685000Y-95315000D01*
X134685000Y-94195305D01*
X134711673Y-94259699D01*
X134890302Y-94438327D01*
X135123691Y-94535000D01*
X135739250Y-94535000D01*
X135898000Y-94376250D01*
X135898000Y-93377000D01*
X136152000Y-93377000D01*
X136152000Y-94376250D01*
X136310750Y-94535000D01*
X136926309Y-94535000D01*
X137159698Y-94438327D01*
X137338327Y-94259699D01*
X137435000Y-94026310D01*
X137435000Y-93535750D01*
X142565000Y-93535750D01*
X142565000Y-94026310D01*
X142661673Y-94259699D01*
X142840302Y-94438327D01*
X143073691Y-94535000D01*
X143689250Y-94535000D01*
X143848000Y-94376250D01*
X143848000Y-93377000D01*
X144102000Y-93377000D01*
X144102000Y-94376250D01*
X144260750Y-94535000D01*
X144876309Y-94535000D01*
X145109698Y-94438327D01*
X145288327Y-94259699D01*
X145385000Y-94026310D01*
X145385000Y-93535750D01*
X146115000Y-93535750D01*
X146115000Y-94026310D01*
X146211673Y-94259699D01*
X146390302Y-94438327D01*
X146623691Y-94535000D01*
X147239250Y-94535000D01*
X147398000Y-94376250D01*
X147398000Y-93377000D01*
X147652000Y-93377000D01*
X147652000Y-94376250D01*
X147810750Y-94535000D01*
X148426309Y-94535000D01*
X148659698Y-94438327D01*
X148838327Y-94259699D01*
X148935000Y-94026310D01*
X148935000Y-93535750D01*
X154065000Y-93535750D01*
X154065000Y-94026310D01*
X154161673Y-94259699D01*
X154340302Y-94438327D01*
X154573691Y-94535000D01*
X155189250Y-94535000D01*
X155348000Y-94376250D01*
X155348000Y-93377000D01*
X155602000Y-93377000D01*
X155602000Y-94376250D01*
X155760750Y-94535000D01*
X156376309Y-94535000D01*
X156609698Y-94438327D01*
X156788327Y-94259699D01*
X156885000Y-94026310D01*
X156885000Y-93535750D01*
X157615000Y-93535750D01*
X157615000Y-94026310D01*
X157711673Y-94259699D01*
X157890302Y-94438327D01*
X158123691Y-94535000D01*
X158739250Y-94535000D01*
X158898000Y-94376250D01*
X158898000Y-93377000D01*
X159152000Y-93377000D01*
X159152000Y-94376250D01*
X159310750Y-94535000D01*
X159926309Y-94535000D01*
X160159698Y-94438327D01*
X160338327Y-94259699D01*
X160435000Y-94026310D01*
X160435000Y-93535750D01*
X165565000Y-93535750D01*
X165565000Y-94026310D01*
X165661673Y-94259699D01*
X165840302Y-94438327D01*
X166073691Y-94535000D01*
X166689250Y-94535000D01*
X166848000Y-94376250D01*
X166848000Y-93377000D01*
X165723750Y-93377000D01*
X165565000Y-93535750D01*
X160435000Y-93535750D01*
X160276250Y-93377000D01*
X159152000Y-93377000D01*
X158898000Y-93377000D01*
X157773750Y-93377000D01*
X157615000Y-93535750D01*
X156885000Y-93535750D01*
X156726250Y-93377000D01*
X155602000Y-93377000D01*
X155348000Y-93377000D01*
X154223750Y-93377000D01*
X154065000Y-93535750D01*
X148935000Y-93535750D01*
X148776250Y-93377000D01*
X147652000Y-93377000D01*
X147398000Y-93377000D01*
X146273750Y-93377000D01*
X146115000Y-93535750D01*
X145385000Y-93535750D01*
X145226250Y-93377000D01*
X144102000Y-93377000D01*
X143848000Y-93377000D01*
X142723750Y-93377000D01*
X142565000Y-93535750D01*
X137435000Y-93535750D01*
X137276250Y-93377000D01*
X136152000Y-93377000D01*
X135898000Y-93377000D01*
X135878000Y-93377000D01*
X135878000Y-93123000D01*
X135898000Y-93123000D01*
X135898000Y-92123750D01*
X136152000Y-92123750D01*
X136152000Y-93123000D01*
X137276250Y-93123000D01*
X137435000Y-92964250D01*
X137435000Y-92473690D01*
X142565000Y-92473690D01*
X142565000Y-92964250D01*
X142723750Y-93123000D01*
X143848000Y-93123000D01*
X143848000Y-92123750D01*
X144102000Y-92123750D01*
X144102000Y-93123000D01*
X145226250Y-93123000D01*
X145385000Y-92964250D01*
X145385000Y-92473690D01*
X146115000Y-92473690D01*
X146115000Y-92964250D01*
X146273750Y-93123000D01*
X147398000Y-93123000D01*
X147398000Y-92123750D01*
X147652000Y-92123750D01*
X147652000Y-93123000D01*
X148776250Y-93123000D01*
X148935000Y-92964250D01*
X148935000Y-92473690D01*
X154065000Y-92473690D01*
X154065000Y-92964250D01*
X154223750Y-93123000D01*
X155348000Y-93123000D01*
X155348000Y-92123750D01*
X155602000Y-92123750D01*
X155602000Y-93123000D01*
X156726250Y-93123000D01*
X156885000Y-92964250D01*
X156885000Y-92473690D01*
X157615000Y-92473690D01*
X157615000Y-92964250D01*
X157773750Y-93123000D01*
X158898000Y-93123000D01*
X158898000Y-92123750D01*
X159152000Y-92123750D01*
X159152000Y-93123000D01*
X160276250Y-93123000D01*
X160435000Y-92964250D01*
X160435000Y-92473690D01*
X165565000Y-92473690D01*
X165565000Y-92964250D01*
X165723750Y-93123000D01*
X166848000Y-93123000D01*
X166848000Y-92123750D01*
X166689250Y-91965000D01*
X166073691Y-91965000D01*
X165840302Y-92061673D01*
X165661673Y-92240301D01*
X165565000Y-92473690D01*
X160435000Y-92473690D01*
X160338327Y-92240301D01*
X160159698Y-92061673D01*
X159926309Y-91965000D01*
X159310750Y-91965000D01*
X159152000Y-92123750D01*
X158898000Y-92123750D01*
X158739250Y-91965000D01*
X158123691Y-91965000D01*
X157890302Y-92061673D01*
X157711673Y-92240301D01*
X157615000Y-92473690D01*
X156885000Y-92473690D01*
X156788327Y-92240301D01*
X156609698Y-92061673D01*
X156376309Y-91965000D01*
X155760750Y-91965000D01*
X155602000Y-92123750D01*
X155348000Y-92123750D01*
X155189250Y-91965000D01*
X154573691Y-91965000D01*
X154340302Y-92061673D01*
X154161673Y-92240301D01*
X154065000Y-92473690D01*
X148935000Y-92473690D01*
X148838327Y-92240301D01*
X148659698Y-92061673D01*
X148426309Y-91965000D01*
X147810750Y-91965000D01*
X147652000Y-92123750D01*
X147398000Y-92123750D01*
X147239250Y-91965000D01*
X146623691Y-91965000D01*
X146390302Y-92061673D01*
X146211673Y-92240301D01*
X146115000Y-92473690D01*
X145385000Y-92473690D01*
X145288327Y-92240301D01*
X145109698Y-92061673D01*
X144876309Y-91965000D01*
X144260750Y-91965000D01*
X144102000Y-92123750D01*
X143848000Y-92123750D01*
X143689250Y-91965000D01*
X143073691Y-91965000D01*
X142840302Y-92061673D01*
X142661673Y-92240301D01*
X142565000Y-92473690D01*
X137435000Y-92473690D01*
X137338327Y-92240301D01*
X137159698Y-92061673D01*
X136926309Y-91965000D01*
X136310750Y-91965000D01*
X136152000Y-92123750D01*
X135898000Y-92123750D01*
X135739250Y-91965000D01*
X135123691Y-91965000D01*
X134890302Y-92061673D01*
X134711673Y-92240301D01*
X134685000Y-92304695D01*
X134685000Y-89694622D01*
X134785910Y-89851441D01*
X134998110Y-89996431D01*
X135250000Y-90047440D01*
X136800000Y-90047440D01*
X137035317Y-90003162D01*
X137251441Y-89864090D01*
X137396431Y-89651890D01*
X137440352Y-89435000D01*
X142559146Y-89435000D01*
X142596838Y-89635317D01*
X142735910Y-89851441D01*
X142948110Y-89996431D01*
X143200000Y-90047440D01*
X144750000Y-90047440D01*
X144985317Y-90003162D01*
X145201441Y-89864090D01*
X145346431Y-89651890D01*
X145397440Y-89400000D01*
X145397440Y-88100000D01*
X145353162Y-87864683D01*
X145214090Y-87648559D01*
X145001890Y-87503569D01*
X144750000Y-87452560D01*
X144660000Y-87452560D01*
X144660000Y-87297440D01*
X146100000Y-87297440D01*
X146335317Y-87253162D01*
X146551441Y-87114090D01*
X146696431Y-86901890D01*
X146747440Y-86650000D01*
X146747440Y-85907532D01*
X146813201Y-85934838D01*
X147185167Y-85935162D01*
X147528943Y-85793117D01*
X147792192Y-85530327D01*
X147934838Y-85186799D01*
X147935162Y-84814833D01*
X147793117Y-84471057D01*
X147707200Y-84384990D01*
X151746274Y-84384990D01*
X151326628Y-84804636D01*
G36*
X165679845Y-59453000D02*
X166873000Y-59453000D01*
X166873000Y-59433000D01*
X167127000Y-59433000D01*
X167127000Y-59453000D01*
X167147000Y-59453000D01*
X167147000Y-59707000D01*
X167127000Y-59707000D01*
X167127000Y-59727000D01*
X166873000Y-59727000D01*
X166873000Y-59707000D01*
X165679845Y-59707000D01*
X165558524Y-59936890D01*
X165728355Y-60346924D01*
X166118642Y-60775183D01*
X166261553Y-60842298D01*
X165920853Y-61069946D01*
X165598946Y-61551715D01*
X165485907Y-62120000D01*
X165573688Y-62561303D01*
X165427363Y-62414722D01*
X164826648Y-62165284D01*
X164176205Y-62164716D01*
X163575057Y-62413106D01*
X163114722Y-62872637D01*
X162865284Y-63473352D01*
X162864716Y-64123795D01*
X163026355Y-64514990D01*
X162657993Y-64514990D01*
X162358632Y-64215629D01*
X162145358Y-64073124D01*
X161980327Y-63907805D01*
X161636799Y-63765159D01*
X161264833Y-63764835D01*
X160921057Y-63906880D01*
X160657808Y-64169670D01*
X160515162Y-64513198D01*
X160514838Y-64885164D01*
X160603649Y-65100103D01*
X160515162Y-65313201D01*
X160514838Y-65685167D01*
X160656883Y-66028943D01*
X160919673Y-66292192D01*
X161263201Y-66434838D01*
X161635167Y-66435162D01*
X161978943Y-66293117D01*
X162087249Y-66185000D01*
X162752464Y-66185000D01*
X162717143Y-66237862D01*
X162665000Y-66500000D01*
X162717143Y-66762138D01*
X162802560Y-66889974D01*
X162802560Y-67350000D01*
X162846838Y-67585317D01*
X162985910Y-67801441D01*
X163198110Y-67946431D01*
X163450000Y-67997440D01*
X165054999Y-67997440D01*
X165054999Y-69278734D01*
X165107142Y-69540872D01*
X165253914Y-69760532D01*
X165074710Y-69808550D01*
X164858872Y-69912224D01*
X164686106Y-70102494D01*
X164600978Y-70344989D01*
X164616901Y-70601499D01*
X165134539Y-72533351D01*
X165238213Y-72749189D01*
X165428483Y-72921955D01*
X165670978Y-73007083D01*
X165927488Y-72991160D01*
X166615139Y-72806905D01*
X166706883Y-73028943D01*
X166969673Y-73292192D01*
X167313201Y-73434838D01*
X167685167Y-73435162D01*
X168028943Y-73293117D01*
X168292192Y-73030327D01*
X168315000Y-72975400D01*
X168315000Y-81437835D01*
X168292338Y-81442343D01*
X168045410Y-81544624D01*
X167558774Y-81869783D01*
X167511413Y-81917145D01*
X167369783Y-82058774D01*
X167044624Y-82545409D01*
X167007523Y-82634980D01*
X166942343Y-82792338D01*
X166828162Y-83366363D01*
X166828163Y-83500000D01*
X166828162Y-83633637D01*
X166942343Y-84207662D01*
X166986804Y-84315000D01*
X167044624Y-84454591D01*
X167369783Y-84941226D01*
X167428558Y-85000000D01*
X167558774Y-85130217D01*
X168045410Y-85455376D01*
X168292338Y-85557657D01*
X168315000Y-85562165D01*
X168315000Y-87805378D01*
X168214090Y-87648559D01*
X168001890Y-87503569D01*
X167750000Y-87452560D01*
X166200000Y-87452560D01*
X165964683Y-87496838D01*
X165748559Y-87635910D01*
X165603569Y-87848110D01*
X165559648Y-88065000D01*
X160440854Y-88065000D01*
X160403162Y-87864683D01*
X160264090Y-87648559D01*
X160051890Y-87503569D01*
X159800000Y-87452560D01*
X159710000Y-87452560D01*
X159710000Y-87297440D01*
X161100000Y-87297440D01*
X161335317Y-87253162D01*
X161551441Y-87114090D01*
X161696431Y-86901890D01*
X161747440Y-86650000D01*
X161747440Y-85350000D01*
X161736920Y-85294089D01*
X161974743Y-85294089D01*
X162200344Y-85840086D01*
X162617717Y-86258188D01*
X163163319Y-86484742D01*
X163754089Y-86485257D01*
X164300086Y-86259656D01*
X164718188Y-85842283D01*
X164944742Y-85296681D01*
X164945257Y-84705911D01*
X164719656Y-84159914D01*
X164302283Y-83741812D01*
X163756681Y-83515258D01*
X163165911Y-83514743D01*
X162619914Y-83740344D01*
X162201812Y-84157717D01*
X161975258Y-84703319D01*
X161974743Y-85294089D01*
X161736920Y-85294089D01*
X161703162Y-85114683D01*
X161564090Y-84898559D01*
X161351890Y-84753569D01*
X161100000Y-84702560D01*
X161035000Y-84702560D01*
X161035000Y-84350000D01*
X160982857Y-84087862D01*
X160934987Y-84016219D01*
X160935162Y-83814833D01*
X160793117Y-83471057D01*
X160595571Y-83273165D01*
X160633734Y-83235002D01*
X165646852Y-83235002D01*
X165908990Y-83182859D01*
X166131220Y-83034370D01*
X166482706Y-82682884D01*
X166631195Y-82460654D01*
X166683338Y-82198516D01*
X166683338Y-76998338D01*
X166631195Y-76736200D01*
X166482706Y-76513970D01*
X165984368Y-76015632D01*
X165762138Y-75867143D01*
X165500000Y-75815000D01*
X161169734Y-75815000D01*
X159688580Y-74333846D01*
X159742192Y-74280327D01*
X159884838Y-73936799D01*
X159884971Y-73783765D01*
X160064369Y-73604367D01*
X160212858Y-73382137D01*
X160265001Y-73119999D01*
X160265001Y-70150001D01*
X160212858Y-69887863D01*
X160064369Y-69665633D01*
X159914368Y-69515632D01*
X159869293Y-69485514D01*
X159926431Y-69401890D01*
X159951080Y-69280170D01*
X159965000Y-69266250D01*
X159965000Y-69223690D01*
X159963333Y-69219665D01*
X159977440Y-69150000D01*
X159977440Y-68850000D01*
X159933162Y-68614683D01*
X159794090Y-68398559D01*
X159581890Y-68253569D01*
X159330000Y-68202560D01*
X158797440Y-68202560D01*
X158797440Y-67670000D01*
X158762630Y-67485000D01*
X159716264Y-67485000D01*
X160315000Y-68083736D01*
X160315000Y-70500000D01*
X160367143Y-70762138D01*
X160515632Y-70984368D01*
X160937820Y-71406556D01*
X160919233Y-71500000D01*
X160999921Y-71905644D01*
X161229700Y-72249533D01*
X161573589Y-72479312D01*
X161979233Y-72560000D01*
X162020767Y-72560000D01*
X162426411Y-72479312D01*
X162500000Y-72430141D01*
X162573589Y-72479312D01*
X162979233Y-72560000D01*
X162990001Y-72560000D01*
X162990001Y-74175001D01*
X163042144Y-74437139D01*
X163065024Y-74471382D01*
X163064838Y-74685167D01*
X163206883Y-75028943D01*
X163469673Y-75292192D01*
X163813201Y-75434838D01*
X164185167Y-75435162D01*
X164528943Y-75293117D01*
X164792192Y-75030327D01*
X164934838Y-74686799D01*
X164935162Y-74314833D01*
X164793117Y-73971057D01*
X164530327Y-73707808D01*
X164360001Y-73637082D01*
X164360001Y-71175999D01*
X164307858Y-70913861D01*
X164159369Y-70691631D01*
X164062014Y-70594276D01*
X164080767Y-70500000D01*
X164000079Y-70094356D01*
X163934293Y-69995900D01*
X164019540Y-69790062D01*
X163892257Y-69627000D01*
X163585518Y-69627000D01*
X163426411Y-69520688D01*
X163072440Y-69450278D01*
X163072440Y-69075000D01*
X163028162Y-68839683D01*
X162889090Y-68623559D01*
X162873000Y-68612565D01*
X162873000Y-68606372D01*
X163127000Y-68606372D01*
X163127000Y-69373000D01*
X163892257Y-69373000D01*
X164019540Y-69209938D01*
X163926041Y-68984174D01*
X163658152Y-68669058D01*
X163290065Y-68480446D01*
X163127000Y-68606372D01*
X162873000Y-68606372D01*
X162709935Y-68480446D01*
X162692621Y-68489318D01*
X162676890Y-68478569D01*
X162425000Y-68427560D01*
X161685000Y-68427560D01*
X161685000Y-67800000D01*
X161632857Y-67537862D01*
X161484368Y-67315632D01*
X160484368Y-66315632D01*
X160262138Y-66167143D01*
X160000000Y-66115000D01*
X159707371Y-66115000D01*
X159792192Y-66030327D01*
X159934838Y-65686799D01*
X159935162Y-65314833D01*
X159846351Y-65099894D01*
X159934838Y-64886796D01*
X159935162Y-64514830D01*
X159793117Y-64171054D01*
X159530327Y-63907805D01*
X159186799Y-63765159D01*
X158814833Y-63764835D01*
X158471057Y-63906880D01*
X158207808Y-64169670D01*
X158065162Y-64513198D01*
X158065142Y-64536122D01*
X155515632Y-67085632D01*
X155462951Y-67164475D01*
X155398559Y-67205910D01*
X155253569Y-67418110D01*
X155202560Y-67670000D01*
X155202560Y-68202560D01*
X154734805Y-68202560D01*
X154532137Y-68067142D01*
X154269999Y-68014999D01*
X154183737Y-68014999D01*
X153985000Y-67816262D01*
X153985000Y-62837332D01*
X154092192Y-62730327D01*
X154234838Y-62386799D01*
X154235130Y-62051868D01*
X154267631Y-62084369D01*
X154489861Y-62232858D01*
X154751999Y-62285001D01*
X162439999Y-62285001D01*
X162702137Y-62232858D01*
X162924367Y-62084369D01*
X165636973Y-59371763D01*
X165679845Y-59453000D01*
X165679845Y-59453000D01*
G37*
X165679845Y-59453000D02*
X166873000Y-59453000D01*
X166873000Y-59433000D01*
X167127000Y-59433000D01*
X167127000Y-59453000D01*
X167147000Y-59453000D01*
X167147000Y-59707000D01*
X167127000Y-59707000D01*
X167127000Y-59727000D01*
X166873000Y-59727000D01*
X166873000Y-59707000D01*
X165679845Y-59707000D01*
X165558524Y-59936890D01*
X165728355Y-60346924D01*
X166118642Y-60775183D01*
X166261553Y-60842298D01*
X165920853Y-61069946D01*
X165598946Y-61551715D01*
X165485907Y-62120000D01*
X165573688Y-62561303D01*
X165427363Y-62414722D01*
X164826648Y-62165284D01*
X164176205Y-62164716D01*
X163575057Y-62413106D01*
X163114722Y-62872637D01*
X162865284Y-63473352D01*
X162864716Y-64123795D01*
X163026355Y-64514990D01*
X162657993Y-64514990D01*
X162358632Y-64215629D01*
X162145358Y-64073124D01*
X161980327Y-63907805D01*
X161636799Y-63765159D01*
X161264833Y-63764835D01*
X160921057Y-63906880D01*
X160657808Y-64169670D01*
X160515162Y-64513198D01*
X160514838Y-64885164D01*
X160603649Y-65100103D01*
X160515162Y-65313201D01*
X160514838Y-65685167D01*
X160656883Y-66028943D01*
X160919673Y-66292192D01*
X161263201Y-66434838D01*
X161635167Y-66435162D01*
X161978943Y-66293117D01*
X162087249Y-66185000D01*
X162752464Y-66185000D01*
X162717143Y-66237862D01*
X162665000Y-66500000D01*
X162717143Y-66762138D01*
X162802560Y-66889974D01*
X162802560Y-67350000D01*
X162846838Y-67585317D01*
X162985910Y-67801441D01*
X163198110Y-67946431D01*
X163450000Y-67997440D01*
X165054999Y-67997440D01*
X165054999Y-69278734D01*
X165107142Y-69540872D01*
X165253914Y-69760532D01*
X165074710Y-69808550D01*
X164858872Y-69912224D01*
X164686106Y-70102494D01*
X164600978Y-70344989D01*
X164616901Y-70601499D01*
X165134539Y-72533351D01*
X165238213Y-72749189D01*
X165428483Y-72921955D01*
X165670978Y-73007083D01*
X165927488Y-72991160D01*
X166615139Y-72806905D01*
X166706883Y-73028943D01*
X166969673Y-73292192D01*
X167313201Y-73434838D01*
X167685167Y-73435162D01*
X168028943Y-73293117D01*
X168292192Y-73030327D01*
X168315000Y-72975400D01*
X168315000Y-81437835D01*
X168292338Y-81442343D01*
X168045410Y-81544624D01*
X167558774Y-81869783D01*
X167511413Y-81917145D01*
X167369783Y-82058774D01*
X167044624Y-82545409D01*
X167007523Y-82634980D01*
X166942343Y-82792338D01*
X166828162Y-83366363D01*
X166828163Y-83500000D01*
X166828162Y-83633637D01*
X166942343Y-84207662D01*
X166986804Y-84315000D01*
X167044624Y-84454591D01*
X167369783Y-84941226D01*
X167428558Y-85000000D01*
X167558774Y-85130217D01*
X168045410Y-85455376D01*
X168292338Y-85557657D01*
X168315000Y-85562165D01*
X168315000Y-87805378D01*
X168214090Y-87648559D01*
X168001890Y-87503569D01*
X167750000Y-87452560D01*
X166200000Y-87452560D01*
X165964683Y-87496838D01*
X165748559Y-87635910D01*
X165603569Y-87848110D01*
X165559648Y-88065000D01*
X160440854Y-88065000D01*
X160403162Y-87864683D01*
X160264090Y-87648559D01*
X160051890Y-87503569D01*
X159800000Y-87452560D01*
X159710000Y-87452560D01*
X159710000Y-87297440D01*
X161100000Y-87297440D01*
X161335317Y-87253162D01*
X161551441Y-87114090D01*
X161696431Y-86901890D01*
X161747440Y-86650000D01*
X161747440Y-85350000D01*
X161736920Y-85294089D01*
X161974743Y-85294089D01*
X162200344Y-85840086D01*
X162617717Y-86258188D01*
X163163319Y-86484742D01*
X163754089Y-86485257D01*
X164300086Y-86259656D01*
X164718188Y-85842283D01*
X164944742Y-85296681D01*
X164945257Y-84705911D01*
X164719656Y-84159914D01*
X164302283Y-83741812D01*
X163756681Y-83515258D01*
X163165911Y-83514743D01*
X162619914Y-83740344D01*
X162201812Y-84157717D01*
X161975258Y-84703319D01*
X161974743Y-85294089D01*
X161736920Y-85294089D01*
X161703162Y-85114683D01*
X161564090Y-84898559D01*
X161351890Y-84753569D01*
X161100000Y-84702560D01*
X161035000Y-84702560D01*
X161035000Y-84350000D01*
X160982857Y-84087862D01*
X160934987Y-84016219D01*
X160935162Y-83814833D01*
X160793117Y-83471057D01*
X160595571Y-83273165D01*
X160633734Y-83235002D01*
X165646852Y-83235002D01*
X165908990Y-83182859D01*
X166131220Y-83034370D01*
X166482706Y-82682884D01*
X166631195Y-82460654D01*
X166683338Y-82198516D01*
X166683338Y-76998338D01*
X166631195Y-76736200D01*
X166482706Y-76513970D01*
X165984368Y-76015632D01*
X165762138Y-75867143D01*
X165500000Y-75815000D01*
X161169734Y-75815000D01*
X159688580Y-74333846D01*
X159742192Y-74280327D01*
X159884838Y-73936799D01*
X159884971Y-73783765D01*
X160064369Y-73604367D01*
X160212858Y-73382137D01*
X160265001Y-73119999D01*
X160265001Y-70150001D01*
X160212858Y-69887863D01*
X160064369Y-69665633D01*
X159914368Y-69515632D01*
X159869293Y-69485514D01*
X159926431Y-69401890D01*
X159951080Y-69280170D01*
X159965000Y-69266250D01*
X159965000Y-69223690D01*
X159963333Y-69219665D01*
X159977440Y-69150000D01*
X159977440Y-68850000D01*
X159933162Y-68614683D01*
X159794090Y-68398559D01*
X159581890Y-68253569D01*
X159330000Y-68202560D01*
X158797440Y-68202560D01*
X158797440Y-67670000D01*
X158762630Y-67485000D01*
X159716264Y-67485000D01*
X160315000Y-68083736D01*
X160315000Y-70500000D01*
X160367143Y-70762138D01*
X160515632Y-70984368D01*
X160937820Y-71406556D01*
X160919233Y-71500000D01*
X160999921Y-71905644D01*
X161229700Y-72249533D01*
X161573589Y-72479312D01*
X161979233Y-72560000D01*
X162020767Y-72560000D01*
X162426411Y-72479312D01*
X162500000Y-72430141D01*
X162573589Y-72479312D01*
X162979233Y-72560000D01*
X162990001Y-72560000D01*
X162990001Y-74175001D01*
X163042144Y-74437139D01*
X163065024Y-74471382D01*
X163064838Y-74685167D01*
X163206883Y-75028943D01*
X163469673Y-75292192D01*
X163813201Y-75434838D01*
X164185167Y-75435162D01*
X164528943Y-75293117D01*
X164792192Y-75030327D01*
X164934838Y-74686799D01*
X164935162Y-74314833D01*
X164793117Y-73971057D01*
X164530327Y-73707808D01*
X164360001Y-73637082D01*
X164360001Y-71175999D01*
X164307858Y-70913861D01*
X164159369Y-70691631D01*
X164062014Y-70594276D01*
X164080767Y-70500000D01*
X164000079Y-70094356D01*
X163934293Y-69995900D01*
X164019540Y-69790062D01*
X163892257Y-69627000D01*
X163585518Y-69627000D01*
X163426411Y-69520688D01*
X163072440Y-69450278D01*
X163072440Y-69075000D01*
X163028162Y-68839683D01*
X162889090Y-68623559D01*
X162873000Y-68612565D01*
X162873000Y-68606372D01*
X163127000Y-68606372D01*
X163127000Y-69373000D01*
X163892257Y-69373000D01*
X164019540Y-69209938D01*
X163926041Y-68984174D01*
X163658152Y-68669058D01*
X163290065Y-68480446D01*
X163127000Y-68606372D01*
X162873000Y-68606372D01*
X162709935Y-68480446D01*
X162692621Y-68489318D01*
X162676890Y-68478569D01*
X162425000Y-68427560D01*
X161685000Y-68427560D01*
X161685000Y-67800000D01*
X161632857Y-67537862D01*
X161484368Y-67315632D01*
X160484368Y-66315632D01*
X160262138Y-66167143D01*
X160000000Y-66115000D01*
X159707371Y-66115000D01*
X159792192Y-66030327D01*
X159934838Y-65686799D01*
X159935162Y-65314833D01*
X159846351Y-65099894D01*
X159934838Y-64886796D01*
X159935162Y-64514830D01*
X159793117Y-64171054D01*
X159530327Y-63907805D01*
X159186799Y-63765159D01*
X158814833Y-63764835D01*
X158471057Y-63906880D01*
X158207808Y-64169670D01*
X158065162Y-64513198D01*
X158065142Y-64536122D01*
X155515632Y-67085632D01*
X155462951Y-67164475D01*
X155398559Y-67205910D01*
X155253569Y-67418110D01*
X155202560Y-67670000D01*
X155202560Y-68202560D01*
X154734805Y-68202560D01*
X154532137Y-68067142D01*
X154269999Y-68014999D01*
X154183737Y-68014999D01*
X153985000Y-67816262D01*
X153985000Y-62837332D01*
X154092192Y-62730327D01*
X154234838Y-62386799D01*
X154235130Y-62051868D01*
X154267631Y-62084369D01*
X154489861Y-62232858D01*
X154751999Y-62285001D01*
X162439999Y-62285001D01*
X162702137Y-62232858D01*
X162924367Y-62084369D01*
X165636973Y-59371763D01*
X165679845Y-59453000D01*
G36*
X142089981Y-71584993D02*
X142089981Y-71874981D01*
X142142124Y-72137119D01*
X142290613Y-72359349D01*
X143640653Y-73709389D01*
X143862883Y-73857878D01*
X144125021Y-73910021D01*
X146999981Y-73910021D01*
X147262119Y-73857878D01*
X147484349Y-73709389D01*
X148158738Y-73035000D01*
X149702560Y-73035000D01*
X149702560Y-73100000D01*
X149746838Y-73335317D01*
X149885910Y-73551441D01*
X150098110Y-73696431D01*
X150350000Y-73747440D01*
X150578704Y-73747440D01*
X150665633Y-73834369D01*
X150887863Y-73982858D01*
X151150001Y-74035001D01*
X154364999Y-74035001D01*
X154627137Y-73982858D01*
X154849367Y-73834369D01*
X155164999Y-73518737D01*
X155164999Y-73577793D01*
X155217142Y-73839931D01*
X155365631Y-74062161D01*
X155437177Y-74133707D01*
X155437109Y-74211211D01*
X141129947Y-74211211D01*
X140435030Y-73516294D01*
X140435162Y-73364833D01*
X140293117Y-73021057D01*
X140030327Y-72757808D01*
X139686799Y-72615162D01*
X139314833Y-72614838D01*
X138971057Y-72756883D01*
X138707808Y-73019673D01*
X138565162Y-73363201D01*
X138564838Y-73735167D01*
X138706883Y-74078943D01*
X138969673Y-74342192D01*
X139313201Y-74484838D01*
X139466235Y-74484971D01*
X140361843Y-75380579D01*
X140584073Y-75529068D01*
X140846211Y-75581211D01*
X155812668Y-75581211D01*
X155919673Y-75688403D01*
X156263201Y-75831049D01*
X156635167Y-75831373D01*
X156978943Y-75689328D01*
X157242192Y-75426538D01*
X157384838Y-75083010D01*
X157385070Y-74816364D01*
X160153092Y-77584386D01*
X160375322Y-77732875D01*
X160637460Y-77785018D01*
X164713316Y-77785019D01*
X164713316Y-81264980D01*
X160101464Y-81264980D01*
X159839326Y-81317123D01*
X159617096Y-81465612D01*
X158067718Y-83014990D01*
X145050010Y-83014990D01*
X144787872Y-83067133D01*
X144565642Y-83215622D01*
X143078704Y-84702560D01*
X141900000Y-84702560D01*
X141664683Y-84746838D01*
X141448559Y-84885910D01*
X141303569Y-85098110D01*
X141252560Y-85350000D01*
X141252560Y-86650000D01*
X141296838Y-86885317D01*
X141435910Y-87101441D01*
X141648110Y-87246431D01*
X141900000Y-87297440D01*
X143078704Y-87297440D01*
X143233824Y-87452560D01*
X143200000Y-87452560D01*
X142964683Y-87496838D01*
X142748559Y-87635910D01*
X142603569Y-87848110D01*
X142559648Y-88065000D01*
X137440854Y-88065000D01*
X137403162Y-87864683D01*
X137264090Y-87648559D01*
X137051890Y-87503569D01*
X136800000Y-87452560D01*
X135250000Y-87452560D01*
X135014683Y-87496838D01*
X134798559Y-87635910D01*
X134685000Y-87802109D01*
X134685000Y-85562165D01*
X134707662Y-85557657D01*
X134831126Y-85506516D01*
X134954591Y-85455376D01*
X135195974Y-85294089D01*
X137974743Y-85294089D01*
X138200344Y-85840086D01*
X138617717Y-86258188D01*
X139163319Y-86484742D01*
X139754089Y-86485257D01*
X140300086Y-86259656D01*
X140718188Y-85842283D01*
X140944742Y-85296681D01*
X140945257Y-84705911D01*
X140719656Y-84159914D01*
X140302283Y-83741812D01*
X139756681Y-83515258D01*
X139165911Y-83514743D01*
X138619914Y-83740344D01*
X138201812Y-84157717D01*
X137975258Y-84703319D01*
X137974743Y-85294089D01*
X135195974Y-85294089D01*
X135441226Y-85130217D01*
X135571442Y-85000000D01*
X135630217Y-84941226D01*
X135955376Y-84454590D01*
X136057657Y-84207662D01*
X136057657Y-84207661D01*
X136171838Y-83633637D01*
X136171838Y-83366363D01*
X136057657Y-82792338D01*
X136012673Y-82683738D01*
X135955376Y-82545410D01*
X135630217Y-82058774D01*
X135488587Y-81917145D01*
X135441226Y-81869783D01*
X134954591Y-81544624D01*
X134831126Y-81493484D01*
X134707662Y-81442343D01*
X134685000Y-81437835D01*
X134685000Y-78540000D01*
X135485907Y-78540000D01*
X135598946Y-79108285D01*
X135920853Y-79590054D01*
X136402622Y-79911961D01*
X136970907Y-80025000D01*
X137029093Y-80025000D01*
X137597378Y-79911961D01*
X138079147Y-79590054D01*
X138401054Y-79108285D01*
X138514093Y-78540000D01*
X138401054Y-77971715D01*
X138079147Y-77489946D01*
X138037548Y-77462150D01*
X138085317Y-77453162D01*
X138301441Y-77314090D01*
X138446431Y-77101890D01*
X138497440Y-76850000D01*
X138497440Y-75150000D01*
X138453162Y-74914683D01*
X138314090Y-74698559D01*
X138101890Y-74553569D01*
X137850000Y-74502560D01*
X136150000Y-74502560D01*
X135914683Y-74546838D01*
X135698559Y-74685910D01*
X135553569Y-74898110D01*
X135502560Y-75150000D01*
X135502560Y-76850000D01*
X135546838Y-77085317D01*
X135685910Y-77301441D01*
X135898110Y-77446431D01*
X135965541Y-77460086D01*
X135920853Y-77489946D01*
X135598946Y-77971715D01*
X135485907Y-78540000D01*
X134685000Y-78540000D01*
X134685000Y-71579517D01*
X135203319Y-71794742D01*
X135794089Y-71795257D01*
X136340086Y-71569656D01*
X136758188Y-71152283D01*
X136769748Y-71124443D01*
X136780344Y-71150086D01*
X137197717Y-71568188D01*
X137743319Y-71794742D01*
X138334089Y-71795257D01*
X138880086Y-71569656D01*
X139298188Y-71152283D01*
X139524742Y-70606681D01*
X139525257Y-70015911D01*
X139299656Y-69469914D01*
X138882283Y-69051812D01*
X138854443Y-69040252D01*
X138880086Y-69029656D01*
X139207651Y-68702663D01*
X142089981Y-71584993D01*
X142089981Y-71584993D01*
G37*
X142089981Y-71584993D02*
X142089981Y-71874981D01*
X142142124Y-72137119D01*
X142290613Y-72359349D01*
X143640653Y-73709389D01*
X143862883Y-73857878D01*
X144125021Y-73910021D01*
X146999981Y-73910021D01*
X147262119Y-73857878D01*
X147484349Y-73709389D01*
X148158738Y-73035000D01*
X149702560Y-73035000D01*
X149702560Y-73100000D01*
X149746838Y-73335317D01*
X149885910Y-73551441D01*
X150098110Y-73696431D01*
X150350000Y-73747440D01*
X150578704Y-73747440D01*
X150665633Y-73834369D01*
X150887863Y-73982858D01*
X151150001Y-74035001D01*
X154364999Y-74035001D01*
X154627137Y-73982858D01*
X154849367Y-73834369D01*
X155164999Y-73518737D01*
X155164999Y-73577793D01*
X155217142Y-73839931D01*
X155365631Y-74062161D01*
X155437177Y-74133707D01*
X155437109Y-74211211D01*
X141129947Y-74211211D01*
X140435030Y-73516294D01*
X140435162Y-73364833D01*
X140293117Y-73021057D01*
X140030327Y-72757808D01*
X139686799Y-72615162D01*
X139314833Y-72614838D01*
X138971057Y-72756883D01*
X138707808Y-73019673D01*
X138565162Y-73363201D01*
X138564838Y-73735167D01*
X138706883Y-74078943D01*
X138969673Y-74342192D01*
X139313201Y-74484838D01*
X139466235Y-74484971D01*
X140361843Y-75380579D01*
X140584073Y-75529068D01*
X140846211Y-75581211D01*
X155812668Y-75581211D01*
X155919673Y-75688403D01*
X156263201Y-75831049D01*
X156635167Y-75831373D01*
X156978943Y-75689328D01*
X157242192Y-75426538D01*
X157384838Y-75083010D01*
X157385070Y-74816364D01*
X160153092Y-77584386D01*
X160375322Y-77732875D01*
X160637460Y-77785018D01*
X164713316Y-77785019D01*
X164713316Y-81264980D01*
X160101464Y-81264980D01*
X159839326Y-81317123D01*
X159617096Y-81465612D01*
X158067718Y-83014990D01*
X145050010Y-83014990D01*
X144787872Y-83067133D01*
X144565642Y-83215622D01*
X143078704Y-84702560D01*
X141900000Y-84702560D01*
X141664683Y-84746838D01*
X141448559Y-84885910D01*
X141303569Y-85098110D01*
X141252560Y-85350000D01*
X141252560Y-86650000D01*
X141296838Y-86885317D01*
X141435910Y-87101441D01*
X141648110Y-87246431D01*
X141900000Y-87297440D01*
X143078704Y-87297440D01*
X143233824Y-87452560D01*
X143200000Y-87452560D01*
X142964683Y-87496838D01*
X142748559Y-87635910D01*
X142603569Y-87848110D01*
X142559648Y-88065000D01*
X137440854Y-88065000D01*
X137403162Y-87864683D01*
X137264090Y-87648559D01*
X137051890Y-87503569D01*
X136800000Y-87452560D01*
X135250000Y-87452560D01*
X135014683Y-87496838D01*
X134798559Y-87635910D01*
X134685000Y-87802109D01*
X134685000Y-85562165D01*
X134707662Y-85557657D01*
X134831126Y-85506516D01*
X134954591Y-85455376D01*
X135195974Y-85294089D01*
X137974743Y-85294089D01*
X138200344Y-85840086D01*
X138617717Y-86258188D01*
X139163319Y-86484742D01*
X139754089Y-86485257D01*
X140300086Y-86259656D01*
X140718188Y-85842283D01*
X140944742Y-85296681D01*
X140945257Y-84705911D01*
X140719656Y-84159914D01*
X140302283Y-83741812D01*
X139756681Y-83515258D01*
X139165911Y-83514743D01*
X138619914Y-83740344D01*
X138201812Y-84157717D01*
X137975258Y-84703319D01*
X137974743Y-85294089D01*
X135195974Y-85294089D01*
X135441226Y-85130217D01*
X135571442Y-85000000D01*
X135630217Y-84941226D01*
X135955376Y-84454590D01*
X136057657Y-84207662D01*
X136057657Y-84207661D01*
X136171838Y-83633637D01*
X136171838Y-83366363D01*
X136057657Y-82792338D01*
X136012673Y-82683738D01*
X135955376Y-82545410D01*
X135630217Y-82058774D01*
X135488587Y-81917145D01*
X135441226Y-81869783D01*
X134954591Y-81544624D01*
X134831126Y-81493484D01*
X134707662Y-81442343D01*
X134685000Y-81437835D01*
X134685000Y-78540000D01*
X135485907Y-78540000D01*
X135598946Y-79108285D01*
X135920853Y-79590054D01*
X136402622Y-79911961D01*
X136970907Y-80025000D01*
X137029093Y-80025000D01*
X137597378Y-79911961D01*
X138079147Y-79590054D01*
X138401054Y-79108285D01*
X138514093Y-78540000D01*
X138401054Y-77971715D01*
X138079147Y-77489946D01*
X138037548Y-77462150D01*
X138085317Y-77453162D01*
X138301441Y-77314090D01*
X138446431Y-77101890D01*
X138497440Y-76850000D01*
X138497440Y-75150000D01*
X138453162Y-74914683D01*
X138314090Y-74698559D01*
X138101890Y-74553569D01*
X137850000Y-74502560D01*
X136150000Y-74502560D01*
X135914683Y-74546838D01*
X135698559Y-74685910D01*
X135553569Y-74898110D01*
X135502560Y-75150000D01*
X135502560Y-76850000D01*
X135546838Y-77085317D01*
X135685910Y-77301441D01*
X135898110Y-77446431D01*
X135965541Y-77460086D01*
X135920853Y-77489946D01*
X135598946Y-77971715D01*
X135485907Y-78540000D01*
X134685000Y-78540000D01*
X134685000Y-71579517D01*
X135203319Y-71794742D01*
X135794089Y-71795257D01*
X136340086Y-71569656D01*
X136758188Y-71152283D01*
X136769748Y-71124443D01*
X136780344Y-71150086D01*
X137197717Y-71568188D01*
X137743319Y-71794742D01*
X138334089Y-71795257D01*
X138880086Y-71569656D01*
X139298188Y-71152283D01*
X139524742Y-70606681D01*
X139525257Y-70015911D01*
X139299656Y-69469914D01*
X138882283Y-69051812D01*
X138854443Y-69040252D01*
X138880086Y-69029656D01*
X139207651Y-68702663D01*
X142089981Y-71584993D01*
G36*
X146600000Y-69122440D02*
X146900000Y-69122440D01*
X146927662Y-69117235D01*
X146986673Y-69259699D01*
X146988042Y-69261068D01*
X146928569Y-69348110D01*
X146903920Y-69469830D01*
X146890000Y-69483750D01*
X146890000Y-69526310D01*
X146891667Y-69530335D01*
X146877560Y-69600000D01*
X146877560Y-69900000D01*
X146897067Y-70003671D01*
X146877560Y-70100000D01*
X146877560Y-70400000D01*
X146897067Y-70503671D01*
X146877560Y-70600000D01*
X146877560Y-70877560D01*
X146600000Y-70877560D01*
X146496329Y-70897067D01*
X146400000Y-70877560D01*
X146100000Y-70877560D01*
X145996329Y-70897067D01*
X145900000Y-70877560D01*
X145600000Y-70877560D01*
X145496329Y-70897067D01*
X145400000Y-70877560D01*
X145122440Y-70877560D01*
X145122440Y-70600000D01*
X145102933Y-70496329D01*
X145122440Y-70400000D01*
X145122440Y-70100000D01*
X145102933Y-69996329D01*
X145122440Y-69900000D01*
X145122440Y-69600000D01*
X145102933Y-69496329D01*
X145122440Y-69400000D01*
X145122440Y-69122440D01*
X145400000Y-69122440D01*
X145503671Y-69102933D01*
X145600000Y-69122440D01*
X145900000Y-69122440D01*
X146003671Y-69102933D01*
X146100000Y-69122440D01*
X146400000Y-69122440D01*
X146503671Y-69102933D01*
X146600000Y-69122440D01*
X146600000Y-69122440D01*
G37*
X146600000Y-69122440D02*
X146900000Y-69122440D01*
X146927662Y-69117235D01*
X146986673Y-69259699D01*
X146988042Y-69261068D01*
X146928569Y-69348110D01*
X146903920Y-69469830D01*
X146890000Y-69483750D01*
X146890000Y-69526310D01*
X146891667Y-69530335D01*
X146877560Y-69600000D01*
X146877560Y-69900000D01*
X146897067Y-70003671D01*
X146877560Y-70100000D01*
X146877560Y-70400000D01*
X146897067Y-70503671D01*
X146877560Y-70600000D01*
X146877560Y-70877560D01*
X146600000Y-70877560D01*
X146496329Y-70897067D01*
X146400000Y-70877560D01*
X146100000Y-70877560D01*
X145996329Y-70897067D01*
X145900000Y-70877560D01*
X145600000Y-70877560D01*
X145496329Y-70897067D01*
X145400000Y-70877560D01*
X145122440Y-70877560D01*
X145122440Y-70600000D01*
X145102933Y-70496329D01*
X145122440Y-70400000D01*
X145122440Y-70100000D01*
X145102933Y-69996329D01*
X145122440Y-69900000D01*
X145122440Y-69600000D01*
X145102933Y-69496329D01*
X145122440Y-69400000D01*
X145122440Y-69122440D01*
X145400000Y-69122440D01*
X145503671Y-69102933D01*
X145600000Y-69122440D01*
X145900000Y-69122440D01*
X146003671Y-69102933D01*
X146100000Y-69122440D01*
X146400000Y-69122440D01*
X146503671Y-69102933D01*
X146600000Y-69122440D01*
G36*
X150393748Y-60485858D02*
X150379605Y-60500000D01*
X151243958Y-61364353D01*
X151461640Y-61294819D01*
X151480344Y-61340086D01*
X151897717Y-61758188D01*
X152386736Y-61961246D01*
X152365162Y-62013201D01*
X152364838Y-62385167D01*
X152506883Y-62728943D01*
X152615000Y-62837249D01*
X152615000Y-68099998D01*
X152647821Y-68265000D01*
X152223690Y-68265000D01*
X152000000Y-68357656D01*
X151776310Y-68265000D01*
X151285750Y-68265000D01*
X151127000Y-68423750D01*
X151127000Y-69523000D01*
X152873000Y-69523000D01*
X152873000Y-69503000D01*
X153127000Y-69503000D01*
X153127000Y-69523000D01*
X153147000Y-69523000D01*
X153147000Y-69777000D01*
X153127000Y-69777000D01*
X153127000Y-69797000D01*
X152873000Y-69797000D01*
X152873000Y-69777000D01*
X151127000Y-69777000D01*
X151127000Y-69797000D01*
X150873000Y-69797000D01*
X150873000Y-69777000D01*
X150853000Y-69777000D01*
X150853000Y-69523000D01*
X150873000Y-69523000D01*
X150873000Y-68423750D01*
X150784999Y-68335749D01*
X150784999Y-63140001D01*
X150732856Y-62877863D01*
X150584367Y-62655633D01*
X149899365Y-61970631D01*
X149971279Y-61996718D01*
X150561458Y-61970315D01*
X150984080Y-61795259D01*
X151064353Y-61543958D01*
X150200000Y-60679605D01*
X150185858Y-60693748D01*
X150006253Y-60514143D01*
X150020395Y-60500000D01*
X150006253Y-60485858D01*
X150185858Y-60306253D01*
X150200000Y-60320395D01*
X150214143Y-60306253D01*
X150393748Y-60485858D01*
X150393748Y-60485858D01*
G37*
X150393748Y-60485858D02*
X150379605Y-60500000D01*
X151243958Y-61364353D01*
X151461640Y-61294819D01*
X151480344Y-61340086D01*
X151897717Y-61758188D01*
X152386736Y-61961246D01*
X152365162Y-62013201D01*
X152364838Y-62385167D01*
X152506883Y-62728943D01*
X152615000Y-62837249D01*
X152615000Y-68099998D01*
X152647821Y-68265000D01*
X152223690Y-68265000D01*
X152000000Y-68357656D01*
X151776310Y-68265000D01*
X151285750Y-68265000D01*
X151127000Y-68423750D01*
X151127000Y-69523000D01*
X152873000Y-69523000D01*
X152873000Y-69503000D01*
X153127000Y-69503000D01*
X153127000Y-69523000D01*
X153147000Y-69523000D01*
X153147000Y-69777000D01*
X153127000Y-69777000D01*
X153127000Y-69797000D01*
X152873000Y-69797000D01*
X152873000Y-69777000D01*
X151127000Y-69777000D01*
X151127000Y-69797000D01*
X150873000Y-69797000D01*
X150873000Y-69777000D01*
X150853000Y-69777000D01*
X150853000Y-69523000D01*
X150873000Y-69523000D01*
X150873000Y-68423750D01*
X150784999Y-68335749D01*
X150784999Y-63140001D01*
X150732856Y-62877863D01*
X150584367Y-62655633D01*
X149899365Y-61970631D01*
X149971279Y-61996718D01*
X150561458Y-61970315D01*
X150984080Y-61795259D01*
X151064353Y-61543958D01*
X150200000Y-60679605D01*
X150185858Y-60693748D01*
X150006253Y-60514143D01*
X150020395Y-60500000D01*
X150006253Y-60485858D01*
X150185858Y-60306253D01*
X150200000Y-60320395D01*
X150214143Y-60306253D01*
X150393748Y-60485858D01*
G36*
X135693748Y-67755858D02*
X135679605Y-67770000D01*
X135693748Y-67784143D01*
X135514143Y-67963748D01*
X135500000Y-67949605D01*
X135485858Y-67963748D01*
X135306253Y-67784143D01*
X135320395Y-67770000D01*
X135306253Y-67755858D01*
X135485858Y-67576253D01*
X135500000Y-67590395D01*
X135514143Y-67576253D01*
X135693748Y-67755858D01*
X135693748Y-67755858D01*
G37*
X135693748Y-67755858D02*
X135679605Y-67770000D01*
X135693748Y-67784143D01*
X135514143Y-67963748D01*
X135500000Y-67949605D01*
X135485858Y-67963748D01*
X135306253Y-67784143D01*
X135320395Y-67770000D01*
X135306253Y-67755858D01*
X135485858Y-67576253D01*
X135500000Y-67590395D01*
X135514143Y-67576253D01*
X135693748Y-67755858D01*
G36*
X142813595Y-60232868D02*
X143075733Y-60285011D01*
X144316755Y-60285011D01*
X144428383Y-60555171D01*
X144543380Y-60670369D01*
X144588643Y-60897918D01*
X144737132Y-61120148D01*
X146001363Y-62384379D01*
X146223593Y-62532868D01*
X146485731Y-62585011D01*
X146991997Y-62585011D01*
X148315000Y-63908014D01*
X148315000Y-64751737D01*
X148226309Y-64715000D01*
X147635750Y-64715000D01*
X147477000Y-64873750D01*
X147477000Y-65873000D01*
X147497000Y-65873000D01*
X147497000Y-66127000D01*
X147477000Y-66127000D01*
X147477000Y-66147000D01*
X147223000Y-66147000D01*
X147223000Y-66127000D01*
X147203000Y-66127000D01*
X147203000Y-65873000D01*
X147223000Y-65873000D01*
X147223000Y-64873750D01*
X147064250Y-64715000D01*
X146473691Y-64715000D01*
X146240302Y-64811673D01*
X146061673Y-64990301D01*
X146005346Y-65126287D01*
X146003162Y-65114683D01*
X145864090Y-64898559D01*
X145651890Y-64753569D01*
X145400000Y-64702560D01*
X143900000Y-64702560D01*
X143664683Y-64746838D01*
X143448559Y-64885910D01*
X143303569Y-65098110D01*
X143252560Y-65350000D01*
X143252560Y-66650000D01*
X143296838Y-66885317D01*
X143435910Y-67101441D01*
X143648110Y-67246431D01*
X143900000Y-67297440D01*
X144055272Y-67297440D01*
X144003569Y-67373110D01*
X143952560Y-67625000D01*
X143952560Y-67680104D01*
X143859367Y-67540631D01*
X139460391Y-63141655D01*
X139524742Y-62986681D01*
X139525257Y-62395911D01*
X139299656Y-61849914D01*
X138882283Y-61431812D01*
X138336681Y-61205258D01*
X137745911Y-61204743D01*
X137624999Y-61254703D01*
X137624999Y-60924999D01*
X138010001Y-60924999D01*
X138272139Y-60872856D01*
X138494369Y-60724367D01*
X139133737Y-60084999D01*
X142592293Y-60084999D01*
X142813595Y-60232868D01*
X142813595Y-60232868D01*
G37*
X142813595Y-60232868D02*
X143075733Y-60285011D01*
X144316755Y-60285011D01*
X144428383Y-60555171D01*
X144543380Y-60670369D01*
X144588643Y-60897918D01*
X144737132Y-61120148D01*
X146001363Y-62384379D01*
X146223593Y-62532868D01*
X146485731Y-62585011D01*
X146991997Y-62585011D01*
X148315000Y-63908014D01*
X148315000Y-64751737D01*
X148226309Y-64715000D01*
X147635750Y-64715000D01*
X147477000Y-64873750D01*
X147477000Y-65873000D01*
X147497000Y-65873000D01*
X147497000Y-66127000D01*
X147477000Y-66127000D01*
X147477000Y-66147000D01*
X147223000Y-66147000D01*
X147223000Y-66127000D01*
X147203000Y-66127000D01*
X147203000Y-65873000D01*
X147223000Y-65873000D01*
X147223000Y-64873750D01*
X147064250Y-64715000D01*
X146473691Y-64715000D01*
X146240302Y-64811673D01*
X146061673Y-64990301D01*
X146005346Y-65126287D01*
X146003162Y-65114683D01*
X145864090Y-64898559D01*
X145651890Y-64753569D01*
X145400000Y-64702560D01*
X143900000Y-64702560D01*
X143664683Y-64746838D01*
X143448559Y-64885910D01*
X143303569Y-65098110D01*
X143252560Y-65350000D01*
X143252560Y-66650000D01*
X143296838Y-66885317D01*
X143435910Y-67101441D01*
X143648110Y-67246431D01*
X143900000Y-67297440D01*
X144055272Y-67297440D01*
X144003569Y-67373110D01*
X143952560Y-67625000D01*
X143952560Y-67680104D01*
X143859367Y-67540631D01*
X139460391Y-63141655D01*
X139524742Y-62986681D01*
X139525257Y-62395911D01*
X139299656Y-61849914D01*
X138882283Y-61431812D01*
X138336681Y-61205258D01*
X137745911Y-61204743D01*
X137624999Y-61254703D01*
X137624999Y-60924999D01*
X138010001Y-60924999D01*
X138272139Y-60872856D01*
X138494369Y-60724367D01*
X139133737Y-60084999D01*
X142592293Y-60084999D01*
X142813595Y-60232868D01*
G36*
X136254999Y-60523735D02*
X136254999Y-61205000D01*
X135785750Y-61205000D01*
X135627000Y-61363750D01*
X135627000Y-62563000D01*
X135647000Y-62563000D01*
X135647000Y-62817000D01*
X135627000Y-62817000D01*
X135627000Y-62837000D01*
X135373000Y-62837000D01*
X135373000Y-62817000D01*
X135353000Y-62817000D01*
X135353000Y-62563000D01*
X135373000Y-62563000D01*
X135373000Y-61363750D01*
X135214250Y-61205000D01*
X134685000Y-61205000D01*
X134685000Y-59047440D01*
X134778704Y-59047440D01*
X136254999Y-60523735D01*
X136254999Y-60523735D01*
G37*
X136254999Y-60523735D02*
X136254999Y-61205000D01*
X135785750Y-61205000D01*
X135627000Y-61363750D01*
X135627000Y-62563000D01*
X135647000Y-62563000D01*
X135647000Y-62817000D01*
X135627000Y-62817000D01*
X135627000Y-62837000D01*
X135373000Y-62837000D01*
X135373000Y-62817000D01*
X135353000Y-62817000D01*
X135353000Y-62563000D01*
X135373000Y-62563000D01*
X135373000Y-61363750D01*
X135214250Y-61205000D01*
X134685000Y-61205000D01*
X134685000Y-59047440D01*
X134778704Y-59047440D01*
X136254999Y-60523735D01*
G36*
X152777000Y-54373000D02*
X152797000Y-54373000D01*
X152797000Y-54627000D01*
X152777000Y-54627000D01*
X152777000Y-55626250D01*
X152779384Y-55628634D01*
X152715189Y-55783233D01*
X152714910Y-56102560D01*
X151900000Y-56102560D01*
X151664683Y-56146838D01*
X151448559Y-56285910D01*
X151385000Y-56378932D01*
X151385000Y-56233745D01*
X151502566Y-56155190D01*
X151748603Y-55786970D01*
X151750875Y-55775549D01*
X151773691Y-55785000D01*
X152364250Y-55785000D01*
X152523000Y-55626250D01*
X152523000Y-54627000D01*
X152503000Y-54627000D01*
X152503000Y-54373000D01*
X152523000Y-54373000D01*
X152523000Y-54353000D01*
X152777000Y-54353000D01*
X152777000Y-54373000D01*
X152777000Y-54373000D01*
G37*
X152777000Y-54373000D02*
X152797000Y-54373000D01*
X152797000Y-54627000D01*
X152777000Y-54627000D01*
X152777000Y-55626250D01*
X152779384Y-55628634D01*
X152715189Y-55783233D01*
X152714910Y-56102560D01*
X151900000Y-56102560D01*
X151664683Y-56146838D01*
X151448559Y-56285910D01*
X151385000Y-56378932D01*
X151385000Y-56233745D01*
X151502566Y-56155190D01*
X151748603Y-55786970D01*
X151750875Y-55775549D01*
X151773691Y-55785000D01*
X152364250Y-55785000D01*
X152523000Y-55626250D01*
X152523000Y-54627000D01*
X152503000Y-54627000D01*
X152503000Y-54373000D01*
X152523000Y-54373000D01*
X152523000Y-54353000D01*
X152777000Y-54353000D01*
X152777000Y-54373000D01*
M02*
