G04 #@! TF.FileFunction,Legend,Bot*
%FSLAX46Y46*%
G04 Gerber Fmt 4.6, Leading zero omitted, Abs format (unit mm)*
G04 Created by KiCad (PCBNEW 4.0.6) date 11/07/17 14:14:17*
%MOMM*%
%LPD*%
G01*
G04 APERTURE LIST*
%ADD10C,0.100000*%
%ADD11C,0.150000*%
%ADD12C,0.120000*%
G04 APERTURE END LIST*
D10*
D11*
X134400000Y-71000000D02*
X135000000Y-71600000D01*
X134400000Y-71600000D02*
X134400000Y-71000000D01*
X134400000Y-71600000D02*
X135000000Y-71600000D01*
X136800000Y-69000000D02*
X134400000Y-69000000D01*
X136800000Y-69000000D02*
X136800000Y-71600000D01*
X139200000Y-71600000D02*
X139200000Y-61400000D01*
X139200000Y-71600000D02*
X136800000Y-71600000D01*
X134400000Y-61400000D02*
X139200000Y-61400000D01*
X134400000Y-61400000D02*
X134400000Y-69000000D01*
D12*
X171583514Y-67470518D02*
G75*
G03X171583514Y-67470518I-6100001J0D01*
G01*
X148450000Y-71000000D02*
X148450000Y-70000000D01*
X150150000Y-70000000D02*
X150150000Y-71000000D01*
X146596197Y-70997797D02*
X146596197Y-69997797D01*
X148296197Y-69997797D02*
X148296197Y-70997797D01*
X150350000Y-71000000D02*
X150350000Y-70000000D01*
X152050000Y-70000000D02*
X152050000Y-71000000D01*
X152250000Y-71000000D02*
X152250000Y-70000000D01*
X153950000Y-70000000D02*
X153950000Y-71000000D01*
X144000000Y-72250000D02*
X143000000Y-72250000D01*
X143000000Y-70550000D02*
X144000000Y-70550000D01*
X142850000Y-52370000D02*
X151550000Y-52370000D01*
X142850000Y-58780000D02*
X151550000Y-58780000D01*
X151550000Y-58780000D02*
X151550000Y-52370000D01*
X151550000Y-53600000D02*
X142850000Y-53600000D01*
X142850000Y-52370000D02*
X142850000Y-58780000D01*
X136200000Y-60880000D02*
X137400000Y-60880000D01*
X137400000Y-59120000D02*
X136200000Y-59120000D01*
X144100000Y-66520000D02*
X142900000Y-66520000D01*
X142900000Y-68280000D02*
X144100000Y-68280000D01*
X136850000Y-58700000D02*
X139750000Y-58700000D01*
X136400000Y-58250000D02*
X136850000Y-58700000D01*
X135600000Y-55000000D02*
X135600000Y-57000000D01*
X136850000Y-53300000D02*
X136400000Y-53750000D01*
X139750000Y-53300000D02*
X136850000Y-53300000D01*
X140200000Y-53750000D02*
X139750000Y-53300000D01*
X141000000Y-57000000D02*
X141000000Y-55000000D01*
X139750000Y-58700000D02*
X140200000Y-58250000D01*
X142600000Y-62890000D02*
X144400000Y-62890000D01*
X144400000Y-66110000D02*
X141950000Y-66110000D01*
X149600000Y-62890000D02*
X151400000Y-62890000D01*
X151400000Y-66110000D02*
X148950000Y-66110000D01*
X153350000Y-65050000D02*
X157600000Y-65050000D01*
X153350000Y-62950000D02*
X157600000Y-62950000D01*
X153350000Y-65050000D02*
X153350000Y-62950000D01*
X153350000Y-67650000D02*
X157600000Y-67650000D01*
X153350000Y-65550000D02*
X157600000Y-65550000D01*
X153350000Y-67650000D02*
X153350000Y-65550000D01*
D11*
X159000000Y-52000000D02*
X155000000Y-52000000D01*
X155000000Y-53500000D02*
X155000000Y-52000000D01*
X159000000Y-53500000D02*
X159000000Y-52000000D01*
X161500000Y-54250000D02*
X161500000Y-57750000D01*
X152500000Y-54250000D02*
X152500000Y-57750000D01*
X161500000Y-57750000D02*
X160200000Y-57750000D01*
X153800000Y-57750000D02*
X152500000Y-57750000D01*
X153800000Y-54250000D02*
X152500000Y-54250000D01*
X161500000Y-54250000D02*
X160200000Y-54250000D01*
X139652381Y-62966667D02*
X140366667Y-62966667D01*
X140509524Y-62919047D01*
X140604762Y-62823809D01*
X140652381Y-62680952D01*
X140652381Y-62585714D01*
X139652381Y-63871429D02*
X139652381Y-63680952D01*
X139700000Y-63585714D01*
X139747619Y-63538095D01*
X139890476Y-63442857D01*
X140080952Y-63395238D01*
X140461905Y-63395238D01*
X140557143Y-63442857D01*
X140604762Y-63490476D01*
X140652381Y-63585714D01*
X140652381Y-63776191D01*
X140604762Y-63871429D01*
X140557143Y-63919048D01*
X140461905Y-63966667D01*
X140223810Y-63966667D01*
X140128571Y-63919048D01*
X140080952Y-63871429D01*
X140033333Y-63776191D01*
X140033333Y-63585714D01*
X140080952Y-63490476D01*
X140128571Y-63442857D01*
X140223810Y-63395238D01*
X141285714Y-75928571D02*
X141142857Y-75976190D01*
X141095238Y-76023810D01*
X141047619Y-76119048D01*
X141047619Y-76261905D01*
X141095238Y-76357143D01*
X141142857Y-76404762D01*
X141238095Y-76452381D01*
X141619048Y-76452381D01*
X141619048Y-75452381D01*
X141285714Y-75452381D01*
X141190476Y-75500000D01*
X141142857Y-75547619D01*
X141095238Y-75642857D01*
X141095238Y-75738095D01*
X141142857Y-75833333D01*
X141190476Y-75880952D01*
X141285714Y-75928571D01*
X141619048Y-75928571D01*
X140761905Y-75452381D02*
X140190476Y-75452381D01*
X140476191Y-76452381D02*
X140476191Y-75452381D01*
X139333333Y-76452381D02*
X139904762Y-76452381D01*
X139619048Y-76452381D02*
X139619048Y-75452381D01*
X139714286Y-75595238D01*
X139809524Y-75690476D01*
X139904762Y-75738095D01*
X166997002Y-74532447D02*
X166914032Y-74406783D01*
X166855710Y-74373111D01*
X166751392Y-74351764D01*
X166613403Y-74388738D01*
X166533735Y-74459384D01*
X166500063Y-74517705D01*
X166478716Y-74622023D01*
X166577314Y-74989995D01*
X167543240Y-74731176D01*
X167456966Y-74409200D01*
X167386321Y-74329532D01*
X167328000Y-74295860D01*
X167223682Y-74274513D01*
X167131689Y-74299163D01*
X167052021Y-74369808D01*
X167018349Y-74428130D01*
X166997002Y-74532447D01*
X167083275Y-74854423D01*
X167309070Y-73857243D02*
X167136524Y-73213292D01*
X166343144Y-74116062D01*
X166170598Y-73472111D01*
X165936428Y-72598178D02*
X166084325Y-73150136D01*
X166010377Y-72874158D02*
X166976303Y-72615339D01*
X166862963Y-72744306D01*
X166795619Y-72860948D01*
X166774272Y-72965265D01*
X164829603Y-72086459D02*
X164632407Y-71350515D01*
X164363033Y-71817084D02*
X165098977Y-71619888D01*
X149657143Y-73833334D02*
X149704762Y-73785715D01*
X149752381Y-73642858D01*
X149752381Y-73547620D01*
X149704762Y-73404762D01*
X149609524Y-73309524D01*
X149514286Y-73261905D01*
X149323810Y-73214286D01*
X149180952Y-73214286D01*
X148990476Y-73261905D01*
X148895238Y-73309524D01*
X148800000Y-73404762D01*
X148752381Y-73547620D01*
X148752381Y-73642858D01*
X148800000Y-73785715D01*
X148847619Y-73833334D01*
X149752381Y-74785715D02*
X149752381Y-74214286D01*
X149752381Y-74500000D02*
X148752381Y-74500000D01*
X148895238Y-74404762D01*
X148990476Y-74309524D01*
X149038095Y-74214286D01*
X147757143Y-73833334D02*
X147804762Y-73785715D01*
X147852381Y-73642858D01*
X147852381Y-73547620D01*
X147804762Y-73404762D01*
X147709524Y-73309524D01*
X147614286Y-73261905D01*
X147423810Y-73214286D01*
X147280952Y-73214286D01*
X147090476Y-73261905D01*
X146995238Y-73309524D01*
X146900000Y-73404762D01*
X146852381Y-73547620D01*
X146852381Y-73642858D01*
X146900000Y-73785715D01*
X146947619Y-73833334D01*
X146947619Y-74214286D02*
X146900000Y-74261905D01*
X146852381Y-74357143D01*
X146852381Y-74595239D01*
X146900000Y-74690477D01*
X146947619Y-74738096D01*
X147042857Y-74785715D01*
X147138095Y-74785715D01*
X147280952Y-74738096D01*
X147852381Y-74166667D01*
X147852381Y-74785715D01*
X151557143Y-73833334D02*
X151604762Y-73785715D01*
X151652381Y-73642858D01*
X151652381Y-73547620D01*
X151604762Y-73404762D01*
X151509524Y-73309524D01*
X151414286Y-73261905D01*
X151223810Y-73214286D01*
X151080952Y-73214286D01*
X150890476Y-73261905D01*
X150795238Y-73309524D01*
X150700000Y-73404762D01*
X150652381Y-73547620D01*
X150652381Y-73642858D01*
X150700000Y-73785715D01*
X150747619Y-73833334D01*
X150652381Y-74166667D02*
X150652381Y-74785715D01*
X151033333Y-74452381D01*
X151033333Y-74595239D01*
X151080952Y-74690477D01*
X151128571Y-74738096D01*
X151223810Y-74785715D01*
X151461905Y-74785715D01*
X151557143Y-74738096D01*
X151604762Y-74690477D01*
X151652381Y-74595239D01*
X151652381Y-74309524D01*
X151604762Y-74214286D01*
X151557143Y-74166667D01*
X153357143Y-73833334D02*
X153404762Y-73785715D01*
X153452381Y-73642858D01*
X153452381Y-73547620D01*
X153404762Y-73404762D01*
X153309524Y-73309524D01*
X153214286Y-73261905D01*
X153023810Y-73214286D01*
X152880952Y-73214286D01*
X152690476Y-73261905D01*
X152595238Y-73309524D01*
X152500000Y-73404762D01*
X152452381Y-73547620D01*
X152452381Y-73642858D01*
X152500000Y-73785715D01*
X152547619Y-73833334D01*
X152785714Y-74690477D02*
X153452381Y-74690477D01*
X152404762Y-74452381D02*
X153119048Y-74214286D01*
X153119048Y-74833334D01*
X143666666Y-73507143D02*
X143714285Y-73554762D01*
X143857142Y-73602381D01*
X143952380Y-73602381D01*
X144095238Y-73554762D01*
X144190476Y-73459524D01*
X144238095Y-73364286D01*
X144285714Y-73173810D01*
X144285714Y-73030952D01*
X144238095Y-72840476D01*
X144190476Y-72745238D01*
X144095238Y-72650000D01*
X143952380Y-72602381D01*
X143857142Y-72602381D01*
X143714285Y-72650000D01*
X143666666Y-72697619D01*
X142809523Y-72602381D02*
X143000000Y-72602381D01*
X143095238Y-72650000D01*
X143142857Y-72697619D01*
X143238095Y-72840476D01*
X143285714Y-73030952D01*
X143285714Y-73411905D01*
X143238095Y-73507143D01*
X143190476Y-73554762D01*
X143095238Y-73602381D01*
X142904761Y-73602381D01*
X142809523Y-73554762D01*
X142761904Y-73507143D01*
X142714285Y-73411905D01*
X142714285Y-73173810D01*
X142761904Y-73078571D01*
X142809523Y-73030952D01*
X142904761Y-72983333D01*
X143095238Y-72983333D01*
X143190476Y-73030952D01*
X143238095Y-73078571D01*
X143285714Y-73173810D01*
X144333333Y-59452381D02*
X144333333Y-60166667D01*
X144380953Y-60309524D01*
X144476191Y-60404762D01*
X144619048Y-60452381D01*
X144714286Y-60452381D01*
X143428571Y-59785714D02*
X143428571Y-60452381D01*
X143666667Y-59404762D02*
X143904762Y-60119048D01*
X143285714Y-60119048D01*
X140366666Y-60452381D02*
X140700000Y-59976190D01*
X140938095Y-60452381D02*
X140938095Y-59452381D01*
X140557142Y-59452381D01*
X140461904Y-59500000D01*
X140414285Y-59547619D01*
X140366666Y-59642857D01*
X140366666Y-59785714D01*
X140414285Y-59880952D01*
X140461904Y-59928571D01*
X140557142Y-59976190D01*
X140938095Y-59976190D01*
X140033333Y-59452381D02*
X139414285Y-59452381D01*
X139747619Y-59833333D01*
X139604761Y-59833333D01*
X139509523Y-59880952D01*
X139461904Y-59928571D01*
X139414285Y-60023810D01*
X139414285Y-60261905D01*
X139461904Y-60357143D01*
X139509523Y-60404762D01*
X139604761Y-60452381D01*
X139890476Y-60452381D01*
X139985714Y-60404762D01*
X140033333Y-60357143D01*
X143666666Y-69552381D02*
X144000000Y-69076190D01*
X144238095Y-69552381D02*
X144238095Y-68552381D01*
X143857142Y-68552381D01*
X143761904Y-68600000D01*
X143714285Y-68647619D01*
X143666666Y-68742857D01*
X143666666Y-68885714D01*
X143714285Y-68980952D01*
X143761904Y-69028571D01*
X143857142Y-69076190D01*
X144238095Y-69076190D01*
X142809523Y-68552381D02*
X143000000Y-68552381D01*
X143095238Y-68600000D01*
X143142857Y-68647619D01*
X143238095Y-68790476D01*
X143285714Y-68980952D01*
X143285714Y-69361905D01*
X143238095Y-69457143D01*
X143190476Y-69504762D01*
X143095238Y-69552381D01*
X142904761Y-69552381D01*
X142809523Y-69504762D01*
X142761904Y-69457143D01*
X142714285Y-69361905D01*
X142714285Y-69123810D01*
X142761904Y-69028571D01*
X142809523Y-68980952D01*
X142904761Y-68933333D01*
X143095238Y-68933333D01*
X143190476Y-68980952D01*
X143238095Y-69028571D01*
X143285714Y-69123810D01*
X139633333Y-55404762D02*
X139490476Y-55452381D01*
X139252380Y-55452381D01*
X139157142Y-55404762D01*
X139109523Y-55357143D01*
X139061904Y-55261905D01*
X139061904Y-55166667D01*
X139109523Y-55071429D01*
X139157142Y-55023810D01*
X139252380Y-54976190D01*
X139442857Y-54928571D01*
X139538095Y-54880952D01*
X139585714Y-54833333D01*
X139633333Y-54738095D01*
X139633333Y-54642857D01*
X139585714Y-54547619D01*
X139538095Y-54500000D01*
X139442857Y-54452381D01*
X139204761Y-54452381D01*
X139061904Y-54500000D01*
X138728571Y-54452381D02*
X138490476Y-55452381D01*
X138299999Y-54738095D01*
X138109523Y-55452381D01*
X137871428Y-54452381D01*
X137538095Y-54547619D02*
X137490476Y-54500000D01*
X137395238Y-54452381D01*
X137157142Y-54452381D01*
X137061904Y-54500000D01*
X137014285Y-54547619D01*
X136966666Y-54642857D01*
X136966666Y-54738095D01*
X137014285Y-54880952D01*
X137585714Y-55452381D01*
X136966666Y-55452381D01*
X144261905Y-61452381D02*
X144261905Y-62261905D01*
X144214286Y-62357143D01*
X144166667Y-62404762D01*
X144071429Y-62452381D01*
X143880952Y-62452381D01*
X143785714Y-62404762D01*
X143738095Y-62357143D01*
X143690476Y-62261905D01*
X143690476Y-61452381D01*
X143261905Y-61547619D02*
X143214286Y-61500000D01*
X143119048Y-61452381D01*
X142880952Y-61452381D01*
X142785714Y-61500000D01*
X142738095Y-61547619D01*
X142690476Y-61642857D01*
X142690476Y-61738095D01*
X142738095Y-61880952D01*
X143309524Y-62452381D01*
X142690476Y-62452381D01*
X151261905Y-66852381D02*
X151261905Y-67661905D01*
X151214286Y-67757143D01*
X151166667Y-67804762D01*
X151071429Y-67852381D01*
X150880952Y-67852381D01*
X150785714Y-67804762D01*
X150738095Y-67757143D01*
X150690476Y-67661905D01*
X150690476Y-66852381D01*
X150309524Y-66852381D02*
X149690476Y-66852381D01*
X150023810Y-67233333D01*
X149880952Y-67233333D01*
X149785714Y-67280952D01*
X149738095Y-67328571D01*
X149690476Y-67423810D01*
X149690476Y-67661905D01*
X149738095Y-67757143D01*
X149785714Y-67804762D01*
X149880952Y-67852381D01*
X150166667Y-67852381D01*
X150261905Y-67804762D01*
X150309524Y-67757143D01*
X156166666Y-62557143D02*
X156214285Y-62604762D01*
X156357142Y-62652381D01*
X156452380Y-62652381D01*
X156595238Y-62604762D01*
X156690476Y-62509524D01*
X156738095Y-62414286D01*
X156785714Y-62223810D01*
X156785714Y-62080952D01*
X156738095Y-61890476D01*
X156690476Y-61795238D01*
X156595238Y-61700000D01*
X156452380Y-61652381D01*
X156357142Y-61652381D01*
X156214285Y-61700000D01*
X156166666Y-61747619D01*
X155261904Y-61652381D02*
X155738095Y-61652381D01*
X155785714Y-62128571D01*
X155738095Y-62080952D01*
X155642857Y-62033333D01*
X155404761Y-62033333D01*
X155309523Y-62080952D01*
X155261904Y-62128571D01*
X155214285Y-62223810D01*
X155214285Y-62461905D01*
X155261904Y-62557143D01*
X155309523Y-62604762D01*
X155404761Y-62652381D01*
X155642857Y-62652381D01*
X155738095Y-62604762D01*
X155785714Y-62557143D01*
X156166666Y-68857143D02*
X156214285Y-68904762D01*
X156357142Y-68952381D01*
X156452380Y-68952381D01*
X156595238Y-68904762D01*
X156690476Y-68809524D01*
X156738095Y-68714286D01*
X156785714Y-68523810D01*
X156785714Y-68380952D01*
X156738095Y-68190476D01*
X156690476Y-68095238D01*
X156595238Y-68000000D01*
X156452380Y-67952381D01*
X156357142Y-67952381D01*
X156214285Y-68000000D01*
X156166666Y-68047619D01*
X155595238Y-68380952D02*
X155690476Y-68333333D01*
X155738095Y-68285714D01*
X155785714Y-68190476D01*
X155785714Y-68142857D01*
X155738095Y-68047619D01*
X155690476Y-68000000D01*
X155595238Y-67952381D01*
X155404761Y-67952381D01*
X155309523Y-68000000D01*
X155261904Y-68047619D01*
X155214285Y-68142857D01*
X155214285Y-68190476D01*
X155261904Y-68285714D01*
X155309523Y-68333333D01*
X155404761Y-68380952D01*
X155595238Y-68380952D01*
X155690476Y-68428571D01*
X155738095Y-68476190D01*
X155785714Y-68571429D01*
X155785714Y-68761905D01*
X155738095Y-68857143D01*
X155690476Y-68904762D01*
X155595238Y-68952381D01*
X155404761Y-68952381D01*
X155309523Y-68904762D01*
X155261904Y-68857143D01*
X155214285Y-68761905D01*
X155214285Y-68571429D01*
X155261904Y-68476190D01*
X155309523Y-68428571D01*
X155404761Y-68380952D01*
X164833333Y-56404762D02*
X164690476Y-56452381D01*
X164452380Y-56452381D01*
X164357142Y-56404762D01*
X164309523Y-56357143D01*
X164261904Y-56261905D01*
X164261904Y-56166667D01*
X164309523Y-56071429D01*
X164357142Y-56023810D01*
X164452380Y-55976190D01*
X164642857Y-55928571D01*
X164738095Y-55880952D01*
X164785714Y-55833333D01*
X164833333Y-55738095D01*
X164833333Y-55642857D01*
X164785714Y-55547619D01*
X164738095Y-55500000D01*
X164642857Y-55452381D01*
X164404761Y-55452381D01*
X164261904Y-55500000D01*
X163928571Y-55452381D02*
X163690476Y-56452381D01*
X163499999Y-55738095D01*
X163309523Y-56452381D01*
X163071428Y-55452381D01*
X162785714Y-55452381D02*
X162166666Y-55452381D01*
X162500000Y-55833333D01*
X162357142Y-55833333D01*
X162261904Y-55880952D01*
X162214285Y-55928571D01*
X162166666Y-56023810D01*
X162166666Y-56261905D01*
X162214285Y-56357143D01*
X162261904Y-56404762D01*
X162357142Y-56452381D01*
X162642857Y-56452381D01*
X162738095Y-56404762D01*
X162785714Y-56357143D01*
X162833333Y-73452381D02*
X162833333Y-74166667D01*
X162880953Y-74309524D01*
X162976191Y-74404762D01*
X163119048Y-74452381D01*
X163214286Y-74452381D01*
X161880952Y-73452381D02*
X162357143Y-73452381D01*
X162404762Y-73928571D01*
X162357143Y-73880952D01*
X162261905Y-73833333D01*
X162023809Y-73833333D01*
X161928571Y-73880952D01*
X161880952Y-73928571D01*
X161833333Y-74023810D01*
X161833333Y-74261905D01*
X161880952Y-74357143D01*
X161928571Y-74404762D01*
X162023809Y-74452381D01*
X162261905Y-74452381D01*
X162357143Y-74404762D01*
X162404762Y-74357143D01*
X164833333Y-59452381D02*
X164833333Y-60166667D01*
X164880953Y-60309524D01*
X164976191Y-60404762D01*
X165119048Y-60452381D01*
X165214286Y-60452381D01*
X164452381Y-59452381D02*
X163833333Y-59452381D01*
X164166667Y-59833333D01*
X164023809Y-59833333D01*
X163928571Y-59880952D01*
X163880952Y-59928571D01*
X163833333Y-60023810D01*
X163833333Y-60261905D01*
X163880952Y-60357143D01*
X163928571Y-60404762D01*
X164023809Y-60452381D01*
X164309524Y-60452381D01*
X164404762Y-60404762D01*
X164452381Y-60357143D01*
M02*
