G04 #@! TF.FileFunction,Soldermask,Top*
%FSLAX46Y46*%
G04 Gerber Fmt 4.6, Leading zero omitted, Abs format (unit mm)*
G04 Created by KiCad (PCBNEW 4.0.6) date 10/02/17 14:09:37*
%MOMM*%
%LPD*%
G01*
G04 APERTURE LIST*
%ADD10C,0.100000*%
%ADD11R,1.700000X1.700000*%
%ADD12C,1.700000*%
%ADD13O,1.700000X1.700000*%
%ADD14C,2.000000*%
%ADD15R,1.250000X1.500000*%
%ADD16R,1.500000X1.300000*%
%ADD17O,1.250000X0.950000*%
%ADD18O,1.000000X1.550000*%
%ADD19R,1.300000X1.500000*%
%ADD20R,1.800000X1.100000*%
%ADD21R,1.550000X1.300000*%
%ADD22R,0.850000X0.300000*%
%ADD23R,0.300000X0.850000*%
%ADD24R,0.300000X0.730000*%
%ADD25R,0.730000X0.300000*%
%ADD26R,1.250000X1.250000*%
%ADD27C,0.900000*%
%ADD28R,0.850000X0.850000*%
%ADD29O,0.850000X0.850000*%
G04 APERTURE END LIST*
D10*
D11*
X135500000Y-62690000D03*
D12*
X138040000Y-62690000D03*
X135500000Y-65230000D03*
X138040000Y-65230000D03*
X135500000Y-67770000D03*
X138040000Y-67770000D03*
X135500000Y-70310000D03*
X138040000Y-70310000D03*
D11*
X137000000Y-76000000D03*
D13*
X137000000Y-78540000D03*
D10*
G36*
X167691770Y-71848143D02*
X165759918Y-72365781D01*
X165242280Y-70433929D01*
X167174132Y-69916291D01*
X167691770Y-71848143D01*
X167691770Y-71848143D01*
G37*
D14*
X164500000Y-63800000D03*
D15*
X157700000Y-54550000D03*
X157700000Y-57050000D03*
D16*
X148350000Y-54500000D03*
X145650000Y-54500000D03*
X155350000Y-54500000D03*
X152650000Y-54500000D03*
X163350000Y-54500000D03*
X160650000Y-54500000D03*
D17*
X144700000Y-57750000D03*
X149700000Y-57750000D03*
D18*
X143700000Y-55050000D03*
X150700000Y-55050000D03*
D11*
X164300000Y-66500000D03*
D13*
X166840000Y-66500000D03*
D19*
X153000000Y-69650000D03*
X153000000Y-72350000D03*
X151000000Y-69650000D03*
X151000000Y-72350000D03*
D16*
X147350000Y-66000000D03*
X144650000Y-66000000D03*
X145650000Y-56500000D03*
X148350000Y-56500000D03*
X155350000Y-57400000D03*
X152650000Y-57400000D03*
X142650000Y-86000000D03*
X145350000Y-86000000D03*
X163350000Y-57400000D03*
X160650000Y-57400000D03*
X150250000Y-86000000D03*
X152950000Y-86000000D03*
X157650000Y-86000000D03*
X160350000Y-86000000D03*
D20*
X141400000Y-57850000D03*
X135200000Y-57850000D03*
X141400000Y-54150000D03*
X135200000Y-54150000D03*
D21*
X136025000Y-88750000D03*
X143975000Y-88750000D03*
X136025000Y-93250000D03*
X143975000Y-93250000D03*
X147525000Y-88750000D03*
X155475000Y-88750000D03*
X147525000Y-93250000D03*
X155475000Y-93250000D03*
X159025000Y-88750000D03*
X166975000Y-88750000D03*
X159025000Y-93250000D03*
X166975000Y-93250000D03*
D22*
X147950000Y-71250000D03*
X147950000Y-70750000D03*
X147950000Y-70250000D03*
X147950000Y-69750000D03*
X147950000Y-69250000D03*
X147950000Y-68750000D03*
D23*
X147250000Y-68050000D03*
X146750000Y-68050000D03*
X146250000Y-68050000D03*
X145750000Y-68050000D03*
X145250000Y-68050000D03*
X144750000Y-68050000D03*
D22*
X144050000Y-68750000D03*
X144050000Y-69250000D03*
X144050000Y-69750000D03*
X144050000Y-70250000D03*
X144050000Y-70750000D03*
X144050000Y-71250000D03*
D23*
X144750000Y-71950000D03*
X145250000Y-71950000D03*
X145750000Y-71950000D03*
X146250000Y-71950000D03*
X146750000Y-71950000D03*
X147250000Y-71950000D03*
D24*
X156000000Y-71965000D03*
X156500000Y-71965000D03*
X157000000Y-71965000D03*
X157500000Y-71965000D03*
X158000000Y-71965000D03*
D25*
X158965000Y-71000000D03*
X158965000Y-70500000D03*
X158965000Y-70000000D03*
X158965000Y-69500000D03*
X158965000Y-69000000D03*
D24*
X158000000Y-68035000D03*
X157500000Y-68035000D03*
X157000000Y-68035000D03*
X156500000Y-68035000D03*
X156000000Y-68035000D03*
D25*
X155035000Y-69000000D03*
X155035000Y-69500000D03*
X155035000Y-70000000D03*
X155035000Y-70500000D03*
X155035000Y-71000000D03*
D26*
X157625000Y-69375000D03*
X156375000Y-69375000D03*
X157625000Y-70625000D03*
X156375000Y-70625000D03*
D27*
X160200000Y-56000000D03*
X153800000Y-56000000D03*
D28*
X162000000Y-69500000D03*
D29*
X163000000Y-69500000D03*
X162000000Y-70500000D03*
X163000000Y-70500000D03*
X162000000Y-71500000D03*
X163000000Y-71500000D03*
D11*
X147660000Y-60500000D03*
D12*
X150200000Y-60500000D03*
X152740000Y-60500000D03*
X155280000Y-60500000D03*
X139460000Y-85000000D03*
X163460000Y-85000000D03*
D11*
X167000000Y-54500000D03*
D13*
X167000000Y-57040000D03*
X167000000Y-59580000D03*
X167000000Y-62120000D03*
M02*
