G04 #@! TF.FileFunction,Soldermask,Bot*
%FSLAX46Y46*%
G04 Gerber Fmt 4.6, Leading zero omitted, Abs format (unit mm)*
G04 Created by KiCad (PCBNEW 4.0.6) date 09/01/17 10:43:57*
%MOMM*%
%LPD*%
G01*
G04 APERTURE LIST*
%ADD10C,0.100000*%
%ADD11R,2.100000X2.100000*%
%ADD12O,2.100000X2.100000*%
%ADD13C,2.899360*%
G04 APERTURE END LIST*
D10*
D11*
X112260000Y-114540000D03*
D12*
X112260000Y-112000000D03*
X114800000Y-114540000D03*
X114800000Y-112000000D03*
X117340000Y-114540000D03*
X117340000Y-112000000D03*
X119880000Y-114540000D03*
X119880000Y-112000000D03*
D11*
X119000000Y-98050000D03*
D13*
X175000000Y-112120000D03*
X175000000Y-122280000D03*
D11*
X179000000Y-105840000D03*
D12*
X179000000Y-103300000D03*
D11*
X173500000Y-83300000D03*
D12*
X173500000Y-85840000D03*
X170960000Y-83300000D03*
X170960000Y-85840000D03*
X168420000Y-83300000D03*
X168420000Y-85840000D03*
D11*
X168660000Y-108600000D03*
D12*
X166120000Y-108600000D03*
X163580000Y-108600000D03*
X161040000Y-108600000D03*
X158500000Y-108600000D03*
X155960000Y-108600000D03*
D11*
X103000000Y-92540000D03*
D12*
X103000000Y-95080000D03*
X103000000Y-97620000D03*
X103000000Y-100160000D03*
X103000000Y-102700000D03*
X103000000Y-105240000D03*
X103000000Y-107780000D03*
X103000000Y-110320000D03*
D11*
X110600000Y-83300000D03*
D12*
X108060000Y-83300000D03*
X105520000Y-83300000D03*
X102980000Y-83300000D03*
D11*
X161720000Y-83300000D03*
D12*
X159180000Y-83300000D03*
X156640000Y-83300000D03*
X154100000Y-83300000D03*
D11*
X143740000Y-89800000D03*
D12*
X141200000Y-89800000D03*
X138660000Y-89800000D03*
X136120000Y-89800000D03*
D11*
X146660000Y-85300000D03*
D12*
X149200000Y-85300000D03*
D11*
X113600000Y-83300000D03*
D12*
X116140000Y-83300000D03*
X118680000Y-83300000D03*
X121220000Y-83300000D03*
D11*
X103000000Y-123300000D03*
D12*
X103000000Y-120760000D03*
X103000000Y-118220000D03*
X103000000Y-115680000D03*
D11*
X166300000Y-123300000D03*
D12*
X163760000Y-123300000D03*
X161220000Y-123300000D03*
X158680000Y-123300000D03*
D11*
X179000000Y-83300000D03*
D12*
X179000000Y-85840000D03*
X179000000Y-88380000D03*
X179000000Y-90920000D03*
M02*
