G04 #@! TF.FileFunction,Legend,Top*
%FSLAX46Y46*%
G04 Gerber Fmt 4.6, Leading zero omitted, Abs format (unit mm)*
G04 Created by KiCad (PCBNEW 4.0.6) date 09/01/17 10:43:57*
%MOMM*%
%LPD*%
G01*
G04 APERTURE LIST*
%ADD10C,0.100000*%
%ADD11C,0.150000*%
%ADD12C,0.250000*%
%ADD13C,0.200000*%
%ADD14C,0.120000*%
%ADD15C,0.125000*%
G04 APERTURE END LIST*
D10*
D11*
X170100000Y-106300000D02*
X171900000Y-106300000D01*
X171000000Y-106300000D02*
X170100000Y-105100000D01*
X171900000Y-105100000D02*
X171000000Y-106300000D01*
X170100000Y-105100000D02*
X171900000Y-105100000D01*
D12*
X158414285Y-113027381D02*
X158604762Y-113027381D01*
X158700000Y-113075000D01*
X158795238Y-113170238D01*
X158842857Y-113360714D01*
X158842857Y-113694048D01*
X158795238Y-113884524D01*
X158700000Y-113979762D01*
X158604762Y-114027381D01*
X158414285Y-114027381D01*
X158319047Y-113979762D01*
X158223809Y-113884524D01*
X158176190Y-113694048D01*
X158176190Y-113360714D01*
X158223809Y-113170238D01*
X158319047Y-113075000D01*
X158414285Y-113027381D01*
X159271428Y-113360714D02*
X159271428Y-114360714D01*
X159271428Y-113408333D02*
X159366666Y-113360714D01*
X159557143Y-113360714D01*
X159652381Y-113408333D01*
X159700000Y-113455952D01*
X159747619Y-113551190D01*
X159747619Y-113836905D01*
X159700000Y-113932143D01*
X159652381Y-113979762D01*
X159557143Y-114027381D01*
X159366666Y-114027381D01*
X159271428Y-113979762D01*
X160557143Y-113979762D02*
X160461905Y-114027381D01*
X160271428Y-114027381D01*
X160176190Y-113979762D01*
X160128571Y-113884524D01*
X160128571Y-113503571D01*
X160176190Y-113408333D01*
X160271428Y-113360714D01*
X160461905Y-113360714D01*
X160557143Y-113408333D01*
X160604762Y-113503571D01*
X160604762Y-113598810D01*
X160128571Y-113694048D01*
X161033333Y-113360714D02*
X161033333Y-114027381D01*
X161033333Y-113455952D02*
X161080952Y-113408333D01*
X161176190Y-113360714D01*
X161319048Y-113360714D01*
X161414286Y-113408333D01*
X161461905Y-113503571D01*
X161461905Y-114027381D01*
X162509524Y-113932143D02*
X162461905Y-113979762D01*
X162319048Y-114027381D01*
X162223810Y-114027381D01*
X162080952Y-113979762D01*
X161985714Y-113884524D01*
X161938095Y-113789286D01*
X161890476Y-113598810D01*
X161890476Y-113455952D01*
X161938095Y-113265476D01*
X161985714Y-113170238D01*
X162080952Y-113075000D01*
X162223810Y-113027381D01*
X162319048Y-113027381D01*
X162461905Y-113075000D01*
X162509524Y-113122619D01*
X162938095Y-114027381D02*
X162938095Y-113360714D01*
X162938095Y-113551190D02*
X162985714Y-113455952D01*
X163033333Y-113408333D01*
X163128571Y-113360714D01*
X163223810Y-113360714D01*
X163557143Y-114027381D02*
X163557143Y-113360714D01*
X163557143Y-113027381D02*
X163509524Y-113075000D01*
X163557143Y-113122619D01*
X163604762Y-113075000D01*
X163557143Y-113027381D01*
X163557143Y-113122619D01*
X163890476Y-113360714D02*
X164271428Y-113360714D01*
X164033333Y-113027381D02*
X164033333Y-113884524D01*
X164080952Y-113979762D01*
X164176190Y-114027381D01*
X164271428Y-114027381D01*
X164461905Y-113360714D02*
X164842857Y-113360714D01*
X164604762Y-113027381D02*
X164604762Y-113884524D01*
X164652381Y-113979762D01*
X164747619Y-114027381D01*
X164842857Y-114027381D01*
X165557144Y-113979762D02*
X165461906Y-114027381D01*
X165271429Y-114027381D01*
X165176191Y-113979762D01*
X165128572Y-113884524D01*
X165128572Y-113503571D01*
X165176191Y-113408333D01*
X165271429Y-113360714D01*
X165461906Y-113360714D01*
X165557144Y-113408333D01*
X165604763Y-113503571D01*
X165604763Y-113598810D01*
X165128572Y-113694048D01*
X166033334Y-114027381D02*
X166033334Y-113360714D01*
X166033334Y-113551190D02*
X166080953Y-113455952D01*
X166128572Y-113408333D01*
X166223810Y-113360714D01*
X166319049Y-113360714D01*
X159247619Y-115777381D02*
X159247619Y-114777381D01*
X159485714Y-114777381D01*
X159628572Y-114825000D01*
X159723810Y-114920238D01*
X159771429Y-115015476D01*
X159819048Y-115205952D01*
X159819048Y-115348810D01*
X159771429Y-115539286D01*
X159723810Y-115634524D01*
X159628572Y-115729762D01*
X159485714Y-115777381D01*
X159247619Y-115777381D01*
X160628572Y-115729762D02*
X160533334Y-115777381D01*
X160342857Y-115777381D01*
X160247619Y-115729762D01*
X160200000Y-115634524D01*
X160200000Y-115253571D01*
X160247619Y-115158333D01*
X160342857Y-115110714D01*
X160533334Y-115110714D01*
X160628572Y-115158333D01*
X160676191Y-115253571D01*
X160676191Y-115348810D01*
X160200000Y-115444048D01*
X161009524Y-115110714D02*
X161247619Y-115777381D01*
X161485715Y-115110714D01*
X161866667Y-115777381D02*
X161866667Y-114777381D01*
X162438096Y-115777381D02*
X162009524Y-115205952D01*
X162438096Y-114777381D02*
X161866667Y-115348810D01*
X162866667Y-115777381D02*
X162866667Y-115110714D01*
X162866667Y-114777381D02*
X162819048Y-114825000D01*
X162866667Y-114872619D01*
X162914286Y-114825000D01*
X162866667Y-114777381D01*
X162866667Y-114872619D01*
X163200000Y-115110714D02*
X163580952Y-115110714D01*
X163342857Y-114777381D02*
X163342857Y-115634524D01*
X163390476Y-115729762D01*
X163485714Y-115777381D01*
X163580952Y-115777381D01*
X165200001Y-115777381D02*
X164628572Y-115777381D01*
X164914286Y-115777381D02*
X164914286Y-114777381D01*
X164819048Y-114920238D01*
X164723810Y-115015476D01*
X164628572Y-115063095D01*
X160819048Y-117527381D02*
X160485714Y-117051190D01*
X160247619Y-117527381D02*
X160247619Y-116527381D01*
X160628572Y-116527381D01*
X160723810Y-116575000D01*
X160771429Y-116622619D01*
X160819048Y-116717857D01*
X160819048Y-116860714D01*
X160771429Y-116955952D01*
X160723810Y-117003571D01*
X160628572Y-117051190D01*
X160247619Y-117051190D01*
X161247619Y-117003571D02*
X161580953Y-117003571D01*
X161723810Y-117527381D02*
X161247619Y-117527381D01*
X161247619Y-116527381D01*
X161723810Y-116527381D01*
X162009524Y-116527381D02*
X162342857Y-117527381D01*
X162676191Y-116527381D01*
X163723810Y-117241667D02*
X164200001Y-117241667D01*
X163628572Y-117527381D02*
X163961905Y-116527381D01*
X164295239Y-117527381D01*
X158652381Y-118991667D02*
X159128572Y-118991667D01*
X158557143Y-119277381D02*
X158890476Y-118277381D01*
X159223810Y-119277381D01*
X159557143Y-118277381D02*
X159557143Y-119086905D01*
X159604762Y-119182143D01*
X159652381Y-119229762D01*
X159747619Y-119277381D01*
X159938096Y-119277381D01*
X160033334Y-119229762D01*
X160080953Y-119182143D01*
X160128572Y-119086905D01*
X160128572Y-118277381D01*
X161128572Y-118325000D02*
X161033334Y-118277381D01*
X160890477Y-118277381D01*
X160747619Y-118325000D01*
X160652381Y-118420238D01*
X160604762Y-118515476D01*
X160557143Y-118705952D01*
X160557143Y-118848810D01*
X160604762Y-119039286D01*
X160652381Y-119134524D01*
X160747619Y-119229762D01*
X160890477Y-119277381D01*
X160985715Y-119277381D01*
X161128572Y-119229762D01*
X161176191Y-119182143D01*
X161176191Y-118848810D01*
X160985715Y-118848810D01*
X162319048Y-118372619D02*
X162366667Y-118325000D01*
X162461905Y-118277381D01*
X162700001Y-118277381D01*
X162795239Y-118325000D01*
X162842858Y-118372619D01*
X162890477Y-118467857D01*
X162890477Y-118563095D01*
X162842858Y-118705952D01*
X162271429Y-119277381D01*
X162890477Y-119277381D01*
X163509524Y-118277381D02*
X163604763Y-118277381D01*
X163700001Y-118325000D01*
X163747620Y-118372619D01*
X163795239Y-118467857D01*
X163842858Y-118658333D01*
X163842858Y-118896429D01*
X163795239Y-119086905D01*
X163747620Y-119182143D01*
X163700001Y-119229762D01*
X163604763Y-119277381D01*
X163509524Y-119277381D01*
X163414286Y-119229762D01*
X163366667Y-119182143D01*
X163319048Y-119086905D01*
X163271429Y-118896429D01*
X163271429Y-118658333D01*
X163319048Y-118467857D01*
X163366667Y-118372619D01*
X163414286Y-118325000D01*
X163509524Y-118277381D01*
X164795239Y-119277381D02*
X164223810Y-119277381D01*
X164509524Y-119277381D02*
X164509524Y-118277381D01*
X164414286Y-118420238D01*
X164319048Y-118515476D01*
X164223810Y-118563095D01*
X165128572Y-118277381D02*
X165795239Y-118277381D01*
X165366667Y-119277381D01*
D11*
X110300000Y-123200000D02*
X110300000Y-122700000D01*
X109800000Y-122700000D02*
X110300000Y-123200000D01*
X110300000Y-122700000D02*
X109800000Y-122700000D01*
X109800000Y-123300000D02*
X110300000Y-122700000D01*
X106800000Y-123300000D02*
X109800000Y-123300000D01*
X123752381Y-115857143D02*
X122752381Y-115857143D01*
X123228571Y-115857143D02*
X123228571Y-115285714D01*
X123752381Y-115285714D02*
X122752381Y-115285714D01*
X123704762Y-114428571D02*
X123752381Y-114523809D01*
X123752381Y-114714286D01*
X123704762Y-114809524D01*
X123609524Y-114857143D01*
X123228571Y-114857143D01*
X123133333Y-114809524D01*
X123085714Y-114714286D01*
X123085714Y-114523809D01*
X123133333Y-114428571D01*
X123228571Y-114380952D01*
X123323810Y-114380952D01*
X123419048Y-114857143D01*
X123752381Y-113523809D02*
X123228571Y-113523809D01*
X123133333Y-113571428D01*
X123085714Y-113666666D01*
X123085714Y-113857143D01*
X123133333Y-113952381D01*
X123704762Y-113523809D02*
X123752381Y-113619047D01*
X123752381Y-113857143D01*
X123704762Y-113952381D01*
X123609524Y-114000000D01*
X123514286Y-114000000D01*
X123419048Y-113952381D01*
X123371429Y-113857143D01*
X123371429Y-113619047D01*
X123323810Y-113523809D01*
X123752381Y-112619047D02*
X122752381Y-112619047D01*
X123704762Y-112619047D02*
X123752381Y-112714285D01*
X123752381Y-112904762D01*
X123704762Y-113000000D01*
X123657143Y-113047619D01*
X123561905Y-113095238D01*
X123276190Y-113095238D01*
X123180952Y-113047619D01*
X123133333Y-113000000D01*
X123085714Y-112904762D01*
X123085714Y-112714285D01*
X123133333Y-112619047D01*
X123704762Y-111761904D02*
X123752381Y-111857142D01*
X123752381Y-112047619D01*
X123704762Y-112142857D01*
X123609524Y-112190476D01*
X123228571Y-112190476D01*
X123133333Y-112142857D01*
X123085714Y-112047619D01*
X123085714Y-111857142D01*
X123133333Y-111761904D01*
X123228571Y-111714285D01*
X123323810Y-111714285D01*
X123419048Y-112190476D01*
X123752381Y-111285714D02*
X123085714Y-111285714D01*
X123276190Y-111285714D02*
X123180952Y-111238095D01*
X123133333Y-111190476D01*
X123085714Y-111095238D01*
X123085714Y-110999999D01*
D13*
X126300000Y-116000000D02*
X126300000Y-88300000D01*
X126300000Y-116000000D02*
X153600000Y-116000000D01*
X153600000Y-88300000D02*
X153600000Y-116000000D01*
X126300000Y-88300000D02*
X153600000Y-88300000D01*
D14*
X121210000Y-115870000D02*
X121210000Y-110670000D01*
X113530000Y-115870000D02*
X121210000Y-115870000D01*
X110930000Y-110670000D02*
X121210000Y-110670000D01*
X113530000Y-115870000D02*
X113530000Y-113270000D01*
X113530000Y-113270000D02*
X110930000Y-113270000D01*
X110930000Y-113270000D02*
X110930000Y-110670000D01*
X112260000Y-115870000D02*
X110930000Y-115870000D01*
X110930000Y-115870000D02*
X110930000Y-114540000D01*
D11*
X116625000Y-101675000D02*
X116625000Y-102200000D01*
X111375000Y-106925000D02*
X111375000Y-106400000D01*
X116625000Y-106925000D02*
X116625000Y-106400000D01*
X111375000Y-101675000D02*
X111900000Y-101675000D01*
X111375000Y-106925000D02*
X111900000Y-106925000D01*
X116625000Y-106925000D02*
X116100000Y-106925000D01*
X116625000Y-101675000D02*
X116100000Y-101675000D01*
D14*
X117670000Y-99380000D02*
X120330000Y-99380000D01*
X117670000Y-99320000D02*
X117670000Y-99380000D01*
X120330000Y-99320000D02*
X120330000Y-99380000D01*
X117670000Y-99320000D02*
X120330000Y-99320000D01*
X117670000Y-98050000D02*
X117670000Y-96720000D01*
X117670000Y-96720000D02*
X119000000Y-96720000D01*
X183004871Y-117200000D02*
G75*
G03X183004871Y-117200000I-8004871J0D01*
G01*
X158500000Y-104450000D02*
X157500000Y-104450000D01*
X157500000Y-106150000D02*
X158500000Y-106150000D01*
X157950000Y-89400000D02*
X157950000Y-88400000D01*
X156250000Y-88400000D02*
X156250000Y-89400000D01*
X164250000Y-88400000D02*
X164250000Y-89400000D01*
X165950000Y-89400000D02*
X165950000Y-88400000D01*
X109500000Y-97450000D02*
X108500000Y-97450000D01*
X108500000Y-99150000D02*
X109500000Y-99150000D01*
X108850000Y-94300000D02*
X108850000Y-93300000D01*
X107150000Y-93300000D02*
X107150000Y-94300000D01*
X107150000Y-112800000D02*
X107150000Y-113800000D01*
X108850000Y-113800000D02*
X108850000Y-112800000D01*
X110850000Y-94300000D02*
X110850000Y-93300000D01*
X109150000Y-93300000D02*
X109150000Y-94300000D01*
X117150000Y-93300000D02*
X117150000Y-94300000D01*
X118850000Y-94300000D02*
X118850000Y-93300000D01*
X171756554Y-101420242D02*
X171756554Y-104620242D01*
X170256554Y-104620242D02*
X170256554Y-101420242D01*
X170256554Y-104620242D02*
X171756554Y-104620242D01*
X129500000Y-86980000D02*
X128500000Y-86980000D01*
X128500000Y-85620000D02*
X129500000Y-85620000D01*
X129500000Y-84980000D02*
X128500000Y-84980000D01*
X128500000Y-83620000D02*
X129500000Y-83620000D01*
X121130000Y-93200000D02*
X121130000Y-94400000D01*
X119370000Y-94400000D02*
X119370000Y-93200000D01*
X123380000Y-93200000D02*
X123380000Y-94400000D01*
X121620000Y-94400000D02*
X121620000Y-93200000D01*
X180330000Y-101970000D02*
X177670000Y-101970000D01*
X180330000Y-104570000D02*
X180330000Y-101970000D01*
X177670000Y-104570000D02*
X177670000Y-101970000D01*
X180330000Y-104570000D02*
X177670000Y-104570000D01*
X180330000Y-105840000D02*
X180330000Y-107170000D01*
X180330000Y-107170000D02*
X179000000Y-107170000D01*
X122880000Y-120700000D02*
X122880000Y-121900000D01*
X121120000Y-121900000D02*
X121120000Y-120700000D01*
X134880000Y-120700000D02*
X134880000Y-121900000D01*
X133120000Y-121900000D02*
X133120000Y-120700000D01*
X146880000Y-120700000D02*
X146880000Y-121900000D01*
X145120000Y-121900000D02*
X145120000Y-120700000D01*
X169886554Y-101820242D02*
X169886554Y-103020242D01*
X168126554Y-103020242D02*
X168126554Y-101820242D01*
X173620000Y-103000000D02*
X173620000Y-101800000D01*
X175380000Y-101800000D02*
X175380000Y-103000000D01*
X119900000Y-107920000D02*
X121100000Y-107920000D01*
X121100000Y-109680000D02*
X119900000Y-109680000D01*
X114600000Y-109680000D02*
X113400000Y-109680000D01*
X113400000Y-107920000D02*
X114600000Y-107920000D01*
X113400000Y-97420000D02*
X114600000Y-97420000D01*
X114600000Y-99180000D02*
X113400000Y-99180000D01*
X126550000Y-118700000D02*
X129450000Y-118700000D01*
X126100000Y-119150000D02*
X126550000Y-118700000D01*
X125300000Y-122400000D02*
X125300000Y-120400000D01*
X126550000Y-124100000D02*
X126100000Y-123650000D01*
X129450000Y-124100000D02*
X126550000Y-124100000D01*
X129900000Y-123650000D02*
X129450000Y-124100000D01*
X130700000Y-120400000D02*
X130700000Y-122400000D01*
X129450000Y-118700000D02*
X129900000Y-119150000D01*
X138550000Y-118700000D02*
X141450000Y-118700000D01*
X138100000Y-119150000D02*
X138550000Y-118700000D01*
X137300000Y-122400000D02*
X137300000Y-120400000D01*
X138550000Y-124100000D02*
X138100000Y-123650000D01*
X141450000Y-124100000D02*
X138550000Y-124100000D01*
X141900000Y-123650000D02*
X141450000Y-124100000D01*
X142700000Y-120400000D02*
X142700000Y-122400000D01*
X141450000Y-118700000D02*
X141900000Y-119150000D01*
X150550000Y-118700000D02*
X153450000Y-118700000D01*
X150100000Y-119150000D02*
X150550000Y-118700000D01*
X149300000Y-122400000D02*
X149300000Y-120400000D01*
X150550000Y-124100000D02*
X150100000Y-123650000D01*
X153450000Y-124100000D02*
X150550000Y-124100000D01*
X153900000Y-123650000D02*
X153450000Y-124100000D01*
X154700000Y-120400000D02*
X154700000Y-122400000D01*
X153450000Y-118700000D02*
X153900000Y-119150000D01*
X170550000Y-90050000D02*
X173450000Y-90050000D01*
X170100000Y-90500000D02*
X170550000Y-90050000D01*
X169300000Y-93750000D02*
X169300000Y-91750000D01*
X170550000Y-95450000D02*
X170100000Y-95000000D01*
X173450000Y-95450000D02*
X170550000Y-95450000D01*
X173900000Y-95000000D02*
X173450000Y-95450000D01*
X174700000Y-91750000D02*
X174700000Y-93750000D01*
X173450000Y-90050000D02*
X173900000Y-90500000D01*
X158350000Y-86700000D02*
X158350000Y-91200000D01*
X158350000Y-91200000D02*
X163750000Y-91200000D01*
X111300000Y-91550000D02*
X111300000Y-96050000D01*
X111300000Y-96050000D02*
X116700000Y-96050000D01*
X167090000Y-81970000D02*
X167090000Y-87170000D01*
X172230000Y-81970000D02*
X167090000Y-81970000D01*
X174830000Y-87170000D02*
X167090000Y-87170000D01*
X172230000Y-81970000D02*
X172230000Y-84570000D01*
X172230000Y-84570000D02*
X174830000Y-84570000D01*
X174830000Y-84570000D02*
X174830000Y-87170000D01*
X173500000Y-81970000D02*
X174830000Y-81970000D01*
X174830000Y-81970000D02*
X174830000Y-83300000D01*
D11*
X117925000Y-105875000D02*
X117975000Y-105875000D01*
X117925000Y-101725000D02*
X118070000Y-101725000D01*
X123075000Y-101725000D02*
X122930000Y-101725000D01*
X123075000Y-105875000D02*
X122930000Y-105875000D01*
X117925000Y-105875000D02*
X117925000Y-101725000D01*
X123075000Y-105875000D02*
X123075000Y-101725000D01*
X117975000Y-105875000D02*
X117975000Y-107275000D01*
D14*
X154630000Y-107270000D02*
X154630000Y-109930000D01*
X167390000Y-107270000D02*
X154630000Y-107270000D01*
X167390000Y-109930000D02*
X154630000Y-109930000D01*
X167390000Y-107270000D02*
X167390000Y-109930000D01*
X168660000Y-107270000D02*
X169990000Y-107270000D01*
X169990000Y-107270000D02*
X169990000Y-108600000D01*
X101670000Y-111650000D02*
X104330000Y-111650000D01*
X101670000Y-93810000D02*
X101670000Y-111650000D01*
X104330000Y-93810000D02*
X104330000Y-111650000D01*
X101670000Y-93810000D02*
X104330000Y-93810000D01*
X101670000Y-92540000D02*
X101670000Y-91210000D01*
X101670000Y-91210000D02*
X103000000Y-91210000D01*
D11*
X164625000Y-94875000D02*
X164400000Y-94875000D01*
X164625000Y-102125000D02*
X164300000Y-102125000D01*
X157375000Y-102125000D02*
X157700000Y-102125000D01*
X157375000Y-94875000D02*
X157700000Y-94875000D01*
X164625000Y-94875000D02*
X164625000Y-95200000D01*
X157375000Y-94875000D02*
X157375000Y-95200000D01*
X157375000Y-102125000D02*
X157375000Y-101800000D01*
X164625000Y-102125000D02*
X164625000Y-101800000D01*
X164400000Y-94875000D02*
X164400000Y-93450000D01*
D14*
X101650000Y-81970000D02*
X101650000Y-84630000D01*
X109330000Y-81970000D02*
X101650000Y-81970000D01*
X109330000Y-84630000D02*
X101650000Y-84630000D01*
X109330000Y-81970000D02*
X109330000Y-84630000D01*
X110600000Y-81970000D02*
X111930000Y-81970000D01*
X111930000Y-81970000D02*
X111930000Y-83300000D01*
X152770000Y-81970000D02*
X152770000Y-84630000D01*
X160450000Y-81970000D02*
X152770000Y-81970000D01*
X160450000Y-84630000D02*
X152770000Y-84630000D01*
X160450000Y-81970000D02*
X160450000Y-84630000D01*
X161720000Y-81970000D02*
X163050000Y-81970000D01*
X163050000Y-81970000D02*
X163050000Y-83300000D01*
X134790000Y-88470000D02*
X134790000Y-91130000D01*
X142470000Y-88470000D02*
X134790000Y-88470000D01*
X142470000Y-91130000D02*
X134790000Y-91130000D01*
X142470000Y-88470000D02*
X142470000Y-91130000D01*
X143740000Y-88470000D02*
X145070000Y-88470000D01*
X145070000Y-88470000D02*
X145070000Y-89800000D01*
X114350000Y-123700000D02*
X113700000Y-123700000D01*
X110650000Y-123700000D02*
X111300000Y-123700000D01*
X111300000Y-117500000D02*
X110650000Y-117500000D01*
X114350000Y-117500000D02*
X113700000Y-117500000D01*
X114350000Y-123700000D02*
X114350000Y-117500000D01*
X110650000Y-117500000D02*
X110650000Y-123700000D01*
X120650000Y-123800000D02*
X120000000Y-123800000D01*
X116950000Y-123800000D02*
X117600000Y-123800000D01*
X117600000Y-117600000D02*
X116950000Y-117600000D01*
X120650000Y-117600000D02*
X120000000Y-117600000D01*
X120650000Y-123800000D02*
X120650000Y-117600000D01*
X116950000Y-117600000D02*
X116950000Y-123800000D01*
X106250000Y-116920000D02*
X107250000Y-116920000D01*
X107250000Y-118280000D02*
X106250000Y-118280000D01*
X116580000Y-118450000D02*
X116580000Y-119650000D01*
X114820000Y-119650000D02*
X114820000Y-118450000D01*
X110280000Y-118350000D02*
X110280000Y-119550000D01*
X108520000Y-119550000D02*
X108520000Y-118350000D01*
X150530000Y-86630000D02*
X150530000Y-83970000D01*
X147930000Y-86630000D02*
X150530000Y-86630000D01*
X147930000Y-83970000D02*
X150530000Y-83970000D01*
X147930000Y-86630000D02*
X147930000Y-83970000D01*
X146660000Y-86630000D02*
X145330000Y-86630000D01*
X145330000Y-86630000D02*
X145330000Y-85300000D01*
X139750000Y-85280000D02*
X138550000Y-85280000D01*
X138550000Y-83520000D02*
X139750000Y-83520000D01*
X139750000Y-87480000D02*
X138550000Y-87480000D01*
X138550000Y-85720000D02*
X139750000Y-85720000D01*
X122550000Y-84630000D02*
X122550000Y-81970000D01*
X114870000Y-84630000D02*
X122550000Y-84630000D01*
X114870000Y-81970000D02*
X122550000Y-81970000D01*
X114870000Y-84630000D02*
X114870000Y-81970000D01*
X113600000Y-84630000D02*
X112270000Y-84630000D01*
X112270000Y-84630000D02*
X112270000Y-83300000D01*
X104330000Y-114350000D02*
X101670000Y-114350000D01*
X104330000Y-122030000D02*
X104330000Y-114350000D01*
X101670000Y-122030000D02*
X101670000Y-114350000D01*
X104330000Y-122030000D02*
X101670000Y-122030000D01*
X104330000Y-123300000D02*
X104330000Y-124630000D01*
X104330000Y-124630000D02*
X103000000Y-124630000D01*
X157350000Y-121970000D02*
X157350000Y-124630000D01*
X165030000Y-121970000D02*
X157350000Y-121970000D01*
X165030000Y-124630000D02*
X157350000Y-124630000D01*
X165030000Y-121970000D02*
X165030000Y-124630000D01*
X166300000Y-121970000D02*
X167630000Y-121970000D01*
X167630000Y-121970000D02*
X167630000Y-123300000D01*
X177670000Y-92250000D02*
X180330000Y-92250000D01*
X177670000Y-84570000D02*
X177670000Y-92250000D01*
X180330000Y-84570000D02*
X180330000Y-92250000D01*
X177670000Y-84570000D02*
X180330000Y-84570000D01*
X177670000Y-83300000D02*
X177670000Y-81970000D01*
X177670000Y-81970000D02*
X179000000Y-81970000D01*
D11*
X109452381Y-114009523D02*
X110166667Y-114009523D01*
X110309524Y-114057143D01*
X110404762Y-114152381D01*
X110452381Y-114295238D01*
X110452381Y-114390476D01*
X110452381Y-113009523D02*
X110452381Y-113580952D01*
X110452381Y-113295238D02*
X109452381Y-113295238D01*
X109595238Y-113390476D01*
X109690476Y-113485714D01*
X109738095Y-113580952D01*
X109452381Y-112390476D02*
X109452381Y-112295237D01*
X109500000Y-112199999D01*
X109547619Y-112152380D01*
X109642857Y-112104761D01*
X109833333Y-112057142D01*
X110071429Y-112057142D01*
X110261905Y-112104761D01*
X110357143Y-112152380D01*
X110404762Y-112199999D01*
X110452381Y-112295237D01*
X110452381Y-112390476D01*
X110404762Y-112485714D01*
X110357143Y-112533333D01*
X110261905Y-112580952D01*
X110071429Y-112628571D01*
X109833333Y-112628571D01*
X109642857Y-112580952D01*
X109547619Y-112533333D01*
X109500000Y-112485714D01*
X109452381Y-112390476D01*
X121928571Y-118866667D02*
X121928571Y-118533333D01*
X122452381Y-118390476D02*
X122452381Y-118866667D01*
X121452381Y-118866667D01*
X121452381Y-118390476D01*
X122404762Y-118009524D02*
X122452381Y-117866667D01*
X122452381Y-117628571D01*
X122404762Y-117533333D01*
X122357143Y-117485714D01*
X122261905Y-117438095D01*
X122166667Y-117438095D01*
X122071429Y-117485714D01*
X122023810Y-117533333D01*
X121976190Y-117628571D01*
X121928571Y-117819048D01*
X121880952Y-117914286D01*
X121833333Y-117961905D01*
X121738095Y-118009524D01*
X121642857Y-118009524D01*
X121547619Y-117961905D01*
X121500000Y-117914286D01*
X121452381Y-117819048D01*
X121452381Y-117580952D01*
X121500000Y-117438095D01*
X122452381Y-117009524D02*
X121452381Y-117009524D01*
X121452381Y-116628571D01*
X121500000Y-116533333D01*
X121547619Y-116485714D01*
X121642857Y-116438095D01*
X121785714Y-116438095D01*
X121880952Y-116485714D01*
X121928571Y-116533333D01*
X121976190Y-116628571D01*
X121976190Y-117009524D01*
X122452381Y-115247619D02*
X121452381Y-115247619D01*
X121928571Y-115247619D02*
X121928571Y-114676190D01*
X122452381Y-114676190D02*
X121452381Y-114676190D01*
X122404762Y-113819047D02*
X122452381Y-113914285D01*
X122452381Y-114104762D01*
X122404762Y-114200000D01*
X122309524Y-114247619D01*
X121928571Y-114247619D01*
X121833333Y-114200000D01*
X121785714Y-114104762D01*
X121785714Y-113914285D01*
X121833333Y-113819047D01*
X121928571Y-113771428D01*
X122023810Y-113771428D01*
X122119048Y-114247619D01*
X122452381Y-112914285D02*
X121928571Y-112914285D01*
X121833333Y-112961904D01*
X121785714Y-113057142D01*
X121785714Y-113247619D01*
X121833333Y-113342857D01*
X122404762Y-112914285D02*
X122452381Y-113009523D01*
X122452381Y-113247619D01*
X122404762Y-113342857D01*
X122309524Y-113390476D01*
X122214286Y-113390476D01*
X122119048Y-113342857D01*
X122071429Y-113247619D01*
X122071429Y-113009523D01*
X122023810Y-112914285D01*
X122452381Y-112009523D02*
X121452381Y-112009523D01*
X122404762Y-112009523D02*
X122452381Y-112104761D01*
X122452381Y-112295238D01*
X122404762Y-112390476D01*
X122357143Y-112438095D01*
X122261905Y-112485714D01*
X121976190Y-112485714D01*
X121880952Y-112438095D01*
X121833333Y-112390476D01*
X121785714Y-112295238D01*
X121785714Y-112104761D01*
X121833333Y-112009523D01*
X122404762Y-111152380D02*
X122452381Y-111247618D01*
X122452381Y-111438095D01*
X122404762Y-111533333D01*
X122309524Y-111580952D01*
X121928571Y-111580952D01*
X121833333Y-111533333D01*
X121785714Y-111438095D01*
X121785714Y-111247618D01*
X121833333Y-111152380D01*
X121928571Y-111104761D01*
X122023810Y-111104761D01*
X122119048Y-111580952D01*
X122452381Y-110676190D02*
X121785714Y-110676190D01*
X121976190Y-110676190D02*
X121880952Y-110628571D01*
X121833333Y-110580952D01*
X121785714Y-110485714D01*
X121785714Y-110390475D01*
X110738095Y-99752381D02*
X110738095Y-100561905D01*
X110785714Y-100657143D01*
X110833333Y-100704762D01*
X110928571Y-100752381D01*
X111119048Y-100752381D01*
X111214286Y-100704762D01*
X111261905Y-100657143D01*
X111309524Y-100561905D01*
X111309524Y-99752381D01*
X111738095Y-99847619D02*
X111785714Y-99800000D01*
X111880952Y-99752381D01*
X112119048Y-99752381D01*
X112214286Y-99800000D01*
X112261905Y-99847619D01*
X112309524Y-99942857D01*
X112309524Y-100038095D01*
X112261905Y-100180952D01*
X111690476Y-100752381D01*
X112309524Y-100752381D01*
D15*
X109664286Y-106311903D02*
X109664286Y-106145237D01*
X109926190Y-106073808D02*
X109926190Y-106311903D01*
X109426190Y-106311903D01*
X109426190Y-106073808D01*
X109902381Y-105883332D02*
X109926190Y-105811903D01*
X109926190Y-105692856D01*
X109902381Y-105645237D01*
X109878571Y-105621427D01*
X109830952Y-105597618D01*
X109783333Y-105597618D01*
X109735714Y-105621427D01*
X109711905Y-105645237D01*
X109688095Y-105692856D01*
X109664286Y-105788094D01*
X109640476Y-105835713D01*
X109616667Y-105859522D01*
X109569048Y-105883332D01*
X109521429Y-105883332D01*
X109473810Y-105859522D01*
X109450000Y-105835713D01*
X109426190Y-105788094D01*
X109426190Y-105669046D01*
X109450000Y-105597618D01*
X109926190Y-105383332D02*
X109426190Y-105383332D01*
X109426190Y-105192856D01*
X109450000Y-105145237D01*
X109473810Y-105121428D01*
X109521429Y-105097618D01*
X109592857Y-105097618D01*
X109640476Y-105121428D01*
X109664286Y-105145237D01*
X109688095Y-105192856D01*
X109688095Y-105383332D01*
X109640476Y-104811904D02*
X109616667Y-104859523D01*
X109592857Y-104883332D01*
X109545238Y-104907142D01*
X109521429Y-104907142D01*
X109473810Y-104883332D01*
X109450000Y-104859523D01*
X109426190Y-104811904D01*
X109426190Y-104716666D01*
X109450000Y-104669047D01*
X109473810Y-104645237D01*
X109521429Y-104621428D01*
X109545238Y-104621428D01*
X109592857Y-104645237D01*
X109616667Y-104669047D01*
X109640476Y-104716666D01*
X109640476Y-104811904D01*
X109664286Y-104859523D01*
X109688095Y-104883332D01*
X109735714Y-104907142D01*
X109830952Y-104907142D01*
X109878571Y-104883332D01*
X109902381Y-104859523D01*
X109926190Y-104811904D01*
X109926190Y-104716666D01*
X109902381Y-104669047D01*
X109878571Y-104645237D01*
X109830952Y-104621428D01*
X109735714Y-104621428D01*
X109688095Y-104645237D01*
X109664286Y-104669047D01*
X109640476Y-104716666D01*
X109473810Y-104430952D02*
X109450000Y-104407142D01*
X109426190Y-104359523D01*
X109426190Y-104240476D01*
X109450000Y-104192857D01*
X109473810Y-104169047D01*
X109521429Y-104145238D01*
X109569048Y-104145238D01*
X109640476Y-104169047D01*
X109926190Y-104454761D01*
X109926190Y-104145238D01*
X109426190Y-103716667D02*
X109426190Y-103811905D01*
X109450000Y-103859524D01*
X109473810Y-103883333D01*
X109545238Y-103930952D01*
X109640476Y-103954762D01*
X109830952Y-103954762D01*
X109878571Y-103930952D01*
X109902381Y-103907143D01*
X109926190Y-103859524D01*
X109926190Y-103764286D01*
X109902381Y-103716667D01*
X109878571Y-103692857D01*
X109830952Y-103669048D01*
X109711905Y-103669048D01*
X109664286Y-103692857D01*
X109640476Y-103716667D01*
X109616667Y-103764286D01*
X109616667Y-103859524D01*
X109640476Y-103907143D01*
X109664286Y-103930952D01*
X109711905Y-103954762D01*
X109426190Y-103240477D02*
X109426190Y-103335715D01*
X109450000Y-103383334D01*
X109473810Y-103407143D01*
X109545238Y-103454762D01*
X109640476Y-103478572D01*
X109830952Y-103478572D01*
X109878571Y-103454762D01*
X109902381Y-103430953D01*
X109926190Y-103383334D01*
X109926190Y-103288096D01*
X109902381Y-103240477D01*
X109878571Y-103216667D01*
X109830952Y-103192858D01*
X109711905Y-103192858D01*
X109664286Y-103216667D01*
X109640476Y-103240477D01*
X109616667Y-103288096D01*
X109616667Y-103383334D01*
X109640476Y-103430953D01*
X109664286Y-103454762D01*
X109711905Y-103478572D01*
X109664286Y-102978572D02*
X109664286Y-102811906D01*
X109926190Y-102740477D02*
X109926190Y-102978572D01*
X109426190Y-102978572D01*
X109426190Y-102740477D01*
X109426190Y-102573810D02*
X109926190Y-102240477D01*
X109426190Y-102240477D02*
X109926190Y-102573810D01*
D11*
X121866667Y-99216667D02*
X121866667Y-98740476D01*
X122152381Y-99311905D02*
X121152381Y-98978572D01*
X122152381Y-98645238D01*
X121628571Y-98311905D02*
X121628571Y-97978571D01*
X122152381Y-97835714D02*
X122152381Y-98311905D01*
X121152381Y-98311905D01*
X121152381Y-97835714D01*
X122152381Y-96883333D02*
X122152381Y-97454762D01*
X122152381Y-97169048D02*
X121152381Y-97169048D01*
X121295238Y-97264286D01*
X121390476Y-97359524D01*
X121438095Y-97454762D01*
D15*
X122783333Y-99480952D02*
X122783333Y-99242857D01*
X122926190Y-99528571D02*
X122426190Y-99361904D01*
X122926190Y-99195238D01*
X122592857Y-99028571D02*
X122926190Y-99028571D01*
X122640476Y-99028571D02*
X122616667Y-99004762D01*
X122592857Y-98957143D01*
X122592857Y-98885714D01*
X122616667Y-98838095D01*
X122664286Y-98814286D01*
X122926190Y-98814286D01*
X122592857Y-98647619D02*
X122592857Y-98457143D01*
X122426190Y-98576190D02*
X122854762Y-98576190D01*
X122902381Y-98552381D01*
X122926190Y-98504762D01*
X122926190Y-98457143D01*
X122902381Y-98100000D02*
X122926190Y-98147619D01*
X122926190Y-98242857D01*
X122902381Y-98290476D01*
X122854762Y-98314286D01*
X122664286Y-98314286D01*
X122616667Y-98290476D01*
X122592857Y-98242857D01*
X122592857Y-98147619D01*
X122616667Y-98100000D01*
X122664286Y-98076191D01*
X122711905Y-98076191D01*
X122759524Y-98314286D01*
X122592857Y-97861905D02*
X122926190Y-97861905D01*
X122640476Y-97861905D02*
X122616667Y-97838096D01*
X122592857Y-97790477D01*
X122592857Y-97719048D01*
X122616667Y-97671429D01*
X122664286Y-97647620D01*
X122926190Y-97647620D01*
X122592857Y-97409524D02*
X122926190Y-97409524D01*
X122640476Y-97409524D02*
X122616667Y-97385715D01*
X122592857Y-97338096D01*
X122592857Y-97266667D01*
X122616667Y-97219048D01*
X122664286Y-97195239D01*
X122926190Y-97195239D01*
X122926190Y-96742858D02*
X122664286Y-96742858D01*
X122616667Y-96766667D01*
X122592857Y-96814286D01*
X122592857Y-96909524D01*
X122616667Y-96957143D01*
X122902381Y-96742858D02*
X122926190Y-96790477D01*
X122926190Y-96909524D01*
X122902381Y-96957143D01*
X122854762Y-96980953D01*
X122807143Y-96980953D01*
X122759524Y-96957143D01*
X122735714Y-96909524D01*
X122735714Y-96790477D01*
X122711905Y-96742858D01*
D11*
X169119048Y-124628571D02*
X169261905Y-124676190D01*
X169309524Y-124723810D01*
X169357143Y-124819048D01*
X169357143Y-124961905D01*
X169309524Y-125057143D01*
X169261905Y-125104762D01*
X169166667Y-125152381D01*
X168785714Y-125152381D01*
X168785714Y-124152381D01*
X169119048Y-124152381D01*
X169214286Y-124200000D01*
X169261905Y-124247619D01*
X169309524Y-124342857D01*
X169309524Y-124438095D01*
X169261905Y-124533333D01*
X169214286Y-124580952D01*
X169119048Y-124628571D01*
X168785714Y-124628571D01*
X169690476Y-124152381D02*
X170357143Y-124152381D01*
X169690476Y-125152381D01*
X170357143Y-125152381D01*
X171261905Y-125152381D02*
X170690476Y-125152381D01*
X170976190Y-125152381D02*
X170976190Y-124152381D01*
X170880952Y-124295238D01*
X170785714Y-124390476D01*
X170690476Y-124438095D01*
X174928571Y-119128571D02*
X174976190Y-118985714D01*
X175023810Y-118938095D01*
X175119048Y-118890476D01*
X175261905Y-118890476D01*
X175357143Y-118938095D01*
X175404762Y-118985714D01*
X175452381Y-119080952D01*
X175452381Y-119461905D01*
X174452381Y-119461905D01*
X174452381Y-119128571D01*
X174500000Y-119033333D01*
X174547619Y-118985714D01*
X174642857Y-118938095D01*
X174738095Y-118938095D01*
X174833333Y-118985714D01*
X174880952Y-119033333D01*
X174928571Y-119128571D01*
X174928571Y-119461905D01*
X174785714Y-118033333D02*
X175452381Y-118033333D01*
X174785714Y-118461905D02*
X175309524Y-118461905D01*
X175404762Y-118414286D01*
X175452381Y-118319048D01*
X175452381Y-118176190D01*
X175404762Y-118080952D01*
X175357143Y-118033333D01*
X174785714Y-117652381D02*
X174785714Y-117128571D01*
X175452381Y-117652381D01*
X175452381Y-117128571D01*
X174785714Y-116842857D02*
X174785714Y-116319047D01*
X175452381Y-116842857D01*
X175452381Y-116319047D01*
X175404762Y-115557142D02*
X175452381Y-115652380D01*
X175452381Y-115842857D01*
X175404762Y-115938095D01*
X175309524Y-115985714D01*
X174928571Y-115985714D01*
X174833333Y-115938095D01*
X174785714Y-115842857D01*
X174785714Y-115652380D01*
X174833333Y-115557142D01*
X174928571Y-115509523D01*
X175023810Y-115509523D01*
X175119048Y-115985714D01*
X175452381Y-115080952D02*
X174785714Y-115080952D01*
X174976190Y-115080952D02*
X174880952Y-115033333D01*
X174833333Y-114985714D01*
X174785714Y-114890476D01*
X174785714Y-114795237D01*
X154633334Y-106157143D02*
X154585715Y-106204762D01*
X154442858Y-106252381D01*
X154347620Y-106252381D01*
X154204762Y-106204762D01*
X154109524Y-106109524D01*
X154061905Y-106014286D01*
X154014286Y-105823810D01*
X154014286Y-105680952D01*
X154061905Y-105490476D01*
X154109524Y-105395238D01*
X154204762Y-105300000D01*
X154347620Y-105252381D01*
X154442858Y-105252381D01*
X154585715Y-105300000D01*
X154633334Y-105347619D01*
X155585715Y-106252381D02*
X155014286Y-106252381D01*
X155300000Y-106252381D02*
X155300000Y-105252381D01*
X155204762Y-105395238D01*
X155109524Y-105490476D01*
X155014286Y-105538095D01*
X155757143Y-88966666D02*
X155804762Y-89014285D01*
X155852381Y-89157142D01*
X155852381Y-89252380D01*
X155804762Y-89395238D01*
X155709524Y-89490476D01*
X155614286Y-89538095D01*
X155423810Y-89585714D01*
X155280952Y-89585714D01*
X155090476Y-89538095D01*
X154995238Y-89490476D01*
X154900000Y-89395238D01*
X154852381Y-89252380D01*
X154852381Y-89157142D01*
X154900000Y-89014285D01*
X154947619Y-88966666D01*
X154947619Y-88585714D02*
X154900000Y-88538095D01*
X154852381Y-88442857D01*
X154852381Y-88204761D01*
X154900000Y-88109523D01*
X154947619Y-88061904D01*
X155042857Y-88014285D01*
X155138095Y-88014285D01*
X155280952Y-88061904D01*
X155852381Y-88633333D01*
X155852381Y-88014285D01*
X167257143Y-89066666D02*
X167304762Y-89114285D01*
X167352381Y-89257142D01*
X167352381Y-89352380D01*
X167304762Y-89495238D01*
X167209524Y-89590476D01*
X167114286Y-89638095D01*
X166923810Y-89685714D01*
X166780952Y-89685714D01*
X166590476Y-89638095D01*
X166495238Y-89590476D01*
X166400000Y-89495238D01*
X166352381Y-89352380D01*
X166352381Y-89257142D01*
X166400000Y-89114285D01*
X166447619Y-89066666D01*
X166352381Y-88733333D02*
X166352381Y-88114285D01*
X166733333Y-88447619D01*
X166733333Y-88304761D01*
X166780952Y-88209523D01*
X166828571Y-88161904D01*
X166923810Y-88114285D01*
X167161905Y-88114285D01*
X167257143Y-88161904D01*
X167304762Y-88209523D01*
X167352381Y-88304761D01*
X167352381Y-88590476D01*
X167304762Y-88685714D01*
X167257143Y-88733333D01*
X108833334Y-97157143D02*
X108785715Y-97204762D01*
X108642858Y-97252381D01*
X108547620Y-97252381D01*
X108404762Y-97204762D01*
X108309524Y-97109524D01*
X108261905Y-97014286D01*
X108214286Y-96823810D01*
X108214286Y-96680952D01*
X108261905Y-96490476D01*
X108309524Y-96395238D01*
X108404762Y-96300000D01*
X108547620Y-96252381D01*
X108642858Y-96252381D01*
X108785715Y-96300000D01*
X108833334Y-96347619D01*
X109690477Y-96585714D02*
X109690477Y-97252381D01*
X109452381Y-96204762D02*
X109214286Y-96919048D01*
X109833334Y-96919048D01*
X108357143Y-90466666D02*
X108404762Y-90514285D01*
X108452381Y-90657142D01*
X108452381Y-90752380D01*
X108404762Y-90895238D01*
X108309524Y-90990476D01*
X108214286Y-91038095D01*
X108023810Y-91085714D01*
X107880952Y-91085714D01*
X107690476Y-91038095D01*
X107595238Y-90990476D01*
X107500000Y-90895238D01*
X107452381Y-90752380D01*
X107452381Y-90657142D01*
X107500000Y-90514285D01*
X107547619Y-90466666D01*
X107452381Y-89561904D02*
X107452381Y-90038095D01*
X107928571Y-90085714D01*
X107880952Y-90038095D01*
X107833333Y-89942857D01*
X107833333Y-89704761D01*
X107880952Y-89609523D01*
X107928571Y-89561904D01*
X108023810Y-89514285D01*
X108261905Y-89514285D01*
X108357143Y-89561904D01*
X108404762Y-89609523D01*
X108452381Y-89704761D01*
X108452381Y-89942857D01*
X108404762Y-90038095D01*
X108357143Y-90085714D01*
X106857143Y-113466666D02*
X106904762Y-113514285D01*
X106952381Y-113657142D01*
X106952381Y-113752380D01*
X106904762Y-113895238D01*
X106809524Y-113990476D01*
X106714286Y-114038095D01*
X106523810Y-114085714D01*
X106380952Y-114085714D01*
X106190476Y-114038095D01*
X106095238Y-113990476D01*
X106000000Y-113895238D01*
X105952381Y-113752380D01*
X105952381Y-113657142D01*
X106000000Y-113514285D01*
X106047619Y-113466666D01*
X105952381Y-112609523D02*
X105952381Y-112800000D01*
X106000000Y-112895238D01*
X106047619Y-112942857D01*
X106190476Y-113038095D01*
X106380952Y-113085714D01*
X106761905Y-113085714D01*
X106857143Y-113038095D01*
X106904762Y-112990476D01*
X106952381Y-112895238D01*
X106952381Y-112704761D01*
X106904762Y-112609523D01*
X106857143Y-112561904D01*
X106761905Y-112514285D01*
X106523810Y-112514285D01*
X106428571Y-112561904D01*
X106380952Y-112609523D01*
X106333333Y-112704761D01*
X106333333Y-112895238D01*
X106380952Y-112990476D01*
X106428571Y-113038095D01*
X106523810Y-113085714D01*
X110357143Y-90466666D02*
X110404762Y-90514285D01*
X110452381Y-90657142D01*
X110452381Y-90752380D01*
X110404762Y-90895238D01*
X110309524Y-90990476D01*
X110214286Y-91038095D01*
X110023810Y-91085714D01*
X109880952Y-91085714D01*
X109690476Y-91038095D01*
X109595238Y-90990476D01*
X109500000Y-90895238D01*
X109452381Y-90752380D01*
X109452381Y-90657142D01*
X109500000Y-90514285D01*
X109547619Y-90466666D01*
X109452381Y-90133333D02*
X109452381Y-89466666D01*
X110452381Y-89895238D01*
X118357143Y-90466666D02*
X118404762Y-90514285D01*
X118452381Y-90657142D01*
X118452381Y-90752380D01*
X118404762Y-90895238D01*
X118309524Y-90990476D01*
X118214286Y-91038095D01*
X118023810Y-91085714D01*
X117880952Y-91085714D01*
X117690476Y-91038095D01*
X117595238Y-90990476D01*
X117500000Y-90895238D01*
X117452381Y-90752380D01*
X117452381Y-90657142D01*
X117500000Y-90514285D01*
X117547619Y-90466666D01*
X117880952Y-89895238D02*
X117833333Y-89990476D01*
X117785714Y-90038095D01*
X117690476Y-90085714D01*
X117642857Y-90085714D01*
X117547619Y-90038095D01*
X117500000Y-89990476D01*
X117452381Y-89895238D01*
X117452381Y-89704761D01*
X117500000Y-89609523D01*
X117547619Y-89561904D01*
X117642857Y-89514285D01*
X117690476Y-89514285D01*
X117785714Y-89561904D01*
X117833333Y-89609523D01*
X117880952Y-89704761D01*
X117880952Y-89895238D01*
X117928571Y-89990476D01*
X117976190Y-90038095D01*
X118071429Y-90085714D01*
X118261905Y-90085714D01*
X118357143Y-90038095D01*
X118404762Y-89990476D01*
X118452381Y-89895238D01*
X118452381Y-89704761D01*
X118404762Y-89609523D01*
X118357143Y-89561904D01*
X118261905Y-89514285D01*
X118071429Y-89514285D01*
X117976190Y-89561904D01*
X117928571Y-89609523D01*
X117880952Y-89704761D01*
X173052381Y-104438095D02*
X172052381Y-104438095D01*
X172052381Y-104200000D01*
X172100000Y-104057142D01*
X172195238Y-103961904D01*
X172290476Y-103914285D01*
X172480952Y-103866666D01*
X172623810Y-103866666D01*
X172814286Y-103914285D01*
X172909524Y-103961904D01*
X173004762Y-104057142D01*
X173052381Y-104200000D01*
X173052381Y-104438095D01*
X173052381Y-102914285D02*
X173052381Y-103485714D01*
X173052381Y-103200000D02*
X172052381Y-103200000D01*
X172195238Y-103295238D01*
X172290476Y-103390476D01*
X172338095Y-103485714D01*
X125166667Y-85752381D02*
X125166667Y-86466667D01*
X125119047Y-86609524D01*
X125023809Y-86704762D01*
X124880952Y-86752381D01*
X124785714Y-86752381D01*
X125642857Y-86752381D02*
X125642857Y-85752381D01*
X126023810Y-85752381D01*
X126119048Y-85800000D01*
X126166667Y-85847619D01*
X126214286Y-85942857D01*
X126214286Y-86085714D01*
X126166667Y-86180952D01*
X126119048Y-86228571D01*
X126023810Y-86276190D01*
X125642857Y-86276190D01*
X127166667Y-86752381D02*
X126595238Y-86752381D01*
X126880952Y-86752381D02*
X126880952Y-85752381D01*
X126785714Y-85895238D01*
X126690476Y-85990476D01*
X126595238Y-86038095D01*
X131228572Y-86752381D02*
X130895238Y-86276190D01*
X130657143Y-86752381D02*
X130657143Y-85752381D01*
X131038096Y-85752381D01*
X131133334Y-85800000D01*
X131180953Y-85847619D01*
X131228572Y-85942857D01*
X131228572Y-86085714D01*
X131180953Y-86180952D01*
X131133334Y-86228571D01*
X131038096Y-86276190D01*
X130657143Y-86276190D01*
X131561905Y-86752381D02*
X132085715Y-86085714D01*
X131561905Y-86085714D02*
X132085715Y-86752381D01*
X132371429Y-85752381D02*
X133038096Y-86752381D01*
X133038096Y-85752381D02*
X132371429Y-86752381D01*
X125166667Y-83752381D02*
X125166667Y-84466667D01*
X125119047Y-84609524D01*
X125023809Y-84704762D01*
X124880952Y-84752381D01*
X124785714Y-84752381D01*
X125642857Y-84752381D02*
X125642857Y-83752381D01*
X126023810Y-83752381D01*
X126119048Y-83800000D01*
X126166667Y-83847619D01*
X126214286Y-83942857D01*
X126214286Y-84085714D01*
X126166667Y-84180952D01*
X126119048Y-84228571D01*
X126023810Y-84276190D01*
X125642857Y-84276190D01*
X126595238Y-83847619D02*
X126642857Y-83800000D01*
X126738095Y-83752381D01*
X126976191Y-83752381D01*
X127071429Y-83800000D01*
X127119048Y-83847619D01*
X127166667Y-83942857D01*
X127166667Y-84038095D01*
X127119048Y-84180952D01*
X126547619Y-84752381D01*
X127166667Y-84752381D01*
X130633333Y-83752381D02*
X131204762Y-83752381D01*
X130919047Y-84752381D02*
X130919047Y-83752381D01*
X131442857Y-84752381D02*
X131966667Y-84085714D01*
X131442857Y-84085714D02*
X131966667Y-84752381D01*
X132252381Y-83752381D02*
X132919048Y-84752381D01*
X132919048Y-83752381D02*
X132252381Y-84752381D01*
X120702381Y-90466666D02*
X120702381Y-90942857D01*
X119702381Y-90942857D01*
X120702381Y-89609523D02*
X120702381Y-90180952D01*
X120702381Y-89895238D02*
X119702381Y-89895238D01*
X119845238Y-89990476D01*
X119940476Y-90085714D01*
X119988095Y-90180952D01*
X122952381Y-90466666D02*
X122952381Y-90942857D01*
X121952381Y-90942857D01*
X122047619Y-90180952D02*
X122000000Y-90133333D01*
X121952381Y-90038095D01*
X121952381Y-89799999D01*
X122000000Y-89704761D01*
X122047619Y-89657142D01*
X122142857Y-89609523D01*
X122238095Y-89609523D01*
X122380952Y-89657142D01*
X122952381Y-90228571D01*
X122952381Y-89609523D01*
X179452381Y-109349524D02*
X178452381Y-109349524D01*
X179166667Y-109016190D01*
X178452381Y-108682857D01*
X179452381Y-108682857D01*
X179452381Y-107682857D02*
X179452381Y-108254286D01*
X179452381Y-107968572D02*
X178452381Y-107968572D01*
X178595238Y-108063810D01*
X178690476Y-108159048D01*
X178738095Y-108254286D01*
X179452381Y-101233334D02*
X178452381Y-101233334D01*
X179166667Y-100900000D01*
X178452381Y-100566667D01*
X179452381Y-100566667D01*
X179452381Y-99947620D02*
X179404762Y-100042858D01*
X179357143Y-100090477D01*
X179261905Y-100138096D01*
X178976190Y-100138096D01*
X178880952Y-100090477D01*
X178833333Y-100042858D01*
X178785714Y-99947620D01*
X178785714Y-99804762D01*
X178833333Y-99709524D01*
X178880952Y-99661905D01*
X178976190Y-99614286D01*
X179261905Y-99614286D01*
X179357143Y-99661905D01*
X179404762Y-99709524D01*
X179452381Y-99804762D01*
X179452381Y-99947620D01*
X178785714Y-99328572D02*
X178785714Y-98947620D01*
X178452381Y-99185715D02*
X179309524Y-99185715D01*
X179404762Y-99138096D01*
X179452381Y-99042858D01*
X179452381Y-98947620D01*
X179452381Y-98471429D02*
X179404762Y-98566667D01*
X179357143Y-98614286D01*
X179261905Y-98661905D01*
X178976190Y-98661905D01*
X178880952Y-98614286D01*
X178833333Y-98566667D01*
X178785714Y-98471429D01*
X178785714Y-98328571D01*
X178833333Y-98233333D01*
X178880952Y-98185714D01*
X178976190Y-98138095D01*
X179261905Y-98138095D01*
X179357143Y-98185714D01*
X179404762Y-98233333D01*
X179452381Y-98328571D01*
X179452381Y-98471429D01*
X179452381Y-97709524D02*
X178785714Y-97709524D01*
X178976190Y-97709524D02*
X178880952Y-97661905D01*
X178833333Y-97614286D01*
X178785714Y-97519048D01*
X178785714Y-97423809D01*
X122361905Y-118233333D02*
X121980952Y-118500000D01*
X122361905Y-118690476D02*
X121561905Y-118690476D01*
X121561905Y-118385714D01*
X121600000Y-118309523D01*
X121638095Y-118271428D01*
X121714286Y-118233333D01*
X121828571Y-118233333D01*
X121904762Y-118271428D01*
X121942857Y-118309523D01*
X121980952Y-118385714D01*
X121980952Y-118690476D01*
X122361905Y-117471428D02*
X122361905Y-117928571D01*
X122361905Y-117700000D02*
X121561905Y-117700000D01*
X121676190Y-117776190D01*
X121752381Y-117852381D01*
X121790476Y-117928571D01*
X131866667Y-121661905D02*
X131600000Y-121280952D01*
X131409524Y-121661905D02*
X131409524Y-120861905D01*
X131714286Y-120861905D01*
X131790477Y-120900000D01*
X131828572Y-120938095D01*
X131866667Y-121014286D01*
X131866667Y-121128571D01*
X131828572Y-121204762D01*
X131790477Y-121242857D01*
X131714286Y-121280952D01*
X131409524Y-121280952D01*
X132171429Y-120938095D02*
X132209524Y-120900000D01*
X132285715Y-120861905D01*
X132476191Y-120861905D01*
X132552381Y-120900000D01*
X132590477Y-120938095D01*
X132628572Y-121014286D01*
X132628572Y-121090476D01*
X132590477Y-121204762D01*
X132133334Y-121661905D01*
X132628572Y-121661905D01*
X135547619Y-121661905D02*
X135090476Y-121661905D01*
X135319047Y-121661905D02*
X135319047Y-120861905D01*
X135242857Y-120976190D01*
X135166666Y-121052381D01*
X135090476Y-121090476D01*
X136042857Y-120861905D02*
X136119048Y-120861905D01*
X136195238Y-120900000D01*
X136233333Y-120938095D01*
X136271429Y-121014286D01*
X136309524Y-121166667D01*
X136309524Y-121357143D01*
X136271429Y-121509524D01*
X136233333Y-121585714D01*
X136195238Y-121623810D01*
X136119048Y-121661905D01*
X136042857Y-121661905D01*
X135966667Y-121623810D01*
X135928571Y-121585714D01*
X135890476Y-121509524D01*
X135852381Y-121357143D01*
X135852381Y-121166667D01*
X135890476Y-121014286D01*
X135928571Y-120938095D01*
X135966667Y-120900000D01*
X136042857Y-120861905D01*
X136652381Y-121661905D02*
X136652381Y-120861905D01*
X137109524Y-121661905D02*
X136766667Y-121204762D01*
X137109524Y-120861905D02*
X136652381Y-121319048D01*
X143866667Y-121661905D02*
X143600000Y-121280952D01*
X143409524Y-121661905D02*
X143409524Y-120861905D01*
X143714286Y-120861905D01*
X143790477Y-120900000D01*
X143828572Y-120938095D01*
X143866667Y-121014286D01*
X143866667Y-121128571D01*
X143828572Y-121204762D01*
X143790477Y-121242857D01*
X143714286Y-121280952D01*
X143409524Y-121280952D01*
X144133334Y-120861905D02*
X144628572Y-120861905D01*
X144361905Y-121166667D01*
X144476191Y-121166667D01*
X144552381Y-121204762D01*
X144590477Y-121242857D01*
X144628572Y-121319048D01*
X144628572Y-121509524D01*
X144590477Y-121585714D01*
X144552381Y-121623810D01*
X144476191Y-121661905D01*
X144247619Y-121661905D01*
X144171429Y-121623810D01*
X144133334Y-121585714D01*
X147547619Y-121661905D02*
X147090476Y-121661905D01*
X147319047Y-121661905D02*
X147319047Y-120861905D01*
X147242857Y-120976190D01*
X147166666Y-121052381D01*
X147090476Y-121090476D01*
X148042857Y-120861905D02*
X148119048Y-120861905D01*
X148195238Y-120900000D01*
X148233333Y-120938095D01*
X148271429Y-121014286D01*
X148309524Y-121166667D01*
X148309524Y-121357143D01*
X148271429Y-121509524D01*
X148233333Y-121585714D01*
X148195238Y-121623810D01*
X148119048Y-121661905D01*
X148042857Y-121661905D01*
X147966667Y-121623810D01*
X147928571Y-121585714D01*
X147890476Y-121509524D01*
X147852381Y-121357143D01*
X147852381Y-121166667D01*
X147890476Y-121014286D01*
X147928571Y-120938095D01*
X147966667Y-120900000D01*
X148042857Y-120861905D01*
X148652381Y-121661905D02*
X148652381Y-120861905D01*
X149109524Y-121661905D02*
X148766667Y-121204762D01*
X149109524Y-120861905D02*
X148652381Y-121319048D01*
X167852381Y-103966666D02*
X167376190Y-104300000D01*
X167852381Y-104538095D02*
X166852381Y-104538095D01*
X166852381Y-104157142D01*
X166900000Y-104061904D01*
X166947619Y-104014285D01*
X167042857Y-103966666D01*
X167185714Y-103966666D01*
X167280952Y-104014285D01*
X167328571Y-104061904D01*
X167376190Y-104157142D01*
X167376190Y-104538095D01*
X167185714Y-103109523D02*
X167852381Y-103109523D01*
X166804762Y-103347619D02*
X167519048Y-103585714D01*
X167519048Y-102966666D01*
X176761905Y-103833333D02*
X176380952Y-104100000D01*
X176761905Y-104290476D02*
X175961905Y-104290476D01*
X175961905Y-103985714D01*
X176000000Y-103909523D01*
X176038095Y-103871428D01*
X176114286Y-103833333D01*
X176228571Y-103833333D01*
X176304762Y-103871428D01*
X176342857Y-103909523D01*
X176380952Y-103985714D01*
X176380952Y-104290476D01*
X175961905Y-103109523D02*
X175961905Y-103490476D01*
X176342857Y-103528571D01*
X176304762Y-103490476D01*
X176266667Y-103414285D01*
X176266667Y-103223809D01*
X176304762Y-103147619D01*
X176342857Y-103109523D01*
X176419048Y-103071428D01*
X176609524Y-103071428D01*
X176685714Y-103109523D01*
X176723810Y-103147619D01*
X176761905Y-103223809D01*
X176761905Y-103414285D01*
X176723810Y-103490476D01*
X176685714Y-103528571D01*
X123633334Y-109252381D02*
X123300000Y-108776190D01*
X123061905Y-109252381D02*
X123061905Y-108252381D01*
X123442858Y-108252381D01*
X123538096Y-108300000D01*
X123585715Y-108347619D01*
X123633334Y-108442857D01*
X123633334Y-108585714D01*
X123585715Y-108680952D01*
X123538096Y-108728571D01*
X123442858Y-108776190D01*
X123061905Y-108776190D01*
X124204762Y-108680952D02*
X124109524Y-108633333D01*
X124061905Y-108585714D01*
X124014286Y-108490476D01*
X124014286Y-108442857D01*
X124061905Y-108347619D01*
X124109524Y-108300000D01*
X124204762Y-108252381D01*
X124395239Y-108252381D01*
X124490477Y-108300000D01*
X124538096Y-108347619D01*
X124585715Y-108442857D01*
X124585715Y-108490476D01*
X124538096Y-108585714D01*
X124490477Y-108633333D01*
X124395239Y-108680952D01*
X124204762Y-108680952D01*
X124109524Y-108728571D01*
X124061905Y-108776190D01*
X124014286Y-108871429D01*
X124014286Y-109061905D01*
X124061905Y-109157143D01*
X124109524Y-109204762D01*
X124204762Y-109252381D01*
X124395239Y-109252381D01*
X124490477Y-109204762D01*
X124538096Y-109157143D01*
X124585715Y-109061905D01*
X124585715Y-108871429D01*
X124538096Y-108776190D01*
X124490477Y-108728571D01*
X124395239Y-108680952D01*
X110333334Y-109252381D02*
X110000000Y-108776190D01*
X109761905Y-109252381D02*
X109761905Y-108252381D01*
X110142858Y-108252381D01*
X110238096Y-108300000D01*
X110285715Y-108347619D01*
X110333334Y-108442857D01*
X110333334Y-108585714D01*
X110285715Y-108680952D01*
X110238096Y-108728571D01*
X110142858Y-108776190D01*
X109761905Y-108776190D01*
X110809524Y-109252381D02*
X111000000Y-109252381D01*
X111095239Y-109204762D01*
X111142858Y-109157143D01*
X111238096Y-109014286D01*
X111285715Y-108823810D01*
X111285715Y-108442857D01*
X111238096Y-108347619D01*
X111190477Y-108300000D01*
X111095239Y-108252381D01*
X110904762Y-108252381D01*
X110809524Y-108300000D01*
X110761905Y-108347619D01*
X110714286Y-108442857D01*
X110714286Y-108680952D01*
X110761905Y-108776190D01*
X110809524Y-108823810D01*
X110904762Y-108871429D01*
X111095239Y-108871429D01*
X111190477Y-108823810D01*
X111238096Y-108776190D01*
X111285715Y-108680952D01*
X113485714Y-97161905D02*
X113219047Y-96780952D01*
X113028571Y-97161905D02*
X113028571Y-96361905D01*
X113333333Y-96361905D01*
X113409524Y-96400000D01*
X113447619Y-96438095D01*
X113485714Y-96514286D01*
X113485714Y-96628571D01*
X113447619Y-96704762D01*
X113409524Y-96742857D01*
X113333333Y-96780952D01*
X113028571Y-96780952D01*
X114247619Y-97161905D02*
X113790476Y-97161905D01*
X114019047Y-97161905D02*
X114019047Y-96361905D01*
X113942857Y-96476190D01*
X113866666Y-96552381D01*
X113790476Y-96590476D01*
X114742857Y-96361905D02*
X114819048Y-96361905D01*
X114895238Y-96400000D01*
X114933333Y-96438095D01*
X114971429Y-96514286D01*
X115009524Y-96666667D01*
X115009524Y-96857143D01*
X114971429Y-97009524D01*
X114933333Y-97085714D01*
X114895238Y-97123810D01*
X114819048Y-97161905D01*
X114742857Y-97161905D01*
X114666667Y-97123810D01*
X114628571Y-97085714D01*
X114590476Y-97009524D01*
X114552381Y-96857143D01*
X114552381Y-96666667D01*
X114590476Y-96514286D01*
X114628571Y-96438095D01*
X114666667Y-96400000D01*
X114742857Y-96361905D01*
X128666667Y-117804762D02*
X128809524Y-117852381D01*
X129047620Y-117852381D01*
X129142858Y-117804762D01*
X129190477Y-117757143D01*
X129238096Y-117661905D01*
X129238096Y-117566667D01*
X129190477Y-117471429D01*
X129142858Y-117423810D01*
X129047620Y-117376190D01*
X128857143Y-117328571D01*
X128761905Y-117280952D01*
X128714286Y-117233333D01*
X128666667Y-117138095D01*
X128666667Y-117042857D01*
X128714286Y-116947619D01*
X128761905Y-116900000D01*
X128857143Y-116852381D01*
X129095239Y-116852381D01*
X129238096Y-116900000D01*
X129571429Y-116852381D02*
X129809524Y-117852381D01*
X130000001Y-117138095D01*
X130190477Y-117852381D01*
X130428572Y-116852381D01*
X131333334Y-117852381D02*
X130761905Y-117852381D01*
X131047619Y-117852381D02*
X131047619Y-116852381D01*
X130952381Y-116995238D01*
X130857143Y-117090476D01*
X130761905Y-117138095D01*
X124904762Y-117328571D02*
X125047619Y-117376190D01*
X125095238Y-117423810D01*
X125142857Y-117519048D01*
X125142857Y-117661905D01*
X125095238Y-117757143D01*
X125047619Y-117804762D01*
X124952381Y-117852381D01*
X124571428Y-117852381D01*
X124571428Y-116852381D01*
X124904762Y-116852381D01*
X125000000Y-116900000D01*
X125047619Y-116947619D01*
X125095238Y-117042857D01*
X125095238Y-117138095D01*
X125047619Y-117233333D01*
X125000000Y-117280952D01*
X124904762Y-117328571D01*
X124571428Y-117328571D01*
X126000000Y-117185714D02*
X126000000Y-117852381D01*
X125571428Y-117185714D02*
X125571428Y-117709524D01*
X125619047Y-117804762D01*
X125714285Y-117852381D01*
X125857143Y-117852381D01*
X125952381Y-117804762D01*
X126000000Y-117757143D01*
X126333333Y-117185714D02*
X126714285Y-117185714D01*
X126476190Y-116852381D02*
X126476190Y-117709524D01*
X126523809Y-117804762D01*
X126619047Y-117852381D01*
X126714285Y-117852381D01*
X127000000Y-117566667D02*
X127476191Y-117566667D01*
X126904762Y-117852381D02*
X127238095Y-116852381D01*
X127571429Y-117852381D01*
X140666667Y-117804762D02*
X140809524Y-117852381D01*
X141047620Y-117852381D01*
X141142858Y-117804762D01*
X141190477Y-117757143D01*
X141238096Y-117661905D01*
X141238096Y-117566667D01*
X141190477Y-117471429D01*
X141142858Y-117423810D01*
X141047620Y-117376190D01*
X140857143Y-117328571D01*
X140761905Y-117280952D01*
X140714286Y-117233333D01*
X140666667Y-117138095D01*
X140666667Y-117042857D01*
X140714286Y-116947619D01*
X140761905Y-116900000D01*
X140857143Y-116852381D01*
X141095239Y-116852381D01*
X141238096Y-116900000D01*
X141571429Y-116852381D02*
X141809524Y-117852381D01*
X142000001Y-117138095D01*
X142190477Y-117852381D01*
X142428572Y-116852381D01*
X142761905Y-116947619D02*
X142809524Y-116900000D01*
X142904762Y-116852381D01*
X143142858Y-116852381D01*
X143238096Y-116900000D01*
X143285715Y-116947619D01*
X143333334Y-117042857D01*
X143333334Y-117138095D01*
X143285715Y-117280952D01*
X142714286Y-117852381D01*
X143333334Y-117852381D01*
X136833334Y-117328571D02*
X136976191Y-117376190D01*
X137023810Y-117423810D01*
X137071429Y-117519048D01*
X137071429Y-117661905D01*
X137023810Y-117757143D01*
X136976191Y-117804762D01*
X136880953Y-117852381D01*
X136500000Y-117852381D01*
X136500000Y-116852381D01*
X136833334Y-116852381D01*
X136928572Y-116900000D01*
X136976191Y-116947619D01*
X137023810Y-117042857D01*
X137023810Y-117138095D01*
X136976191Y-117233333D01*
X136928572Y-117280952D01*
X136833334Y-117328571D01*
X136500000Y-117328571D01*
X137928572Y-117185714D02*
X137928572Y-117852381D01*
X137500000Y-117185714D02*
X137500000Y-117709524D01*
X137547619Y-117804762D01*
X137642857Y-117852381D01*
X137785715Y-117852381D01*
X137880953Y-117804762D01*
X137928572Y-117757143D01*
X138261905Y-117185714D02*
X138642857Y-117185714D01*
X138404762Y-116852381D02*
X138404762Y-117709524D01*
X138452381Y-117804762D01*
X138547619Y-117852381D01*
X138642857Y-117852381D01*
X139309525Y-117328571D02*
X139452382Y-117376190D01*
X139500001Y-117423810D01*
X139547620Y-117519048D01*
X139547620Y-117661905D01*
X139500001Y-117757143D01*
X139452382Y-117804762D01*
X139357144Y-117852381D01*
X138976191Y-117852381D01*
X138976191Y-116852381D01*
X139309525Y-116852381D01*
X139404763Y-116900000D01*
X139452382Y-116947619D01*
X139500001Y-117042857D01*
X139500001Y-117138095D01*
X139452382Y-117233333D01*
X139404763Y-117280952D01*
X139309525Y-117328571D01*
X138976191Y-117328571D01*
X152666667Y-117804762D02*
X152809524Y-117852381D01*
X153047620Y-117852381D01*
X153142858Y-117804762D01*
X153190477Y-117757143D01*
X153238096Y-117661905D01*
X153238096Y-117566667D01*
X153190477Y-117471429D01*
X153142858Y-117423810D01*
X153047620Y-117376190D01*
X152857143Y-117328571D01*
X152761905Y-117280952D01*
X152714286Y-117233333D01*
X152666667Y-117138095D01*
X152666667Y-117042857D01*
X152714286Y-116947619D01*
X152761905Y-116900000D01*
X152857143Y-116852381D01*
X153095239Y-116852381D01*
X153238096Y-116900000D01*
X153571429Y-116852381D02*
X153809524Y-117852381D01*
X154000001Y-117138095D01*
X154190477Y-117852381D01*
X154428572Y-116852381D01*
X154714286Y-116852381D02*
X155333334Y-116852381D01*
X155000000Y-117233333D01*
X155142858Y-117233333D01*
X155238096Y-117280952D01*
X155285715Y-117328571D01*
X155333334Y-117423810D01*
X155333334Y-117661905D01*
X155285715Y-117757143D01*
X155238096Y-117804762D01*
X155142858Y-117852381D01*
X154857143Y-117852381D01*
X154761905Y-117804762D01*
X154714286Y-117757143D01*
X148833334Y-117328571D02*
X148976191Y-117376190D01*
X149023810Y-117423810D01*
X149071429Y-117519048D01*
X149071429Y-117661905D01*
X149023810Y-117757143D01*
X148976191Y-117804762D01*
X148880953Y-117852381D01*
X148500000Y-117852381D01*
X148500000Y-116852381D01*
X148833334Y-116852381D01*
X148928572Y-116900000D01*
X148976191Y-116947619D01*
X149023810Y-117042857D01*
X149023810Y-117138095D01*
X148976191Y-117233333D01*
X148928572Y-117280952D01*
X148833334Y-117328571D01*
X148500000Y-117328571D01*
X149928572Y-117185714D02*
X149928572Y-117852381D01*
X149500000Y-117185714D02*
X149500000Y-117709524D01*
X149547619Y-117804762D01*
X149642857Y-117852381D01*
X149785715Y-117852381D01*
X149880953Y-117804762D01*
X149928572Y-117757143D01*
X150261905Y-117185714D02*
X150642857Y-117185714D01*
X150404762Y-116852381D02*
X150404762Y-117709524D01*
X150452381Y-117804762D01*
X150547619Y-117852381D01*
X150642857Y-117852381D01*
X151547620Y-117757143D02*
X151500001Y-117804762D01*
X151357144Y-117852381D01*
X151261906Y-117852381D01*
X151119048Y-117804762D01*
X151023810Y-117709524D01*
X150976191Y-117614286D01*
X150928572Y-117423810D01*
X150928572Y-117280952D01*
X150976191Y-117090476D01*
X151023810Y-116995238D01*
X151119048Y-116900000D01*
X151261906Y-116852381D01*
X151357144Y-116852381D01*
X151500001Y-116900000D01*
X151547620Y-116947619D01*
X173566667Y-96754762D02*
X173709524Y-96802381D01*
X173947620Y-96802381D01*
X174042858Y-96754762D01*
X174090477Y-96707143D01*
X174138096Y-96611905D01*
X174138096Y-96516667D01*
X174090477Y-96421429D01*
X174042858Y-96373810D01*
X173947620Y-96326190D01*
X173757143Y-96278571D01*
X173661905Y-96230952D01*
X173614286Y-96183333D01*
X173566667Y-96088095D01*
X173566667Y-95992857D01*
X173614286Y-95897619D01*
X173661905Y-95850000D01*
X173757143Y-95802381D01*
X173995239Y-95802381D01*
X174138096Y-95850000D01*
X174471429Y-95802381D02*
X174709524Y-96802381D01*
X174900001Y-96088095D01*
X175090477Y-96802381D01*
X175328572Y-95802381D01*
X176138096Y-96135714D02*
X176138096Y-96802381D01*
X175900000Y-95754762D02*
X175661905Y-96469048D01*
X176280953Y-96469048D01*
X168747619Y-96802381D02*
X168414285Y-96326190D01*
X168176190Y-96802381D02*
X168176190Y-95802381D01*
X168557143Y-95802381D01*
X168652381Y-95850000D01*
X168700000Y-95897619D01*
X168747619Y-95992857D01*
X168747619Y-96135714D01*
X168700000Y-96230952D01*
X168652381Y-96278571D01*
X168557143Y-96326190D01*
X168176190Y-96326190D01*
X169176190Y-96278571D02*
X169509524Y-96278571D01*
X169652381Y-96802381D02*
X169176190Y-96802381D01*
X169176190Y-95802381D01*
X169652381Y-95802381D01*
X170033333Y-96754762D02*
X170176190Y-96802381D01*
X170414286Y-96802381D01*
X170509524Y-96754762D01*
X170557143Y-96707143D01*
X170604762Y-96611905D01*
X170604762Y-96516667D01*
X170557143Y-96421429D01*
X170509524Y-96373810D01*
X170414286Y-96326190D01*
X170223809Y-96278571D01*
X170128571Y-96230952D01*
X170080952Y-96183333D01*
X170033333Y-96088095D01*
X170033333Y-95992857D01*
X170080952Y-95897619D01*
X170128571Y-95850000D01*
X170223809Y-95802381D01*
X170461905Y-95802381D01*
X170604762Y-95850000D01*
X171033333Y-96278571D02*
X171366667Y-96278571D01*
X171509524Y-96802381D02*
X171033333Y-96802381D01*
X171033333Y-95802381D01*
X171509524Y-95802381D01*
X171795238Y-95802381D02*
X172366667Y-95802381D01*
X172080952Y-96802381D02*
X172080952Y-95802381D01*
X162023809Y-85976190D02*
X162023809Y-86452381D01*
X161690476Y-85452381D02*
X162023809Y-85976190D01*
X162357143Y-85452381D01*
X163214286Y-86452381D02*
X162642857Y-86452381D01*
X162928571Y-86452381D02*
X162928571Y-85452381D01*
X162833333Y-85595238D01*
X162738095Y-85690476D01*
X162642857Y-85738095D01*
X112023809Y-90776190D02*
X112023809Y-91252381D01*
X111690476Y-90252381D02*
X112023809Y-90776190D01*
X112357143Y-90252381D01*
X112642857Y-90347619D02*
X112690476Y-90300000D01*
X112785714Y-90252381D01*
X113023810Y-90252381D01*
X113119048Y-90300000D01*
X113166667Y-90347619D01*
X113214286Y-90442857D01*
X113214286Y-90538095D01*
X113166667Y-90680952D01*
X112595238Y-91252381D01*
X113214286Y-91252381D01*
X165866667Y-82752381D02*
X165866667Y-83466667D01*
X165819047Y-83609524D01*
X165723809Y-83704762D01*
X165580952Y-83752381D01*
X165485714Y-83752381D01*
X166295238Y-82847619D02*
X166342857Y-82800000D01*
X166438095Y-82752381D01*
X166676191Y-82752381D01*
X166771429Y-82800000D01*
X166819048Y-82847619D01*
X166866667Y-82942857D01*
X166866667Y-83038095D01*
X166819048Y-83180952D01*
X166247619Y-83752381D01*
X166866667Y-83752381D01*
X169119048Y-87852381D02*
X169738096Y-87852381D01*
X169404762Y-88233333D01*
X169547620Y-88233333D01*
X169642858Y-88280952D01*
X169690477Y-88328571D01*
X169738096Y-88423810D01*
X169738096Y-88661905D01*
X169690477Y-88757143D01*
X169642858Y-88804762D01*
X169547620Y-88852381D01*
X169261905Y-88852381D01*
X169166667Y-88804762D01*
X169119048Y-88757143D01*
X170119048Y-87947619D02*
X170166667Y-87900000D01*
X170261905Y-87852381D01*
X170500001Y-87852381D01*
X170595239Y-87900000D01*
X170642858Y-87947619D01*
X170690477Y-88042857D01*
X170690477Y-88138095D01*
X170642858Y-88280952D01*
X170071429Y-88852381D01*
X170690477Y-88852381D01*
X171261905Y-88280952D02*
X171166667Y-88233333D01*
X171119048Y-88185714D01*
X171071429Y-88090476D01*
X171071429Y-88042857D01*
X171119048Y-87947619D01*
X171166667Y-87900000D01*
X171261905Y-87852381D01*
X171452382Y-87852381D01*
X171547620Y-87900000D01*
X171595239Y-87947619D01*
X171642858Y-88042857D01*
X171642858Y-88090476D01*
X171595239Y-88185714D01*
X171547620Y-88233333D01*
X171452382Y-88280952D01*
X171261905Y-88280952D01*
X171166667Y-88328571D01*
X171119048Y-88376190D01*
X171071429Y-88471429D01*
X171071429Y-88661905D01*
X171119048Y-88757143D01*
X171166667Y-88804762D01*
X171261905Y-88852381D01*
X171452382Y-88852381D01*
X171547620Y-88804762D01*
X171595239Y-88757143D01*
X171642858Y-88661905D01*
X171642858Y-88471429D01*
X171595239Y-88376190D01*
X171547620Y-88328571D01*
X171452382Y-88280952D01*
X172785715Y-88804762D02*
X172928572Y-88852381D01*
X173166668Y-88852381D01*
X173261906Y-88804762D01*
X173309525Y-88757143D01*
X173357144Y-88661905D01*
X173357144Y-88566667D01*
X173309525Y-88471429D01*
X173261906Y-88423810D01*
X173166668Y-88376190D01*
X172976191Y-88328571D01*
X172880953Y-88280952D01*
X172833334Y-88233333D01*
X172785715Y-88138095D01*
X172785715Y-88042857D01*
X172833334Y-87947619D01*
X172880953Y-87900000D01*
X172976191Y-87852381D01*
X173214287Y-87852381D01*
X173357144Y-87900000D01*
X173785715Y-88852381D02*
X173785715Y-87852381D01*
X174166668Y-87852381D01*
X174261906Y-87900000D01*
X174309525Y-87947619D01*
X174357144Y-88042857D01*
X174357144Y-88185714D01*
X174309525Y-88280952D01*
X174261906Y-88328571D01*
X174166668Y-88376190D01*
X173785715Y-88376190D01*
X174785715Y-88852381D02*
X174785715Y-87852381D01*
X123452381Y-106761905D02*
X124261905Y-106761905D01*
X124357143Y-106714286D01*
X124404762Y-106666667D01*
X124452381Y-106571429D01*
X124452381Y-106380952D01*
X124404762Y-106285714D01*
X124357143Y-106238095D01*
X124261905Y-106190476D01*
X123452381Y-106190476D01*
X123452381Y-105809524D02*
X123452381Y-105190476D01*
X123833333Y-105523810D01*
X123833333Y-105380952D01*
X123880952Y-105285714D01*
X123928571Y-105238095D01*
X124023810Y-105190476D01*
X124261905Y-105190476D01*
X124357143Y-105238095D01*
X124404762Y-105285714D01*
X124452381Y-105380952D01*
X124452381Y-105666667D01*
X124404762Y-105761905D01*
X124357143Y-105809524D01*
X124285714Y-103742857D02*
X124323810Y-103780952D01*
X124361905Y-103895238D01*
X124361905Y-103971428D01*
X124323810Y-104085714D01*
X124247619Y-104161905D01*
X124171429Y-104200000D01*
X124019048Y-104238095D01*
X123904762Y-104238095D01*
X123752381Y-104200000D01*
X123676190Y-104161905D01*
X123600000Y-104085714D01*
X123561905Y-103971428D01*
X123561905Y-103895238D01*
X123600000Y-103780952D01*
X123638095Y-103742857D01*
X124133333Y-103438095D02*
X124133333Y-103057143D01*
X124361905Y-103514286D02*
X123561905Y-103247619D01*
X124361905Y-102980952D01*
X123561905Y-102828572D02*
X123561905Y-102371429D01*
X124361905Y-102600000D02*
X123561905Y-102600000D01*
X123638095Y-102142857D02*
X123600000Y-102104762D01*
X123561905Y-102028571D01*
X123561905Y-101838095D01*
X123600000Y-101761905D01*
X123638095Y-101723809D01*
X123714286Y-101685714D01*
X123790476Y-101685714D01*
X123904762Y-101723809D01*
X124361905Y-102180952D01*
X124361905Y-101685714D01*
X123561905Y-100961904D02*
X123561905Y-101342857D01*
X123942857Y-101380952D01*
X123904762Y-101342857D01*
X123866667Y-101266666D01*
X123866667Y-101076190D01*
X123904762Y-101000000D01*
X123942857Y-100961904D01*
X124019048Y-100923809D01*
X124209524Y-100923809D01*
X124285714Y-100961904D01*
X124323810Y-101000000D01*
X124361905Y-101076190D01*
X124361905Y-101266666D01*
X124323810Y-101342857D01*
X124285714Y-101380952D01*
X123561905Y-100428571D02*
X123561905Y-100352380D01*
X123600000Y-100276190D01*
X123638095Y-100238095D01*
X123714286Y-100199999D01*
X123866667Y-100161904D01*
X124057143Y-100161904D01*
X124209524Y-100199999D01*
X124285714Y-100238095D01*
X124323810Y-100276190D01*
X124361905Y-100352380D01*
X124361905Y-100428571D01*
X124323810Y-100504761D01*
X124285714Y-100542857D01*
X124209524Y-100580952D01*
X124057143Y-100619047D01*
X123866667Y-100619047D01*
X123714286Y-100580952D01*
X123638095Y-100542857D01*
X123600000Y-100504761D01*
X123561905Y-100428571D01*
X155066667Y-110452381D02*
X155066667Y-111166667D01*
X155019047Y-111309524D01*
X154923809Y-111404762D01*
X154780952Y-111452381D01*
X154685714Y-111452381D01*
X155971429Y-110785714D02*
X155971429Y-111452381D01*
X155733333Y-110404762D02*
X155495238Y-111119048D01*
X156114286Y-111119048D01*
X157571429Y-110452381D02*
X158190477Y-110452381D01*
X157857143Y-110833333D01*
X158000001Y-110833333D01*
X158095239Y-110880952D01*
X158142858Y-110928571D01*
X158190477Y-111023810D01*
X158190477Y-111261905D01*
X158142858Y-111357143D01*
X158095239Y-111404762D01*
X158000001Y-111452381D01*
X157714286Y-111452381D01*
X157619048Y-111404762D01*
X157571429Y-111357143D01*
X158571429Y-110547619D02*
X158619048Y-110500000D01*
X158714286Y-110452381D01*
X158952382Y-110452381D01*
X159047620Y-110500000D01*
X159095239Y-110547619D01*
X159142858Y-110642857D01*
X159142858Y-110738095D01*
X159095239Y-110880952D01*
X158523810Y-111452381D01*
X159142858Y-111452381D01*
X159714286Y-110880952D02*
X159619048Y-110833333D01*
X159571429Y-110785714D01*
X159523810Y-110690476D01*
X159523810Y-110642857D01*
X159571429Y-110547619D01*
X159619048Y-110500000D01*
X159714286Y-110452381D01*
X159904763Y-110452381D01*
X160000001Y-110500000D01*
X160047620Y-110547619D01*
X160095239Y-110642857D01*
X160095239Y-110690476D01*
X160047620Y-110785714D01*
X160000001Y-110833333D01*
X159904763Y-110880952D01*
X159714286Y-110880952D01*
X159619048Y-110928571D01*
X159571429Y-110976190D01*
X159523810Y-111071429D01*
X159523810Y-111261905D01*
X159571429Y-111357143D01*
X159619048Y-111404762D01*
X159714286Y-111452381D01*
X159904763Y-111452381D01*
X160000001Y-111404762D01*
X160047620Y-111357143D01*
X160095239Y-111261905D01*
X160095239Y-111071429D01*
X160047620Y-110976190D01*
X160000001Y-110928571D01*
X159904763Y-110880952D01*
X161809525Y-110500000D02*
X161714287Y-110452381D01*
X161571430Y-110452381D01*
X161428572Y-110500000D01*
X161333334Y-110595238D01*
X161285715Y-110690476D01*
X161238096Y-110880952D01*
X161238096Y-111023810D01*
X161285715Y-111214286D01*
X161333334Y-111309524D01*
X161428572Y-111404762D01*
X161571430Y-111452381D01*
X161666668Y-111452381D01*
X161809525Y-111404762D01*
X161857144Y-111357143D01*
X161857144Y-111023810D01*
X161666668Y-111023810D01*
X162285715Y-111452381D02*
X162285715Y-110452381D01*
X162666668Y-110452381D01*
X162761906Y-110500000D01*
X162809525Y-110547619D01*
X162857144Y-110642857D01*
X162857144Y-110785714D01*
X162809525Y-110880952D01*
X162761906Y-110928571D01*
X162666668Y-110976190D01*
X162285715Y-110976190D01*
X163285715Y-111452381D02*
X163285715Y-110452381D01*
X163952381Y-110452381D02*
X164142858Y-110452381D01*
X164238096Y-110500000D01*
X164333334Y-110595238D01*
X164380953Y-110785714D01*
X164380953Y-111119048D01*
X164333334Y-111309524D01*
X164238096Y-111404762D01*
X164142858Y-111452381D01*
X163952381Y-111452381D01*
X163857143Y-111404762D01*
X163761905Y-111309524D01*
X163714286Y-111119048D01*
X163714286Y-110785714D01*
X163761905Y-110595238D01*
X163857143Y-110500000D01*
X163952381Y-110452381D01*
X104952381Y-109009523D02*
X105666667Y-109009523D01*
X105809524Y-109057143D01*
X105904762Y-109152381D01*
X105952381Y-109295238D01*
X105952381Y-109390476D01*
X105952381Y-108009523D02*
X105952381Y-108580952D01*
X105952381Y-108295238D02*
X104952381Y-108295238D01*
X105095238Y-108390476D01*
X105190476Y-108485714D01*
X105238095Y-108580952D01*
X105952381Y-107057142D02*
X105952381Y-107628571D01*
X105952381Y-107342857D02*
X104952381Y-107342857D01*
X105095238Y-107438095D01*
X105190476Y-107533333D01*
X105238095Y-107628571D01*
X105428571Y-105133333D02*
X105428571Y-104799999D01*
X105952381Y-104657142D02*
X105952381Y-105133333D01*
X104952381Y-105133333D01*
X104952381Y-104657142D01*
X105904762Y-104276190D02*
X105952381Y-104133333D01*
X105952381Y-103895237D01*
X105904762Y-103799999D01*
X105857143Y-103752380D01*
X105761905Y-103704761D01*
X105666667Y-103704761D01*
X105571429Y-103752380D01*
X105523810Y-103799999D01*
X105476190Y-103895237D01*
X105428571Y-104085714D01*
X105380952Y-104180952D01*
X105333333Y-104228571D01*
X105238095Y-104276190D01*
X105142857Y-104276190D01*
X105047619Y-104228571D01*
X105000000Y-104180952D01*
X104952381Y-104085714D01*
X104952381Y-103847618D01*
X105000000Y-103704761D01*
X105952381Y-103276190D02*
X104952381Y-103276190D01*
X104952381Y-102895237D01*
X105000000Y-102799999D01*
X105047619Y-102752380D01*
X105142857Y-102704761D01*
X105285714Y-102704761D01*
X105380952Y-102752380D01*
X105428571Y-102799999D01*
X105476190Y-102895237D01*
X105476190Y-103276190D01*
X105000000Y-100990475D02*
X104952381Y-101085713D01*
X104952381Y-101228570D01*
X105000000Y-101371428D01*
X105095238Y-101466666D01*
X105190476Y-101514285D01*
X105380952Y-101561904D01*
X105523810Y-101561904D01*
X105714286Y-101514285D01*
X105809524Y-101466666D01*
X105904762Y-101371428D01*
X105952381Y-101228570D01*
X105952381Y-101133332D01*
X105904762Y-100990475D01*
X105857143Y-100942856D01*
X105523810Y-100942856D01*
X105523810Y-101133332D01*
X105952381Y-100514285D02*
X104952381Y-100514285D01*
X104952381Y-100133332D01*
X105000000Y-100038094D01*
X105047619Y-99990475D01*
X105142857Y-99942856D01*
X105285714Y-99942856D01*
X105380952Y-99990475D01*
X105428571Y-100038094D01*
X105476190Y-100133332D01*
X105476190Y-100514285D01*
X105952381Y-99514285D02*
X104952381Y-99514285D01*
X104952381Y-98847619D02*
X104952381Y-98657142D01*
X105000000Y-98561904D01*
X105095238Y-98466666D01*
X105285714Y-98419047D01*
X105619048Y-98419047D01*
X105809524Y-98466666D01*
X105904762Y-98561904D01*
X105952381Y-98657142D01*
X105952381Y-98847619D01*
X105904762Y-98942857D01*
X105809524Y-99038095D01*
X105619048Y-99085714D01*
X105285714Y-99085714D01*
X105095238Y-99038095D01*
X105000000Y-98942857D01*
X104952381Y-98847619D01*
X165038095Y-93752381D02*
X165038095Y-94561905D01*
X165085714Y-94657143D01*
X165133333Y-94704762D01*
X165228571Y-94752381D01*
X165419048Y-94752381D01*
X165514286Y-94704762D01*
X165561905Y-94657143D01*
X165609524Y-94561905D01*
X165609524Y-93752381D01*
X166609524Y-94752381D02*
X166038095Y-94752381D01*
X166323809Y-94752381D02*
X166323809Y-93752381D01*
X166228571Y-93895238D01*
X166133333Y-93990476D01*
X166038095Y-94038095D01*
X110266667Y-85152381D02*
X110266667Y-85866667D01*
X110219047Y-86009524D01*
X110123809Y-86104762D01*
X109980952Y-86152381D01*
X109885714Y-86152381D01*
X111266667Y-86152381D02*
X110695238Y-86152381D01*
X110980952Y-86152381D02*
X110980952Y-85152381D01*
X110885714Y-85295238D01*
X110790476Y-85390476D01*
X110695238Y-85438095D01*
X101695238Y-85628571D02*
X102028572Y-85628571D01*
X102171429Y-86152381D02*
X101695238Y-86152381D01*
X101695238Y-85152381D01*
X102171429Y-85152381D01*
X102552381Y-86104762D02*
X102695238Y-86152381D01*
X102933334Y-86152381D01*
X103028572Y-86104762D01*
X103076191Y-86057143D01*
X103123810Y-85961905D01*
X103123810Y-85866667D01*
X103076191Y-85771429D01*
X103028572Y-85723810D01*
X102933334Y-85676190D01*
X102742857Y-85628571D01*
X102647619Y-85580952D01*
X102600000Y-85533333D01*
X102552381Y-85438095D01*
X102552381Y-85342857D01*
X102600000Y-85247619D01*
X102647619Y-85200000D01*
X102742857Y-85152381D01*
X102980953Y-85152381D01*
X103123810Y-85200000D01*
X103552381Y-86152381D02*
X103552381Y-85152381D01*
X103933334Y-85152381D01*
X104028572Y-85200000D01*
X104076191Y-85247619D01*
X104123810Y-85342857D01*
X104123810Y-85485714D01*
X104076191Y-85580952D01*
X104028572Y-85628571D01*
X103933334Y-85676190D01*
X103552381Y-85676190D01*
X105314286Y-85152381D02*
X105314286Y-85961905D01*
X105361905Y-86057143D01*
X105409524Y-86104762D01*
X105504762Y-86152381D01*
X105695239Y-86152381D01*
X105790477Y-86104762D01*
X105838096Y-86057143D01*
X105885715Y-85961905D01*
X105885715Y-85152381D01*
X106314286Y-85866667D02*
X106790477Y-85866667D01*
X106219048Y-86152381D02*
X106552381Y-85152381D01*
X106885715Y-86152381D01*
X107790477Y-86152381D02*
X107457143Y-85676190D01*
X107219048Y-86152381D02*
X107219048Y-85152381D01*
X107600001Y-85152381D01*
X107695239Y-85200000D01*
X107742858Y-85247619D01*
X107790477Y-85342857D01*
X107790477Y-85485714D01*
X107742858Y-85580952D01*
X107695239Y-85628571D01*
X107600001Y-85676190D01*
X107219048Y-85676190D01*
X108076191Y-85152381D02*
X108647620Y-85152381D01*
X108361905Y-86152381D02*
X108361905Y-85152381D01*
X163666667Y-82752381D02*
X163666667Y-83466667D01*
X163619047Y-83609524D01*
X163523809Y-83704762D01*
X163380952Y-83752381D01*
X163285714Y-83752381D01*
X164571429Y-82752381D02*
X164380952Y-82752381D01*
X164285714Y-82800000D01*
X164238095Y-82847619D01*
X164142857Y-82990476D01*
X164095238Y-83180952D01*
X164095238Y-83561905D01*
X164142857Y-83657143D01*
X164190476Y-83704762D01*
X164285714Y-83752381D01*
X164476191Y-83752381D01*
X164571429Y-83704762D01*
X164619048Y-83657143D01*
X164666667Y-83561905D01*
X164666667Y-83323810D01*
X164619048Y-83228571D01*
X164571429Y-83180952D01*
X164476191Y-83133333D01*
X164285714Y-83133333D01*
X164190476Y-83180952D01*
X164142857Y-83228571D01*
X164095238Y-83323810D01*
X152800000Y-85061905D02*
X153295238Y-85061905D01*
X153028571Y-85366667D01*
X153142857Y-85366667D01*
X153219047Y-85404762D01*
X153257143Y-85442857D01*
X153295238Y-85519048D01*
X153295238Y-85709524D01*
X153257143Y-85785714D01*
X153219047Y-85823810D01*
X153142857Y-85861905D01*
X152914285Y-85861905D01*
X152838095Y-85823810D01*
X152800000Y-85785714D01*
X153600000Y-85138095D02*
X153638095Y-85100000D01*
X153714286Y-85061905D01*
X153904762Y-85061905D01*
X153980952Y-85100000D01*
X154019048Y-85138095D01*
X154057143Y-85214286D01*
X154057143Y-85290476D01*
X154019048Y-85404762D01*
X153561905Y-85861905D01*
X154057143Y-85861905D01*
X154514286Y-85404762D02*
X154438095Y-85366667D01*
X154400000Y-85328571D01*
X154361905Y-85252381D01*
X154361905Y-85214286D01*
X154400000Y-85138095D01*
X154438095Y-85100000D01*
X154514286Y-85061905D01*
X154666667Y-85061905D01*
X154742857Y-85100000D01*
X154780953Y-85138095D01*
X154819048Y-85214286D01*
X154819048Y-85252381D01*
X154780953Y-85328571D01*
X154742857Y-85366667D01*
X154666667Y-85404762D01*
X154514286Y-85404762D01*
X154438095Y-85442857D01*
X154400000Y-85480952D01*
X154361905Y-85557143D01*
X154361905Y-85709524D01*
X154400000Y-85785714D01*
X154438095Y-85823810D01*
X154514286Y-85861905D01*
X154666667Y-85861905D01*
X154742857Y-85823810D01*
X154780953Y-85785714D01*
X154819048Y-85709524D01*
X154819048Y-85557143D01*
X154780953Y-85480952D01*
X154742857Y-85442857D01*
X154666667Y-85404762D01*
X155771429Y-85061905D02*
X155771429Y-85709524D01*
X155809524Y-85785714D01*
X155847620Y-85823810D01*
X155923810Y-85861905D01*
X156076191Y-85861905D01*
X156152382Y-85823810D01*
X156190477Y-85785714D01*
X156228572Y-85709524D01*
X156228572Y-85061905D01*
X156571429Y-85633333D02*
X156952381Y-85633333D01*
X156495238Y-85861905D02*
X156761905Y-85061905D01*
X157028572Y-85861905D01*
X157752381Y-85861905D02*
X157485714Y-85480952D01*
X157295238Y-85861905D02*
X157295238Y-85061905D01*
X157600000Y-85061905D01*
X157676191Y-85100000D01*
X157714286Y-85138095D01*
X157752381Y-85214286D01*
X157752381Y-85328571D01*
X157714286Y-85404762D01*
X157676191Y-85442857D01*
X157600000Y-85480952D01*
X157295238Y-85480952D01*
X157980952Y-85061905D02*
X158438095Y-85061905D01*
X158209524Y-85861905D02*
X158209524Y-85061905D01*
X135166667Y-91552381D02*
X135166667Y-92266667D01*
X135119047Y-92409524D01*
X135023809Y-92504762D01*
X134880952Y-92552381D01*
X134785714Y-92552381D01*
X135547619Y-91552381D02*
X136166667Y-91552381D01*
X135833333Y-91933333D01*
X135976191Y-91933333D01*
X136071429Y-91980952D01*
X136119048Y-92028571D01*
X136166667Y-92123810D01*
X136166667Y-92361905D01*
X136119048Y-92457143D01*
X136071429Y-92504762D01*
X135976191Y-92552381D01*
X135690476Y-92552381D01*
X135595238Y-92504762D01*
X135547619Y-92457143D01*
X141847619Y-91552381D02*
X142038096Y-91552381D01*
X142133334Y-91600000D01*
X142228572Y-91695238D01*
X142276191Y-91885714D01*
X142276191Y-92219048D01*
X142228572Y-92409524D01*
X142133334Y-92504762D01*
X142038096Y-92552381D01*
X141847619Y-92552381D01*
X141752381Y-92504762D01*
X141657143Y-92409524D01*
X141609524Y-92219048D01*
X141609524Y-91885714D01*
X141657143Y-91695238D01*
X141752381Y-91600000D01*
X141847619Y-91552381D01*
X143180953Y-92552381D02*
X142704762Y-92552381D01*
X142704762Y-91552381D01*
X143514286Y-92028571D02*
X143847620Y-92028571D01*
X143990477Y-92552381D02*
X143514286Y-92552381D01*
X143514286Y-91552381D01*
X143990477Y-91552381D01*
X144419048Y-92552381D02*
X144419048Y-91552381D01*
X144657143Y-91552381D01*
X144800001Y-91600000D01*
X144895239Y-91695238D01*
X144942858Y-91790476D01*
X144990477Y-91980952D01*
X144990477Y-92123810D01*
X144942858Y-92314286D01*
X144895239Y-92409524D01*
X144800001Y-92504762D01*
X144657143Y-92552381D01*
X144419048Y-92552381D01*
X111166667Y-121004762D02*
X111309524Y-121052381D01*
X111547620Y-121052381D01*
X111642858Y-121004762D01*
X111690477Y-120957143D01*
X111738096Y-120861905D01*
X111738096Y-120766667D01*
X111690477Y-120671429D01*
X111642858Y-120623810D01*
X111547620Y-120576190D01*
X111357143Y-120528571D01*
X111261905Y-120480952D01*
X111214286Y-120433333D01*
X111166667Y-120338095D01*
X111166667Y-120242857D01*
X111214286Y-120147619D01*
X111261905Y-120100000D01*
X111357143Y-120052381D01*
X111595239Y-120052381D01*
X111738096Y-120100000D01*
X112071429Y-120052381D02*
X112309524Y-121052381D01*
X112500001Y-120338095D01*
X112690477Y-121052381D01*
X112928572Y-120052381D01*
X113738096Y-120052381D02*
X113547619Y-120052381D01*
X113452381Y-120100000D01*
X113404762Y-120147619D01*
X113309524Y-120290476D01*
X113261905Y-120480952D01*
X113261905Y-120861905D01*
X113309524Y-120957143D01*
X113357143Y-121004762D01*
X113452381Y-121052381D01*
X113642858Y-121052381D01*
X113738096Y-121004762D01*
X113785715Y-120957143D01*
X113833334Y-120861905D01*
X113833334Y-120623810D01*
X113785715Y-120528571D01*
X113738096Y-120480952D01*
X113642858Y-120433333D01*
X113452381Y-120433333D01*
X113357143Y-120480952D01*
X113309524Y-120528571D01*
X113261905Y-120623810D01*
X107210715Y-124439286D02*
X106960715Y-124082143D01*
X106782143Y-124439286D02*
X106782143Y-123689286D01*
X107067858Y-123689286D01*
X107139286Y-123725000D01*
X107175001Y-123760714D01*
X107210715Y-123832143D01*
X107210715Y-123939286D01*
X107175001Y-124010714D01*
X107139286Y-124046429D01*
X107067858Y-124082143D01*
X106782143Y-124082143D01*
X107532143Y-124046429D02*
X107782143Y-124046429D01*
X107889286Y-124439286D02*
X107532143Y-124439286D01*
X107532143Y-123689286D01*
X107889286Y-123689286D01*
X108175000Y-124403571D02*
X108282143Y-124439286D01*
X108460714Y-124439286D01*
X108532143Y-124403571D01*
X108567857Y-124367857D01*
X108603572Y-124296429D01*
X108603572Y-124225000D01*
X108567857Y-124153571D01*
X108532143Y-124117857D01*
X108460714Y-124082143D01*
X108317857Y-124046429D01*
X108246429Y-124010714D01*
X108210714Y-123975000D01*
X108175000Y-123903571D01*
X108175000Y-123832143D01*
X108210714Y-123760714D01*
X108246429Y-123725000D01*
X108317857Y-123689286D01*
X108496429Y-123689286D01*
X108603572Y-123725000D01*
X108925000Y-124046429D02*
X109175000Y-124046429D01*
X109282143Y-124439286D02*
X108925000Y-124439286D01*
X108925000Y-123689286D01*
X109282143Y-123689286D01*
X109496429Y-123689286D02*
X109925000Y-123689286D01*
X109710714Y-124439286D02*
X109710714Y-123689286D01*
X117466667Y-121104762D02*
X117609524Y-121152381D01*
X117847620Y-121152381D01*
X117942858Y-121104762D01*
X117990477Y-121057143D01*
X118038096Y-120961905D01*
X118038096Y-120866667D01*
X117990477Y-120771429D01*
X117942858Y-120723810D01*
X117847620Y-120676190D01*
X117657143Y-120628571D01*
X117561905Y-120580952D01*
X117514286Y-120533333D01*
X117466667Y-120438095D01*
X117466667Y-120342857D01*
X117514286Y-120247619D01*
X117561905Y-120200000D01*
X117657143Y-120152381D01*
X117895239Y-120152381D01*
X118038096Y-120200000D01*
X118371429Y-120152381D02*
X118609524Y-121152381D01*
X118800001Y-120438095D01*
X118990477Y-121152381D01*
X119228572Y-120152381D01*
X120085715Y-120152381D02*
X119609524Y-120152381D01*
X119561905Y-120628571D01*
X119609524Y-120580952D01*
X119704762Y-120533333D01*
X119942858Y-120533333D01*
X120038096Y-120580952D01*
X120085715Y-120628571D01*
X120133334Y-120723810D01*
X120133334Y-120961905D01*
X120085715Y-121057143D01*
X120038096Y-121104762D01*
X119942858Y-121152381D01*
X119704762Y-121152381D01*
X119609524Y-121104762D01*
X119561905Y-121057143D01*
X106475000Y-118489286D02*
X106475000Y-119025000D01*
X106439286Y-119132143D01*
X106367857Y-119203571D01*
X106260714Y-119239286D01*
X106189286Y-119239286D01*
X106832143Y-119239286D02*
X106832143Y-118489286D01*
X107117858Y-118489286D01*
X107189286Y-118525000D01*
X107225001Y-118560714D01*
X107260715Y-118632143D01*
X107260715Y-118739286D01*
X107225001Y-118810714D01*
X107189286Y-118846429D01*
X107117858Y-118882143D01*
X106832143Y-118882143D01*
X107510715Y-118489286D02*
X107975001Y-118489286D01*
X107725001Y-118775000D01*
X107832143Y-118775000D01*
X107903572Y-118810714D01*
X107939286Y-118846429D01*
X107975001Y-118917857D01*
X107975001Y-119096429D01*
X107939286Y-119167857D01*
X107903572Y-119203571D01*
X107832143Y-119239286D01*
X107617858Y-119239286D01*
X107546429Y-119203571D01*
X107510715Y-119167857D01*
X116252381Y-123066666D02*
X115776190Y-123400000D01*
X116252381Y-123638095D02*
X115252381Y-123638095D01*
X115252381Y-123257142D01*
X115300000Y-123161904D01*
X115347619Y-123114285D01*
X115442857Y-123066666D01*
X115585714Y-123066666D01*
X115680952Y-123114285D01*
X115728571Y-123161904D01*
X115776190Y-123257142D01*
X115776190Y-123638095D01*
X115252381Y-122209523D02*
X115252381Y-122400000D01*
X115300000Y-122495238D01*
X115347619Y-122542857D01*
X115490476Y-122638095D01*
X115680952Y-122685714D01*
X116061905Y-122685714D01*
X116157143Y-122638095D01*
X116204762Y-122590476D01*
X116252381Y-122495238D01*
X116252381Y-122304761D01*
X116204762Y-122209523D01*
X116157143Y-122161904D01*
X116061905Y-122114285D01*
X115823810Y-122114285D01*
X115728571Y-122161904D01*
X115680952Y-122209523D01*
X115633333Y-122304761D01*
X115633333Y-122495238D01*
X115680952Y-122590476D01*
X115728571Y-122638095D01*
X115823810Y-122685714D01*
X109275000Y-122339286D02*
X109025000Y-121982143D01*
X108846428Y-122339286D02*
X108846428Y-121589286D01*
X109132143Y-121589286D01*
X109203571Y-121625000D01*
X109239286Y-121660714D01*
X109275000Y-121732143D01*
X109275000Y-121839286D01*
X109239286Y-121910714D01*
X109203571Y-121946429D01*
X109132143Y-121982143D01*
X108846428Y-121982143D01*
X109525000Y-121589286D02*
X110025000Y-121589286D01*
X109703571Y-122339286D01*
X144258571Y-86085714D02*
X144306190Y-85942857D01*
X144353810Y-85895238D01*
X144449048Y-85847619D01*
X144591905Y-85847619D01*
X144687143Y-85895238D01*
X144734762Y-85942857D01*
X144782381Y-86038095D01*
X144782381Y-86419048D01*
X143782381Y-86419048D01*
X143782381Y-86085714D01*
X143830000Y-85990476D01*
X143877619Y-85942857D01*
X143972857Y-85895238D01*
X144068095Y-85895238D01*
X144163333Y-85942857D01*
X144210952Y-85990476D01*
X144258571Y-86085714D01*
X144258571Y-86419048D01*
X143782381Y-85561905D02*
X143782381Y-84990476D01*
X144782381Y-85276191D02*
X143782381Y-85276191D01*
X144782381Y-84133333D02*
X144782381Y-84704762D01*
X144782381Y-84419048D02*
X143782381Y-84419048D01*
X143925238Y-84514286D01*
X144020476Y-84609524D01*
X144068095Y-84704762D01*
X134657143Y-84852381D02*
X134323809Y-84376190D01*
X134085714Y-84852381D02*
X134085714Y-83852381D01*
X134466667Y-83852381D01*
X134561905Y-83900000D01*
X134609524Y-83947619D01*
X134657143Y-84042857D01*
X134657143Y-84185714D01*
X134609524Y-84280952D01*
X134561905Y-84328571D01*
X134466667Y-84376190D01*
X134085714Y-84376190D01*
X135609524Y-84852381D02*
X135038095Y-84852381D01*
X135323809Y-84852381D02*
X135323809Y-83852381D01*
X135228571Y-83995238D01*
X135133333Y-84090476D01*
X135038095Y-84138095D01*
X136561905Y-84852381D02*
X135990476Y-84852381D01*
X136276190Y-84852381D02*
X136276190Y-83852381D01*
X136180952Y-83995238D01*
X136085714Y-84090476D01*
X135990476Y-84138095D01*
X134657143Y-87052381D02*
X134323809Y-86576190D01*
X134085714Y-87052381D02*
X134085714Y-86052381D01*
X134466667Y-86052381D01*
X134561905Y-86100000D01*
X134609524Y-86147619D01*
X134657143Y-86242857D01*
X134657143Y-86385714D01*
X134609524Y-86480952D01*
X134561905Y-86528571D01*
X134466667Y-86576190D01*
X134085714Y-86576190D01*
X135609524Y-87052381D02*
X135038095Y-87052381D01*
X135323809Y-87052381D02*
X135323809Y-86052381D01*
X135228571Y-86195238D01*
X135133333Y-86290476D01*
X135038095Y-86338095D01*
X135990476Y-86147619D02*
X136038095Y-86100000D01*
X136133333Y-86052381D01*
X136371429Y-86052381D01*
X136466667Y-86100000D01*
X136514286Y-86147619D01*
X136561905Y-86242857D01*
X136561905Y-86338095D01*
X136514286Y-86480952D01*
X135942857Y-87052381D01*
X136561905Y-87052381D01*
X113266667Y-85152381D02*
X113266667Y-85866667D01*
X113219047Y-86009524D01*
X113123809Y-86104762D01*
X112980952Y-86152381D01*
X112885714Y-86152381D01*
X114219048Y-85152381D02*
X113742857Y-85152381D01*
X113695238Y-85628571D01*
X113742857Y-85580952D01*
X113838095Y-85533333D01*
X114076191Y-85533333D01*
X114171429Y-85580952D01*
X114219048Y-85628571D01*
X114266667Y-85723810D01*
X114266667Y-85961905D01*
X114219048Y-86057143D01*
X114171429Y-86104762D01*
X114076191Y-86152381D01*
X113838095Y-86152381D01*
X113742857Y-86104762D01*
X113695238Y-86057143D01*
X116742857Y-86252381D02*
X116742857Y-85252381D01*
X117171428Y-85347619D02*
X117219047Y-85300000D01*
X117314285Y-85252381D01*
X117552381Y-85252381D01*
X117647619Y-85300000D01*
X117695238Y-85347619D01*
X117742857Y-85442857D01*
X117742857Y-85538095D01*
X117695238Y-85680952D01*
X117123809Y-86252381D01*
X117742857Y-86252381D01*
X118742857Y-86157143D02*
X118695238Y-86204762D01*
X118552381Y-86252381D01*
X118457143Y-86252381D01*
X118314285Y-86204762D01*
X118219047Y-86109524D01*
X118171428Y-86014286D01*
X118123809Y-85823810D01*
X118123809Y-85680952D01*
X118171428Y-85490476D01*
X118219047Y-85395238D01*
X118314285Y-85300000D01*
X118457143Y-85252381D01*
X118552381Y-85252381D01*
X118695238Y-85300000D01*
X118742857Y-85347619D01*
X120266667Y-85728571D02*
X120409524Y-85776190D01*
X120457143Y-85823810D01*
X120504762Y-85919048D01*
X120504762Y-86061905D01*
X120457143Y-86157143D01*
X120409524Y-86204762D01*
X120314286Y-86252381D01*
X119933333Y-86252381D01*
X119933333Y-85252381D01*
X120266667Y-85252381D01*
X120361905Y-85300000D01*
X120409524Y-85347619D01*
X120457143Y-85442857D01*
X120457143Y-85538095D01*
X120409524Y-85633333D01*
X120361905Y-85680952D01*
X120266667Y-85728571D01*
X119933333Y-85728571D01*
X120933333Y-85252381D02*
X120933333Y-86061905D01*
X120980952Y-86157143D01*
X121028571Y-86204762D01*
X121123809Y-86252381D01*
X121314286Y-86252381D01*
X121409524Y-86204762D01*
X121457143Y-86157143D01*
X121504762Y-86061905D01*
X121504762Y-85252381D01*
X121933333Y-86204762D02*
X122076190Y-86252381D01*
X122314286Y-86252381D01*
X122409524Y-86204762D01*
X122457143Y-86157143D01*
X122504762Y-86061905D01*
X122504762Y-85966667D01*
X122457143Y-85871429D01*
X122409524Y-85823810D01*
X122314286Y-85776190D01*
X122123809Y-85728571D01*
X122028571Y-85680952D01*
X121980952Y-85633333D01*
X121933333Y-85538095D01*
X121933333Y-85442857D01*
X121980952Y-85347619D01*
X122028571Y-85300000D01*
X122123809Y-85252381D01*
X122361905Y-85252381D01*
X122504762Y-85300000D01*
X102666667Y-112652381D02*
X102666667Y-113366667D01*
X102619047Y-113509524D01*
X102523809Y-113604762D01*
X102380952Y-113652381D01*
X102285714Y-113652381D01*
X103190476Y-113652381D02*
X103380952Y-113652381D01*
X103476191Y-113604762D01*
X103523810Y-113557143D01*
X103619048Y-113414286D01*
X103666667Y-113223810D01*
X103666667Y-112842857D01*
X103619048Y-112747619D01*
X103571429Y-112700000D01*
X103476191Y-112652381D01*
X103285714Y-112652381D01*
X103190476Y-112700000D01*
X103142857Y-112747619D01*
X103095238Y-112842857D01*
X103095238Y-113080952D01*
X103142857Y-113176190D01*
X103190476Y-113223810D01*
X103285714Y-113271429D01*
X103476191Y-113271429D01*
X103571429Y-113223810D01*
X103619048Y-113176190D01*
X103666667Y-113080952D01*
X105739286Y-124542858D02*
X104989286Y-124542858D01*
X105060714Y-124221429D02*
X105025000Y-124185715D01*
X104989286Y-124114286D01*
X104989286Y-123935715D01*
X105025000Y-123864286D01*
X105060714Y-123828572D01*
X105132143Y-123792857D01*
X105203571Y-123792857D01*
X105310714Y-123828572D01*
X105739286Y-124257143D01*
X105739286Y-123792857D01*
X105667857Y-123042857D02*
X105703571Y-123078571D01*
X105739286Y-123185714D01*
X105739286Y-123257143D01*
X105703571Y-123364286D01*
X105632143Y-123435714D01*
X105560714Y-123471429D01*
X105417857Y-123507143D01*
X105310714Y-123507143D01*
X105167857Y-123471429D01*
X105096429Y-123435714D01*
X105025000Y-123364286D01*
X104989286Y-123257143D01*
X104989286Y-123185714D01*
X105025000Y-123078571D01*
X105060714Y-123042857D01*
X105346429Y-121900000D02*
X105382143Y-121792857D01*
X105417857Y-121757142D01*
X105489286Y-121721428D01*
X105596429Y-121721428D01*
X105667857Y-121757142D01*
X105703571Y-121792857D01*
X105739286Y-121864285D01*
X105739286Y-122150000D01*
X104989286Y-122150000D01*
X104989286Y-121900000D01*
X105025000Y-121828571D01*
X105060714Y-121792857D01*
X105132143Y-121757142D01*
X105203571Y-121757142D01*
X105275000Y-121792857D01*
X105310714Y-121828571D01*
X105346429Y-121900000D01*
X105346429Y-122150000D01*
X104989286Y-121400000D02*
X105596429Y-121400000D01*
X105667857Y-121364285D01*
X105703571Y-121328571D01*
X105739286Y-121257142D01*
X105739286Y-121114285D01*
X105703571Y-121042857D01*
X105667857Y-121007142D01*
X105596429Y-120971428D01*
X104989286Y-120971428D01*
X105703571Y-120650000D02*
X105739286Y-120542857D01*
X105739286Y-120364286D01*
X105703571Y-120292857D01*
X105667857Y-120257143D01*
X105596429Y-120221428D01*
X105525000Y-120221428D01*
X105453571Y-120257143D01*
X105417857Y-120292857D01*
X105382143Y-120364286D01*
X105346429Y-120507143D01*
X105310714Y-120578571D01*
X105275000Y-120614286D01*
X105203571Y-120650000D01*
X105132143Y-120650000D01*
X105060714Y-120614286D01*
X105025000Y-120578571D01*
X104989286Y-120507143D01*
X104989286Y-120328571D01*
X105025000Y-120221428D01*
X157766667Y-120552381D02*
X157766667Y-121266667D01*
X157719047Y-121409524D01*
X157623809Y-121504762D01*
X157480952Y-121552381D01*
X157385714Y-121552381D01*
X158147619Y-120552381D02*
X158814286Y-120552381D01*
X158385714Y-121552381D01*
X161642857Y-121552381D02*
X161642857Y-120552381D01*
X162071428Y-120647619D02*
X162119047Y-120600000D01*
X162214285Y-120552381D01*
X162452381Y-120552381D01*
X162547619Y-120600000D01*
X162595238Y-120647619D01*
X162642857Y-120742857D01*
X162642857Y-120838095D01*
X162595238Y-120980952D01*
X162023809Y-121552381D01*
X162642857Y-121552381D01*
X163642857Y-121457143D02*
X163595238Y-121504762D01*
X163452381Y-121552381D01*
X163357143Y-121552381D01*
X163214285Y-121504762D01*
X163119047Y-121409524D01*
X163071428Y-121314286D01*
X163023809Y-121123810D01*
X163023809Y-120980952D01*
X163071428Y-120790476D01*
X163119047Y-120695238D01*
X163214285Y-120600000D01*
X163357143Y-120552381D01*
X163452381Y-120552381D01*
X163595238Y-120600000D01*
X163642857Y-120647619D01*
X165166667Y-121028571D02*
X165309524Y-121076190D01*
X165357143Y-121123810D01*
X165404762Y-121219048D01*
X165404762Y-121361905D01*
X165357143Y-121457143D01*
X165309524Y-121504762D01*
X165214286Y-121552381D01*
X164833333Y-121552381D01*
X164833333Y-120552381D01*
X165166667Y-120552381D01*
X165261905Y-120600000D01*
X165309524Y-120647619D01*
X165357143Y-120742857D01*
X165357143Y-120838095D01*
X165309524Y-120933333D01*
X165261905Y-120980952D01*
X165166667Y-121028571D01*
X164833333Y-121028571D01*
X165833333Y-120552381D02*
X165833333Y-121361905D01*
X165880952Y-121457143D01*
X165928571Y-121504762D01*
X166023809Y-121552381D01*
X166214286Y-121552381D01*
X166309524Y-121504762D01*
X166357143Y-121457143D01*
X166404762Y-121361905D01*
X166404762Y-120552381D01*
X166833333Y-121504762D02*
X166976190Y-121552381D01*
X167214286Y-121552381D01*
X167309524Y-121504762D01*
X167357143Y-121457143D01*
X167404762Y-121361905D01*
X167404762Y-121266667D01*
X167357143Y-121171429D01*
X167309524Y-121123810D01*
X167214286Y-121076190D01*
X167023809Y-121028571D01*
X166928571Y-120980952D01*
X166880952Y-120933333D01*
X166833333Y-120838095D01*
X166833333Y-120742857D01*
X166880952Y-120647619D01*
X166928571Y-120600000D01*
X167023809Y-120552381D01*
X167261905Y-120552381D01*
X167404762Y-120600000D01*
X178452381Y-93833333D02*
X179166667Y-93833333D01*
X179309524Y-93880953D01*
X179404762Y-93976191D01*
X179452381Y-94119048D01*
X179452381Y-94214286D01*
X178880952Y-93214286D02*
X178833333Y-93309524D01*
X178785714Y-93357143D01*
X178690476Y-93404762D01*
X178642857Y-93404762D01*
X178547619Y-93357143D01*
X178500000Y-93309524D01*
X178452381Y-93214286D01*
X178452381Y-93023809D01*
X178500000Y-92928571D01*
X178547619Y-92880952D01*
X178642857Y-92833333D01*
X178690476Y-92833333D01*
X178785714Y-92880952D01*
X178833333Y-92928571D01*
X178880952Y-93023809D01*
X178880952Y-93214286D01*
X178928571Y-93309524D01*
X178976190Y-93357143D01*
X179071429Y-93404762D01*
X179261905Y-93404762D01*
X179357143Y-93357143D01*
X179404762Y-93309524D01*
X179452381Y-93214286D01*
X179452381Y-93023809D01*
X179404762Y-92928571D01*
X179357143Y-92880952D01*
X179261905Y-92833333D01*
X179071429Y-92833333D01*
X178976190Y-92880952D01*
X178928571Y-92928571D01*
X178880952Y-93023809D01*
X177152381Y-87757143D02*
X176152381Y-87757143D01*
X176247619Y-87328572D02*
X176200000Y-87280953D01*
X176152381Y-87185715D01*
X176152381Y-86947619D01*
X176200000Y-86852381D01*
X176247619Y-86804762D01*
X176342857Y-86757143D01*
X176438095Y-86757143D01*
X176580952Y-86804762D01*
X177152381Y-87376191D01*
X177152381Y-86757143D01*
X177057143Y-85757143D02*
X177104762Y-85804762D01*
X177152381Y-85947619D01*
X177152381Y-86042857D01*
X177104762Y-86185715D01*
X177009524Y-86280953D01*
X176914286Y-86328572D01*
X176723810Y-86376191D01*
X176580952Y-86376191D01*
X176390476Y-86328572D01*
X176295238Y-86280953D01*
X176200000Y-86185715D01*
X176152381Y-86042857D01*
X176152381Y-85947619D01*
X176200000Y-85804762D01*
X176247619Y-85757143D01*
X176628571Y-84233333D02*
X176676190Y-84090476D01*
X176723810Y-84042857D01*
X176819048Y-83995238D01*
X176961905Y-83995238D01*
X177057143Y-84042857D01*
X177104762Y-84090476D01*
X177152381Y-84185714D01*
X177152381Y-84566667D01*
X176152381Y-84566667D01*
X176152381Y-84233333D01*
X176200000Y-84138095D01*
X176247619Y-84090476D01*
X176342857Y-84042857D01*
X176438095Y-84042857D01*
X176533333Y-84090476D01*
X176580952Y-84138095D01*
X176628571Y-84233333D01*
X176628571Y-84566667D01*
X176152381Y-83566667D02*
X176961905Y-83566667D01*
X177057143Y-83519048D01*
X177104762Y-83471429D01*
X177152381Y-83376191D01*
X177152381Y-83185714D01*
X177104762Y-83090476D01*
X177057143Y-83042857D01*
X176961905Y-82995238D01*
X176152381Y-82995238D01*
X177104762Y-82566667D02*
X177152381Y-82423810D01*
X177152381Y-82185714D01*
X177104762Y-82090476D01*
X177057143Y-82042857D01*
X176961905Y-81995238D01*
X176866667Y-81995238D01*
X176771429Y-82042857D01*
X176723810Y-82090476D01*
X176676190Y-82185714D01*
X176628571Y-82376191D01*
X176580952Y-82471429D01*
X176533333Y-82519048D01*
X176438095Y-82566667D01*
X176342857Y-82566667D01*
X176247619Y-82519048D01*
X176200000Y-82471429D01*
X176152381Y-82376191D01*
X176152381Y-82138095D01*
X176200000Y-81995238D01*
M02*
