G04 #@! TF.FileFunction,Soldermask,Top*
%FSLAX46Y46*%
G04 Gerber Fmt 4.6, Leading zero omitted, Abs format (unit mm)*
G04 Created by KiCad (PCBNEW 4.0.6) date 09/01/17 10:43:57*
%MOMM*%
%LPD*%
G01*
G04 APERTURE LIST*
%ADD10C,0.100000*%
%ADD11R,2.100000X2.100000*%
%ADD12O,2.100000X2.100000*%
%ADD13R,1.100000X0.650000*%
%ADD14R,0.650000X1.100000*%
%ADD15R,2.125000X2.125000*%
%ADD16C,2.899360*%
%ADD17R,1.900000X1.650000*%
%ADD18R,1.650000X1.900000*%
%ADD19R,1.700000X1.900000*%
%ADD20R,0.900000X1.300000*%
%ADD21R,1.900000X1.700000*%
%ADD22R,2.200000X1.500000*%
%ADD23R,2.500000X2.200000*%
%ADD24R,1.000000X1.950000*%
%ADD25R,0.950000X2.000000*%
%ADD26R,2.000000X0.950000*%
%ADD27R,2.000000X2.400000*%
G04 APERTURE END LIST*
D10*
D11*
X112260000Y-114540000D03*
D12*
X112260000Y-112000000D03*
X114800000Y-114540000D03*
X114800000Y-112000000D03*
X117340000Y-114540000D03*
X117340000Y-112000000D03*
X119880000Y-114540000D03*
X119880000Y-112000000D03*
D13*
X111600000Y-102550000D03*
X111600000Y-103050000D03*
X111600000Y-103550000D03*
X111600000Y-104050000D03*
X111600000Y-104550000D03*
X111600000Y-105050000D03*
X111600000Y-105550000D03*
X111600000Y-106050000D03*
D14*
X112250000Y-106700000D03*
X112750000Y-106700000D03*
X113250000Y-106700000D03*
X113750000Y-106700000D03*
X114250000Y-106700000D03*
X114750000Y-106700000D03*
X115250000Y-106700000D03*
X115750000Y-106700000D03*
D13*
X116400000Y-106050000D03*
X116400000Y-105550000D03*
X116400000Y-105050000D03*
X116400000Y-104550000D03*
X116400000Y-104050000D03*
X116400000Y-103550000D03*
X116400000Y-103050000D03*
X116400000Y-102550000D03*
D14*
X115750000Y-101900000D03*
X115250000Y-101900000D03*
X114750000Y-101900000D03*
X114250000Y-101900000D03*
X113750000Y-101900000D03*
X113250000Y-101900000D03*
X112750000Y-101900000D03*
X112250000Y-101900000D03*
D15*
X114862500Y-105162500D03*
X114862500Y-103437500D03*
X113137500Y-105162500D03*
X113137500Y-103437500D03*
D11*
X119000000Y-98050000D03*
D16*
X175000000Y-112120000D03*
X175000000Y-122280000D03*
D17*
X156750000Y-105300000D03*
X159250000Y-105300000D03*
D18*
X157100000Y-87650000D03*
X157100000Y-90150000D03*
X165100000Y-90150000D03*
X165100000Y-87650000D03*
D17*
X107750000Y-98300000D03*
X110250000Y-98300000D03*
D18*
X108000000Y-92550000D03*
X108000000Y-95050000D03*
X108000000Y-114550000D03*
X108000000Y-112050000D03*
X110000000Y-92550000D03*
X110000000Y-95050000D03*
X118000000Y-95050000D03*
X118000000Y-92550000D03*
D19*
X171006554Y-103770242D03*
X171006554Y-101070242D03*
D20*
X128250000Y-86300000D03*
X129750000Y-86300000D03*
X128250000Y-84300000D03*
X129750000Y-84300000D03*
D19*
X120250000Y-95150000D03*
X120250000Y-92450000D03*
X122500000Y-95150000D03*
X122500000Y-92450000D03*
D11*
X179000000Y-105840000D03*
D12*
X179000000Y-103300000D03*
D19*
X122000000Y-122650000D03*
X122000000Y-119950000D03*
X134000000Y-122650000D03*
X134000000Y-119950000D03*
X146000000Y-122650000D03*
X146000000Y-119950000D03*
X169006554Y-103770242D03*
X169006554Y-101070242D03*
X174500000Y-101050000D03*
X174500000Y-103750000D03*
D21*
X121850000Y-108800000D03*
X119150000Y-108800000D03*
X112650000Y-108800000D03*
X115350000Y-108800000D03*
X115350000Y-98300000D03*
X112650000Y-98300000D03*
D22*
X124900000Y-119550000D03*
X131100000Y-119550000D03*
X124900000Y-123250000D03*
X131100000Y-123250000D03*
X136900000Y-119550000D03*
X143100000Y-119550000D03*
X136900000Y-123250000D03*
X143100000Y-123250000D03*
X148900000Y-119550000D03*
X155100000Y-119550000D03*
X148900000Y-123250000D03*
X155100000Y-123250000D03*
X168900000Y-90900000D03*
X175100000Y-90900000D03*
X168900000Y-94600000D03*
X175100000Y-94600000D03*
D23*
X159600000Y-90100000D03*
X162500000Y-90100000D03*
X162500000Y-87800000D03*
X159600000Y-87800000D03*
X112550000Y-94950000D03*
X115450000Y-94950000D03*
X115450000Y-92650000D03*
X112550000Y-92650000D03*
D11*
X173500000Y-83300000D03*
D12*
X173500000Y-85840000D03*
X170960000Y-83300000D03*
X170960000Y-85840000D03*
X168420000Y-83300000D03*
X168420000Y-85840000D03*
D24*
X118595000Y-106500000D03*
X119865000Y-106500000D03*
X121135000Y-106500000D03*
X122405000Y-106500000D03*
X122405000Y-101100000D03*
X121135000Y-101100000D03*
X119865000Y-101100000D03*
X118595000Y-101100000D03*
D11*
X168660000Y-108600000D03*
D12*
X166120000Y-108600000D03*
X163580000Y-108600000D03*
X161040000Y-108600000D03*
X158500000Y-108600000D03*
X155960000Y-108600000D03*
D11*
X103000000Y-92540000D03*
D12*
X103000000Y-95080000D03*
X103000000Y-97620000D03*
X103000000Y-100160000D03*
X103000000Y-102700000D03*
X103000000Y-105240000D03*
X103000000Y-107780000D03*
X103000000Y-110320000D03*
D25*
X163800000Y-94250000D03*
X163000000Y-94250000D03*
X162200000Y-94250000D03*
X161400000Y-94250000D03*
X160600000Y-94250000D03*
X159800000Y-94250000D03*
X159000000Y-94250000D03*
X158200000Y-94250000D03*
D26*
X156750000Y-95700000D03*
X156750000Y-96500000D03*
X156750000Y-97300000D03*
X156750000Y-98100000D03*
X156750000Y-98900000D03*
X156750000Y-99700000D03*
X156750000Y-100500000D03*
X156750000Y-101300000D03*
D25*
X158200000Y-102750000D03*
X159000000Y-102750000D03*
X159800000Y-102750000D03*
X160600000Y-102750000D03*
X161400000Y-102750000D03*
X162200000Y-102750000D03*
X163000000Y-102750000D03*
X163800000Y-102750000D03*
D26*
X165250000Y-101300000D03*
X165250000Y-100500000D03*
X165250000Y-99700000D03*
X165250000Y-98900000D03*
X165250000Y-98100000D03*
X165250000Y-97300000D03*
X165250000Y-96500000D03*
X165250000Y-95700000D03*
D11*
X110600000Y-83300000D03*
D12*
X108060000Y-83300000D03*
X105520000Y-83300000D03*
X102980000Y-83300000D03*
D11*
X161720000Y-83300000D03*
D12*
X159180000Y-83300000D03*
X156640000Y-83300000D03*
X154100000Y-83300000D03*
D11*
X143740000Y-89800000D03*
D12*
X141200000Y-89800000D03*
X138660000Y-89800000D03*
X136120000Y-89800000D03*
D27*
X112500000Y-123300000D03*
X112500000Y-117900000D03*
X118800000Y-123400000D03*
X118800000Y-118000000D03*
D20*
X107500000Y-117600000D03*
X106000000Y-117600000D03*
D19*
X115700000Y-120400000D03*
X115700000Y-117700000D03*
X109400000Y-120300000D03*
X109400000Y-117600000D03*
D11*
X146660000Y-85300000D03*
D12*
X149200000Y-85300000D03*
D21*
X137800000Y-84400000D03*
X140500000Y-84400000D03*
X137800000Y-86600000D03*
X140500000Y-86600000D03*
D11*
X113600000Y-83300000D03*
D12*
X116140000Y-83300000D03*
X118680000Y-83300000D03*
X121220000Y-83300000D03*
D11*
X103000000Y-123300000D03*
D12*
X103000000Y-120760000D03*
X103000000Y-118220000D03*
X103000000Y-115680000D03*
D11*
X166300000Y-123300000D03*
D12*
X163760000Y-123300000D03*
X161220000Y-123300000D03*
X158680000Y-123300000D03*
D11*
X179000000Y-83300000D03*
D12*
X179000000Y-85840000D03*
X179000000Y-88380000D03*
X179000000Y-90920000D03*
M02*
