M48
;DRILL file {KiCad 4.0.6} date 09/01/17 10:44:10
;FORMAT={3:3/ absolute / metric / suppress leading zeros}
FMAT,2
METRIC,TZ
T1C0.400
T2C1.000
T3C1.001
%
G90
G05
M71
T1
X106000Y-116100
X107500Y-109300
X108000Y-87300
X108000Y-90300
X108200Y-109300
X108870Y-103000
X108900Y-109300
X109000Y-102300
X109000Y-110300
X109600Y-109300
X110300Y-109300
X110500Y-102800
X110500Y-105550
X110900Y-119000
X111000Y-109300
X113000Y-110300
X114863Y-103438
X115700Y-123400
X115800Y-100800
X116000Y-87300
X116500Y-100800
X117244Y-106806
X117367Y-104174
X117500Y-101550
X117500Y-107800
X117525Y-103492
X117745Y-109105
X120000Y-121300
X120500Y-103800
X120500Y-108800
X122250Y-104800
X122405Y-102550
X122500Y-89300
X126000Y-95300
X126000Y-103800
X127000Y-97300
X129000Y-85300
X151000Y-115300
X152500Y-115300
X153000Y-97300
X153000Y-98100
X153000Y-98900
X154000Y-115300
X154600Y-99700
X156000Y-102300
X159000Y-98300
X159000Y-99300
X161500Y-95800
X161500Y-101300
X162000Y-106300
X163000Y-96300
X163100Y-97100
X163600Y-98450
X165000Y-102300
X165100Y-103800
X165800Y-102300
X165800Y-103200
X166300Y-93200
X166800Y-93700
X167600Y-101000
X169000Y-97300
X169000Y-98300
X172300Y-87400
X173400Y-93500
X175200Y-105390
T2
X102980Y-83300
X103000Y-92540
X103000Y-95080
X103000Y-97620
X103000Y-100160
X103000Y-102700
X103000Y-105240
X103000Y-107780
X103000Y-110320
X103000Y-115680
X103000Y-118220
X103000Y-120760
X103000Y-123300
X105520Y-83300
X108060Y-83300
X110600Y-83300
X112260Y-112000
X112260Y-114540
X113600Y-83300
X114800Y-112000
X114800Y-114540
X116140Y-83300
X117340Y-112000
X117340Y-114540
X118680Y-83300
X119000Y-98050
X119880Y-112000
X119880Y-114540
X121220Y-83300
X136120Y-89800
X138660Y-89800
X141200Y-89800
X143740Y-89800
X146660Y-85300
X149200Y-85300
X154100Y-83300
X155960Y-108600
X156640Y-83300
X158500Y-108600
X158680Y-123300
X159180Y-83300
X161040Y-108600
X161220Y-123300
X161720Y-83300
X163580Y-108600
X163760Y-123300
X166120Y-108600
X166300Y-123300
X168420Y-83300
X168420Y-85840
X168660Y-108600
X170960Y-83300
X170960Y-85840
X173500Y-83300
X173500Y-85840
X179000Y-83300
X179000Y-85840
X179000Y-88380
X179000Y-90920
X179000Y-103300
X179000Y-105840
T3
X175000Y-112120
X175000Y-122280
T0
M30
