G04 #@! TF.FileFunction,Copper,L1,Top,Signal*
%FSLAX46Y46*%
G04 Gerber Fmt 4.6, Leading zero omitted, Abs format (unit mm)*
G04 Created by KiCad (PCBNEW 4.0.6) date 09/01/17 10:43:57*
%MOMM*%
%LPD*%
G01*
G04 APERTURE LIST*
%ADD10C,0.100000*%
%ADD11R,1.700000X1.700000*%
%ADD12O,1.700000X1.700000*%
%ADD13R,0.700000X0.250000*%
%ADD14R,0.250000X0.700000*%
%ADD15R,1.725000X1.725000*%
%ADD16C,2.499360*%
%ADD17R,1.500000X1.250000*%
%ADD18R,1.250000X1.500000*%
%ADD19R,1.300000X1.500000*%
%ADD20R,0.500000X0.900000*%
%ADD21R,1.500000X1.300000*%
%ADD22R,1.800000X1.100000*%
%ADD23R,2.100000X1.800000*%
%ADD24R,0.600000X1.550000*%
%ADD25R,0.550000X1.600000*%
%ADD26R,1.600000X0.550000*%
%ADD27R,1.600000X2.000000*%
%ADD28C,0.600000*%
%ADD29C,0.254000*%
G04 APERTURE END LIST*
D10*
D11*
X112260000Y-114540000D03*
D12*
X112260000Y-112000000D03*
X114800000Y-114540000D03*
X114800000Y-112000000D03*
X117340000Y-114540000D03*
X117340000Y-112000000D03*
X119880000Y-114540000D03*
X119880000Y-112000000D03*
D13*
X111600000Y-102550000D03*
X111600000Y-103050000D03*
X111600000Y-103550000D03*
X111600000Y-104050000D03*
X111600000Y-104550000D03*
X111600000Y-105050000D03*
X111600000Y-105550000D03*
X111600000Y-106050000D03*
D14*
X112250000Y-106700000D03*
X112750000Y-106700000D03*
X113250000Y-106700000D03*
X113750000Y-106700000D03*
X114250000Y-106700000D03*
X114750000Y-106700000D03*
X115250000Y-106700000D03*
X115750000Y-106700000D03*
D13*
X116400000Y-106050000D03*
X116400000Y-105550000D03*
X116400000Y-105050000D03*
X116400000Y-104550000D03*
X116400000Y-104050000D03*
X116400000Y-103550000D03*
X116400000Y-103050000D03*
X116400000Y-102550000D03*
D14*
X115750000Y-101900000D03*
X115250000Y-101900000D03*
X114750000Y-101900000D03*
X114250000Y-101900000D03*
X113750000Y-101900000D03*
X113250000Y-101900000D03*
X112750000Y-101900000D03*
X112250000Y-101900000D03*
D15*
X114862500Y-105162500D03*
X114862500Y-103437500D03*
X113137500Y-105162500D03*
X113137500Y-103437500D03*
D11*
X119000000Y-98050000D03*
D16*
X175000000Y-112120000D03*
X175000000Y-122280000D03*
D17*
X156750000Y-105300000D03*
X159250000Y-105300000D03*
D18*
X157100000Y-87650000D03*
X157100000Y-90150000D03*
X165100000Y-90150000D03*
X165100000Y-87650000D03*
D17*
X107750000Y-98300000D03*
X110250000Y-98300000D03*
D18*
X108000000Y-92550000D03*
X108000000Y-95050000D03*
X108000000Y-114550000D03*
X108000000Y-112050000D03*
X110000000Y-92550000D03*
X110000000Y-95050000D03*
X118000000Y-95050000D03*
X118000000Y-92550000D03*
D19*
X171006554Y-103770242D03*
X171006554Y-101070242D03*
D20*
X128250000Y-86300000D03*
X129750000Y-86300000D03*
X128250000Y-84300000D03*
X129750000Y-84300000D03*
D19*
X120250000Y-95150000D03*
X120250000Y-92450000D03*
X122500000Y-95150000D03*
X122500000Y-92450000D03*
D11*
X179000000Y-105840000D03*
D12*
X179000000Y-103300000D03*
D19*
X122000000Y-122650000D03*
X122000000Y-119950000D03*
X134000000Y-122650000D03*
X134000000Y-119950000D03*
X146000000Y-122650000D03*
X146000000Y-119950000D03*
X169006554Y-103770242D03*
X169006554Y-101070242D03*
X174500000Y-101050000D03*
X174500000Y-103750000D03*
D21*
X121850000Y-108800000D03*
X119150000Y-108800000D03*
X112650000Y-108800000D03*
X115350000Y-108800000D03*
X115350000Y-98300000D03*
X112650000Y-98300000D03*
D22*
X124900000Y-119550000D03*
X131100000Y-119550000D03*
X124900000Y-123250000D03*
X131100000Y-123250000D03*
X136900000Y-119550000D03*
X143100000Y-119550000D03*
X136900000Y-123250000D03*
X143100000Y-123250000D03*
X148900000Y-119550000D03*
X155100000Y-119550000D03*
X148900000Y-123250000D03*
X155100000Y-123250000D03*
X168900000Y-90900000D03*
X175100000Y-90900000D03*
X168900000Y-94600000D03*
X175100000Y-94600000D03*
D23*
X159600000Y-90100000D03*
X162500000Y-90100000D03*
X162500000Y-87800000D03*
X159600000Y-87800000D03*
X112550000Y-94950000D03*
X115450000Y-94950000D03*
X115450000Y-92650000D03*
X112550000Y-92650000D03*
D11*
X173500000Y-83300000D03*
D12*
X173500000Y-85840000D03*
X170960000Y-83300000D03*
X170960000Y-85840000D03*
X168420000Y-83300000D03*
X168420000Y-85840000D03*
D24*
X118595000Y-106500000D03*
X119865000Y-106500000D03*
X121135000Y-106500000D03*
X122405000Y-106500000D03*
X122405000Y-101100000D03*
X121135000Y-101100000D03*
X119865000Y-101100000D03*
X118595000Y-101100000D03*
D11*
X168660000Y-108600000D03*
D12*
X166120000Y-108600000D03*
X163580000Y-108600000D03*
X161040000Y-108600000D03*
X158500000Y-108600000D03*
X155960000Y-108600000D03*
D11*
X103000000Y-92540000D03*
D12*
X103000000Y-95080000D03*
X103000000Y-97620000D03*
X103000000Y-100160000D03*
X103000000Y-102700000D03*
X103000000Y-105240000D03*
X103000000Y-107780000D03*
X103000000Y-110320000D03*
D25*
X163800000Y-94250000D03*
X163000000Y-94250000D03*
X162200000Y-94250000D03*
X161400000Y-94250000D03*
X160600000Y-94250000D03*
X159800000Y-94250000D03*
X159000000Y-94250000D03*
X158200000Y-94250000D03*
D26*
X156750000Y-95700000D03*
X156750000Y-96500000D03*
X156750000Y-97300000D03*
X156750000Y-98100000D03*
X156750000Y-98900000D03*
X156750000Y-99700000D03*
X156750000Y-100500000D03*
X156750000Y-101300000D03*
D25*
X158200000Y-102750000D03*
X159000000Y-102750000D03*
X159800000Y-102750000D03*
X160600000Y-102750000D03*
X161400000Y-102750000D03*
X162200000Y-102750000D03*
X163000000Y-102750000D03*
X163800000Y-102750000D03*
D26*
X165250000Y-101300000D03*
X165250000Y-100500000D03*
X165250000Y-99700000D03*
X165250000Y-98900000D03*
X165250000Y-98100000D03*
X165250000Y-97300000D03*
X165250000Y-96500000D03*
X165250000Y-95700000D03*
D11*
X110600000Y-83300000D03*
D12*
X108060000Y-83300000D03*
X105520000Y-83300000D03*
X102980000Y-83300000D03*
D11*
X161720000Y-83300000D03*
D12*
X159180000Y-83300000D03*
X156640000Y-83300000D03*
X154100000Y-83300000D03*
D11*
X143740000Y-89800000D03*
D12*
X141200000Y-89800000D03*
X138660000Y-89800000D03*
X136120000Y-89800000D03*
D27*
X112500000Y-123300000D03*
X112500000Y-117900000D03*
X118800000Y-123400000D03*
X118800000Y-118000000D03*
D20*
X107500000Y-117600000D03*
X106000000Y-117600000D03*
D19*
X115700000Y-120400000D03*
X115700000Y-117700000D03*
X109400000Y-120300000D03*
X109400000Y-117600000D03*
D11*
X146660000Y-85300000D03*
D12*
X149200000Y-85300000D03*
D21*
X137800000Y-84400000D03*
X140500000Y-84400000D03*
X137800000Y-86600000D03*
X140500000Y-86600000D03*
D11*
X113600000Y-83300000D03*
D12*
X116140000Y-83300000D03*
X118680000Y-83300000D03*
X121220000Y-83300000D03*
D11*
X103000000Y-123300000D03*
D12*
X103000000Y-120760000D03*
X103000000Y-118220000D03*
X103000000Y-115680000D03*
D11*
X166300000Y-123300000D03*
D12*
X163760000Y-123300000D03*
X161220000Y-123300000D03*
X158680000Y-123300000D03*
D11*
X179000000Y-83300000D03*
D12*
X179000000Y-85840000D03*
X179000000Y-88380000D03*
X179000000Y-90920000D03*
D28*
X110500000Y-102800000D03*
X115700000Y-123400000D03*
X114862500Y-103437500D03*
X122500000Y-89300000D03*
X161500000Y-95800000D03*
X167600000Y-101000000D03*
X161500000Y-101300000D03*
X120000000Y-121300000D03*
X108000000Y-90300000D03*
X122250000Y-104800000D03*
X126000000Y-95300000D03*
X127000000Y-97300000D03*
X126000000Y-103800000D03*
X120500000Y-103800000D03*
X116000000Y-87300000D03*
X108000000Y-87300000D03*
X173400000Y-93500000D03*
X172300000Y-87400000D03*
X115800000Y-100800000D03*
X106000000Y-116100000D03*
X110500000Y-105550000D03*
X110900000Y-119000000D03*
X116500000Y-100800000D03*
X129000000Y-85300000D03*
X117500000Y-101550000D03*
X117244301Y-106805699D03*
X111000000Y-109300000D03*
X110299997Y-109300000D03*
X109599994Y-109300000D03*
X108899991Y-109300000D03*
X108199988Y-109300000D03*
X107499985Y-109300000D03*
X166800000Y-93700000D03*
X166300000Y-93200000D03*
X163600000Y-98450000D03*
X151000000Y-115300000D03*
X153000000Y-97300000D03*
X152500000Y-115300000D03*
X153000000Y-98100000D03*
X154000000Y-115300000D03*
X153000000Y-98900000D03*
X120500000Y-108800000D03*
X117367130Y-104173932D03*
X122405001Y-102550000D03*
X117525010Y-103491967D03*
X165800000Y-102300000D03*
X165000000Y-102300000D03*
X165800000Y-103200000D03*
X165100000Y-103800000D03*
X156000000Y-102300000D03*
X109000000Y-102300000D03*
X113000000Y-110300000D03*
X175200000Y-105390000D03*
X163000000Y-96300000D03*
X163100000Y-97100000D03*
X108870001Y-103000003D03*
X109000000Y-110300000D03*
X159000000Y-99300000D03*
X169000000Y-98300000D03*
X117500000Y-107800000D03*
X159000000Y-98300000D03*
X169000000Y-97300000D03*
X117744669Y-109105331D03*
X162000000Y-106300000D03*
X154600000Y-99700000D03*
D10*
X111289999Y-115540001D02*
X111259999Y-115510001D01*
X120250000Y-95150000D02*
X120250000Y-97750000D01*
X120250000Y-97750000D02*
X119950000Y-98050000D01*
X119950000Y-98050000D02*
X119000000Y-98050000D01*
X122500000Y-95150000D02*
X120250000Y-95150000D01*
X111600000Y-103050000D02*
X110750000Y-103050000D01*
X110750000Y-103050000D02*
X110500000Y-102800000D01*
X115700000Y-123400000D02*
X112600000Y-123400000D01*
X112600000Y-123400000D02*
X112500000Y-123300000D01*
X118800000Y-123400000D02*
X115700000Y-123400000D01*
X112260000Y-112000000D02*
X110425000Y-112000000D01*
X110425000Y-112000000D02*
X108000000Y-114425000D01*
X108000000Y-114425000D02*
X108000000Y-114550000D01*
X175100000Y-90900000D02*
X178980000Y-90900000D01*
X178980000Y-90900000D02*
X179000000Y-90920000D01*
X114862500Y-105162500D02*
X114862500Y-103437500D01*
X113137500Y-103437500D02*
X114862500Y-103437500D01*
X113137500Y-105162500D02*
X114862500Y-105162500D01*
X122500000Y-89300000D02*
X122500000Y-89724264D01*
X122500000Y-89724264D02*
X122500000Y-92450000D01*
X161500000Y-95200001D02*
X161774999Y-95200001D01*
X161004999Y-95200001D02*
X161500000Y-95200001D01*
X161500000Y-95200001D02*
X161500000Y-95800000D01*
X169006554Y-101070242D02*
X167670242Y-101070242D01*
X167670242Y-101070242D02*
X167600000Y-101000000D01*
X174750000Y-90900000D02*
X175100000Y-90900000D01*
X169006554Y-101070242D02*
X169006554Y-100970242D01*
X161400000Y-102750000D02*
X161400000Y-101400000D01*
X161400000Y-101400000D02*
X161500000Y-101300000D01*
X165100000Y-90150000D02*
X165100000Y-90025000D01*
X165100000Y-90025000D02*
X167570001Y-87554999D01*
X167570001Y-87554999D02*
X167570001Y-86689999D01*
X167570001Y-86689999D02*
X168420000Y-85840000D01*
X168900000Y-90900000D02*
X165850000Y-90900000D01*
X165850000Y-90900000D02*
X165100000Y-90150000D01*
X175100000Y-90900000D02*
X168900000Y-90900000D01*
X122000000Y-119950000D02*
X122000000Y-120050000D01*
X122000000Y-120050000D02*
X120750000Y-121300000D01*
X120750000Y-121300000D02*
X120000000Y-121300000D01*
X134000000Y-119950000D02*
X134750000Y-119950000D01*
X134750000Y-119950000D02*
X135850001Y-118849999D01*
X135850001Y-118849999D02*
X144149999Y-118849999D01*
X144149999Y-118849999D02*
X145250000Y-119950000D01*
X145250000Y-119950000D02*
X146000000Y-119950000D01*
X122000000Y-119950000D02*
X122750000Y-119950000D01*
X132149999Y-118849999D02*
X133250000Y-119950000D01*
X122750000Y-119950000D02*
X123850001Y-118849999D01*
X123850001Y-118849999D02*
X132149999Y-118849999D01*
X133250000Y-119950000D02*
X134000000Y-119950000D01*
X112550000Y-92650000D02*
X112700000Y-92650000D01*
X112700000Y-92650000D02*
X113750001Y-91599999D01*
X113750001Y-91599999D02*
X118649999Y-91599999D01*
X118649999Y-91599999D02*
X119500000Y-92450000D01*
X119500000Y-92450000D02*
X120250000Y-92450000D01*
X108000000Y-92550000D02*
X108000000Y-90300000D01*
X160600000Y-94250000D02*
X160600000Y-94795002D01*
X160600000Y-94795002D02*
X161004999Y-95200001D01*
X161774999Y-95200001D02*
X162200000Y-94775000D01*
X162200000Y-94775000D02*
X162200000Y-94250000D01*
X162500000Y-90100000D02*
X165050000Y-90100000D01*
X165050000Y-90100000D02*
X165100000Y-90150000D01*
X159600000Y-87800000D02*
X159750000Y-87800000D01*
X159750000Y-87800000D02*
X162050000Y-90100000D01*
X162050000Y-90100000D02*
X162500000Y-90100000D01*
X157100000Y-87650000D02*
X159450000Y-87650000D01*
X159450000Y-87650000D02*
X159600000Y-87800000D01*
X115450000Y-94950000D02*
X115450000Y-98200000D01*
X115450000Y-98200000D02*
X115350000Y-98300000D01*
X110000000Y-92550000D02*
X109275000Y-92550000D01*
X109275000Y-92550000D02*
X108000000Y-92550000D01*
X112550000Y-92650000D02*
X110100000Y-92650000D01*
X110100000Y-92650000D02*
X110000000Y-92550000D01*
X118000000Y-95050000D02*
X115550000Y-95050000D01*
X115550000Y-95050000D02*
X115450000Y-94950000D01*
X120250000Y-92450000D02*
X120250000Y-92550000D01*
X120250000Y-92550000D02*
X118000000Y-94800000D01*
X118000000Y-94800000D02*
X118000000Y-95050000D01*
X122500000Y-92450000D02*
X121750000Y-92450000D01*
X121750000Y-92450000D02*
X120250000Y-92450000D01*
X122405000Y-106500000D02*
X122405000Y-104955000D01*
X122405000Y-104955000D02*
X122250000Y-104800000D01*
X137800000Y-84400000D02*
X137800000Y-85150000D01*
X137800000Y-85150000D02*
X137800000Y-86600000D01*
X107500000Y-117600000D02*
X107150000Y-117600000D01*
X107150000Y-117600000D02*
X106530000Y-118220000D01*
X106530000Y-118220000D02*
X104202081Y-118220000D01*
X104202081Y-118220000D02*
X103000000Y-118220000D01*
X179000000Y-88380000D02*
X180000001Y-89380001D01*
X180000001Y-89380001D02*
X180000001Y-93299999D01*
X126000000Y-103800000D02*
X126000000Y-98300000D01*
X126000000Y-98300000D02*
X127000000Y-97300000D01*
X115824999Y-106175001D02*
X115950000Y-106050000D01*
X115950000Y-106050000D02*
X116400000Y-106050000D01*
X111600000Y-104050000D02*
X110000000Y-104050000D01*
X160600000Y-93299999D02*
X160974999Y-93299999D01*
X160204999Y-93299999D02*
X160600000Y-93299999D01*
X160600000Y-93299999D02*
X160600000Y-92700000D01*
X156750000Y-105300000D02*
X157594999Y-105300000D01*
X157594999Y-105300000D02*
X159000000Y-103894999D01*
X159000000Y-103894999D02*
X159000000Y-103650000D01*
X159000000Y-103650000D02*
X159000000Y-102750000D01*
X161400000Y-93725000D02*
X161400000Y-94250000D01*
X120420000Y-103800000D02*
X120500000Y-103800000D01*
X118595000Y-101100000D02*
X118595000Y-101975000D01*
X118595000Y-101975000D02*
X120420000Y-103800000D01*
X110000000Y-104050000D02*
X110000000Y-104300000D01*
X110000000Y-104300000D02*
X110200000Y-104500000D01*
X159800000Y-94250000D02*
X159800000Y-93704998D01*
X159800000Y-93704998D02*
X160204999Y-93299999D01*
X160974999Y-93299999D02*
X161400000Y-93725000D01*
X113250000Y-106700000D02*
X113250000Y-106454998D01*
X113250000Y-106454998D02*
X113529997Y-106175001D01*
X113529997Y-106175001D02*
X115824999Y-106175001D01*
X113250000Y-106454998D02*
X112970003Y-106175001D01*
X112970003Y-106175001D02*
X112154999Y-106175001D01*
X112154999Y-106175001D02*
X112100001Y-106120003D01*
X112100001Y-106120003D02*
X112100001Y-104325001D01*
X112100001Y-104325001D02*
X111825000Y-104050000D01*
X111825000Y-104050000D02*
X111600000Y-104050000D01*
X111600000Y-104050000D02*
X111600000Y-103550000D01*
X108000000Y-87300000D02*
X116000000Y-87300000D01*
X160600000Y-102750000D02*
X160600000Y-104075000D01*
X160600000Y-104075000D02*
X159375000Y-105300000D01*
X159375000Y-105300000D02*
X159250000Y-105300000D01*
X162500000Y-87800000D02*
X164950000Y-87800000D01*
X164950000Y-87800000D02*
X165100000Y-87650000D01*
X158200000Y-94250000D02*
X158200000Y-93350000D01*
X158200000Y-93350000D02*
X156324999Y-91474999D01*
X156324999Y-86779999D02*
X156354999Y-86749999D01*
X156324999Y-91474999D02*
X156324999Y-86779999D01*
X156354999Y-86749999D02*
X161299999Y-86749999D01*
X161299999Y-86749999D02*
X162350000Y-87800000D01*
X162350000Y-87800000D02*
X162500000Y-87800000D01*
X159600000Y-90100000D02*
X157150000Y-90100000D01*
X157150000Y-90100000D02*
X157100000Y-90150000D01*
X159000000Y-94250000D02*
X159000000Y-90700000D01*
X159000000Y-90700000D02*
X159600000Y-90100000D01*
X114750000Y-101900000D02*
X114750000Y-99370002D01*
X114750000Y-99370002D02*
X114249999Y-98870001D01*
X114249999Y-98870001D02*
X114249999Y-93700001D01*
X114249999Y-93700001D02*
X115300000Y-92650000D01*
X115300000Y-92650000D02*
X115450000Y-92650000D01*
X115450000Y-92650000D02*
X117900000Y-92650000D01*
X117900000Y-92650000D02*
X118000000Y-92550000D01*
X112550000Y-94950000D02*
X112550000Y-95950000D01*
X112550000Y-95950000D02*
X114049989Y-97449989D01*
X114049989Y-97449989D02*
X114049989Y-101249989D01*
X114049989Y-101249989D02*
X114250000Y-101450000D01*
X114250000Y-101450000D02*
X114250000Y-101900000D01*
X112700000Y-94950000D02*
X112550000Y-94950000D01*
X112550000Y-94950000D02*
X110100000Y-94950000D01*
X110100000Y-94950000D02*
X110000000Y-95050000D01*
X171006554Y-103770242D02*
X170256554Y-103770242D01*
X170256554Y-103770242D02*
X169006554Y-103770242D01*
X156750000Y-101300000D02*
X154451142Y-101300000D01*
X165699990Y-86199990D02*
X167259991Y-84639989D01*
X154451142Y-101300000D02*
X152349989Y-99198847D01*
X152349989Y-99198847D02*
X152349989Y-90189297D01*
X167259991Y-84639989D02*
X171210011Y-84639989D01*
X152349989Y-90189297D02*
X156339296Y-86199990D01*
X171210011Y-84639989D02*
X172550000Y-83300000D01*
X156339296Y-86199990D02*
X165699990Y-86199990D01*
X172550000Y-83300000D02*
X173500000Y-83300000D01*
X156750000Y-101300000D02*
X156225000Y-101300000D01*
X158200000Y-102750000D02*
X155618286Y-102750000D01*
X152149979Y-99281693D02*
X152149979Y-90106451D01*
X152149979Y-90106451D02*
X156256450Y-85999980D01*
X155618286Y-102750000D02*
X152149979Y-99281693D01*
X167317123Y-84300001D02*
X169959999Y-84300001D01*
X156256450Y-85999980D02*
X165617144Y-85999980D01*
X165617144Y-85999980D02*
X167317123Y-84300001D01*
X169959999Y-84300001D02*
X170960000Y-83300000D01*
X156750000Y-100500000D02*
X153933998Y-100500000D01*
X153933998Y-100500000D02*
X152549999Y-99116001D01*
X152549999Y-90272143D02*
X156422142Y-86400000D01*
X152549999Y-99116001D02*
X152549999Y-90272143D01*
X156422142Y-86400000D02*
X166379998Y-86400000D01*
X166379998Y-86400000D02*
X167939999Y-84839999D01*
X167939999Y-84839999D02*
X169959999Y-84839999D01*
X169959999Y-84839999D02*
X170110001Y-84990001D01*
X170110001Y-84990001D02*
X170960000Y-85840000D01*
X156750000Y-100500000D02*
X156204998Y-100500000D01*
X168900000Y-94600000D02*
X175100000Y-94600000D01*
X165250000Y-98100000D02*
X166150000Y-98100000D01*
X166150000Y-98100000D02*
X168900000Y-95350000D01*
X168900000Y-95350000D02*
X168900000Y-95250000D01*
X168900000Y-95250000D02*
X168900000Y-94600000D01*
X168550000Y-94600000D02*
X168900000Y-94600000D01*
X165250000Y-98100000D02*
X165775000Y-98100000D01*
X173400000Y-93500000D02*
X174500000Y-94600000D01*
X174500000Y-94600000D02*
X175100000Y-94600000D01*
X168420000Y-83300000D02*
X169420001Y-82299999D01*
X172529999Y-84300001D02*
X172300000Y-84530000D01*
X169420001Y-82299999D02*
X174470001Y-82299999D01*
X174470001Y-82299999D02*
X174500001Y-82329999D01*
X174470001Y-84300001D02*
X172529999Y-84300001D01*
X174500001Y-82329999D02*
X174500001Y-84270001D01*
X172300000Y-84530000D02*
X172300000Y-87400000D01*
X174500001Y-84270001D02*
X174470001Y-84300001D01*
X175100000Y-94600000D02*
X175100000Y-100450000D01*
X175100000Y-100450000D02*
X174500000Y-101050000D01*
X115280001Y-113539999D02*
X114210001Y-113539999D01*
X115800001Y-114059999D02*
X115280001Y-113539999D01*
X114210001Y-113539999D02*
X113210000Y-114540000D01*
X113210000Y-114540000D02*
X112260000Y-114540000D01*
X112250000Y-114550000D02*
X112260000Y-114540000D01*
X115250000Y-101900000D02*
X115250000Y-101350000D01*
X115800000Y-100800000D02*
X116825021Y-99774979D01*
X116825021Y-99774979D02*
X122990693Y-99774979D01*
X115250000Y-101350000D02*
X115800000Y-100800000D01*
X122990693Y-99774979D02*
X123255021Y-100039307D01*
X117820001Y-115540001D02*
X116340001Y-115540001D01*
X123255021Y-100039307D02*
X123255021Y-110109916D01*
X123255021Y-110109916D02*
X119824938Y-113539999D01*
X119824938Y-113539999D02*
X119399999Y-113539999D01*
X119399999Y-113539999D02*
X118879999Y-114059999D01*
X118879999Y-114059999D02*
X118879999Y-114480003D01*
X118879999Y-114480003D02*
X117820001Y-115540001D01*
X128250000Y-95044328D02*
X123255021Y-100039307D01*
X115800001Y-115000001D02*
X115800001Y-114059999D01*
X116340001Y-115540001D02*
X115800001Y-115000001D01*
X128250000Y-86300000D02*
X128250000Y-95044328D01*
X106000000Y-116100000D02*
X106000000Y-117600000D01*
X111600000Y-105550000D02*
X110500000Y-105550000D01*
X110900000Y-119000000D02*
X111600000Y-119000000D01*
X111600000Y-119000000D02*
X112500000Y-118100000D01*
X112500000Y-118100000D02*
X112500000Y-117900000D01*
X110900000Y-119000000D02*
X109600000Y-120300000D01*
X109600000Y-120300000D02*
X109400000Y-120300000D01*
X115350000Y-108800000D02*
X116200000Y-108800000D01*
X116200000Y-108800000D02*
X118340001Y-110940001D01*
X118340001Y-110940001D02*
X118340001Y-113539999D01*
X118340001Y-113539999D02*
X118189999Y-113690001D01*
X118189999Y-113690001D02*
X117340000Y-114540000D01*
X116080000Y-108800000D02*
X115350000Y-108800000D01*
X122907847Y-99974989D02*
X123055011Y-100122153D01*
X116500000Y-100800000D02*
X117325011Y-99974989D01*
X117325011Y-99974989D02*
X122907847Y-99974989D01*
X116500000Y-100925000D02*
X116500000Y-100800000D01*
X123055011Y-100122153D02*
X123055011Y-110027070D01*
X123055011Y-110027070D02*
X121082081Y-112000000D01*
X129000000Y-85300000D02*
X128250000Y-84550000D01*
X128250000Y-84550000D02*
X128250000Y-84300000D01*
X121082081Y-112000000D02*
X119880000Y-112000000D01*
X115750000Y-101900000D02*
X115750000Y-101675000D01*
X115750000Y-101675000D02*
X116500000Y-100925000D01*
X116400000Y-102550000D02*
X116625000Y-102550000D01*
X116625000Y-102550000D02*
X117500000Y-101675000D01*
X117500000Y-101675000D02*
X117500000Y-101550000D01*
X117244301Y-106805699D02*
X115855699Y-106805699D01*
X115855699Y-106805699D02*
X115750000Y-106700000D01*
X115850000Y-106800000D02*
X115750000Y-106700000D01*
X114250000Y-106700000D02*
X114250000Y-106925000D01*
X114250000Y-106925000D02*
X113175001Y-107999999D01*
X113175001Y-107999999D02*
X111779999Y-107999999D01*
X111779999Y-107999999D02*
X111000000Y-108779998D01*
X111000000Y-108779998D02*
X111000000Y-109300000D01*
X113092155Y-107799989D02*
X111697153Y-107799989D01*
X111697153Y-107799989D02*
X110299997Y-109197145D01*
X110299997Y-109197145D02*
X110299997Y-109300000D01*
X113750000Y-107142144D02*
X113092155Y-107799989D01*
X113750000Y-106700000D02*
X113750000Y-107142144D01*
X110382143Y-108832143D02*
X109967857Y-108832143D01*
X109967857Y-108832143D02*
X109599994Y-109200006D01*
X109599994Y-109200006D02*
X109599994Y-109300000D01*
X112750000Y-106925000D02*
X112075021Y-107599979D01*
X112075021Y-107599979D02*
X111614307Y-107599979D01*
X111614307Y-107599979D02*
X110382143Y-108832143D01*
X112750000Y-106700000D02*
X112750000Y-106925000D01*
X109667145Y-108849999D02*
X109383993Y-108849999D01*
X109383993Y-108849999D02*
X108933992Y-109300000D01*
X108933992Y-109300000D02*
X108899991Y-109300000D01*
X109885009Y-108632135D02*
X109667145Y-108849999D01*
X110299297Y-108632133D02*
X109885011Y-108632133D01*
X109885011Y-108632133D02*
X109885009Y-108632135D01*
X111531459Y-107399971D02*
X110299297Y-108632133D01*
X111992175Y-107399969D02*
X111531461Y-107399969D01*
X111531461Y-107399969D02*
X111531459Y-107399971D01*
X112300000Y-107092144D02*
X111992175Y-107399969D01*
X112250000Y-106700000D02*
X112250000Y-106925000D01*
X112250000Y-106925000D02*
X112300000Y-106975000D01*
X112300000Y-106975000D02*
X112300000Y-107092144D01*
X109101137Y-108849999D02*
X108683990Y-108849999D01*
X108683990Y-108849999D02*
X108233989Y-109300000D01*
X108233989Y-109300000D02*
X108199988Y-109300000D01*
X109125568Y-108825568D02*
X109101137Y-108849999D01*
X110216451Y-108432123D02*
X109519013Y-108432123D01*
X109519013Y-108432123D02*
X109125568Y-108825568D01*
X111448611Y-107199963D02*
X110216451Y-108432123D01*
X111448615Y-107199959D02*
X111448611Y-107199963D01*
X111600000Y-107048574D02*
X111600000Y-107150000D01*
X111600000Y-107150000D02*
X111550041Y-107199959D01*
X111550041Y-107199959D02*
X111448615Y-107199959D01*
X111600000Y-106050000D02*
X111600000Y-107048574D01*
X108401134Y-108849999D02*
X107983987Y-108849999D01*
X107983987Y-108849999D02*
X107533986Y-109300000D01*
X107533986Y-109300000D02*
X107499985Y-109300000D01*
X108601142Y-108649991D02*
X108401134Y-108849999D01*
X109436165Y-108232115D02*
X109018291Y-108649989D01*
X109018291Y-108649989D02*
X108601144Y-108649989D01*
X108601144Y-108649989D02*
X108601142Y-108649991D01*
X110050000Y-107618280D02*
X109436165Y-108232115D01*
X111600000Y-105050000D02*
X110333998Y-105050000D01*
X110333998Y-105050000D02*
X110050000Y-105333998D01*
X110050000Y-105333998D02*
X110050000Y-107618280D01*
X166150000Y-97300000D02*
X165250000Y-97300000D01*
X166800000Y-96650000D02*
X166150000Y-97300000D01*
X166800000Y-93700000D02*
X166800000Y-96650000D01*
X129400000Y-86300000D02*
X129750000Y-86300000D01*
X161720000Y-83300000D02*
X160680002Y-83300000D01*
X160680002Y-83300000D02*
X159479991Y-82099989D01*
X159479991Y-82099989D02*
X129480009Y-82099989D01*
X129480009Y-82099989D02*
X127849999Y-83729999D01*
X127849999Y-83729999D02*
X127849999Y-84870001D01*
X127849999Y-84870001D02*
X129279998Y-86300000D01*
X129279998Y-86300000D02*
X129400000Y-86300000D01*
X159200000Y-83300000D02*
X158199999Y-82299999D01*
X158199999Y-82299999D02*
X132100001Y-82299999D01*
X132100001Y-82299999D02*
X130100000Y-84300000D01*
X166300000Y-95975000D02*
X166300000Y-93200000D01*
X130100000Y-84300000D02*
X129750000Y-84300000D01*
X165775000Y-96500000D02*
X166300000Y-95975000D01*
X165250000Y-96500000D02*
X165775000Y-96500000D01*
X162000000Y-97800000D02*
X162950000Y-97800000D01*
X162950000Y-97800000D02*
X163600000Y-98450000D01*
X162000000Y-97800000D02*
X159900000Y-95700000D01*
X159900000Y-95700000D02*
X156750000Y-95700000D01*
X151000000Y-115300000D02*
X147650011Y-118649989D01*
X147650011Y-118649989D02*
X121630009Y-118649989D01*
X121630009Y-118649989D02*
X119549999Y-120729999D01*
X119549999Y-120729999D02*
X119549999Y-121516001D01*
X120683998Y-122650000D02*
X121250000Y-122650000D01*
X119549999Y-121516001D02*
X120683998Y-122650000D01*
X121250000Y-122650000D02*
X122000000Y-122650000D01*
X156750000Y-97300000D02*
X153000000Y-97300000D01*
X131100000Y-119550000D02*
X124900000Y-119550000D01*
X122000000Y-122650000D02*
X122750000Y-122650000D01*
X122750000Y-122650000D02*
X124900000Y-120500000D01*
X124900000Y-120500000D02*
X124900000Y-120200000D01*
X124900000Y-120200000D02*
X124900000Y-119550000D01*
X152500000Y-115300000D02*
X150900000Y-116900000D01*
X150900000Y-116900000D02*
X149829998Y-116900000D01*
X149829998Y-116900000D02*
X146800001Y-119929997D01*
X146800001Y-119929997D02*
X146800001Y-120820001D01*
X146800001Y-120820001D02*
X146770001Y-120850001D01*
X146770001Y-120850001D02*
X144750001Y-120850001D01*
X144750001Y-120850001D02*
X143450000Y-119550000D01*
X143450000Y-119550000D02*
X143100000Y-119550000D01*
X156750000Y-98100000D02*
X153000000Y-98100000D01*
X136900000Y-119550000D02*
X143100000Y-119550000D01*
X134000000Y-122650000D02*
X134000000Y-122550000D01*
X134000000Y-122550000D02*
X136900000Y-119650000D01*
X136900000Y-119650000D02*
X136900000Y-119550000D01*
X154000000Y-115300000D02*
X154000000Y-118800000D01*
X154000000Y-118800000D02*
X154750000Y-119550000D01*
X154750000Y-119550000D02*
X155100000Y-119550000D01*
X156750000Y-98900000D02*
X153000000Y-98900000D01*
X148900000Y-119550000D02*
X155100000Y-119550000D01*
X146000000Y-122650000D02*
X146750000Y-122650000D01*
X148900000Y-120500000D02*
X148900000Y-120200000D01*
X146750000Y-122650000D02*
X148900000Y-120500000D01*
X148900000Y-120200000D02*
X148900000Y-119550000D01*
X121135000Y-101100000D02*
X121135000Y-100625000D01*
X121135000Y-100625000D02*
X121585001Y-100174999D01*
X122855001Y-107894999D02*
X121950000Y-108800000D01*
X121585001Y-100174999D02*
X122825001Y-100174999D01*
X121950000Y-108800000D02*
X121850000Y-108800000D01*
X122825001Y-100174999D02*
X122855001Y-100204999D01*
X122855001Y-100204999D02*
X122855001Y-107894999D01*
X120500000Y-108800000D02*
X119150000Y-108800000D01*
X116400000Y-104050000D02*
X117243198Y-104050000D01*
X117243198Y-104050000D02*
X117367130Y-104173932D01*
X116400000Y-105550000D02*
X116625000Y-105550000D01*
X121585001Y-103295001D02*
X119865000Y-101575000D01*
X116625000Y-105550000D02*
X117944989Y-106869989D01*
X117944989Y-106869989D02*
X117944989Y-107477847D01*
X117944989Y-107477847D02*
X118092153Y-107625011D01*
X121354991Y-107625011D02*
X121585001Y-107395001D01*
X119865000Y-101575000D02*
X119865000Y-101100000D01*
X118092153Y-107625011D02*
X121354991Y-107625011D01*
X121585001Y-107395001D02*
X121585001Y-103295001D01*
X116400000Y-105050000D02*
X116850000Y-105050000D01*
X116850000Y-105050000D02*
X118144999Y-106344999D01*
X118144999Y-106344999D02*
X118144999Y-107395001D01*
X118144999Y-107395001D02*
X118174999Y-107425001D01*
X118174999Y-107425001D02*
X120684999Y-107425001D01*
X120684999Y-107425001D02*
X121135000Y-106975000D01*
X121135000Y-106975000D02*
X121135000Y-106500000D01*
X116400000Y-104550000D02*
X117120000Y-104550000D01*
X117120000Y-104550000D02*
X118595000Y-106025000D01*
X118595000Y-106025000D02*
X118595000Y-106500000D01*
X122405001Y-102550000D02*
X122405000Y-102125735D01*
X122405000Y-102125735D02*
X122405000Y-101100000D01*
X116400000Y-103550000D02*
X117466977Y-103550000D01*
X117466977Y-103550000D02*
X117525010Y-103491967D01*
X116400000Y-103050000D02*
X117300975Y-103050000D01*
X117300975Y-103050000D02*
X117309009Y-103041966D01*
X117309009Y-103041966D02*
X117741011Y-103041966D01*
X117741011Y-103041966D02*
X119865000Y-105165955D01*
X119865000Y-105165955D02*
X119865000Y-105625000D01*
X119865000Y-105625000D02*
X119865000Y-106500000D01*
X119865000Y-106025000D02*
X119865000Y-106500000D01*
X163000000Y-102750000D02*
X163000000Y-103275000D01*
X163000000Y-103275000D02*
X163425001Y-103700001D01*
X163425001Y-103700001D02*
X164399999Y-103700001D01*
X164399999Y-103700001D02*
X165800000Y-102300000D01*
X163800000Y-102750000D02*
X164550000Y-102750000D01*
X164550000Y-102750000D02*
X165000000Y-102300000D01*
X165250000Y-101300000D02*
X165775000Y-101300000D01*
X165775000Y-101300000D02*
X166250001Y-101775001D01*
X166250001Y-101775001D02*
X166250001Y-102749999D01*
X166250001Y-102749999D02*
X165800000Y-103200000D01*
X165250000Y-100500000D02*
X165775000Y-100500000D01*
X166450011Y-103215991D02*
X165866002Y-103800000D01*
X165775000Y-100500000D02*
X166450011Y-101175011D01*
X166450011Y-101175011D02*
X166450011Y-103215991D01*
X165866002Y-103800000D02*
X165100000Y-103800000D01*
X156750000Y-96500000D02*
X157275000Y-96500000D01*
X157275000Y-96500000D02*
X157700001Y-96925001D01*
X157700001Y-96925001D02*
X157700001Y-101695001D01*
X157700001Y-101695001D02*
X157095002Y-102300000D01*
X157095002Y-102300000D02*
X156000000Y-102300000D01*
X113000000Y-110300000D02*
X112650000Y-109950000D01*
X109400000Y-101900000D02*
X109000000Y-102300000D01*
X112250000Y-101900000D02*
X109400000Y-101900000D01*
X112650000Y-109950000D02*
X112650000Y-108800000D01*
X112550000Y-108800000D02*
X112650000Y-108800000D01*
X112750000Y-101900000D02*
X112750000Y-98400000D01*
X112750000Y-98400000D02*
X112650000Y-98300000D01*
X175200000Y-105390000D02*
X176399681Y-106589681D01*
X176399681Y-106589681D02*
X176399681Y-120880319D01*
X176249679Y-121030321D02*
X175000000Y-122280000D01*
X176399681Y-120880319D02*
X176249679Y-121030321D01*
X163000000Y-96300000D02*
X163800000Y-95500000D01*
X163800000Y-95500000D02*
X163800000Y-94250000D01*
X165250000Y-95700000D02*
X164725000Y-95700000D01*
X164725000Y-95700000D02*
X163325000Y-97100000D01*
X163325000Y-97100000D02*
X163100000Y-97100000D01*
X107750000Y-98300000D02*
X107750000Y-95300000D01*
X107750000Y-95300000D02*
X108000000Y-95050000D01*
X108000000Y-98050000D02*
X107750000Y-98300000D01*
X108965999Y-103000003D02*
X108870001Y-103000003D01*
X109641002Y-102325000D02*
X108965999Y-103000003D01*
X111150000Y-102325000D02*
X109641002Y-102325000D01*
X111375000Y-102550000D02*
X111150000Y-102325000D01*
X111600000Y-102550000D02*
X111375000Y-102550000D01*
X109000000Y-110300000D02*
X108000000Y-111300000D01*
X108000000Y-111300000D02*
X108000000Y-112050000D01*
X113250000Y-101900000D02*
X113250000Y-102145002D01*
X113250000Y-102145002D02*
X112970003Y-102424999D01*
X112970003Y-102424999D02*
X112175001Y-102424999D01*
X112175001Y-102424999D02*
X112050000Y-102550000D01*
X112050000Y-102550000D02*
X111600000Y-102550000D01*
X113250000Y-101900000D02*
X113750000Y-101900000D01*
X140500000Y-84400000D02*
X140600000Y-84400000D01*
X140600000Y-84400000D02*
X143740000Y-87540000D01*
X143740000Y-87540000D02*
X143740000Y-88850000D01*
X143740000Y-88850000D02*
X143740000Y-89800000D01*
X115700000Y-120400000D02*
X115700000Y-120300000D01*
X115700000Y-120300000D02*
X118000000Y-118000000D01*
X118000000Y-118000000D02*
X118800000Y-118000000D01*
X109100000Y-115800000D02*
X109100000Y-115729998D01*
X109100000Y-115729998D02*
X111490009Y-113339989D01*
X111490009Y-113339989D02*
X116000011Y-113339989D01*
X116000011Y-113339989D02*
X116490001Y-112849999D01*
X116490001Y-112849999D02*
X117340000Y-112000000D01*
X108200000Y-116700000D02*
X109100000Y-115800000D01*
X108200000Y-119050000D02*
X108200000Y-116700000D01*
X105100001Y-122149999D02*
X108200000Y-119050000D01*
X103000000Y-123300000D02*
X103950000Y-123300000D01*
X103950000Y-123300000D02*
X105100001Y-122149999D01*
X114950000Y-120400000D02*
X115700000Y-120400000D01*
X105100001Y-122149999D02*
X113200001Y-122149999D01*
X113200001Y-122149999D02*
X114950000Y-120400000D01*
X165250000Y-99700000D02*
X159400000Y-99700000D01*
X159400000Y-99700000D02*
X159000000Y-99300000D01*
X165250000Y-99700000D02*
X167600000Y-99700000D01*
X167600000Y-99700000D02*
X169000000Y-98300000D01*
X115575000Y-107250000D02*
X116950000Y-107250000D01*
X116950000Y-107250000D02*
X117500000Y-107800000D01*
X115250000Y-106700000D02*
X115250000Y-106925000D01*
X115250000Y-106925000D02*
X115575000Y-107250000D01*
X140500000Y-86600000D02*
X140500000Y-89100000D01*
X140500000Y-89100000D02*
X141200000Y-89800000D01*
X114800000Y-112000000D02*
X113660021Y-113139979D01*
X113660021Y-113139979D02*
X111407163Y-113139979D01*
X107900001Y-118170001D02*
X105310002Y-120760000D01*
X111407163Y-113139979D02*
X107900001Y-116647141D01*
X107900001Y-116647141D02*
X107900001Y-118170001D01*
X105310002Y-120760000D02*
X104202081Y-120760000D01*
X104202081Y-120760000D02*
X103000000Y-120760000D01*
X165250000Y-98900000D02*
X159600000Y-98900000D01*
X159600000Y-98900000D02*
X159000000Y-98300000D01*
X165250000Y-98900000D02*
X167400000Y-98900000D01*
X167400000Y-98900000D02*
X169000000Y-97300000D01*
X115375000Y-107550000D02*
X116583998Y-107550000D01*
X116583998Y-107550000D02*
X117744669Y-108710671D01*
X117744669Y-108710671D02*
X117744669Y-109105331D01*
X114750000Y-106700000D02*
X114750000Y-106925000D01*
X114750000Y-106925000D02*
X115375000Y-107550000D01*
X162000000Y-106300000D02*
X164650000Y-106300000D01*
X164650000Y-106300000D02*
X165500000Y-105450000D01*
X165500000Y-105450000D02*
X165500000Y-105300000D01*
X156750000Y-99700000D02*
X154600000Y-99700000D01*
X165500000Y-105300000D02*
X165500000Y-105150000D01*
X165500000Y-105150000D02*
X168679757Y-101970243D01*
X168679757Y-101970243D02*
X170206553Y-101970243D01*
X170206553Y-101970243D02*
X171006554Y-101170242D01*
X171006554Y-101170242D02*
X171006554Y-101070242D01*
D29*
G36*
X167369946Y-82220853D02*
X167048039Y-82702622D01*
X166935000Y-83270907D01*
X166935000Y-83329093D01*
X167008430Y-83698251D01*
X166832755Y-83815633D01*
X165333408Y-85314980D01*
X156256450Y-85314980D01*
X155994312Y-85367123D01*
X155772082Y-85515612D01*
X151665611Y-89622083D01*
X151517122Y-89844313D01*
X151464979Y-90106451D01*
X151464979Y-99281693D01*
X151517122Y-99543831D01*
X151665611Y-99766061D01*
X155133918Y-103234368D01*
X155356148Y-103382857D01*
X155618286Y-103435000D01*
X157277560Y-103435000D01*
X157277560Y-103550000D01*
X157321838Y-103785317D01*
X157460910Y-104001441D01*
X157517343Y-104040000D01*
X157035750Y-104040000D01*
X156877000Y-104198750D01*
X156877000Y-105173000D01*
X156897000Y-105173000D01*
X156897000Y-105427000D01*
X156877000Y-105427000D01*
X156877000Y-106401250D01*
X157035750Y-106560000D01*
X157626309Y-106560000D01*
X157859698Y-106463327D01*
X158000936Y-106322090D01*
X158035910Y-106376441D01*
X158248110Y-106521431D01*
X158500000Y-106572440D01*
X160000000Y-106572440D01*
X160235317Y-106528162D01*
X160451441Y-106389090D01*
X160596431Y-106176890D01*
X160647440Y-105925000D01*
X160647440Y-104996296D01*
X161084368Y-104559368D01*
X161232857Y-104337138D01*
X161260645Y-104197440D01*
X161675000Y-104197440D01*
X161804589Y-104173056D01*
X161925000Y-104197440D01*
X162475000Y-104197440D01*
X162604589Y-104173056D01*
X162725000Y-104197440D01*
X162960195Y-104197440D01*
X163162863Y-104332858D01*
X163425001Y-104385001D01*
X164362843Y-104385001D01*
X164569673Y-104592192D01*
X164913201Y-104734838D01*
X164969357Y-104734887D01*
X164867143Y-104887862D01*
X164815000Y-105150000D01*
X164815000Y-105166264D01*
X164366264Y-105615000D01*
X162637332Y-105615000D01*
X162530327Y-105507808D01*
X162186799Y-105365162D01*
X161814833Y-105364838D01*
X161471057Y-105506883D01*
X161207808Y-105769673D01*
X161065162Y-106113201D01*
X161064838Y-106485167D01*
X161206883Y-106828943D01*
X161469673Y-107092192D01*
X161813201Y-107234838D01*
X162185167Y-107235162D01*
X162528943Y-107093117D01*
X162637249Y-106985000D01*
X164650000Y-106985000D01*
X164912138Y-106932857D01*
X165134368Y-106784368D01*
X165984368Y-105934368D01*
X166132857Y-105712138D01*
X166185000Y-105450000D01*
X166185000Y-105433736D01*
X167709114Y-103909622D01*
X167709114Y-104520242D01*
X167753392Y-104755559D01*
X167892464Y-104971683D01*
X168104664Y-105116673D01*
X168356554Y-105167682D01*
X169656554Y-105167682D01*
X169891871Y-105123404D01*
X170006532Y-105049622D01*
X170104664Y-105116673D01*
X170356554Y-105167682D01*
X171656554Y-105167682D01*
X171891871Y-105123404D01*
X172107995Y-104984332D01*
X172252985Y-104772132D01*
X172303994Y-104520242D01*
X172303994Y-103020242D01*
X172259716Y-102784925D01*
X172120644Y-102568801D01*
X171908444Y-102423811D01*
X171895357Y-102421161D01*
X172107995Y-102284332D01*
X172252985Y-102072132D01*
X172303994Y-101820242D01*
X172303994Y-100320242D01*
X172259716Y-100084925D01*
X172120644Y-99868801D01*
X171908444Y-99723811D01*
X171656554Y-99672802D01*
X170356554Y-99672802D01*
X170121237Y-99717080D01*
X170006576Y-99790862D01*
X169908444Y-99723811D01*
X169656554Y-99672802D01*
X168595934Y-99672802D01*
X169033706Y-99235030D01*
X169185167Y-99235162D01*
X169528943Y-99093117D01*
X169792192Y-98830327D01*
X169934838Y-98486799D01*
X169935162Y-98114833D01*
X169804931Y-97799649D01*
X169934838Y-97486799D01*
X169935162Y-97114833D01*
X169793117Y-96771057D01*
X169530327Y-96507808D01*
X169186799Y-96365162D01*
X168853864Y-96364872D01*
X169384368Y-95834368D01*
X169409042Y-95797440D01*
X169800000Y-95797440D01*
X170035317Y-95753162D01*
X170251441Y-95614090D01*
X170396431Y-95401890D01*
X170420102Y-95285000D01*
X173577962Y-95285000D01*
X173596838Y-95385317D01*
X173735910Y-95601441D01*
X173948110Y-95746431D01*
X174200000Y-95797440D01*
X174415000Y-95797440D01*
X174415000Y-99652560D01*
X173850000Y-99652560D01*
X173614683Y-99696838D01*
X173398559Y-99835910D01*
X173253569Y-100048110D01*
X173202560Y-100300000D01*
X173202560Y-101800000D01*
X173246838Y-102035317D01*
X173385910Y-102251441D01*
X173598110Y-102396431D01*
X173631490Y-102403191D01*
X173490301Y-102461673D01*
X173311673Y-102640302D01*
X173215000Y-102873691D01*
X173215000Y-103464250D01*
X173373750Y-103623000D01*
X174373000Y-103623000D01*
X174373000Y-103603000D01*
X174627000Y-103603000D01*
X174627000Y-103623000D01*
X175626250Y-103623000D01*
X175785000Y-103464250D01*
X175785000Y-102873691D01*
X175688327Y-102640302D01*
X175509699Y-102461673D01*
X175373713Y-102405346D01*
X175385317Y-102403162D01*
X175601441Y-102264090D01*
X175746431Y-102051890D01*
X175797440Y-101800000D01*
X175797440Y-100300000D01*
X175785000Y-100233887D01*
X175785000Y-95797440D01*
X176000000Y-95797440D01*
X176235317Y-95753162D01*
X176451441Y-95614090D01*
X176596431Y-95401890D01*
X176647440Y-95150000D01*
X176647440Y-94050000D01*
X176603162Y-93814683D01*
X176464090Y-93598559D01*
X176251890Y-93453569D01*
X176000000Y-93402560D01*
X174335086Y-93402560D01*
X174335162Y-93314833D01*
X174193117Y-92971057D01*
X173930327Y-92707808D01*
X173586799Y-92565162D01*
X173214833Y-92564838D01*
X172871057Y-92706883D01*
X172607808Y-92969673D01*
X172465162Y-93313201D01*
X172464838Y-93685167D01*
X172559803Y-93915000D01*
X170422038Y-93915000D01*
X170403162Y-93814683D01*
X170264090Y-93598559D01*
X170051890Y-93453569D01*
X169800000Y-93402560D01*
X168000000Y-93402560D01*
X167764683Y-93446838D01*
X167719169Y-93476126D01*
X167593117Y-93171057D01*
X167330327Y-92907808D01*
X167162072Y-92837942D01*
X167093117Y-92671057D01*
X166830327Y-92407808D01*
X166486799Y-92265162D01*
X166114833Y-92264838D01*
X165771057Y-92406883D01*
X165507808Y-92669673D01*
X165365162Y-93013201D01*
X165364838Y-93385167D01*
X165506883Y-93728943D01*
X165615000Y-93837249D01*
X165615000Y-94777560D01*
X164722440Y-94777560D01*
X164722440Y-93450000D01*
X164678162Y-93214683D01*
X164539090Y-92998559D01*
X164326890Y-92853569D01*
X164075000Y-92802560D01*
X163525000Y-92802560D01*
X163395411Y-92826944D01*
X163275000Y-92802560D01*
X162725000Y-92802560D01*
X162595411Y-92826944D01*
X162475000Y-92802560D01*
X161925000Y-92802560D01*
X161819295Y-92822450D01*
X161801310Y-92815000D01*
X161685750Y-92815000D01*
X161589349Y-92911401D01*
X161473559Y-92985910D01*
X161400116Y-93093397D01*
X161339090Y-92998559D01*
X161208755Y-92909505D01*
X161114250Y-92815000D01*
X160998690Y-92815000D01*
X160978247Y-92823468D01*
X160875000Y-92802560D01*
X160325000Y-92802560D01*
X160219295Y-92822450D01*
X160201310Y-92815000D01*
X160085750Y-92815000D01*
X159989349Y-92911401D01*
X159873559Y-92985910D01*
X159800116Y-93093397D01*
X159739090Y-92998559D01*
X159685000Y-92961601D01*
X159685000Y-91647440D01*
X160650000Y-91647440D01*
X160885317Y-91603162D01*
X161051477Y-91496241D01*
X161198110Y-91596431D01*
X161450000Y-91647440D01*
X163550000Y-91647440D01*
X163785317Y-91603162D01*
X164001441Y-91464090D01*
X164056927Y-91382883D01*
X164223110Y-91496431D01*
X164475000Y-91547440D01*
X165661175Y-91547440D01*
X165850000Y-91585000D01*
X167377962Y-91585000D01*
X167396838Y-91685317D01*
X167535910Y-91901441D01*
X167748110Y-92046431D01*
X168000000Y-92097440D01*
X169800000Y-92097440D01*
X170035317Y-92053162D01*
X170251441Y-91914090D01*
X170396431Y-91701890D01*
X170420102Y-91585000D01*
X173577962Y-91585000D01*
X173596838Y-91685317D01*
X173735910Y-91901441D01*
X173948110Y-92046431D01*
X174200000Y-92097440D01*
X176000000Y-92097440D01*
X176235317Y-92053162D01*
X176451441Y-91914090D01*
X176596431Y-91701890D01*
X176620102Y-91585000D01*
X177663569Y-91585000D01*
X177920853Y-91970054D01*
X178402622Y-92291961D01*
X178970907Y-92405000D01*
X179029093Y-92405000D01*
X179597378Y-92291961D01*
X180079147Y-91970054D01*
X180290000Y-91654489D01*
X180290000Y-102565511D01*
X180079147Y-102249946D01*
X179597378Y-101928039D01*
X179029093Y-101815000D01*
X178970907Y-101815000D01*
X178402622Y-101928039D01*
X177920853Y-102249946D01*
X177598946Y-102731715D01*
X177485907Y-103300000D01*
X177598946Y-103868285D01*
X177920853Y-104350054D01*
X177962452Y-104377850D01*
X177914683Y-104386838D01*
X177698559Y-104525910D01*
X177553569Y-104738110D01*
X177502560Y-104990000D01*
X177502560Y-106690000D01*
X177546838Y-106925317D01*
X177685910Y-107141441D01*
X177898110Y-107286431D01*
X178150000Y-107337440D01*
X179850000Y-107337440D01*
X180085317Y-107293162D01*
X180290000Y-107161452D01*
X180290000Y-124590000D01*
X167617901Y-124590000D01*
X167746431Y-124401890D01*
X167797440Y-124150000D01*
X167797440Y-122450000D01*
X167753162Y-122214683D01*
X167614090Y-121998559D01*
X167401890Y-121853569D01*
X167150000Y-121802560D01*
X165450000Y-121802560D01*
X165214683Y-121846838D01*
X164998559Y-121985910D01*
X164853569Y-122198110D01*
X164839914Y-122265541D01*
X164810054Y-122220853D01*
X164328285Y-121898946D01*
X163760000Y-121785907D01*
X163191715Y-121898946D01*
X162709946Y-122220853D01*
X162482298Y-122561553D01*
X162415183Y-122418642D01*
X161986924Y-122028355D01*
X161576890Y-121858524D01*
X161347000Y-121979845D01*
X161347000Y-123173000D01*
X161367000Y-123173000D01*
X161367000Y-123427000D01*
X161347000Y-123427000D01*
X161347000Y-123447000D01*
X161093000Y-123447000D01*
X161093000Y-123427000D01*
X161073000Y-123427000D01*
X161073000Y-123173000D01*
X161093000Y-123173000D01*
X161093000Y-121979845D01*
X160863110Y-121858524D01*
X160453076Y-122028355D01*
X160024817Y-122418642D01*
X159957702Y-122561553D01*
X159730054Y-122220853D01*
X159248285Y-121898946D01*
X158680000Y-121785907D01*
X158111715Y-121898946D01*
X157629946Y-122220853D01*
X157308039Y-122702622D01*
X157195000Y-123270907D01*
X157195000Y-123329093D01*
X157308039Y-123897378D01*
X157629946Y-124379147D01*
X157945511Y-124590000D01*
X120208964Y-124590000D01*
X120247440Y-124400000D01*
X120247440Y-123166314D01*
X120421860Y-123282857D01*
X120683998Y-123335000D01*
X120702560Y-123335000D01*
X120702560Y-123400000D01*
X120746838Y-123635317D01*
X120885910Y-123851441D01*
X121098110Y-123996431D01*
X121350000Y-124047440D01*
X122650000Y-124047440D01*
X122885317Y-124003162D01*
X123101441Y-123864090D01*
X123246431Y-123651890D01*
X123269949Y-123535750D01*
X123365000Y-123535750D01*
X123365000Y-123926310D01*
X123461673Y-124159699D01*
X123640302Y-124338327D01*
X123873691Y-124435000D01*
X124614250Y-124435000D01*
X124773000Y-124276250D01*
X124773000Y-123377000D01*
X125027000Y-123377000D01*
X125027000Y-124276250D01*
X125185750Y-124435000D01*
X125926309Y-124435000D01*
X126159698Y-124338327D01*
X126338327Y-124159699D01*
X126435000Y-123926310D01*
X126435000Y-123535750D01*
X129565000Y-123535750D01*
X129565000Y-123926310D01*
X129661673Y-124159699D01*
X129840302Y-124338327D01*
X130073691Y-124435000D01*
X130814250Y-124435000D01*
X130973000Y-124276250D01*
X130973000Y-123377000D01*
X131227000Y-123377000D01*
X131227000Y-124276250D01*
X131385750Y-124435000D01*
X132126309Y-124435000D01*
X132359698Y-124338327D01*
X132538327Y-124159699D01*
X132635000Y-123926310D01*
X132635000Y-123535750D01*
X132476250Y-123377000D01*
X131227000Y-123377000D01*
X130973000Y-123377000D01*
X129723750Y-123377000D01*
X129565000Y-123535750D01*
X126435000Y-123535750D01*
X126276250Y-123377000D01*
X125027000Y-123377000D01*
X124773000Y-123377000D01*
X123523750Y-123377000D01*
X123365000Y-123535750D01*
X123269949Y-123535750D01*
X123297440Y-123400000D01*
X123297440Y-123071296D01*
X123384743Y-122983993D01*
X123523750Y-123123000D01*
X124773000Y-123123000D01*
X124773000Y-122223750D01*
X125027000Y-122223750D01*
X125027000Y-123123000D01*
X126276250Y-123123000D01*
X126435000Y-122964250D01*
X126435000Y-122573690D01*
X129565000Y-122573690D01*
X129565000Y-122964250D01*
X129723750Y-123123000D01*
X130973000Y-123123000D01*
X130973000Y-122223750D01*
X131227000Y-122223750D01*
X131227000Y-123123000D01*
X132476250Y-123123000D01*
X132635000Y-122964250D01*
X132635000Y-122573690D01*
X132538327Y-122340301D01*
X132359698Y-122161673D01*
X132126309Y-122065000D01*
X131385750Y-122065000D01*
X131227000Y-122223750D01*
X130973000Y-122223750D01*
X130814250Y-122065000D01*
X130073691Y-122065000D01*
X129840302Y-122161673D01*
X129661673Y-122340301D01*
X129565000Y-122573690D01*
X126435000Y-122573690D01*
X126338327Y-122340301D01*
X126159698Y-122161673D01*
X125926309Y-122065000D01*
X125185750Y-122065000D01*
X125027000Y-122223750D01*
X124773000Y-122223750D01*
X124614250Y-122065000D01*
X124303736Y-122065000D01*
X125384368Y-120984368D01*
X125532857Y-120762138D01*
X125535781Y-120747440D01*
X125800000Y-120747440D01*
X126035317Y-120703162D01*
X126251441Y-120564090D01*
X126396431Y-120351890D01*
X126420102Y-120235000D01*
X129577962Y-120235000D01*
X129596838Y-120335317D01*
X129735910Y-120551441D01*
X129948110Y-120696431D01*
X130200000Y-120747440D01*
X132000000Y-120747440D01*
X132235317Y-120703162D01*
X132451441Y-120564090D01*
X132596431Y-120351890D01*
X132611035Y-120279771D01*
X132702560Y-120371296D01*
X132702560Y-120700000D01*
X132746838Y-120935317D01*
X132885910Y-121151441D01*
X133098110Y-121296431D01*
X133111197Y-121299081D01*
X132898559Y-121435910D01*
X132753569Y-121648110D01*
X132702560Y-121900000D01*
X132702560Y-123400000D01*
X132746838Y-123635317D01*
X132885910Y-123851441D01*
X133098110Y-123996431D01*
X133350000Y-124047440D01*
X134650000Y-124047440D01*
X134885317Y-124003162D01*
X135101441Y-123864090D01*
X135246431Y-123651890D01*
X135269949Y-123535750D01*
X135365000Y-123535750D01*
X135365000Y-123926310D01*
X135461673Y-124159699D01*
X135640302Y-124338327D01*
X135873691Y-124435000D01*
X136614250Y-124435000D01*
X136773000Y-124276250D01*
X136773000Y-123377000D01*
X137027000Y-123377000D01*
X137027000Y-124276250D01*
X137185750Y-124435000D01*
X137926309Y-124435000D01*
X138159698Y-124338327D01*
X138338327Y-124159699D01*
X138435000Y-123926310D01*
X138435000Y-123535750D01*
X141565000Y-123535750D01*
X141565000Y-123926310D01*
X141661673Y-124159699D01*
X141840302Y-124338327D01*
X142073691Y-124435000D01*
X142814250Y-124435000D01*
X142973000Y-124276250D01*
X142973000Y-123377000D01*
X143227000Y-123377000D01*
X143227000Y-124276250D01*
X143385750Y-124435000D01*
X144126309Y-124435000D01*
X144359698Y-124338327D01*
X144538327Y-124159699D01*
X144635000Y-123926310D01*
X144635000Y-123535750D01*
X144476250Y-123377000D01*
X143227000Y-123377000D01*
X142973000Y-123377000D01*
X141723750Y-123377000D01*
X141565000Y-123535750D01*
X138435000Y-123535750D01*
X138276250Y-123377000D01*
X137027000Y-123377000D01*
X136773000Y-123377000D01*
X135523750Y-123377000D01*
X135365000Y-123535750D01*
X135269949Y-123535750D01*
X135297440Y-123400000D01*
X135297440Y-122573690D01*
X135365000Y-122573690D01*
X135365000Y-122964250D01*
X135523750Y-123123000D01*
X136773000Y-123123000D01*
X136773000Y-122223750D01*
X137027000Y-122223750D01*
X137027000Y-123123000D01*
X138276250Y-123123000D01*
X138435000Y-122964250D01*
X138435000Y-122573690D01*
X141565000Y-122573690D01*
X141565000Y-122964250D01*
X141723750Y-123123000D01*
X142973000Y-123123000D01*
X142973000Y-122223750D01*
X143227000Y-122223750D01*
X143227000Y-123123000D01*
X144476250Y-123123000D01*
X144635000Y-122964250D01*
X144635000Y-122573690D01*
X144538327Y-122340301D01*
X144359698Y-122161673D01*
X144126309Y-122065000D01*
X143385750Y-122065000D01*
X143227000Y-122223750D01*
X142973000Y-122223750D01*
X142814250Y-122065000D01*
X142073691Y-122065000D01*
X141840302Y-122161673D01*
X141661673Y-122340301D01*
X141565000Y-122573690D01*
X138435000Y-122573690D01*
X138338327Y-122340301D01*
X138159698Y-122161673D01*
X137926309Y-122065000D01*
X137185750Y-122065000D01*
X137027000Y-122223750D01*
X136773000Y-122223750D01*
X136614250Y-122065000D01*
X135873691Y-122065000D01*
X135640302Y-122161673D01*
X135461673Y-122340301D01*
X135365000Y-122573690D01*
X135297440Y-122573690D01*
X135297440Y-122221296D01*
X136771296Y-120747440D01*
X137800000Y-120747440D01*
X138035317Y-120703162D01*
X138251441Y-120564090D01*
X138396431Y-120351890D01*
X138420102Y-120235000D01*
X141577962Y-120235000D01*
X141596838Y-120335317D01*
X141735910Y-120551441D01*
X141948110Y-120696431D01*
X142200000Y-120747440D01*
X143678704Y-120747440D01*
X144265633Y-121334369D01*
X144487863Y-121482858D01*
X144750001Y-121535001D01*
X144830853Y-121535001D01*
X144753569Y-121648110D01*
X144702560Y-121900000D01*
X144702560Y-123400000D01*
X144746838Y-123635317D01*
X144885910Y-123851441D01*
X145098110Y-123996431D01*
X145350000Y-124047440D01*
X146650000Y-124047440D01*
X146885317Y-124003162D01*
X147101441Y-123864090D01*
X147246431Y-123651890D01*
X147269949Y-123535750D01*
X147365000Y-123535750D01*
X147365000Y-123926310D01*
X147461673Y-124159699D01*
X147640302Y-124338327D01*
X147873691Y-124435000D01*
X148614250Y-124435000D01*
X148773000Y-124276250D01*
X148773000Y-123377000D01*
X149027000Y-123377000D01*
X149027000Y-124276250D01*
X149185750Y-124435000D01*
X149926309Y-124435000D01*
X150159698Y-124338327D01*
X150338327Y-124159699D01*
X150435000Y-123926310D01*
X150435000Y-123535750D01*
X153565000Y-123535750D01*
X153565000Y-123926310D01*
X153661673Y-124159699D01*
X153840302Y-124338327D01*
X154073691Y-124435000D01*
X154814250Y-124435000D01*
X154973000Y-124276250D01*
X154973000Y-123377000D01*
X155227000Y-123377000D01*
X155227000Y-124276250D01*
X155385750Y-124435000D01*
X156126309Y-124435000D01*
X156359698Y-124338327D01*
X156538327Y-124159699D01*
X156635000Y-123926310D01*
X156635000Y-123535750D01*
X156476250Y-123377000D01*
X155227000Y-123377000D01*
X154973000Y-123377000D01*
X153723750Y-123377000D01*
X153565000Y-123535750D01*
X150435000Y-123535750D01*
X150276250Y-123377000D01*
X149027000Y-123377000D01*
X148773000Y-123377000D01*
X147523750Y-123377000D01*
X147365000Y-123535750D01*
X147269949Y-123535750D01*
X147297440Y-123400000D01*
X147297440Y-123071296D01*
X147384743Y-122983993D01*
X147523750Y-123123000D01*
X148773000Y-123123000D01*
X148773000Y-122223750D01*
X149027000Y-122223750D01*
X149027000Y-123123000D01*
X150276250Y-123123000D01*
X150435000Y-122964250D01*
X150435000Y-122573690D01*
X153565000Y-122573690D01*
X153565000Y-122964250D01*
X153723750Y-123123000D01*
X154973000Y-123123000D01*
X154973000Y-122223750D01*
X155227000Y-122223750D01*
X155227000Y-123123000D01*
X156476250Y-123123000D01*
X156635000Y-122964250D01*
X156635000Y-122573690D01*
X156538327Y-122340301D01*
X156359698Y-122161673D01*
X156126309Y-122065000D01*
X155385750Y-122065000D01*
X155227000Y-122223750D01*
X154973000Y-122223750D01*
X154814250Y-122065000D01*
X154073691Y-122065000D01*
X153840302Y-122161673D01*
X153661673Y-122340301D01*
X153565000Y-122573690D01*
X150435000Y-122573690D01*
X150338327Y-122340301D01*
X150159698Y-122161673D01*
X149926309Y-122065000D01*
X149185750Y-122065000D01*
X149027000Y-122223750D01*
X148773000Y-122223750D01*
X148614250Y-122065000D01*
X148303736Y-122065000D01*
X149384368Y-120984368D01*
X149532857Y-120762138D01*
X149535781Y-120747440D01*
X149800000Y-120747440D01*
X150035317Y-120703162D01*
X150251441Y-120564090D01*
X150396431Y-120351890D01*
X150420102Y-120235000D01*
X153577962Y-120235000D01*
X153596838Y-120335317D01*
X153735910Y-120551441D01*
X153948110Y-120696431D01*
X154200000Y-120747440D01*
X156000000Y-120747440D01*
X156235317Y-120703162D01*
X156451441Y-120564090D01*
X156596431Y-120351890D01*
X156647440Y-120100000D01*
X156647440Y-119000000D01*
X156603162Y-118764683D01*
X156464090Y-118548559D01*
X156251890Y-118403569D01*
X156000000Y-118352560D01*
X154685000Y-118352560D01*
X154685000Y-115937332D01*
X154792192Y-115830327D01*
X154934838Y-115486799D01*
X154935162Y-115114833D01*
X154793117Y-114771057D01*
X154530327Y-114507808D01*
X154186799Y-114365162D01*
X153814833Y-114364838D01*
X153471057Y-114506883D01*
X153249845Y-114727709D01*
X153030327Y-114507808D01*
X152686799Y-114365162D01*
X152314833Y-114364838D01*
X151971057Y-114506883D01*
X151749845Y-114727709D01*
X151530327Y-114507808D01*
X151186799Y-114365162D01*
X150814833Y-114364838D01*
X150471057Y-114506883D01*
X150207808Y-114769673D01*
X150065162Y-115113201D01*
X150065029Y-115266235D01*
X147366275Y-117964989D01*
X121630009Y-117964989D01*
X121367871Y-118017132D01*
X121145641Y-118165621D01*
X120231234Y-119080028D01*
X120247440Y-119000000D01*
X120247440Y-117000000D01*
X120203162Y-116764683D01*
X120064090Y-116548559D01*
X119851890Y-116403569D01*
X119600000Y-116352560D01*
X118000000Y-116352560D01*
X117764683Y-116396838D01*
X117548559Y-116535910D01*
X117403569Y-116748110D01*
X117352560Y-117000000D01*
X117352560Y-117678704D01*
X116985000Y-118046264D01*
X116985000Y-117985750D01*
X116826250Y-117827000D01*
X115827000Y-117827000D01*
X115827000Y-117847000D01*
X115573000Y-117847000D01*
X115573000Y-117827000D01*
X114573750Y-117827000D01*
X114415000Y-117985750D01*
X114415000Y-118576309D01*
X114511673Y-118809698D01*
X114690301Y-118988327D01*
X114826287Y-119044654D01*
X114814683Y-119046838D01*
X114598559Y-119185910D01*
X114453569Y-119398110D01*
X114402560Y-119650000D01*
X114402560Y-119978704D01*
X112916265Y-121464999D01*
X110534983Y-121464999D01*
X110646431Y-121301890D01*
X110697440Y-121050000D01*
X110697440Y-120171296D01*
X110933706Y-119935030D01*
X111085167Y-119935162D01*
X111428943Y-119793117D01*
X111537249Y-119685000D01*
X111600000Y-119685000D01*
X111862138Y-119632857D01*
X111989974Y-119547440D01*
X113300000Y-119547440D01*
X113535317Y-119503162D01*
X113751441Y-119364090D01*
X113896431Y-119151890D01*
X113947440Y-118900000D01*
X113947440Y-116900000D01*
X113933082Y-116823691D01*
X114415000Y-116823691D01*
X114415000Y-117414250D01*
X114573750Y-117573000D01*
X115573000Y-117573000D01*
X115573000Y-116473750D01*
X115827000Y-116473750D01*
X115827000Y-117573000D01*
X116826250Y-117573000D01*
X116985000Y-117414250D01*
X116985000Y-116823691D01*
X116888327Y-116590302D01*
X116709699Y-116411673D01*
X116476310Y-116315000D01*
X115985750Y-116315000D01*
X115827000Y-116473750D01*
X115573000Y-116473750D01*
X115414250Y-116315000D01*
X114923690Y-116315000D01*
X114690301Y-116411673D01*
X114511673Y-116590302D01*
X114415000Y-116823691D01*
X113933082Y-116823691D01*
X113903162Y-116664683D01*
X113764090Y-116448559D01*
X113551890Y-116303569D01*
X113300000Y-116252560D01*
X111700000Y-116252560D01*
X111464683Y-116296838D01*
X111248559Y-116435910D01*
X111103569Y-116648110D01*
X111052560Y-116900000D01*
X111052560Y-118065132D01*
X110714833Y-118064838D01*
X110685000Y-118077165D01*
X110685000Y-117885750D01*
X110526250Y-117727000D01*
X109527000Y-117727000D01*
X109527000Y-117747000D01*
X109273000Y-117747000D01*
X109273000Y-117727000D01*
X109253000Y-117727000D01*
X109253000Y-117473000D01*
X109273000Y-117473000D01*
X109273000Y-117453000D01*
X109527000Y-117453000D01*
X109527000Y-117473000D01*
X110526250Y-117473000D01*
X110685000Y-117314250D01*
X110685000Y-116723691D01*
X110588327Y-116490302D01*
X110409699Y-116311673D01*
X110176310Y-116215000D01*
X109685750Y-116215000D01*
X109527002Y-116373748D01*
X109527002Y-116341734D01*
X109584368Y-116284368D01*
X109725328Y-116073406D01*
X110762560Y-115036174D01*
X110762560Y-115045195D01*
X110627142Y-115247863D01*
X110574999Y-115510001D01*
X110627142Y-115772139D01*
X110775631Y-115994369D01*
X110805631Y-116024369D01*
X111027861Y-116172858D01*
X111289999Y-116225001D01*
X111552137Y-116172858D01*
X111754805Y-116037440D01*
X113110000Y-116037440D01*
X113345317Y-115993162D01*
X113561441Y-115854090D01*
X113706431Y-115641890D01*
X113720086Y-115574459D01*
X113749946Y-115619147D01*
X114231715Y-115941054D01*
X114800000Y-116054093D01*
X115368285Y-115941054D01*
X115610485Y-115779221D01*
X115855633Y-116024369D01*
X116077863Y-116172858D01*
X116340001Y-116225001D01*
X117820001Y-116225001D01*
X118082139Y-116172858D01*
X118304369Y-116024369D01*
X118801261Y-115527477D01*
X119113076Y-115811645D01*
X119523110Y-115981476D01*
X119753000Y-115860155D01*
X119753000Y-114667000D01*
X120007000Y-114667000D01*
X120007000Y-115860155D01*
X120236890Y-115981476D01*
X120646924Y-115811645D01*
X121075183Y-115421358D01*
X121321486Y-114896892D01*
X121200819Y-114667000D01*
X120007000Y-114667000D01*
X119753000Y-114667000D01*
X119733000Y-114667000D01*
X119733000Y-114413000D01*
X119753000Y-114413000D01*
X119753000Y-114393000D01*
X120007000Y-114393000D01*
X120007000Y-114413000D01*
X121200819Y-114413000D01*
X121321486Y-114183108D01*
X121075183Y-113658642D01*
X120865826Y-113467847D01*
X121840432Y-112493241D01*
X173114994Y-112493241D01*
X173401314Y-113186191D01*
X173931021Y-113716822D01*
X174623469Y-114004352D01*
X175373241Y-114005006D01*
X175714681Y-113863926D01*
X175714681Y-120536060D01*
X175376531Y-120395648D01*
X174626759Y-120394994D01*
X173933809Y-120681314D01*
X173403178Y-121211021D01*
X173115648Y-121903469D01*
X173114994Y-122653241D01*
X173401314Y-123346191D01*
X173931021Y-123876822D01*
X174623469Y-124164352D01*
X175373241Y-124165006D01*
X176066191Y-123878686D01*
X176596822Y-123348979D01*
X176884352Y-122656531D01*
X176885006Y-121906759D01*
X176726235Y-121522501D01*
X176884049Y-121364687D01*
X177032538Y-121142457D01*
X177084681Y-120880319D01*
X177084681Y-106589681D01*
X177032538Y-106327543D01*
X176884049Y-106105313D01*
X176135030Y-105356294D01*
X176135162Y-105204833D01*
X175993117Y-104861057D01*
X175777310Y-104644873D01*
X175785000Y-104626309D01*
X175785000Y-104035750D01*
X175626250Y-103877000D01*
X174627000Y-103877000D01*
X174627000Y-103897000D01*
X174373000Y-103897000D01*
X174373000Y-103877000D01*
X173373750Y-103877000D01*
X173215000Y-104035750D01*
X173215000Y-104626309D01*
X173311673Y-104859698D01*
X173490301Y-105038327D01*
X173723690Y-105135000D01*
X174214250Y-105135000D01*
X174349744Y-104999506D01*
X174265162Y-105203201D01*
X174264838Y-105575167D01*
X174406883Y-105918943D01*
X174669673Y-106182192D01*
X175013201Y-106324838D01*
X175166235Y-106324971D01*
X175714681Y-106873417D01*
X175714681Y-110376060D01*
X175376531Y-110235648D01*
X174626759Y-110234994D01*
X173933809Y-110521314D01*
X173403178Y-111051021D01*
X173115648Y-111743469D01*
X173114994Y-112493241D01*
X121840432Y-112493241D01*
X123739389Y-110594284D01*
X123887878Y-110372054D01*
X123940021Y-110109916D01*
X123940021Y-108570907D01*
X154475000Y-108570907D01*
X154475000Y-108629093D01*
X154588039Y-109197378D01*
X154909946Y-109679147D01*
X155391715Y-110001054D01*
X155960000Y-110114093D01*
X156528285Y-110001054D01*
X157010054Y-109679147D01*
X157230000Y-109349974D01*
X157449946Y-109679147D01*
X157931715Y-110001054D01*
X158500000Y-110114093D01*
X159068285Y-110001054D01*
X159550054Y-109679147D01*
X159770000Y-109349974D01*
X159989946Y-109679147D01*
X160471715Y-110001054D01*
X161040000Y-110114093D01*
X161608285Y-110001054D01*
X162090054Y-109679147D01*
X162310000Y-109349974D01*
X162529946Y-109679147D01*
X163011715Y-110001054D01*
X163580000Y-110114093D01*
X164148285Y-110001054D01*
X164630054Y-109679147D01*
X164850000Y-109349974D01*
X165069946Y-109679147D01*
X165551715Y-110001054D01*
X166120000Y-110114093D01*
X166688285Y-110001054D01*
X167170054Y-109679147D01*
X167197850Y-109637548D01*
X167206838Y-109685317D01*
X167345910Y-109901441D01*
X167558110Y-110046431D01*
X167810000Y-110097440D01*
X169510000Y-110097440D01*
X169745317Y-110053162D01*
X169961441Y-109914090D01*
X170106431Y-109701890D01*
X170157440Y-109450000D01*
X170157440Y-107750000D01*
X170113162Y-107514683D01*
X169974090Y-107298559D01*
X169761890Y-107153569D01*
X169510000Y-107102560D01*
X167810000Y-107102560D01*
X167574683Y-107146838D01*
X167358559Y-107285910D01*
X167213569Y-107498110D01*
X167199914Y-107565541D01*
X167170054Y-107520853D01*
X166688285Y-107198946D01*
X166120000Y-107085907D01*
X165551715Y-107198946D01*
X165069946Y-107520853D01*
X164850000Y-107850026D01*
X164630054Y-107520853D01*
X164148285Y-107198946D01*
X163580000Y-107085907D01*
X163011715Y-107198946D01*
X162529946Y-107520853D01*
X162310000Y-107850026D01*
X162090054Y-107520853D01*
X161608285Y-107198946D01*
X161040000Y-107085907D01*
X160471715Y-107198946D01*
X159989946Y-107520853D01*
X159770000Y-107850026D01*
X159550054Y-107520853D01*
X159068285Y-107198946D01*
X158500000Y-107085907D01*
X157931715Y-107198946D01*
X157449946Y-107520853D01*
X157230000Y-107850026D01*
X157010054Y-107520853D01*
X156528285Y-107198946D01*
X155960000Y-107085907D01*
X155391715Y-107198946D01*
X154909946Y-107520853D01*
X154588039Y-108002622D01*
X154475000Y-108570907D01*
X123940021Y-108570907D01*
X123940021Y-105585750D01*
X155365000Y-105585750D01*
X155365000Y-106051310D01*
X155461673Y-106284699D01*
X155640302Y-106463327D01*
X155873691Y-106560000D01*
X156464250Y-106560000D01*
X156623000Y-106401250D01*
X156623000Y-105427000D01*
X155523750Y-105427000D01*
X155365000Y-105585750D01*
X123940021Y-105585750D01*
X123940021Y-104548690D01*
X155365000Y-104548690D01*
X155365000Y-105014250D01*
X155523750Y-105173000D01*
X156623000Y-105173000D01*
X156623000Y-104198750D01*
X156464250Y-104040000D01*
X155873691Y-104040000D01*
X155640302Y-104136673D01*
X155461673Y-104315301D01*
X155365000Y-104548690D01*
X123940021Y-104548690D01*
X123940021Y-100323043D01*
X128734368Y-95528696D01*
X128882857Y-95306466D01*
X128935000Y-95044328D01*
X128935000Y-89770907D01*
X134635000Y-89770907D01*
X134635000Y-89829093D01*
X134748039Y-90397378D01*
X135069946Y-90879147D01*
X135551715Y-91201054D01*
X136120000Y-91314093D01*
X136688285Y-91201054D01*
X137170054Y-90879147D01*
X137397702Y-90538447D01*
X137464817Y-90681358D01*
X137893076Y-91071645D01*
X138303110Y-91241476D01*
X138533000Y-91120155D01*
X138533000Y-89927000D01*
X138513000Y-89927000D01*
X138513000Y-89673000D01*
X138533000Y-89673000D01*
X138533000Y-88479845D01*
X138303110Y-88358524D01*
X137893076Y-88528355D01*
X137464817Y-88918642D01*
X137397702Y-89061553D01*
X137170054Y-88720853D01*
X136688285Y-88398946D01*
X136120000Y-88285907D01*
X135551715Y-88398946D01*
X135069946Y-88720853D01*
X134748039Y-89202622D01*
X134635000Y-89770907D01*
X128935000Y-89770907D01*
X128935000Y-87224669D01*
X128951441Y-87214090D01*
X128999134Y-87144289D01*
X129035910Y-87201441D01*
X129248110Y-87346431D01*
X129500000Y-87397440D01*
X130000000Y-87397440D01*
X130235317Y-87353162D01*
X130451441Y-87214090D01*
X130596431Y-87001890D01*
X130619949Y-86885750D01*
X136415000Y-86885750D01*
X136415000Y-87376310D01*
X136511673Y-87609699D01*
X136690302Y-87788327D01*
X136923691Y-87885000D01*
X137514250Y-87885000D01*
X137673000Y-87726250D01*
X137673000Y-86727000D01*
X136573750Y-86727000D01*
X136415000Y-86885750D01*
X130619949Y-86885750D01*
X130647440Y-86750000D01*
X130647440Y-85850000D01*
X130603162Y-85614683D01*
X130464090Y-85398559D01*
X130318917Y-85299367D01*
X130451441Y-85214090D01*
X130596431Y-85001890D01*
X130647440Y-84750000D01*
X130647440Y-84721296D01*
X130682986Y-84685750D01*
X136415000Y-84685750D01*
X136415000Y-85176310D01*
X136511673Y-85409699D01*
X136601975Y-85500000D01*
X136511673Y-85590301D01*
X136415000Y-85823690D01*
X136415000Y-86314250D01*
X136573750Y-86473000D01*
X137673000Y-86473000D01*
X137673000Y-84527000D01*
X136573750Y-84527000D01*
X136415000Y-84685750D01*
X130682986Y-84685750D01*
X131745046Y-83623690D01*
X136415000Y-83623690D01*
X136415000Y-84114250D01*
X136573750Y-84273000D01*
X137673000Y-84273000D01*
X137673000Y-83273750D01*
X137927000Y-83273750D01*
X137927000Y-84273000D01*
X137947000Y-84273000D01*
X137947000Y-84527000D01*
X137927000Y-84527000D01*
X137927000Y-86473000D01*
X137947000Y-86473000D01*
X137947000Y-86727000D01*
X137927000Y-86727000D01*
X137927000Y-87726250D01*
X138085750Y-87885000D01*
X138676309Y-87885000D01*
X138909698Y-87788327D01*
X139088327Y-87609699D01*
X139144654Y-87473713D01*
X139146838Y-87485317D01*
X139285910Y-87701441D01*
X139498110Y-87846431D01*
X139750000Y-87897440D01*
X139815000Y-87897440D01*
X139815000Y-88882022D01*
X139426924Y-88528355D01*
X139016890Y-88358524D01*
X138787000Y-88479845D01*
X138787000Y-89673000D01*
X138807000Y-89673000D01*
X138807000Y-89927000D01*
X138787000Y-89927000D01*
X138787000Y-91120155D01*
X139016890Y-91241476D01*
X139426924Y-91071645D01*
X139855183Y-90681358D01*
X139922298Y-90538447D01*
X140149946Y-90879147D01*
X140631715Y-91201054D01*
X141200000Y-91314093D01*
X141768285Y-91201054D01*
X142250054Y-90879147D01*
X142277850Y-90837548D01*
X142286838Y-90885317D01*
X142425910Y-91101441D01*
X142638110Y-91246431D01*
X142890000Y-91297440D01*
X144590000Y-91297440D01*
X144825317Y-91253162D01*
X145041441Y-91114090D01*
X145186431Y-90901890D01*
X145237440Y-90650000D01*
X145237440Y-88950000D01*
X145193162Y-88714683D01*
X145054090Y-88498559D01*
X144841890Y-88353569D01*
X144590000Y-88302560D01*
X144425000Y-88302560D01*
X144425000Y-87540000D01*
X144372857Y-87277862D01*
X144224368Y-87055632D01*
X142754486Y-85585750D01*
X145175000Y-85585750D01*
X145175000Y-86276309D01*
X145271673Y-86509698D01*
X145450301Y-86688327D01*
X145683690Y-86785000D01*
X146374250Y-86785000D01*
X146533000Y-86626250D01*
X146533000Y-85427000D01*
X145333750Y-85427000D01*
X145175000Y-85585750D01*
X142754486Y-85585750D01*
X141897440Y-84728704D01*
X141897440Y-84323691D01*
X145175000Y-84323691D01*
X145175000Y-85014250D01*
X145333750Y-85173000D01*
X146533000Y-85173000D01*
X146533000Y-83973750D01*
X146787000Y-83973750D01*
X146787000Y-85173000D01*
X146807000Y-85173000D01*
X146807000Y-85427000D01*
X146787000Y-85427000D01*
X146787000Y-86626250D01*
X146945750Y-86785000D01*
X147636310Y-86785000D01*
X147869699Y-86688327D01*
X148048327Y-86509698D01*
X148120597Y-86335223D01*
X148149946Y-86379147D01*
X148631715Y-86701054D01*
X149200000Y-86814093D01*
X149768285Y-86701054D01*
X150250054Y-86379147D01*
X150571961Y-85897378D01*
X150685000Y-85329093D01*
X150685000Y-85270907D01*
X150571961Y-84702622D01*
X150250054Y-84220853D01*
X149768285Y-83898946D01*
X149200000Y-83785907D01*
X148631715Y-83898946D01*
X148149946Y-84220853D01*
X148120597Y-84264777D01*
X148048327Y-84090302D01*
X147869699Y-83911673D01*
X147636310Y-83815000D01*
X146945750Y-83815000D01*
X146787000Y-83973750D01*
X146533000Y-83973750D01*
X146374250Y-83815000D01*
X145683690Y-83815000D01*
X145450301Y-83911673D01*
X145271673Y-84090302D01*
X145175000Y-84323691D01*
X141897440Y-84323691D01*
X141897440Y-83750000D01*
X141853162Y-83514683D01*
X141714090Y-83298559D01*
X141501890Y-83153569D01*
X141250000Y-83102560D01*
X139750000Y-83102560D01*
X139514683Y-83146838D01*
X139298559Y-83285910D01*
X139153569Y-83498110D01*
X139146809Y-83531490D01*
X139088327Y-83390301D01*
X138909698Y-83211673D01*
X138676309Y-83115000D01*
X138085750Y-83115000D01*
X137927000Y-83273750D01*
X137673000Y-83273750D01*
X137514250Y-83115000D01*
X136923691Y-83115000D01*
X136690302Y-83211673D01*
X136511673Y-83390301D01*
X136415000Y-83623690D01*
X131745046Y-83623690D01*
X132383737Y-82984999D01*
X152671871Y-82984999D01*
X152615000Y-83270907D01*
X152615000Y-83329093D01*
X152728039Y-83897378D01*
X153049946Y-84379147D01*
X153531715Y-84701054D01*
X154100000Y-84814093D01*
X154668285Y-84701054D01*
X155150054Y-84379147D01*
X155377702Y-84038447D01*
X155444817Y-84181358D01*
X155873076Y-84571645D01*
X156283110Y-84741476D01*
X156513000Y-84620155D01*
X156513000Y-83427000D01*
X156493000Y-83427000D01*
X156493000Y-83173000D01*
X156513000Y-83173000D01*
X156513000Y-83153000D01*
X156767000Y-83153000D01*
X156767000Y-83173000D01*
X156787000Y-83173000D01*
X156787000Y-83427000D01*
X156767000Y-83427000D01*
X156767000Y-84620155D01*
X156996890Y-84741476D01*
X157406924Y-84571645D01*
X157835183Y-84181358D01*
X157902298Y-84038447D01*
X158129946Y-84379147D01*
X158611715Y-84701054D01*
X159180000Y-84814093D01*
X159748285Y-84701054D01*
X160230054Y-84379147D01*
X160257850Y-84337548D01*
X160266838Y-84385317D01*
X160405910Y-84601441D01*
X160618110Y-84746431D01*
X160870000Y-84797440D01*
X162570000Y-84797440D01*
X162805317Y-84753162D01*
X163021441Y-84614090D01*
X163166431Y-84401890D01*
X163217440Y-84150000D01*
X163217440Y-82450000D01*
X163173162Y-82214683D01*
X163041452Y-82010000D01*
X167685511Y-82010000D01*
X167369946Y-82220853D01*
X167369946Y-82220853D01*
G37*
X167369946Y-82220853D02*
X167048039Y-82702622D01*
X166935000Y-83270907D01*
X166935000Y-83329093D01*
X167008430Y-83698251D01*
X166832755Y-83815633D01*
X165333408Y-85314980D01*
X156256450Y-85314980D01*
X155994312Y-85367123D01*
X155772082Y-85515612D01*
X151665611Y-89622083D01*
X151517122Y-89844313D01*
X151464979Y-90106451D01*
X151464979Y-99281693D01*
X151517122Y-99543831D01*
X151665611Y-99766061D01*
X155133918Y-103234368D01*
X155356148Y-103382857D01*
X155618286Y-103435000D01*
X157277560Y-103435000D01*
X157277560Y-103550000D01*
X157321838Y-103785317D01*
X157460910Y-104001441D01*
X157517343Y-104040000D01*
X157035750Y-104040000D01*
X156877000Y-104198750D01*
X156877000Y-105173000D01*
X156897000Y-105173000D01*
X156897000Y-105427000D01*
X156877000Y-105427000D01*
X156877000Y-106401250D01*
X157035750Y-106560000D01*
X157626309Y-106560000D01*
X157859698Y-106463327D01*
X158000936Y-106322090D01*
X158035910Y-106376441D01*
X158248110Y-106521431D01*
X158500000Y-106572440D01*
X160000000Y-106572440D01*
X160235317Y-106528162D01*
X160451441Y-106389090D01*
X160596431Y-106176890D01*
X160647440Y-105925000D01*
X160647440Y-104996296D01*
X161084368Y-104559368D01*
X161232857Y-104337138D01*
X161260645Y-104197440D01*
X161675000Y-104197440D01*
X161804589Y-104173056D01*
X161925000Y-104197440D01*
X162475000Y-104197440D01*
X162604589Y-104173056D01*
X162725000Y-104197440D01*
X162960195Y-104197440D01*
X163162863Y-104332858D01*
X163425001Y-104385001D01*
X164362843Y-104385001D01*
X164569673Y-104592192D01*
X164913201Y-104734838D01*
X164969357Y-104734887D01*
X164867143Y-104887862D01*
X164815000Y-105150000D01*
X164815000Y-105166264D01*
X164366264Y-105615000D01*
X162637332Y-105615000D01*
X162530327Y-105507808D01*
X162186799Y-105365162D01*
X161814833Y-105364838D01*
X161471057Y-105506883D01*
X161207808Y-105769673D01*
X161065162Y-106113201D01*
X161064838Y-106485167D01*
X161206883Y-106828943D01*
X161469673Y-107092192D01*
X161813201Y-107234838D01*
X162185167Y-107235162D01*
X162528943Y-107093117D01*
X162637249Y-106985000D01*
X164650000Y-106985000D01*
X164912138Y-106932857D01*
X165134368Y-106784368D01*
X165984368Y-105934368D01*
X166132857Y-105712138D01*
X166185000Y-105450000D01*
X166185000Y-105433736D01*
X167709114Y-103909622D01*
X167709114Y-104520242D01*
X167753392Y-104755559D01*
X167892464Y-104971683D01*
X168104664Y-105116673D01*
X168356554Y-105167682D01*
X169656554Y-105167682D01*
X169891871Y-105123404D01*
X170006532Y-105049622D01*
X170104664Y-105116673D01*
X170356554Y-105167682D01*
X171656554Y-105167682D01*
X171891871Y-105123404D01*
X172107995Y-104984332D01*
X172252985Y-104772132D01*
X172303994Y-104520242D01*
X172303994Y-103020242D01*
X172259716Y-102784925D01*
X172120644Y-102568801D01*
X171908444Y-102423811D01*
X171895357Y-102421161D01*
X172107995Y-102284332D01*
X172252985Y-102072132D01*
X172303994Y-101820242D01*
X172303994Y-100320242D01*
X172259716Y-100084925D01*
X172120644Y-99868801D01*
X171908444Y-99723811D01*
X171656554Y-99672802D01*
X170356554Y-99672802D01*
X170121237Y-99717080D01*
X170006576Y-99790862D01*
X169908444Y-99723811D01*
X169656554Y-99672802D01*
X168595934Y-99672802D01*
X169033706Y-99235030D01*
X169185167Y-99235162D01*
X169528943Y-99093117D01*
X169792192Y-98830327D01*
X169934838Y-98486799D01*
X169935162Y-98114833D01*
X169804931Y-97799649D01*
X169934838Y-97486799D01*
X169935162Y-97114833D01*
X169793117Y-96771057D01*
X169530327Y-96507808D01*
X169186799Y-96365162D01*
X168853864Y-96364872D01*
X169384368Y-95834368D01*
X169409042Y-95797440D01*
X169800000Y-95797440D01*
X170035317Y-95753162D01*
X170251441Y-95614090D01*
X170396431Y-95401890D01*
X170420102Y-95285000D01*
X173577962Y-95285000D01*
X173596838Y-95385317D01*
X173735910Y-95601441D01*
X173948110Y-95746431D01*
X174200000Y-95797440D01*
X174415000Y-95797440D01*
X174415000Y-99652560D01*
X173850000Y-99652560D01*
X173614683Y-99696838D01*
X173398559Y-99835910D01*
X173253569Y-100048110D01*
X173202560Y-100300000D01*
X173202560Y-101800000D01*
X173246838Y-102035317D01*
X173385910Y-102251441D01*
X173598110Y-102396431D01*
X173631490Y-102403191D01*
X173490301Y-102461673D01*
X173311673Y-102640302D01*
X173215000Y-102873691D01*
X173215000Y-103464250D01*
X173373750Y-103623000D01*
X174373000Y-103623000D01*
X174373000Y-103603000D01*
X174627000Y-103603000D01*
X174627000Y-103623000D01*
X175626250Y-103623000D01*
X175785000Y-103464250D01*
X175785000Y-102873691D01*
X175688327Y-102640302D01*
X175509699Y-102461673D01*
X175373713Y-102405346D01*
X175385317Y-102403162D01*
X175601441Y-102264090D01*
X175746431Y-102051890D01*
X175797440Y-101800000D01*
X175797440Y-100300000D01*
X175785000Y-100233887D01*
X175785000Y-95797440D01*
X176000000Y-95797440D01*
X176235317Y-95753162D01*
X176451441Y-95614090D01*
X176596431Y-95401890D01*
X176647440Y-95150000D01*
X176647440Y-94050000D01*
X176603162Y-93814683D01*
X176464090Y-93598559D01*
X176251890Y-93453569D01*
X176000000Y-93402560D01*
X174335086Y-93402560D01*
X174335162Y-93314833D01*
X174193117Y-92971057D01*
X173930327Y-92707808D01*
X173586799Y-92565162D01*
X173214833Y-92564838D01*
X172871057Y-92706883D01*
X172607808Y-92969673D01*
X172465162Y-93313201D01*
X172464838Y-93685167D01*
X172559803Y-93915000D01*
X170422038Y-93915000D01*
X170403162Y-93814683D01*
X170264090Y-93598559D01*
X170051890Y-93453569D01*
X169800000Y-93402560D01*
X168000000Y-93402560D01*
X167764683Y-93446838D01*
X167719169Y-93476126D01*
X167593117Y-93171057D01*
X167330327Y-92907808D01*
X167162072Y-92837942D01*
X167093117Y-92671057D01*
X166830327Y-92407808D01*
X166486799Y-92265162D01*
X166114833Y-92264838D01*
X165771057Y-92406883D01*
X165507808Y-92669673D01*
X165365162Y-93013201D01*
X165364838Y-93385167D01*
X165506883Y-93728943D01*
X165615000Y-93837249D01*
X165615000Y-94777560D01*
X164722440Y-94777560D01*
X164722440Y-93450000D01*
X164678162Y-93214683D01*
X164539090Y-92998559D01*
X164326890Y-92853569D01*
X164075000Y-92802560D01*
X163525000Y-92802560D01*
X163395411Y-92826944D01*
X163275000Y-92802560D01*
X162725000Y-92802560D01*
X162595411Y-92826944D01*
X162475000Y-92802560D01*
X161925000Y-92802560D01*
X161819295Y-92822450D01*
X161801310Y-92815000D01*
X161685750Y-92815000D01*
X161589349Y-92911401D01*
X161473559Y-92985910D01*
X161400116Y-93093397D01*
X161339090Y-92998559D01*
X161208755Y-92909505D01*
X161114250Y-92815000D01*
X160998690Y-92815000D01*
X160978247Y-92823468D01*
X160875000Y-92802560D01*
X160325000Y-92802560D01*
X160219295Y-92822450D01*
X160201310Y-92815000D01*
X160085750Y-92815000D01*
X159989349Y-92911401D01*
X159873559Y-92985910D01*
X159800116Y-93093397D01*
X159739090Y-92998559D01*
X159685000Y-92961601D01*
X159685000Y-91647440D01*
X160650000Y-91647440D01*
X160885317Y-91603162D01*
X161051477Y-91496241D01*
X161198110Y-91596431D01*
X161450000Y-91647440D01*
X163550000Y-91647440D01*
X163785317Y-91603162D01*
X164001441Y-91464090D01*
X164056927Y-91382883D01*
X164223110Y-91496431D01*
X164475000Y-91547440D01*
X165661175Y-91547440D01*
X165850000Y-91585000D01*
X167377962Y-91585000D01*
X167396838Y-91685317D01*
X167535910Y-91901441D01*
X167748110Y-92046431D01*
X168000000Y-92097440D01*
X169800000Y-92097440D01*
X170035317Y-92053162D01*
X170251441Y-91914090D01*
X170396431Y-91701890D01*
X170420102Y-91585000D01*
X173577962Y-91585000D01*
X173596838Y-91685317D01*
X173735910Y-91901441D01*
X173948110Y-92046431D01*
X174200000Y-92097440D01*
X176000000Y-92097440D01*
X176235317Y-92053162D01*
X176451441Y-91914090D01*
X176596431Y-91701890D01*
X176620102Y-91585000D01*
X177663569Y-91585000D01*
X177920853Y-91970054D01*
X178402622Y-92291961D01*
X178970907Y-92405000D01*
X179029093Y-92405000D01*
X179597378Y-92291961D01*
X180079147Y-91970054D01*
X180290000Y-91654489D01*
X180290000Y-102565511D01*
X180079147Y-102249946D01*
X179597378Y-101928039D01*
X179029093Y-101815000D01*
X178970907Y-101815000D01*
X178402622Y-101928039D01*
X177920853Y-102249946D01*
X177598946Y-102731715D01*
X177485907Y-103300000D01*
X177598946Y-103868285D01*
X177920853Y-104350054D01*
X177962452Y-104377850D01*
X177914683Y-104386838D01*
X177698559Y-104525910D01*
X177553569Y-104738110D01*
X177502560Y-104990000D01*
X177502560Y-106690000D01*
X177546838Y-106925317D01*
X177685910Y-107141441D01*
X177898110Y-107286431D01*
X178150000Y-107337440D01*
X179850000Y-107337440D01*
X180085317Y-107293162D01*
X180290000Y-107161452D01*
X180290000Y-124590000D01*
X167617901Y-124590000D01*
X167746431Y-124401890D01*
X167797440Y-124150000D01*
X167797440Y-122450000D01*
X167753162Y-122214683D01*
X167614090Y-121998559D01*
X167401890Y-121853569D01*
X167150000Y-121802560D01*
X165450000Y-121802560D01*
X165214683Y-121846838D01*
X164998559Y-121985910D01*
X164853569Y-122198110D01*
X164839914Y-122265541D01*
X164810054Y-122220853D01*
X164328285Y-121898946D01*
X163760000Y-121785907D01*
X163191715Y-121898946D01*
X162709946Y-122220853D01*
X162482298Y-122561553D01*
X162415183Y-122418642D01*
X161986924Y-122028355D01*
X161576890Y-121858524D01*
X161347000Y-121979845D01*
X161347000Y-123173000D01*
X161367000Y-123173000D01*
X161367000Y-123427000D01*
X161347000Y-123427000D01*
X161347000Y-123447000D01*
X161093000Y-123447000D01*
X161093000Y-123427000D01*
X161073000Y-123427000D01*
X161073000Y-123173000D01*
X161093000Y-123173000D01*
X161093000Y-121979845D01*
X160863110Y-121858524D01*
X160453076Y-122028355D01*
X160024817Y-122418642D01*
X159957702Y-122561553D01*
X159730054Y-122220853D01*
X159248285Y-121898946D01*
X158680000Y-121785907D01*
X158111715Y-121898946D01*
X157629946Y-122220853D01*
X157308039Y-122702622D01*
X157195000Y-123270907D01*
X157195000Y-123329093D01*
X157308039Y-123897378D01*
X157629946Y-124379147D01*
X157945511Y-124590000D01*
X120208964Y-124590000D01*
X120247440Y-124400000D01*
X120247440Y-123166314D01*
X120421860Y-123282857D01*
X120683998Y-123335000D01*
X120702560Y-123335000D01*
X120702560Y-123400000D01*
X120746838Y-123635317D01*
X120885910Y-123851441D01*
X121098110Y-123996431D01*
X121350000Y-124047440D01*
X122650000Y-124047440D01*
X122885317Y-124003162D01*
X123101441Y-123864090D01*
X123246431Y-123651890D01*
X123269949Y-123535750D01*
X123365000Y-123535750D01*
X123365000Y-123926310D01*
X123461673Y-124159699D01*
X123640302Y-124338327D01*
X123873691Y-124435000D01*
X124614250Y-124435000D01*
X124773000Y-124276250D01*
X124773000Y-123377000D01*
X125027000Y-123377000D01*
X125027000Y-124276250D01*
X125185750Y-124435000D01*
X125926309Y-124435000D01*
X126159698Y-124338327D01*
X126338327Y-124159699D01*
X126435000Y-123926310D01*
X126435000Y-123535750D01*
X129565000Y-123535750D01*
X129565000Y-123926310D01*
X129661673Y-124159699D01*
X129840302Y-124338327D01*
X130073691Y-124435000D01*
X130814250Y-124435000D01*
X130973000Y-124276250D01*
X130973000Y-123377000D01*
X131227000Y-123377000D01*
X131227000Y-124276250D01*
X131385750Y-124435000D01*
X132126309Y-124435000D01*
X132359698Y-124338327D01*
X132538327Y-124159699D01*
X132635000Y-123926310D01*
X132635000Y-123535750D01*
X132476250Y-123377000D01*
X131227000Y-123377000D01*
X130973000Y-123377000D01*
X129723750Y-123377000D01*
X129565000Y-123535750D01*
X126435000Y-123535750D01*
X126276250Y-123377000D01*
X125027000Y-123377000D01*
X124773000Y-123377000D01*
X123523750Y-123377000D01*
X123365000Y-123535750D01*
X123269949Y-123535750D01*
X123297440Y-123400000D01*
X123297440Y-123071296D01*
X123384743Y-122983993D01*
X123523750Y-123123000D01*
X124773000Y-123123000D01*
X124773000Y-122223750D01*
X125027000Y-122223750D01*
X125027000Y-123123000D01*
X126276250Y-123123000D01*
X126435000Y-122964250D01*
X126435000Y-122573690D01*
X129565000Y-122573690D01*
X129565000Y-122964250D01*
X129723750Y-123123000D01*
X130973000Y-123123000D01*
X130973000Y-122223750D01*
X131227000Y-122223750D01*
X131227000Y-123123000D01*
X132476250Y-123123000D01*
X132635000Y-122964250D01*
X132635000Y-122573690D01*
X132538327Y-122340301D01*
X132359698Y-122161673D01*
X132126309Y-122065000D01*
X131385750Y-122065000D01*
X131227000Y-122223750D01*
X130973000Y-122223750D01*
X130814250Y-122065000D01*
X130073691Y-122065000D01*
X129840302Y-122161673D01*
X129661673Y-122340301D01*
X129565000Y-122573690D01*
X126435000Y-122573690D01*
X126338327Y-122340301D01*
X126159698Y-122161673D01*
X125926309Y-122065000D01*
X125185750Y-122065000D01*
X125027000Y-122223750D01*
X124773000Y-122223750D01*
X124614250Y-122065000D01*
X124303736Y-122065000D01*
X125384368Y-120984368D01*
X125532857Y-120762138D01*
X125535781Y-120747440D01*
X125800000Y-120747440D01*
X126035317Y-120703162D01*
X126251441Y-120564090D01*
X126396431Y-120351890D01*
X126420102Y-120235000D01*
X129577962Y-120235000D01*
X129596838Y-120335317D01*
X129735910Y-120551441D01*
X129948110Y-120696431D01*
X130200000Y-120747440D01*
X132000000Y-120747440D01*
X132235317Y-120703162D01*
X132451441Y-120564090D01*
X132596431Y-120351890D01*
X132611035Y-120279771D01*
X132702560Y-120371296D01*
X132702560Y-120700000D01*
X132746838Y-120935317D01*
X132885910Y-121151441D01*
X133098110Y-121296431D01*
X133111197Y-121299081D01*
X132898559Y-121435910D01*
X132753569Y-121648110D01*
X132702560Y-121900000D01*
X132702560Y-123400000D01*
X132746838Y-123635317D01*
X132885910Y-123851441D01*
X133098110Y-123996431D01*
X133350000Y-124047440D01*
X134650000Y-124047440D01*
X134885317Y-124003162D01*
X135101441Y-123864090D01*
X135246431Y-123651890D01*
X135269949Y-123535750D01*
X135365000Y-123535750D01*
X135365000Y-123926310D01*
X135461673Y-124159699D01*
X135640302Y-124338327D01*
X135873691Y-124435000D01*
X136614250Y-124435000D01*
X136773000Y-124276250D01*
X136773000Y-123377000D01*
X137027000Y-123377000D01*
X137027000Y-124276250D01*
X137185750Y-124435000D01*
X137926309Y-124435000D01*
X138159698Y-124338327D01*
X138338327Y-124159699D01*
X138435000Y-123926310D01*
X138435000Y-123535750D01*
X141565000Y-123535750D01*
X141565000Y-123926310D01*
X141661673Y-124159699D01*
X141840302Y-124338327D01*
X142073691Y-124435000D01*
X142814250Y-124435000D01*
X142973000Y-124276250D01*
X142973000Y-123377000D01*
X143227000Y-123377000D01*
X143227000Y-124276250D01*
X143385750Y-124435000D01*
X144126309Y-124435000D01*
X144359698Y-124338327D01*
X144538327Y-124159699D01*
X144635000Y-123926310D01*
X144635000Y-123535750D01*
X144476250Y-123377000D01*
X143227000Y-123377000D01*
X142973000Y-123377000D01*
X141723750Y-123377000D01*
X141565000Y-123535750D01*
X138435000Y-123535750D01*
X138276250Y-123377000D01*
X137027000Y-123377000D01*
X136773000Y-123377000D01*
X135523750Y-123377000D01*
X135365000Y-123535750D01*
X135269949Y-123535750D01*
X135297440Y-123400000D01*
X135297440Y-122573690D01*
X135365000Y-122573690D01*
X135365000Y-122964250D01*
X135523750Y-123123000D01*
X136773000Y-123123000D01*
X136773000Y-122223750D01*
X137027000Y-122223750D01*
X137027000Y-123123000D01*
X138276250Y-123123000D01*
X138435000Y-122964250D01*
X138435000Y-122573690D01*
X141565000Y-122573690D01*
X141565000Y-122964250D01*
X141723750Y-123123000D01*
X142973000Y-123123000D01*
X142973000Y-122223750D01*
X143227000Y-122223750D01*
X143227000Y-123123000D01*
X144476250Y-123123000D01*
X144635000Y-122964250D01*
X144635000Y-122573690D01*
X144538327Y-122340301D01*
X144359698Y-122161673D01*
X144126309Y-122065000D01*
X143385750Y-122065000D01*
X143227000Y-122223750D01*
X142973000Y-122223750D01*
X142814250Y-122065000D01*
X142073691Y-122065000D01*
X141840302Y-122161673D01*
X141661673Y-122340301D01*
X141565000Y-122573690D01*
X138435000Y-122573690D01*
X138338327Y-122340301D01*
X138159698Y-122161673D01*
X137926309Y-122065000D01*
X137185750Y-122065000D01*
X137027000Y-122223750D01*
X136773000Y-122223750D01*
X136614250Y-122065000D01*
X135873691Y-122065000D01*
X135640302Y-122161673D01*
X135461673Y-122340301D01*
X135365000Y-122573690D01*
X135297440Y-122573690D01*
X135297440Y-122221296D01*
X136771296Y-120747440D01*
X137800000Y-120747440D01*
X138035317Y-120703162D01*
X138251441Y-120564090D01*
X138396431Y-120351890D01*
X138420102Y-120235000D01*
X141577962Y-120235000D01*
X141596838Y-120335317D01*
X141735910Y-120551441D01*
X141948110Y-120696431D01*
X142200000Y-120747440D01*
X143678704Y-120747440D01*
X144265633Y-121334369D01*
X144487863Y-121482858D01*
X144750001Y-121535001D01*
X144830853Y-121535001D01*
X144753569Y-121648110D01*
X144702560Y-121900000D01*
X144702560Y-123400000D01*
X144746838Y-123635317D01*
X144885910Y-123851441D01*
X145098110Y-123996431D01*
X145350000Y-124047440D01*
X146650000Y-124047440D01*
X146885317Y-124003162D01*
X147101441Y-123864090D01*
X147246431Y-123651890D01*
X147269949Y-123535750D01*
X147365000Y-123535750D01*
X147365000Y-123926310D01*
X147461673Y-124159699D01*
X147640302Y-124338327D01*
X147873691Y-124435000D01*
X148614250Y-124435000D01*
X148773000Y-124276250D01*
X148773000Y-123377000D01*
X149027000Y-123377000D01*
X149027000Y-124276250D01*
X149185750Y-124435000D01*
X149926309Y-124435000D01*
X150159698Y-124338327D01*
X150338327Y-124159699D01*
X150435000Y-123926310D01*
X150435000Y-123535750D01*
X153565000Y-123535750D01*
X153565000Y-123926310D01*
X153661673Y-124159699D01*
X153840302Y-124338327D01*
X154073691Y-124435000D01*
X154814250Y-124435000D01*
X154973000Y-124276250D01*
X154973000Y-123377000D01*
X155227000Y-123377000D01*
X155227000Y-124276250D01*
X155385750Y-124435000D01*
X156126309Y-124435000D01*
X156359698Y-124338327D01*
X156538327Y-124159699D01*
X156635000Y-123926310D01*
X156635000Y-123535750D01*
X156476250Y-123377000D01*
X155227000Y-123377000D01*
X154973000Y-123377000D01*
X153723750Y-123377000D01*
X153565000Y-123535750D01*
X150435000Y-123535750D01*
X150276250Y-123377000D01*
X149027000Y-123377000D01*
X148773000Y-123377000D01*
X147523750Y-123377000D01*
X147365000Y-123535750D01*
X147269949Y-123535750D01*
X147297440Y-123400000D01*
X147297440Y-123071296D01*
X147384743Y-122983993D01*
X147523750Y-123123000D01*
X148773000Y-123123000D01*
X148773000Y-122223750D01*
X149027000Y-122223750D01*
X149027000Y-123123000D01*
X150276250Y-123123000D01*
X150435000Y-122964250D01*
X150435000Y-122573690D01*
X153565000Y-122573690D01*
X153565000Y-122964250D01*
X153723750Y-123123000D01*
X154973000Y-123123000D01*
X154973000Y-122223750D01*
X155227000Y-122223750D01*
X155227000Y-123123000D01*
X156476250Y-123123000D01*
X156635000Y-122964250D01*
X156635000Y-122573690D01*
X156538327Y-122340301D01*
X156359698Y-122161673D01*
X156126309Y-122065000D01*
X155385750Y-122065000D01*
X155227000Y-122223750D01*
X154973000Y-122223750D01*
X154814250Y-122065000D01*
X154073691Y-122065000D01*
X153840302Y-122161673D01*
X153661673Y-122340301D01*
X153565000Y-122573690D01*
X150435000Y-122573690D01*
X150338327Y-122340301D01*
X150159698Y-122161673D01*
X149926309Y-122065000D01*
X149185750Y-122065000D01*
X149027000Y-122223750D01*
X148773000Y-122223750D01*
X148614250Y-122065000D01*
X148303736Y-122065000D01*
X149384368Y-120984368D01*
X149532857Y-120762138D01*
X149535781Y-120747440D01*
X149800000Y-120747440D01*
X150035317Y-120703162D01*
X150251441Y-120564090D01*
X150396431Y-120351890D01*
X150420102Y-120235000D01*
X153577962Y-120235000D01*
X153596838Y-120335317D01*
X153735910Y-120551441D01*
X153948110Y-120696431D01*
X154200000Y-120747440D01*
X156000000Y-120747440D01*
X156235317Y-120703162D01*
X156451441Y-120564090D01*
X156596431Y-120351890D01*
X156647440Y-120100000D01*
X156647440Y-119000000D01*
X156603162Y-118764683D01*
X156464090Y-118548559D01*
X156251890Y-118403569D01*
X156000000Y-118352560D01*
X154685000Y-118352560D01*
X154685000Y-115937332D01*
X154792192Y-115830327D01*
X154934838Y-115486799D01*
X154935162Y-115114833D01*
X154793117Y-114771057D01*
X154530327Y-114507808D01*
X154186799Y-114365162D01*
X153814833Y-114364838D01*
X153471057Y-114506883D01*
X153249845Y-114727709D01*
X153030327Y-114507808D01*
X152686799Y-114365162D01*
X152314833Y-114364838D01*
X151971057Y-114506883D01*
X151749845Y-114727709D01*
X151530327Y-114507808D01*
X151186799Y-114365162D01*
X150814833Y-114364838D01*
X150471057Y-114506883D01*
X150207808Y-114769673D01*
X150065162Y-115113201D01*
X150065029Y-115266235D01*
X147366275Y-117964989D01*
X121630009Y-117964989D01*
X121367871Y-118017132D01*
X121145641Y-118165621D01*
X120231234Y-119080028D01*
X120247440Y-119000000D01*
X120247440Y-117000000D01*
X120203162Y-116764683D01*
X120064090Y-116548559D01*
X119851890Y-116403569D01*
X119600000Y-116352560D01*
X118000000Y-116352560D01*
X117764683Y-116396838D01*
X117548559Y-116535910D01*
X117403569Y-116748110D01*
X117352560Y-117000000D01*
X117352560Y-117678704D01*
X116985000Y-118046264D01*
X116985000Y-117985750D01*
X116826250Y-117827000D01*
X115827000Y-117827000D01*
X115827000Y-117847000D01*
X115573000Y-117847000D01*
X115573000Y-117827000D01*
X114573750Y-117827000D01*
X114415000Y-117985750D01*
X114415000Y-118576309D01*
X114511673Y-118809698D01*
X114690301Y-118988327D01*
X114826287Y-119044654D01*
X114814683Y-119046838D01*
X114598559Y-119185910D01*
X114453569Y-119398110D01*
X114402560Y-119650000D01*
X114402560Y-119978704D01*
X112916265Y-121464999D01*
X110534983Y-121464999D01*
X110646431Y-121301890D01*
X110697440Y-121050000D01*
X110697440Y-120171296D01*
X110933706Y-119935030D01*
X111085167Y-119935162D01*
X111428943Y-119793117D01*
X111537249Y-119685000D01*
X111600000Y-119685000D01*
X111862138Y-119632857D01*
X111989974Y-119547440D01*
X113300000Y-119547440D01*
X113535317Y-119503162D01*
X113751441Y-119364090D01*
X113896431Y-119151890D01*
X113947440Y-118900000D01*
X113947440Y-116900000D01*
X113933082Y-116823691D01*
X114415000Y-116823691D01*
X114415000Y-117414250D01*
X114573750Y-117573000D01*
X115573000Y-117573000D01*
X115573000Y-116473750D01*
X115827000Y-116473750D01*
X115827000Y-117573000D01*
X116826250Y-117573000D01*
X116985000Y-117414250D01*
X116985000Y-116823691D01*
X116888327Y-116590302D01*
X116709699Y-116411673D01*
X116476310Y-116315000D01*
X115985750Y-116315000D01*
X115827000Y-116473750D01*
X115573000Y-116473750D01*
X115414250Y-116315000D01*
X114923690Y-116315000D01*
X114690301Y-116411673D01*
X114511673Y-116590302D01*
X114415000Y-116823691D01*
X113933082Y-116823691D01*
X113903162Y-116664683D01*
X113764090Y-116448559D01*
X113551890Y-116303569D01*
X113300000Y-116252560D01*
X111700000Y-116252560D01*
X111464683Y-116296838D01*
X111248559Y-116435910D01*
X111103569Y-116648110D01*
X111052560Y-116900000D01*
X111052560Y-118065132D01*
X110714833Y-118064838D01*
X110685000Y-118077165D01*
X110685000Y-117885750D01*
X110526250Y-117727000D01*
X109527000Y-117727000D01*
X109527000Y-117747000D01*
X109273000Y-117747000D01*
X109273000Y-117727000D01*
X109253000Y-117727000D01*
X109253000Y-117473000D01*
X109273000Y-117473000D01*
X109273000Y-117453000D01*
X109527000Y-117453000D01*
X109527000Y-117473000D01*
X110526250Y-117473000D01*
X110685000Y-117314250D01*
X110685000Y-116723691D01*
X110588327Y-116490302D01*
X110409699Y-116311673D01*
X110176310Y-116215000D01*
X109685750Y-116215000D01*
X109527002Y-116373748D01*
X109527002Y-116341734D01*
X109584368Y-116284368D01*
X109725328Y-116073406D01*
X110762560Y-115036174D01*
X110762560Y-115045195D01*
X110627142Y-115247863D01*
X110574999Y-115510001D01*
X110627142Y-115772139D01*
X110775631Y-115994369D01*
X110805631Y-116024369D01*
X111027861Y-116172858D01*
X111289999Y-116225001D01*
X111552137Y-116172858D01*
X111754805Y-116037440D01*
X113110000Y-116037440D01*
X113345317Y-115993162D01*
X113561441Y-115854090D01*
X113706431Y-115641890D01*
X113720086Y-115574459D01*
X113749946Y-115619147D01*
X114231715Y-115941054D01*
X114800000Y-116054093D01*
X115368285Y-115941054D01*
X115610485Y-115779221D01*
X115855633Y-116024369D01*
X116077863Y-116172858D01*
X116340001Y-116225001D01*
X117820001Y-116225001D01*
X118082139Y-116172858D01*
X118304369Y-116024369D01*
X118801261Y-115527477D01*
X119113076Y-115811645D01*
X119523110Y-115981476D01*
X119753000Y-115860155D01*
X119753000Y-114667000D01*
X120007000Y-114667000D01*
X120007000Y-115860155D01*
X120236890Y-115981476D01*
X120646924Y-115811645D01*
X121075183Y-115421358D01*
X121321486Y-114896892D01*
X121200819Y-114667000D01*
X120007000Y-114667000D01*
X119753000Y-114667000D01*
X119733000Y-114667000D01*
X119733000Y-114413000D01*
X119753000Y-114413000D01*
X119753000Y-114393000D01*
X120007000Y-114393000D01*
X120007000Y-114413000D01*
X121200819Y-114413000D01*
X121321486Y-114183108D01*
X121075183Y-113658642D01*
X120865826Y-113467847D01*
X121840432Y-112493241D01*
X173114994Y-112493241D01*
X173401314Y-113186191D01*
X173931021Y-113716822D01*
X174623469Y-114004352D01*
X175373241Y-114005006D01*
X175714681Y-113863926D01*
X175714681Y-120536060D01*
X175376531Y-120395648D01*
X174626759Y-120394994D01*
X173933809Y-120681314D01*
X173403178Y-121211021D01*
X173115648Y-121903469D01*
X173114994Y-122653241D01*
X173401314Y-123346191D01*
X173931021Y-123876822D01*
X174623469Y-124164352D01*
X175373241Y-124165006D01*
X176066191Y-123878686D01*
X176596822Y-123348979D01*
X176884352Y-122656531D01*
X176885006Y-121906759D01*
X176726235Y-121522501D01*
X176884049Y-121364687D01*
X177032538Y-121142457D01*
X177084681Y-120880319D01*
X177084681Y-106589681D01*
X177032538Y-106327543D01*
X176884049Y-106105313D01*
X176135030Y-105356294D01*
X176135162Y-105204833D01*
X175993117Y-104861057D01*
X175777310Y-104644873D01*
X175785000Y-104626309D01*
X175785000Y-104035750D01*
X175626250Y-103877000D01*
X174627000Y-103877000D01*
X174627000Y-103897000D01*
X174373000Y-103897000D01*
X174373000Y-103877000D01*
X173373750Y-103877000D01*
X173215000Y-104035750D01*
X173215000Y-104626309D01*
X173311673Y-104859698D01*
X173490301Y-105038327D01*
X173723690Y-105135000D01*
X174214250Y-105135000D01*
X174349744Y-104999506D01*
X174265162Y-105203201D01*
X174264838Y-105575167D01*
X174406883Y-105918943D01*
X174669673Y-106182192D01*
X175013201Y-106324838D01*
X175166235Y-106324971D01*
X175714681Y-106873417D01*
X175714681Y-110376060D01*
X175376531Y-110235648D01*
X174626759Y-110234994D01*
X173933809Y-110521314D01*
X173403178Y-111051021D01*
X173115648Y-111743469D01*
X173114994Y-112493241D01*
X121840432Y-112493241D01*
X123739389Y-110594284D01*
X123887878Y-110372054D01*
X123940021Y-110109916D01*
X123940021Y-108570907D01*
X154475000Y-108570907D01*
X154475000Y-108629093D01*
X154588039Y-109197378D01*
X154909946Y-109679147D01*
X155391715Y-110001054D01*
X155960000Y-110114093D01*
X156528285Y-110001054D01*
X157010054Y-109679147D01*
X157230000Y-109349974D01*
X157449946Y-109679147D01*
X157931715Y-110001054D01*
X158500000Y-110114093D01*
X159068285Y-110001054D01*
X159550054Y-109679147D01*
X159770000Y-109349974D01*
X159989946Y-109679147D01*
X160471715Y-110001054D01*
X161040000Y-110114093D01*
X161608285Y-110001054D01*
X162090054Y-109679147D01*
X162310000Y-109349974D01*
X162529946Y-109679147D01*
X163011715Y-110001054D01*
X163580000Y-110114093D01*
X164148285Y-110001054D01*
X164630054Y-109679147D01*
X164850000Y-109349974D01*
X165069946Y-109679147D01*
X165551715Y-110001054D01*
X166120000Y-110114093D01*
X166688285Y-110001054D01*
X167170054Y-109679147D01*
X167197850Y-109637548D01*
X167206838Y-109685317D01*
X167345910Y-109901441D01*
X167558110Y-110046431D01*
X167810000Y-110097440D01*
X169510000Y-110097440D01*
X169745317Y-110053162D01*
X169961441Y-109914090D01*
X170106431Y-109701890D01*
X170157440Y-109450000D01*
X170157440Y-107750000D01*
X170113162Y-107514683D01*
X169974090Y-107298559D01*
X169761890Y-107153569D01*
X169510000Y-107102560D01*
X167810000Y-107102560D01*
X167574683Y-107146838D01*
X167358559Y-107285910D01*
X167213569Y-107498110D01*
X167199914Y-107565541D01*
X167170054Y-107520853D01*
X166688285Y-107198946D01*
X166120000Y-107085907D01*
X165551715Y-107198946D01*
X165069946Y-107520853D01*
X164850000Y-107850026D01*
X164630054Y-107520853D01*
X164148285Y-107198946D01*
X163580000Y-107085907D01*
X163011715Y-107198946D01*
X162529946Y-107520853D01*
X162310000Y-107850026D01*
X162090054Y-107520853D01*
X161608285Y-107198946D01*
X161040000Y-107085907D01*
X160471715Y-107198946D01*
X159989946Y-107520853D01*
X159770000Y-107850026D01*
X159550054Y-107520853D01*
X159068285Y-107198946D01*
X158500000Y-107085907D01*
X157931715Y-107198946D01*
X157449946Y-107520853D01*
X157230000Y-107850026D01*
X157010054Y-107520853D01*
X156528285Y-107198946D01*
X155960000Y-107085907D01*
X155391715Y-107198946D01*
X154909946Y-107520853D01*
X154588039Y-108002622D01*
X154475000Y-108570907D01*
X123940021Y-108570907D01*
X123940021Y-105585750D01*
X155365000Y-105585750D01*
X155365000Y-106051310D01*
X155461673Y-106284699D01*
X155640302Y-106463327D01*
X155873691Y-106560000D01*
X156464250Y-106560000D01*
X156623000Y-106401250D01*
X156623000Y-105427000D01*
X155523750Y-105427000D01*
X155365000Y-105585750D01*
X123940021Y-105585750D01*
X123940021Y-104548690D01*
X155365000Y-104548690D01*
X155365000Y-105014250D01*
X155523750Y-105173000D01*
X156623000Y-105173000D01*
X156623000Y-104198750D01*
X156464250Y-104040000D01*
X155873691Y-104040000D01*
X155640302Y-104136673D01*
X155461673Y-104315301D01*
X155365000Y-104548690D01*
X123940021Y-104548690D01*
X123940021Y-100323043D01*
X128734368Y-95528696D01*
X128882857Y-95306466D01*
X128935000Y-95044328D01*
X128935000Y-89770907D01*
X134635000Y-89770907D01*
X134635000Y-89829093D01*
X134748039Y-90397378D01*
X135069946Y-90879147D01*
X135551715Y-91201054D01*
X136120000Y-91314093D01*
X136688285Y-91201054D01*
X137170054Y-90879147D01*
X137397702Y-90538447D01*
X137464817Y-90681358D01*
X137893076Y-91071645D01*
X138303110Y-91241476D01*
X138533000Y-91120155D01*
X138533000Y-89927000D01*
X138513000Y-89927000D01*
X138513000Y-89673000D01*
X138533000Y-89673000D01*
X138533000Y-88479845D01*
X138303110Y-88358524D01*
X137893076Y-88528355D01*
X137464817Y-88918642D01*
X137397702Y-89061553D01*
X137170054Y-88720853D01*
X136688285Y-88398946D01*
X136120000Y-88285907D01*
X135551715Y-88398946D01*
X135069946Y-88720853D01*
X134748039Y-89202622D01*
X134635000Y-89770907D01*
X128935000Y-89770907D01*
X128935000Y-87224669D01*
X128951441Y-87214090D01*
X128999134Y-87144289D01*
X129035910Y-87201441D01*
X129248110Y-87346431D01*
X129500000Y-87397440D01*
X130000000Y-87397440D01*
X130235317Y-87353162D01*
X130451441Y-87214090D01*
X130596431Y-87001890D01*
X130619949Y-86885750D01*
X136415000Y-86885750D01*
X136415000Y-87376310D01*
X136511673Y-87609699D01*
X136690302Y-87788327D01*
X136923691Y-87885000D01*
X137514250Y-87885000D01*
X137673000Y-87726250D01*
X137673000Y-86727000D01*
X136573750Y-86727000D01*
X136415000Y-86885750D01*
X130619949Y-86885750D01*
X130647440Y-86750000D01*
X130647440Y-85850000D01*
X130603162Y-85614683D01*
X130464090Y-85398559D01*
X130318917Y-85299367D01*
X130451441Y-85214090D01*
X130596431Y-85001890D01*
X130647440Y-84750000D01*
X130647440Y-84721296D01*
X130682986Y-84685750D01*
X136415000Y-84685750D01*
X136415000Y-85176310D01*
X136511673Y-85409699D01*
X136601975Y-85500000D01*
X136511673Y-85590301D01*
X136415000Y-85823690D01*
X136415000Y-86314250D01*
X136573750Y-86473000D01*
X137673000Y-86473000D01*
X137673000Y-84527000D01*
X136573750Y-84527000D01*
X136415000Y-84685750D01*
X130682986Y-84685750D01*
X131745046Y-83623690D01*
X136415000Y-83623690D01*
X136415000Y-84114250D01*
X136573750Y-84273000D01*
X137673000Y-84273000D01*
X137673000Y-83273750D01*
X137927000Y-83273750D01*
X137927000Y-84273000D01*
X137947000Y-84273000D01*
X137947000Y-84527000D01*
X137927000Y-84527000D01*
X137927000Y-86473000D01*
X137947000Y-86473000D01*
X137947000Y-86727000D01*
X137927000Y-86727000D01*
X137927000Y-87726250D01*
X138085750Y-87885000D01*
X138676309Y-87885000D01*
X138909698Y-87788327D01*
X139088327Y-87609699D01*
X139144654Y-87473713D01*
X139146838Y-87485317D01*
X139285910Y-87701441D01*
X139498110Y-87846431D01*
X139750000Y-87897440D01*
X139815000Y-87897440D01*
X139815000Y-88882022D01*
X139426924Y-88528355D01*
X139016890Y-88358524D01*
X138787000Y-88479845D01*
X138787000Y-89673000D01*
X138807000Y-89673000D01*
X138807000Y-89927000D01*
X138787000Y-89927000D01*
X138787000Y-91120155D01*
X139016890Y-91241476D01*
X139426924Y-91071645D01*
X139855183Y-90681358D01*
X139922298Y-90538447D01*
X140149946Y-90879147D01*
X140631715Y-91201054D01*
X141200000Y-91314093D01*
X141768285Y-91201054D01*
X142250054Y-90879147D01*
X142277850Y-90837548D01*
X142286838Y-90885317D01*
X142425910Y-91101441D01*
X142638110Y-91246431D01*
X142890000Y-91297440D01*
X144590000Y-91297440D01*
X144825317Y-91253162D01*
X145041441Y-91114090D01*
X145186431Y-90901890D01*
X145237440Y-90650000D01*
X145237440Y-88950000D01*
X145193162Y-88714683D01*
X145054090Y-88498559D01*
X144841890Y-88353569D01*
X144590000Y-88302560D01*
X144425000Y-88302560D01*
X144425000Y-87540000D01*
X144372857Y-87277862D01*
X144224368Y-87055632D01*
X142754486Y-85585750D01*
X145175000Y-85585750D01*
X145175000Y-86276309D01*
X145271673Y-86509698D01*
X145450301Y-86688327D01*
X145683690Y-86785000D01*
X146374250Y-86785000D01*
X146533000Y-86626250D01*
X146533000Y-85427000D01*
X145333750Y-85427000D01*
X145175000Y-85585750D01*
X142754486Y-85585750D01*
X141897440Y-84728704D01*
X141897440Y-84323691D01*
X145175000Y-84323691D01*
X145175000Y-85014250D01*
X145333750Y-85173000D01*
X146533000Y-85173000D01*
X146533000Y-83973750D01*
X146787000Y-83973750D01*
X146787000Y-85173000D01*
X146807000Y-85173000D01*
X146807000Y-85427000D01*
X146787000Y-85427000D01*
X146787000Y-86626250D01*
X146945750Y-86785000D01*
X147636310Y-86785000D01*
X147869699Y-86688327D01*
X148048327Y-86509698D01*
X148120597Y-86335223D01*
X148149946Y-86379147D01*
X148631715Y-86701054D01*
X149200000Y-86814093D01*
X149768285Y-86701054D01*
X150250054Y-86379147D01*
X150571961Y-85897378D01*
X150685000Y-85329093D01*
X150685000Y-85270907D01*
X150571961Y-84702622D01*
X150250054Y-84220853D01*
X149768285Y-83898946D01*
X149200000Y-83785907D01*
X148631715Y-83898946D01*
X148149946Y-84220853D01*
X148120597Y-84264777D01*
X148048327Y-84090302D01*
X147869699Y-83911673D01*
X147636310Y-83815000D01*
X146945750Y-83815000D01*
X146787000Y-83973750D01*
X146533000Y-83973750D01*
X146374250Y-83815000D01*
X145683690Y-83815000D01*
X145450301Y-83911673D01*
X145271673Y-84090302D01*
X145175000Y-84323691D01*
X141897440Y-84323691D01*
X141897440Y-83750000D01*
X141853162Y-83514683D01*
X141714090Y-83298559D01*
X141501890Y-83153569D01*
X141250000Y-83102560D01*
X139750000Y-83102560D01*
X139514683Y-83146838D01*
X139298559Y-83285910D01*
X139153569Y-83498110D01*
X139146809Y-83531490D01*
X139088327Y-83390301D01*
X138909698Y-83211673D01*
X138676309Y-83115000D01*
X138085750Y-83115000D01*
X137927000Y-83273750D01*
X137673000Y-83273750D01*
X137514250Y-83115000D01*
X136923691Y-83115000D01*
X136690302Y-83211673D01*
X136511673Y-83390301D01*
X136415000Y-83623690D01*
X131745046Y-83623690D01*
X132383737Y-82984999D01*
X152671871Y-82984999D01*
X152615000Y-83270907D01*
X152615000Y-83329093D01*
X152728039Y-83897378D01*
X153049946Y-84379147D01*
X153531715Y-84701054D01*
X154100000Y-84814093D01*
X154668285Y-84701054D01*
X155150054Y-84379147D01*
X155377702Y-84038447D01*
X155444817Y-84181358D01*
X155873076Y-84571645D01*
X156283110Y-84741476D01*
X156513000Y-84620155D01*
X156513000Y-83427000D01*
X156493000Y-83427000D01*
X156493000Y-83173000D01*
X156513000Y-83173000D01*
X156513000Y-83153000D01*
X156767000Y-83153000D01*
X156767000Y-83173000D01*
X156787000Y-83173000D01*
X156787000Y-83427000D01*
X156767000Y-83427000D01*
X156767000Y-84620155D01*
X156996890Y-84741476D01*
X157406924Y-84571645D01*
X157835183Y-84181358D01*
X157902298Y-84038447D01*
X158129946Y-84379147D01*
X158611715Y-84701054D01*
X159180000Y-84814093D01*
X159748285Y-84701054D01*
X160230054Y-84379147D01*
X160257850Y-84337548D01*
X160266838Y-84385317D01*
X160405910Y-84601441D01*
X160618110Y-84746431D01*
X160870000Y-84797440D01*
X162570000Y-84797440D01*
X162805317Y-84753162D01*
X163021441Y-84614090D01*
X163166431Y-84401890D01*
X163217440Y-84150000D01*
X163217440Y-82450000D01*
X163173162Y-82214683D01*
X163041452Y-82010000D01*
X167685511Y-82010000D01*
X167369946Y-82220853D01*
G36*
X112153569Y-82198110D02*
X112102560Y-82450000D01*
X112102560Y-84150000D01*
X112146838Y-84385317D01*
X112285910Y-84601441D01*
X112498110Y-84746431D01*
X112750000Y-84797440D01*
X114450000Y-84797440D01*
X114685317Y-84753162D01*
X114901441Y-84614090D01*
X115046431Y-84401890D01*
X115060086Y-84334459D01*
X115089946Y-84379147D01*
X115571715Y-84701054D01*
X116140000Y-84814093D01*
X116708285Y-84701054D01*
X117190054Y-84379147D01*
X117417702Y-84038447D01*
X117484817Y-84181358D01*
X117913076Y-84571645D01*
X118323110Y-84741476D01*
X118553000Y-84620155D01*
X118553000Y-83427000D01*
X118533000Y-83427000D01*
X118533000Y-83173000D01*
X118553000Y-83173000D01*
X118553000Y-83153000D01*
X118807000Y-83153000D01*
X118807000Y-83173000D01*
X118827000Y-83173000D01*
X118827000Y-83427000D01*
X118807000Y-83427000D01*
X118807000Y-84620155D01*
X119036890Y-84741476D01*
X119446924Y-84571645D01*
X119875183Y-84181358D01*
X119942298Y-84038447D01*
X120169946Y-84379147D01*
X120651715Y-84701054D01*
X121220000Y-84814093D01*
X121788285Y-84701054D01*
X122270054Y-84379147D01*
X122591961Y-83897378D01*
X122705000Y-83329093D01*
X122705000Y-83270907D01*
X122591961Y-82702622D01*
X122270054Y-82220853D01*
X121954489Y-82010000D01*
X128601262Y-82010000D01*
X127365631Y-83245631D01*
X127217142Y-83467861D01*
X127164999Y-83729999D01*
X127164999Y-84870001D01*
X127217142Y-85132139D01*
X127365631Y-85354369D01*
X127487108Y-85475846D01*
X127403569Y-85598110D01*
X127352560Y-85850000D01*
X127352560Y-86750000D01*
X127396838Y-86985317D01*
X127535910Y-87201441D01*
X127565000Y-87221317D01*
X127565000Y-94760592D01*
X123194978Y-99130614D01*
X122990693Y-99089979D01*
X120458968Y-99089979D01*
X120497440Y-98900000D01*
X120497440Y-98471296D01*
X120734368Y-98234368D01*
X120882857Y-98012138D01*
X120935000Y-97750000D01*
X120935000Y-96540854D01*
X121135317Y-96503162D01*
X121351441Y-96364090D01*
X121373384Y-96331975D01*
X121385910Y-96351441D01*
X121598110Y-96496431D01*
X121850000Y-96547440D01*
X123150000Y-96547440D01*
X123385317Y-96503162D01*
X123601441Y-96364090D01*
X123746431Y-96151890D01*
X123797440Y-95900000D01*
X123797440Y-94400000D01*
X123753162Y-94164683D01*
X123614090Y-93948559D01*
X123401890Y-93803569D01*
X123388803Y-93800919D01*
X123601441Y-93664090D01*
X123746431Y-93451890D01*
X123797440Y-93200000D01*
X123797440Y-91700000D01*
X123753162Y-91464683D01*
X123614090Y-91248559D01*
X123401890Y-91103569D01*
X123185000Y-91059648D01*
X123185000Y-89937332D01*
X123292192Y-89830327D01*
X123434838Y-89486799D01*
X123435162Y-89114833D01*
X123293117Y-88771057D01*
X123030327Y-88507808D01*
X122686799Y-88365162D01*
X122314833Y-88364838D01*
X121971057Y-88506883D01*
X121707808Y-88769673D01*
X121565162Y-89113201D01*
X121564838Y-89485167D01*
X121706883Y-89828943D01*
X121815000Y-89937249D01*
X121815000Y-91059146D01*
X121614683Y-91096838D01*
X121398559Y-91235910D01*
X121376616Y-91268025D01*
X121364090Y-91248559D01*
X121151890Y-91103569D01*
X120900000Y-91052560D01*
X119600000Y-91052560D01*
X119364683Y-91096838D01*
X119213109Y-91194373D01*
X119134367Y-91115631D01*
X118912137Y-90967142D01*
X118649999Y-90914999D01*
X113750001Y-90914999D01*
X113487863Y-90967142D01*
X113285195Y-91102560D01*
X111500000Y-91102560D01*
X111264683Y-91146838D01*
X111048559Y-91285910D01*
X111032277Y-91309740D01*
X110876890Y-91203569D01*
X110625000Y-91152560D01*
X109375000Y-91152560D01*
X109139683Y-91196838D01*
X108999273Y-91287190D01*
X108876890Y-91203569D01*
X108685000Y-91164710D01*
X108685000Y-90937332D01*
X108792192Y-90830327D01*
X108934838Y-90486799D01*
X108935162Y-90114833D01*
X108793117Y-89771057D01*
X108530327Y-89507808D01*
X108186799Y-89365162D01*
X107814833Y-89364838D01*
X107471057Y-89506883D01*
X107207808Y-89769673D01*
X107065162Y-90113201D01*
X107064838Y-90485167D01*
X107206883Y-90828943D01*
X107315000Y-90937249D01*
X107315000Y-91163850D01*
X107139683Y-91196838D01*
X106923559Y-91335910D01*
X106778569Y-91548110D01*
X106727560Y-91800000D01*
X106727560Y-93300000D01*
X106771838Y-93535317D01*
X106910910Y-93751441D01*
X106980711Y-93799134D01*
X106923559Y-93835910D01*
X106778569Y-94048110D01*
X106727560Y-94300000D01*
X106727560Y-95800000D01*
X106771838Y-96035317D01*
X106910910Y-96251441D01*
X107065000Y-96356726D01*
X107065000Y-97027560D01*
X107000000Y-97027560D01*
X106764683Y-97071838D01*
X106548559Y-97210910D01*
X106403569Y-97423110D01*
X106352560Y-97675000D01*
X106352560Y-98925000D01*
X106396838Y-99160317D01*
X106535910Y-99376441D01*
X106748110Y-99521431D01*
X107000000Y-99572440D01*
X108500000Y-99572440D01*
X108735317Y-99528162D01*
X108951441Y-99389090D01*
X108997969Y-99320994D01*
X109140302Y-99463327D01*
X109373691Y-99560000D01*
X109964250Y-99560000D01*
X110123000Y-99401250D01*
X110123000Y-98427000D01*
X110103000Y-98427000D01*
X110103000Y-98173000D01*
X110123000Y-98173000D01*
X110123000Y-97198750D01*
X109964250Y-97040000D01*
X109373691Y-97040000D01*
X109140302Y-97136673D01*
X108999064Y-97277910D01*
X108964090Y-97223559D01*
X108751890Y-97078569D01*
X108500000Y-97027560D01*
X108435000Y-97027560D01*
X108435000Y-96447440D01*
X108625000Y-96447440D01*
X108860317Y-96403162D01*
X109000727Y-96312810D01*
X109123110Y-96396431D01*
X109375000Y-96447440D01*
X110625000Y-96447440D01*
X110860317Y-96403162D01*
X111030782Y-96293471D01*
X111035910Y-96301441D01*
X111248110Y-96446431D01*
X111500000Y-96497440D01*
X112128704Y-96497440D01*
X112633824Y-97002560D01*
X111900000Y-97002560D01*
X111664683Y-97046838D01*
X111448559Y-97185910D01*
X111432475Y-97209450D01*
X111359698Y-97136673D01*
X111126309Y-97040000D01*
X110535750Y-97040000D01*
X110377000Y-97198750D01*
X110377000Y-98173000D01*
X110397000Y-98173000D01*
X110397000Y-98427000D01*
X110377000Y-98427000D01*
X110377000Y-99401250D01*
X110535750Y-99560000D01*
X111126309Y-99560000D01*
X111359698Y-99463327D01*
X111430301Y-99392724D01*
X111435910Y-99401441D01*
X111648110Y-99546431D01*
X111900000Y-99597440D01*
X112065000Y-99597440D01*
X112065000Y-100913850D01*
X111889683Y-100946838D01*
X111673559Y-101085910D01*
X111585356Y-101215000D01*
X109400000Y-101215000D01*
X109163024Y-101262138D01*
X109137862Y-101267143D01*
X108991421Y-101364992D01*
X108814833Y-101364838D01*
X108471057Y-101506883D01*
X108207808Y-101769673D01*
X108065162Y-102113201D01*
X108064838Y-102485167D01*
X108068099Y-102493060D01*
X107935163Y-102813204D01*
X107934839Y-103185170D01*
X108076884Y-103528946D01*
X108339674Y-103792195D01*
X108683202Y-103934841D01*
X109055168Y-103935165D01*
X109398944Y-103793120D01*
X109662193Y-103530330D01*
X109734379Y-103356487D01*
X109969673Y-103592192D01*
X110313201Y-103734838D01*
X110641330Y-103735124D01*
X110634403Y-103751847D01*
X110615000Y-103771250D01*
X110615000Y-103828750D01*
X110634403Y-103848153D01*
X110711673Y-104034699D01*
X110733338Y-104056364D01*
X110653569Y-104173110D01*
X110638442Y-104247808D01*
X110615000Y-104271250D01*
X110615000Y-104301310D01*
X110623468Y-104321753D01*
X110614710Y-104365000D01*
X110333998Y-104365000D01*
X110071860Y-104417143D01*
X109849630Y-104565632D01*
X109565632Y-104849630D01*
X109417143Y-105071860D01*
X109365000Y-105333998D01*
X109365000Y-107334544D01*
X108734555Y-107964989D01*
X108601144Y-107964989D01*
X108339006Y-108017132D01*
X108117707Y-108164999D01*
X107983987Y-108164999D01*
X107721849Y-108217142D01*
X107500564Y-108365000D01*
X107314818Y-108364838D01*
X106971042Y-108506883D01*
X106707793Y-108769673D01*
X106565147Y-109113201D01*
X106564823Y-109485167D01*
X106706868Y-109828943D01*
X106969658Y-110092192D01*
X107313186Y-110234838D01*
X107685152Y-110235162D01*
X107849967Y-110167062D01*
X108013189Y-110234838D01*
X108065056Y-110234883D01*
X108065029Y-110266235D01*
X107678704Y-110652560D01*
X107375000Y-110652560D01*
X107139683Y-110696838D01*
X106923559Y-110835910D01*
X106778569Y-111048110D01*
X106727560Y-111300000D01*
X106727560Y-112800000D01*
X106771838Y-113035317D01*
X106910910Y-113251441D01*
X106980711Y-113299134D01*
X106923559Y-113335910D01*
X106778569Y-113548110D01*
X106727560Y-113800000D01*
X106727560Y-115300000D01*
X106771838Y-115535317D01*
X106910910Y-115751441D01*
X107123110Y-115896431D01*
X107375000Y-115947440D01*
X107630966Y-115947440D01*
X107415633Y-116162773D01*
X107267144Y-116385003D01*
X107237132Y-116535882D01*
X107216250Y-116515000D01*
X107123691Y-116515000D01*
X106890302Y-116611673D01*
X106749064Y-116752910D01*
X106717904Y-116704486D01*
X106792192Y-116630327D01*
X106934838Y-116286799D01*
X106935162Y-115914833D01*
X106793117Y-115571057D01*
X106530327Y-115307808D01*
X106186799Y-115165162D01*
X105814833Y-115164838D01*
X105471057Y-115306883D01*
X105207808Y-115569673D01*
X105065162Y-115913201D01*
X105064838Y-116285167D01*
X105206883Y-116628943D01*
X105284415Y-116706610D01*
X105153569Y-116898110D01*
X105102560Y-117150000D01*
X105102560Y-118050000D01*
X105146838Y-118285317D01*
X105285910Y-118501441D01*
X105498110Y-118646431D01*
X105750000Y-118697440D01*
X106250000Y-118697440D01*
X106439479Y-118661787D01*
X105026266Y-120075000D01*
X104323068Y-120075000D01*
X104079147Y-119709946D01*
X103738447Y-119482298D01*
X103881358Y-119415183D01*
X104271645Y-118986924D01*
X104441476Y-118576890D01*
X104320155Y-118347000D01*
X103127000Y-118347000D01*
X103127000Y-118367000D01*
X102873000Y-118367000D01*
X102873000Y-118347000D01*
X102853000Y-118347000D01*
X102853000Y-118093000D01*
X102873000Y-118093000D01*
X102873000Y-118073000D01*
X103127000Y-118073000D01*
X103127000Y-118093000D01*
X104320155Y-118093000D01*
X104441476Y-117863110D01*
X104271645Y-117453076D01*
X103881358Y-117024817D01*
X103738447Y-116957702D01*
X104079147Y-116730054D01*
X104401054Y-116248285D01*
X104514093Y-115680000D01*
X104401054Y-115111715D01*
X104079147Y-114629946D01*
X103597378Y-114308039D01*
X103029093Y-114195000D01*
X102970907Y-114195000D01*
X102402622Y-114308039D01*
X101920853Y-114629946D01*
X101710000Y-114945511D01*
X101710000Y-111054489D01*
X101920853Y-111370054D01*
X102402622Y-111691961D01*
X102970907Y-111805000D01*
X103029093Y-111805000D01*
X103597378Y-111691961D01*
X104079147Y-111370054D01*
X104401054Y-110888285D01*
X104514093Y-110320000D01*
X104401054Y-109751715D01*
X104079147Y-109269946D01*
X103749974Y-109050000D01*
X104079147Y-108830054D01*
X104401054Y-108348285D01*
X104514093Y-107780000D01*
X104401054Y-107211715D01*
X104079147Y-106729946D01*
X103749974Y-106510000D01*
X104079147Y-106290054D01*
X104401054Y-105808285D01*
X104514093Y-105240000D01*
X104401054Y-104671715D01*
X104079147Y-104189946D01*
X103749974Y-103970000D01*
X104079147Y-103750054D01*
X104401054Y-103268285D01*
X104514093Y-102700000D01*
X104401054Y-102131715D01*
X104079147Y-101649946D01*
X103749974Y-101430000D01*
X104079147Y-101210054D01*
X104401054Y-100728285D01*
X104514093Y-100160000D01*
X104401054Y-99591715D01*
X104079147Y-99109946D01*
X103749974Y-98890000D01*
X104079147Y-98670054D01*
X104401054Y-98188285D01*
X104514093Y-97620000D01*
X104401054Y-97051715D01*
X104079147Y-96569946D01*
X103749974Y-96350000D01*
X104079147Y-96130054D01*
X104401054Y-95648285D01*
X104514093Y-95080000D01*
X104401054Y-94511715D01*
X104079147Y-94029946D01*
X104037548Y-94002150D01*
X104085317Y-93993162D01*
X104301441Y-93854090D01*
X104446431Y-93641890D01*
X104497440Y-93390000D01*
X104497440Y-91690000D01*
X104453162Y-91454683D01*
X104314090Y-91238559D01*
X104101890Y-91093569D01*
X103850000Y-91042560D01*
X102150000Y-91042560D01*
X101914683Y-91086838D01*
X101710000Y-91218548D01*
X101710000Y-84049974D01*
X101929946Y-84379147D01*
X102411715Y-84701054D01*
X102980000Y-84814093D01*
X103548285Y-84701054D01*
X104030054Y-84379147D01*
X104257702Y-84038447D01*
X104324817Y-84181358D01*
X104753076Y-84571645D01*
X105163110Y-84741476D01*
X105393000Y-84620155D01*
X105393000Y-83427000D01*
X105373000Y-83427000D01*
X105373000Y-83173000D01*
X105393000Y-83173000D01*
X105393000Y-83153000D01*
X105647000Y-83153000D01*
X105647000Y-83173000D01*
X105667000Y-83173000D01*
X105667000Y-83427000D01*
X105647000Y-83427000D01*
X105647000Y-84620155D01*
X105876890Y-84741476D01*
X106286924Y-84571645D01*
X106715183Y-84181358D01*
X106782298Y-84038447D01*
X107009946Y-84379147D01*
X107491715Y-84701054D01*
X108060000Y-84814093D01*
X108628285Y-84701054D01*
X109110054Y-84379147D01*
X109137850Y-84337548D01*
X109146838Y-84385317D01*
X109285910Y-84601441D01*
X109498110Y-84746431D01*
X109750000Y-84797440D01*
X111450000Y-84797440D01*
X111685317Y-84753162D01*
X111901441Y-84614090D01*
X112046431Y-84401890D01*
X112097440Y-84150000D01*
X112097440Y-82450000D01*
X112053162Y-82214683D01*
X111921452Y-82010000D01*
X112282099Y-82010000D01*
X112153569Y-82198110D01*
X112153569Y-82198110D01*
G37*
X112153569Y-82198110D02*
X112102560Y-82450000D01*
X112102560Y-84150000D01*
X112146838Y-84385317D01*
X112285910Y-84601441D01*
X112498110Y-84746431D01*
X112750000Y-84797440D01*
X114450000Y-84797440D01*
X114685317Y-84753162D01*
X114901441Y-84614090D01*
X115046431Y-84401890D01*
X115060086Y-84334459D01*
X115089946Y-84379147D01*
X115571715Y-84701054D01*
X116140000Y-84814093D01*
X116708285Y-84701054D01*
X117190054Y-84379147D01*
X117417702Y-84038447D01*
X117484817Y-84181358D01*
X117913076Y-84571645D01*
X118323110Y-84741476D01*
X118553000Y-84620155D01*
X118553000Y-83427000D01*
X118533000Y-83427000D01*
X118533000Y-83173000D01*
X118553000Y-83173000D01*
X118553000Y-83153000D01*
X118807000Y-83153000D01*
X118807000Y-83173000D01*
X118827000Y-83173000D01*
X118827000Y-83427000D01*
X118807000Y-83427000D01*
X118807000Y-84620155D01*
X119036890Y-84741476D01*
X119446924Y-84571645D01*
X119875183Y-84181358D01*
X119942298Y-84038447D01*
X120169946Y-84379147D01*
X120651715Y-84701054D01*
X121220000Y-84814093D01*
X121788285Y-84701054D01*
X122270054Y-84379147D01*
X122591961Y-83897378D01*
X122705000Y-83329093D01*
X122705000Y-83270907D01*
X122591961Y-82702622D01*
X122270054Y-82220853D01*
X121954489Y-82010000D01*
X128601262Y-82010000D01*
X127365631Y-83245631D01*
X127217142Y-83467861D01*
X127164999Y-83729999D01*
X127164999Y-84870001D01*
X127217142Y-85132139D01*
X127365631Y-85354369D01*
X127487108Y-85475846D01*
X127403569Y-85598110D01*
X127352560Y-85850000D01*
X127352560Y-86750000D01*
X127396838Y-86985317D01*
X127535910Y-87201441D01*
X127565000Y-87221317D01*
X127565000Y-94760592D01*
X123194978Y-99130614D01*
X122990693Y-99089979D01*
X120458968Y-99089979D01*
X120497440Y-98900000D01*
X120497440Y-98471296D01*
X120734368Y-98234368D01*
X120882857Y-98012138D01*
X120935000Y-97750000D01*
X120935000Y-96540854D01*
X121135317Y-96503162D01*
X121351441Y-96364090D01*
X121373384Y-96331975D01*
X121385910Y-96351441D01*
X121598110Y-96496431D01*
X121850000Y-96547440D01*
X123150000Y-96547440D01*
X123385317Y-96503162D01*
X123601441Y-96364090D01*
X123746431Y-96151890D01*
X123797440Y-95900000D01*
X123797440Y-94400000D01*
X123753162Y-94164683D01*
X123614090Y-93948559D01*
X123401890Y-93803569D01*
X123388803Y-93800919D01*
X123601441Y-93664090D01*
X123746431Y-93451890D01*
X123797440Y-93200000D01*
X123797440Y-91700000D01*
X123753162Y-91464683D01*
X123614090Y-91248559D01*
X123401890Y-91103569D01*
X123185000Y-91059648D01*
X123185000Y-89937332D01*
X123292192Y-89830327D01*
X123434838Y-89486799D01*
X123435162Y-89114833D01*
X123293117Y-88771057D01*
X123030327Y-88507808D01*
X122686799Y-88365162D01*
X122314833Y-88364838D01*
X121971057Y-88506883D01*
X121707808Y-88769673D01*
X121565162Y-89113201D01*
X121564838Y-89485167D01*
X121706883Y-89828943D01*
X121815000Y-89937249D01*
X121815000Y-91059146D01*
X121614683Y-91096838D01*
X121398559Y-91235910D01*
X121376616Y-91268025D01*
X121364090Y-91248559D01*
X121151890Y-91103569D01*
X120900000Y-91052560D01*
X119600000Y-91052560D01*
X119364683Y-91096838D01*
X119213109Y-91194373D01*
X119134367Y-91115631D01*
X118912137Y-90967142D01*
X118649999Y-90914999D01*
X113750001Y-90914999D01*
X113487863Y-90967142D01*
X113285195Y-91102560D01*
X111500000Y-91102560D01*
X111264683Y-91146838D01*
X111048559Y-91285910D01*
X111032277Y-91309740D01*
X110876890Y-91203569D01*
X110625000Y-91152560D01*
X109375000Y-91152560D01*
X109139683Y-91196838D01*
X108999273Y-91287190D01*
X108876890Y-91203569D01*
X108685000Y-91164710D01*
X108685000Y-90937332D01*
X108792192Y-90830327D01*
X108934838Y-90486799D01*
X108935162Y-90114833D01*
X108793117Y-89771057D01*
X108530327Y-89507808D01*
X108186799Y-89365162D01*
X107814833Y-89364838D01*
X107471057Y-89506883D01*
X107207808Y-89769673D01*
X107065162Y-90113201D01*
X107064838Y-90485167D01*
X107206883Y-90828943D01*
X107315000Y-90937249D01*
X107315000Y-91163850D01*
X107139683Y-91196838D01*
X106923559Y-91335910D01*
X106778569Y-91548110D01*
X106727560Y-91800000D01*
X106727560Y-93300000D01*
X106771838Y-93535317D01*
X106910910Y-93751441D01*
X106980711Y-93799134D01*
X106923559Y-93835910D01*
X106778569Y-94048110D01*
X106727560Y-94300000D01*
X106727560Y-95800000D01*
X106771838Y-96035317D01*
X106910910Y-96251441D01*
X107065000Y-96356726D01*
X107065000Y-97027560D01*
X107000000Y-97027560D01*
X106764683Y-97071838D01*
X106548559Y-97210910D01*
X106403569Y-97423110D01*
X106352560Y-97675000D01*
X106352560Y-98925000D01*
X106396838Y-99160317D01*
X106535910Y-99376441D01*
X106748110Y-99521431D01*
X107000000Y-99572440D01*
X108500000Y-99572440D01*
X108735317Y-99528162D01*
X108951441Y-99389090D01*
X108997969Y-99320994D01*
X109140302Y-99463327D01*
X109373691Y-99560000D01*
X109964250Y-99560000D01*
X110123000Y-99401250D01*
X110123000Y-98427000D01*
X110103000Y-98427000D01*
X110103000Y-98173000D01*
X110123000Y-98173000D01*
X110123000Y-97198750D01*
X109964250Y-97040000D01*
X109373691Y-97040000D01*
X109140302Y-97136673D01*
X108999064Y-97277910D01*
X108964090Y-97223559D01*
X108751890Y-97078569D01*
X108500000Y-97027560D01*
X108435000Y-97027560D01*
X108435000Y-96447440D01*
X108625000Y-96447440D01*
X108860317Y-96403162D01*
X109000727Y-96312810D01*
X109123110Y-96396431D01*
X109375000Y-96447440D01*
X110625000Y-96447440D01*
X110860317Y-96403162D01*
X111030782Y-96293471D01*
X111035910Y-96301441D01*
X111248110Y-96446431D01*
X111500000Y-96497440D01*
X112128704Y-96497440D01*
X112633824Y-97002560D01*
X111900000Y-97002560D01*
X111664683Y-97046838D01*
X111448559Y-97185910D01*
X111432475Y-97209450D01*
X111359698Y-97136673D01*
X111126309Y-97040000D01*
X110535750Y-97040000D01*
X110377000Y-97198750D01*
X110377000Y-98173000D01*
X110397000Y-98173000D01*
X110397000Y-98427000D01*
X110377000Y-98427000D01*
X110377000Y-99401250D01*
X110535750Y-99560000D01*
X111126309Y-99560000D01*
X111359698Y-99463327D01*
X111430301Y-99392724D01*
X111435910Y-99401441D01*
X111648110Y-99546431D01*
X111900000Y-99597440D01*
X112065000Y-99597440D01*
X112065000Y-100913850D01*
X111889683Y-100946838D01*
X111673559Y-101085910D01*
X111585356Y-101215000D01*
X109400000Y-101215000D01*
X109163024Y-101262138D01*
X109137862Y-101267143D01*
X108991421Y-101364992D01*
X108814833Y-101364838D01*
X108471057Y-101506883D01*
X108207808Y-101769673D01*
X108065162Y-102113201D01*
X108064838Y-102485167D01*
X108068099Y-102493060D01*
X107935163Y-102813204D01*
X107934839Y-103185170D01*
X108076884Y-103528946D01*
X108339674Y-103792195D01*
X108683202Y-103934841D01*
X109055168Y-103935165D01*
X109398944Y-103793120D01*
X109662193Y-103530330D01*
X109734379Y-103356487D01*
X109969673Y-103592192D01*
X110313201Y-103734838D01*
X110641330Y-103735124D01*
X110634403Y-103751847D01*
X110615000Y-103771250D01*
X110615000Y-103828750D01*
X110634403Y-103848153D01*
X110711673Y-104034699D01*
X110733338Y-104056364D01*
X110653569Y-104173110D01*
X110638442Y-104247808D01*
X110615000Y-104271250D01*
X110615000Y-104301310D01*
X110623468Y-104321753D01*
X110614710Y-104365000D01*
X110333998Y-104365000D01*
X110071860Y-104417143D01*
X109849630Y-104565632D01*
X109565632Y-104849630D01*
X109417143Y-105071860D01*
X109365000Y-105333998D01*
X109365000Y-107334544D01*
X108734555Y-107964989D01*
X108601144Y-107964989D01*
X108339006Y-108017132D01*
X108117707Y-108164999D01*
X107983987Y-108164999D01*
X107721849Y-108217142D01*
X107500564Y-108365000D01*
X107314818Y-108364838D01*
X106971042Y-108506883D01*
X106707793Y-108769673D01*
X106565147Y-109113201D01*
X106564823Y-109485167D01*
X106706868Y-109828943D01*
X106969658Y-110092192D01*
X107313186Y-110234838D01*
X107685152Y-110235162D01*
X107849967Y-110167062D01*
X108013189Y-110234838D01*
X108065056Y-110234883D01*
X108065029Y-110266235D01*
X107678704Y-110652560D01*
X107375000Y-110652560D01*
X107139683Y-110696838D01*
X106923559Y-110835910D01*
X106778569Y-111048110D01*
X106727560Y-111300000D01*
X106727560Y-112800000D01*
X106771838Y-113035317D01*
X106910910Y-113251441D01*
X106980711Y-113299134D01*
X106923559Y-113335910D01*
X106778569Y-113548110D01*
X106727560Y-113800000D01*
X106727560Y-115300000D01*
X106771838Y-115535317D01*
X106910910Y-115751441D01*
X107123110Y-115896431D01*
X107375000Y-115947440D01*
X107630966Y-115947440D01*
X107415633Y-116162773D01*
X107267144Y-116385003D01*
X107237132Y-116535882D01*
X107216250Y-116515000D01*
X107123691Y-116515000D01*
X106890302Y-116611673D01*
X106749064Y-116752910D01*
X106717904Y-116704486D01*
X106792192Y-116630327D01*
X106934838Y-116286799D01*
X106935162Y-115914833D01*
X106793117Y-115571057D01*
X106530327Y-115307808D01*
X106186799Y-115165162D01*
X105814833Y-115164838D01*
X105471057Y-115306883D01*
X105207808Y-115569673D01*
X105065162Y-115913201D01*
X105064838Y-116285167D01*
X105206883Y-116628943D01*
X105284415Y-116706610D01*
X105153569Y-116898110D01*
X105102560Y-117150000D01*
X105102560Y-118050000D01*
X105146838Y-118285317D01*
X105285910Y-118501441D01*
X105498110Y-118646431D01*
X105750000Y-118697440D01*
X106250000Y-118697440D01*
X106439479Y-118661787D01*
X105026266Y-120075000D01*
X104323068Y-120075000D01*
X104079147Y-119709946D01*
X103738447Y-119482298D01*
X103881358Y-119415183D01*
X104271645Y-118986924D01*
X104441476Y-118576890D01*
X104320155Y-118347000D01*
X103127000Y-118347000D01*
X103127000Y-118367000D01*
X102873000Y-118367000D01*
X102873000Y-118347000D01*
X102853000Y-118347000D01*
X102853000Y-118093000D01*
X102873000Y-118093000D01*
X102873000Y-118073000D01*
X103127000Y-118073000D01*
X103127000Y-118093000D01*
X104320155Y-118093000D01*
X104441476Y-117863110D01*
X104271645Y-117453076D01*
X103881358Y-117024817D01*
X103738447Y-116957702D01*
X104079147Y-116730054D01*
X104401054Y-116248285D01*
X104514093Y-115680000D01*
X104401054Y-115111715D01*
X104079147Y-114629946D01*
X103597378Y-114308039D01*
X103029093Y-114195000D01*
X102970907Y-114195000D01*
X102402622Y-114308039D01*
X101920853Y-114629946D01*
X101710000Y-114945511D01*
X101710000Y-111054489D01*
X101920853Y-111370054D01*
X102402622Y-111691961D01*
X102970907Y-111805000D01*
X103029093Y-111805000D01*
X103597378Y-111691961D01*
X104079147Y-111370054D01*
X104401054Y-110888285D01*
X104514093Y-110320000D01*
X104401054Y-109751715D01*
X104079147Y-109269946D01*
X103749974Y-109050000D01*
X104079147Y-108830054D01*
X104401054Y-108348285D01*
X104514093Y-107780000D01*
X104401054Y-107211715D01*
X104079147Y-106729946D01*
X103749974Y-106510000D01*
X104079147Y-106290054D01*
X104401054Y-105808285D01*
X104514093Y-105240000D01*
X104401054Y-104671715D01*
X104079147Y-104189946D01*
X103749974Y-103970000D01*
X104079147Y-103750054D01*
X104401054Y-103268285D01*
X104514093Y-102700000D01*
X104401054Y-102131715D01*
X104079147Y-101649946D01*
X103749974Y-101430000D01*
X104079147Y-101210054D01*
X104401054Y-100728285D01*
X104514093Y-100160000D01*
X104401054Y-99591715D01*
X104079147Y-99109946D01*
X103749974Y-98890000D01*
X104079147Y-98670054D01*
X104401054Y-98188285D01*
X104514093Y-97620000D01*
X104401054Y-97051715D01*
X104079147Y-96569946D01*
X103749974Y-96350000D01*
X104079147Y-96130054D01*
X104401054Y-95648285D01*
X104514093Y-95080000D01*
X104401054Y-94511715D01*
X104079147Y-94029946D01*
X104037548Y-94002150D01*
X104085317Y-93993162D01*
X104301441Y-93854090D01*
X104446431Y-93641890D01*
X104497440Y-93390000D01*
X104497440Y-91690000D01*
X104453162Y-91454683D01*
X104314090Y-91238559D01*
X104101890Y-91093569D01*
X103850000Y-91042560D01*
X102150000Y-91042560D01*
X101914683Y-91086838D01*
X101710000Y-91218548D01*
X101710000Y-84049974D01*
X101929946Y-84379147D01*
X102411715Y-84701054D01*
X102980000Y-84814093D01*
X103548285Y-84701054D01*
X104030054Y-84379147D01*
X104257702Y-84038447D01*
X104324817Y-84181358D01*
X104753076Y-84571645D01*
X105163110Y-84741476D01*
X105393000Y-84620155D01*
X105393000Y-83427000D01*
X105373000Y-83427000D01*
X105373000Y-83173000D01*
X105393000Y-83173000D01*
X105393000Y-83153000D01*
X105647000Y-83153000D01*
X105647000Y-83173000D01*
X105667000Y-83173000D01*
X105667000Y-83427000D01*
X105647000Y-83427000D01*
X105647000Y-84620155D01*
X105876890Y-84741476D01*
X106286924Y-84571645D01*
X106715183Y-84181358D01*
X106782298Y-84038447D01*
X107009946Y-84379147D01*
X107491715Y-84701054D01*
X108060000Y-84814093D01*
X108628285Y-84701054D01*
X109110054Y-84379147D01*
X109137850Y-84337548D01*
X109146838Y-84385317D01*
X109285910Y-84601441D01*
X109498110Y-84746431D01*
X109750000Y-84797440D01*
X111450000Y-84797440D01*
X111685317Y-84753162D01*
X111901441Y-84614090D01*
X112046431Y-84401890D01*
X112097440Y-84150000D01*
X112097440Y-82450000D01*
X112053162Y-82214683D01*
X111921452Y-82010000D01*
X112282099Y-82010000D01*
X112153569Y-82198110D01*
G36*
X118722000Y-100973000D02*
X118742000Y-100973000D01*
X118742000Y-101227000D01*
X118722000Y-101227000D01*
X118722000Y-102351250D01*
X118880750Y-102510000D01*
X119021310Y-102510000D01*
X119238122Y-102420194D01*
X119313110Y-102471431D01*
X119565000Y-102522440D01*
X119843704Y-102522440D01*
X120900001Y-103578737D01*
X120900001Y-105077560D01*
X120835000Y-105077560D01*
X120599683Y-105121838D01*
X120547858Y-105155186D01*
X120497857Y-104903817D01*
X120349368Y-104681587D01*
X118225379Y-102557598D01*
X118130418Y-102494147D01*
X118168690Y-102510000D01*
X118309250Y-102510000D01*
X118468000Y-102351250D01*
X118468000Y-101227000D01*
X118448000Y-101227000D01*
X118448000Y-100973000D01*
X118468000Y-100973000D01*
X118468000Y-100953000D01*
X118722000Y-100953000D01*
X118722000Y-100973000D01*
X118722000Y-100973000D01*
G37*
X118722000Y-100973000D02*
X118742000Y-100973000D01*
X118742000Y-101227000D01*
X118722000Y-101227000D01*
X118722000Y-102351250D01*
X118880750Y-102510000D01*
X119021310Y-102510000D01*
X119238122Y-102420194D01*
X119313110Y-102471431D01*
X119565000Y-102522440D01*
X119843704Y-102522440D01*
X120900001Y-103578737D01*
X120900001Y-105077560D01*
X120835000Y-105077560D01*
X120599683Y-105121838D01*
X120547858Y-105155186D01*
X120497857Y-104903817D01*
X120349368Y-104681587D01*
X118225379Y-102557598D01*
X118130418Y-102494147D01*
X118168690Y-102510000D01*
X118309250Y-102510000D01*
X118468000Y-102351250D01*
X118468000Y-101227000D01*
X118448000Y-101227000D01*
X118448000Y-100973000D01*
X118468000Y-100973000D01*
X118468000Y-100953000D01*
X118722000Y-100953000D01*
X118722000Y-100973000D01*
G36*
X177553569Y-82198110D02*
X177502560Y-82450000D01*
X177502560Y-84150000D01*
X177546838Y-84385317D01*
X177685910Y-84601441D01*
X177898110Y-84746431D01*
X177965541Y-84760086D01*
X177920853Y-84789946D01*
X177598946Y-85271715D01*
X177485907Y-85840000D01*
X177598946Y-86408285D01*
X177920853Y-86890054D01*
X178261553Y-87117702D01*
X178118642Y-87184817D01*
X177728355Y-87613076D01*
X177558524Y-88023110D01*
X177679845Y-88253000D01*
X178873000Y-88253000D01*
X178873000Y-88233000D01*
X179127000Y-88233000D01*
X179127000Y-88253000D01*
X179147000Y-88253000D01*
X179147000Y-88507000D01*
X179127000Y-88507000D01*
X179127000Y-88527000D01*
X178873000Y-88527000D01*
X178873000Y-88507000D01*
X177679845Y-88507000D01*
X177558524Y-88736890D01*
X177728355Y-89146924D01*
X178118642Y-89575183D01*
X178261553Y-89642298D01*
X177920853Y-89869946D01*
X177690296Y-90215000D01*
X176622038Y-90215000D01*
X176603162Y-90114683D01*
X176464090Y-89898559D01*
X176251890Y-89753569D01*
X176000000Y-89702560D01*
X174200000Y-89702560D01*
X173964683Y-89746838D01*
X173748559Y-89885910D01*
X173603569Y-90098110D01*
X173579898Y-90215000D01*
X170422038Y-90215000D01*
X170403162Y-90114683D01*
X170264090Y-89898559D01*
X170051890Y-89753569D01*
X169800000Y-89702560D01*
X168000000Y-89702560D01*
X167764683Y-89746838D01*
X167548559Y-89885910D01*
X167403569Y-90098110D01*
X167379898Y-90215000D01*
X166372440Y-90215000D01*
X166372440Y-89721296D01*
X168054369Y-88039367D01*
X168202858Y-87817137D01*
X168255001Y-87554999D01*
X168255001Y-87321273D01*
X168420000Y-87354093D01*
X168988285Y-87241054D01*
X169470054Y-86919147D01*
X169690000Y-86589974D01*
X169909946Y-86919147D01*
X170391715Y-87241054D01*
X170960000Y-87354093D01*
X171365109Y-87273512D01*
X171364838Y-87585167D01*
X171506883Y-87928943D01*
X171769673Y-88192192D01*
X172113201Y-88334838D01*
X172485167Y-88335162D01*
X172828943Y-88193117D01*
X173092192Y-87930327D01*
X173234838Y-87586799D01*
X173235146Y-87232905D01*
X173373000Y-87160155D01*
X173373000Y-85967000D01*
X173627000Y-85967000D01*
X173627000Y-87160155D01*
X173856890Y-87281476D01*
X174266924Y-87111645D01*
X174695183Y-86721358D01*
X174941486Y-86196892D01*
X174820819Y-85967000D01*
X173627000Y-85967000D01*
X173373000Y-85967000D01*
X173353000Y-85967000D01*
X173353000Y-85713000D01*
X173373000Y-85713000D01*
X173373000Y-85693000D01*
X173627000Y-85693000D01*
X173627000Y-85713000D01*
X174820819Y-85713000D01*
X174941486Y-85483108D01*
X174695183Y-84958642D01*
X174678580Y-84943512D01*
X174732139Y-84932858D01*
X174954369Y-84784369D01*
X174984369Y-84754369D01*
X175132858Y-84532139D01*
X175185001Y-84270001D01*
X175185001Y-82329999D01*
X175132858Y-82067861D01*
X175094197Y-82010000D01*
X177682099Y-82010000D01*
X177553569Y-82198110D01*
X177553569Y-82198110D01*
G37*
X177553569Y-82198110D02*
X177502560Y-82450000D01*
X177502560Y-84150000D01*
X177546838Y-84385317D01*
X177685910Y-84601441D01*
X177898110Y-84746431D01*
X177965541Y-84760086D01*
X177920853Y-84789946D01*
X177598946Y-85271715D01*
X177485907Y-85840000D01*
X177598946Y-86408285D01*
X177920853Y-86890054D01*
X178261553Y-87117702D01*
X178118642Y-87184817D01*
X177728355Y-87613076D01*
X177558524Y-88023110D01*
X177679845Y-88253000D01*
X178873000Y-88253000D01*
X178873000Y-88233000D01*
X179127000Y-88233000D01*
X179127000Y-88253000D01*
X179147000Y-88253000D01*
X179147000Y-88507000D01*
X179127000Y-88507000D01*
X179127000Y-88527000D01*
X178873000Y-88527000D01*
X178873000Y-88507000D01*
X177679845Y-88507000D01*
X177558524Y-88736890D01*
X177728355Y-89146924D01*
X178118642Y-89575183D01*
X178261553Y-89642298D01*
X177920853Y-89869946D01*
X177690296Y-90215000D01*
X176622038Y-90215000D01*
X176603162Y-90114683D01*
X176464090Y-89898559D01*
X176251890Y-89753569D01*
X176000000Y-89702560D01*
X174200000Y-89702560D01*
X173964683Y-89746838D01*
X173748559Y-89885910D01*
X173603569Y-90098110D01*
X173579898Y-90215000D01*
X170422038Y-90215000D01*
X170403162Y-90114683D01*
X170264090Y-89898559D01*
X170051890Y-89753569D01*
X169800000Y-89702560D01*
X168000000Y-89702560D01*
X167764683Y-89746838D01*
X167548559Y-89885910D01*
X167403569Y-90098110D01*
X167379898Y-90215000D01*
X166372440Y-90215000D01*
X166372440Y-89721296D01*
X168054369Y-88039367D01*
X168202858Y-87817137D01*
X168255001Y-87554999D01*
X168255001Y-87321273D01*
X168420000Y-87354093D01*
X168988285Y-87241054D01*
X169470054Y-86919147D01*
X169690000Y-86589974D01*
X169909946Y-86919147D01*
X170391715Y-87241054D01*
X170960000Y-87354093D01*
X171365109Y-87273512D01*
X171364838Y-87585167D01*
X171506883Y-87928943D01*
X171769673Y-88192192D01*
X172113201Y-88334838D01*
X172485167Y-88335162D01*
X172828943Y-88193117D01*
X173092192Y-87930327D01*
X173234838Y-87586799D01*
X173235146Y-87232905D01*
X173373000Y-87160155D01*
X173373000Y-85967000D01*
X173627000Y-85967000D01*
X173627000Y-87160155D01*
X173856890Y-87281476D01*
X174266924Y-87111645D01*
X174695183Y-86721358D01*
X174941486Y-86196892D01*
X174820819Y-85967000D01*
X173627000Y-85967000D01*
X173373000Y-85967000D01*
X173353000Y-85967000D01*
X173353000Y-85713000D01*
X173373000Y-85713000D01*
X173373000Y-85693000D01*
X173627000Y-85693000D01*
X173627000Y-85713000D01*
X174820819Y-85713000D01*
X174941486Y-85483108D01*
X174695183Y-84958642D01*
X174678580Y-84943512D01*
X174732139Y-84932858D01*
X174954369Y-84784369D01*
X174984369Y-84754369D01*
X175132858Y-84532139D01*
X175185001Y-84270001D01*
X175185001Y-82329999D01*
X175132858Y-82067861D01*
X175094197Y-82010000D01*
X177682099Y-82010000D01*
X177553569Y-82198110D01*
M02*
