G04 #@! TF.FileFunction,Legend,Bot*
%FSLAX46Y46*%
G04 Gerber Fmt 4.6, Leading zero omitted, Abs format (unit mm)*
G04 Created by KiCad (PCBNEW 4.0.6) date 09/01/17 10:43:57*
%MOMM*%
%LPD*%
G01*
G04 APERTURE LIST*
%ADD10C,0.100000*%
%ADD11C,0.250000*%
%ADD12C,0.187500*%
%ADD13C,0.150000*%
%ADD14C,0.125000*%
%ADD15C,0.300000*%
%ADD16C,0.500000*%
G04 APERTURE END LIST*
D10*
D11*
X106276190Y-110566667D02*
X105799999Y-110566667D01*
X106371428Y-110852381D02*
X106038095Y-109852381D01*
X105704761Y-110852381D01*
X105371428Y-110852381D02*
X105371428Y-109852381D01*
X105990476Y-108252381D02*
X106561905Y-108252381D01*
X106276191Y-108252381D02*
X106276191Y-107252381D01*
X106371429Y-107395238D01*
X106466667Y-107490476D01*
X106561905Y-107538095D01*
X105133333Y-107252381D02*
X105323810Y-107252381D01*
X105419048Y-107300000D01*
X105466667Y-107347619D01*
X105561905Y-107490476D01*
X105609524Y-107680952D01*
X105609524Y-108061905D01*
X105561905Y-108157143D01*
X105514286Y-108204762D01*
X105419048Y-108252381D01*
X105228571Y-108252381D01*
X105133333Y-108204762D01*
X105085714Y-108157143D01*
X105038095Y-108061905D01*
X105038095Y-107823810D01*
X105085714Y-107728571D01*
X105133333Y-107680952D01*
X105228571Y-107633333D01*
X105419048Y-107633333D01*
X105514286Y-107680952D01*
X105561905Y-107728571D01*
X105609524Y-107823810D01*
X105990476Y-105752381D02*
X106561905Y-105752381D01*
X106276191Y-105752381D02*
X106276191Y-104752381D01*
X106371429Y-104895238D01*
X106466667Y-104990476D01*
X106561905Y-105038095D01*
X105133333Y-105085714D02*
X105133333Y-105752381D01*
X105371429Y-104704762D02*
X105609524Y-105419048D01*
X104990476Y-105419048D01*
X105990476Y-103252381D02*
X106561905Y-103252381D01*
X106276191Y-103252381D02*
X106276191Y-102252381D01*
X106371429Y-102395238D01*
X106466667Y-102490476D01*
X106561905Y-102538095D01*
X105609524Y-102347619D02*
X105561905Y-102300000D01*
X105466667Y-102252381D01*
X105228571Y-102252381D01*
X105133333Y-102300000D01*
X105085714Y-102347619D01*
X105038095Y-102442857D01*
X105038095Y-102538095D01*
X105085714Y-102680952D01*
X105657143Y-103252381D01*
X105038095Y-103252381D01*
X105990476Y-100752381D02*
X106561905Y-100752381D01*
X106276191Y-100752381D02*
X106276191Y-99752381D01*
X106371429Y-99895238D01*
X106466667Y-99990476D01*
X106561905Y-100038095D01*
X105657143Y-99752381D02*
X105038095Y-99752381D01*
X105371429Y-100133333D01*
X105228571Y-100133333D01*
X105133333Y-100180952D01*
X105085714Y-100228571D01*
X105038095Y-100323810D01*
X105038095Y-100561905D01*
X105085714Y-100657143D01*
X105133333Y-100704762D01*
X105228571Y-100752381D01*
X105514286Y-100752381D01*
X105609524Y-100704762D01*
X105657143Y-100657143D01*
X105990476Y-98152381D02*
X106561905Y-98152381D01*
X106276191Y-98152381D02*
X106276191Y-97152381D01*
X106371429Y-97295238D01*
X106466667Y-97390476D01*
X106561905Y-97438095D01*
X105085714Y-97152381D02*
X105561905Y-97152381D01*
X105609524Y-97628571D01*
X105561905Y-97580952D01*
X105466667Y-97533333D01*
X105228571Y-97533333D01*
X105133333Y-97580952D01*
X105085714Y-97628571D01*
X105038095Y-97723810D01*
X105038095Y-97961905D01*
X105085714Y-98057143D01*
X105133333Y-98104762D01*
X105228571Y-98152381D01*
X105466667Y-98152381D01*
X105561905Y-98104762D01*
X105609524Y-98057143D01*
X106323810Y-94652381D02*
X106228571Y-94652381D01*
X106133333Y-94700000D01*
X106085714Y-94747619D01*
X106038095Y-94842857D01*
X105990476Y-95033333D01*
X105990476Y-95271429D01*
X106038095Y-95461905D01*
X106085714Y-95557143D01*
X106133333Y-95604762D01*
X106228571Y-95652381D01*
X106323810Y-95652381D01*
X106419048Y-95604762D01*
X106466667Y-95557143D01*
X106514286Y-95461905D01*
X106561905Y-95271429D01*
X106561905Y-95033333D01*
X106514286Y-94842857D01*
X106466667Y-94747619D01*
X106419048Y-94700000D01*
X106323810Y-94652381D01*
X105133333Y-94985714D02*
X105133333Y-95652381D01*
X105371429Y-94604762D02*
X105609524Y-95319048D01*
X104990476Y-95319048D01*
X106323810Y-92052381D02*
X106228571Y-92052381D01*
X106133333Y-92100000D01*
X106085714Y-92147619D01*
X106038095Y-92242857D01*
X105990476Y-92433333D01*
X105990476Y-92671429D01*
X106038095Y-92861905D01*
X106085714Y-92957143D01*
X106133333Y-93004762D01*
X106228571Y-93052381D01*
X106323810Y-93052381D01*
X106419048Y-93004762D01*
X106466667Y-92957143D01*
X106514286Y-92861905D01*
X106561905Y-92671429D01*
X106561905Y-92433333D01*
X106514286Y-92242857D01*
X106466667Y-92147619D01*
X106419048Y-92100000D01*
X106323810Y-92052381D01*
X105085714Y-92052381D02*
X105561905Y-92052381D01*
X105609524Y-92528571D01*
X105561905Y-92480952D01*
X105466667Y-92433333D01*
X105228571Y-92433333D01*
X105133333Y-92480952D01*
X105085714Y-92528571D01*
X105038095Y-92623810D01*
X105038095Y-92861905D01*
X105085714Y-92957143D01*
X105133333Y-93004762D01*
X105228571Y-93052381D01*
X105466667Y-93052381D01*
X105561905Y-93004762D01*
X105609524Y-92957143D01*
X156638095Y-111552381D02*
X156638095Y-110552381D01*
X156400000Y-110552381D01*
X156257142Y-110600000D01*
X156161904Y-110695238D01*
X156114285Y-110790476D01*
X156066666Y-110980952D01*
X156066666Y-111123810D01*
X156114285Y-111314286D01*
X156161904Y-111409524D01*
X156257142Y-111504762D01*
X156400000Y-111552381D01*
X156638095Y-111552381D01*
X155209523Y-110552381D02*
X155400000Y-110552381D01*
X155495238Y-110600000D01*
X155542857Y-110647619D01*
X155638095Y-110790476D01*
X155685714Y-110980952D01*
X155685714Y-111361905D01*
X155638095Y-111457143D01*
X155590476Y-111504762D01*
X155495238Y-111552381D01*
X155304761Y-111552381D01*
X155209523Y-111504762D01*
X155161904Y-111457143D01*
X155114285Y-111361905D01*
X155114285Y-111123810D01*
X155161904Y-111028571D01*
X155209523Y-110980952D01*
X155304761Y-110933333D01*
X155495238Y-110933333D01*
X155590476Y-110980952D01*
X155638095Y-111028571D01*
X155685714Y-111123810D01*
X159238095Y-111552381D02*
X159238095Y-110552381D01*
X159000000Y-110552381D01*
X158857142Y-110600000D01*
X158761904Y-110695238D01*
X158714285Y-110790476D01*
X158666666Y-110980952D01*
X158666666Y-111123810D01*
X158714285Y-111314286D01*
X158761904Y-111409524D01*
X158857142Y-111504762D01*
X159000000Y-111552381D01*
X159238095Y-111552381D01*
X158333333Y-110552381D02*
X157714285Y-110552381D01*
X158047619Y-110933333D01*
X157904761Y-110933333D01*
X157809523Y-110980952D01*
X157761904Y-111028571D01*
X157714285Y-111123810D01*
X157714285Y-111361905D01*
X157761904Y-111457143D01*
X157809523Y-111504762D01*
X157904761Y-111552381D01*
X158190476Y-111552381D01*
X158285714Y-111504762D01*
X158333333Y-111457143D01*
X161714286Y-111266667D02*
X161238095Y-111266667D01*
X161809524Y-111552381D02*
X161476191Y-110552381D01*
X161142857Y-111552381D01*
X160904762Y-110552381D02*
X160285714Y-110552381D01*
X160619048Y-110933333D01*
X160476190Y-110933333D01*
X160380952Y-110980952D01*
X160333333Y-111028571D01*
X160285714Y-111123810D01*
X160285714Y-111361905D01*
X160333333Y-111457143D01*
X160380952Y-111504762D01*
X160476190Y-111552381D01*
X160761905Y-111552381D01*
X160857143Y-111504762D01*
X160904762Y-111457143D01*
X164214286Y-111266667D02*
X163738095Y-111266667D01*
X164309524Y-111552381D02*
X163976191Y-110552381D01*
X163642857Y-111552381D01*
X163357143Y-110647619D02*
X163309524Y-110600000D01*
X163214286Y-110552381D01*
X162976190Y-110552381D01*
X162880952Y-110600000D01*
X162833333Y-110647619D01*
X162785714Y-110742857D01*
X162785714Y-110838095D01*
X162833333Y-110980952D01*
X163404762Y-111552381D01*
X162785714Y-111552381D01*
X166814286Y-111266667D02*
X166338095Y-111266667D01*
X166909524Y-111552381D02*
X166576191Y-110552381D01*
X166242857Y-111552381D01*
X165385714Y-111552381D02*
X165957143Y-111552381D01*
X165671429Y-111552381D02*
X165671429Y-110552381D01*
X165766667Y-110695238D01*
X165861905Y-110790476D01*
X165957143Y-110838095D01*
X169414286Y-111266667D02*
X168938095Y-111266667D01*
X169509524Y-111552381D02*
X169176191Y-110552381D01*
X168842857Y-111552381D01*
X168319048Y-110552381D02*
X168223809Y-110552381D01*
X168128571Y-110600000D01*
X168080952Y-110647619D01*
X168033333Y-110742857D01*
X167985714Y-110933333D01*
X167985714Y-111171429D01*
X168033333Y-111361905D01*
X168080952Y-111457143D01*
X168128571Y-111504762D01*
X168223809Y-111552381D01*
X168319048Y-111552381D01*
X168414286Y-111504762D01*
X168461905Y-111457143D01*
X168509524Y-111361905D01*
X168557143Y-111171429D01*
X168557143Y-110933333D01*
X168509524Y-110742857D01*
X168461905Y-110647619D01*
X168414286Y-110600000D01*
X168319048Y-110552381D01*
D12*
X120185714Y-120253571D02*
X119614285Y-120253571D01*
X119899999Y-120539286D02*
X119899999Y-119967857D01*
X120025000Y-118139286D02*
X120275000Y-117782143D01*
X120453572Y-118139286D02*
X120453572Y-117389286D01*
X120167857Y-117389286D01*
X120096429Y-117425000D01*
X120060714Y-117460714D01*
X120025000Y-117532143D01*
X120025000Y-117639286D01*
X120060714Y-117710714D01*
X120096429Y-117746429D01*
X120167857Y-117782143D01*
X120453572Y-117782143D01*
X119775000Y-117389286D02*
X119275000Y-118139286D01*
X119275000Y-117389286D02*
X119775000Y-118139286D01*
X115453571Y-120246429D02*
X115203571Y-120246429D01*
X115096428Y-120639286D02*
X115453571Y-120639286D01*
X115453571Y-119889286D01*
X115096428Y-119889286D01*
X114775000Y-120639286D02*
X114775000Y-119889286D01*
X114346428Y-120639286D01*
X114346428Y-119889286D01*
X117810714Y-120639286D02*
X118060714Y-120282143D01*
X118239286Y-120639286D02*
X118239286Y-119889286D01*
X117953571Y-119889286D01*
X117882143Y-119925000D01*
X117846428Y-119960714D01*
X117810714Y-120032143D01*
X117810714Y-120139286D01*
X117846428Y-120210714D01*
X117882143Y-120246429D01*
X117953571Y-120282143D01*
X118239286Y-120282143D01*
X117525000Y-120603571D02*
X117417857Y-120639286D01*
X117239286Y-120639286D01*
X117167857Y-120603571D01*
X117132143Y-120567857D01*
X117096428Y-120496429D01*
X117096428Y-120425000D01*
X117132143Y-120353571D01*
X117167857Y-120317857D01*
X117239286Y-120282143D01*
X117382143Y-120246429D01*
X117453571Y-120210714D01*
X117489286Y-120175000D01*
X117525000Y-120103571D01*
X117525000Y-120032143D01*
X117489286Y-119960714D01*
X117453571Y-119925000D01*
X117382143Y-119889286D01*
X117203571Y-119889286D01*
X117096428Y-119925000D01*
X116882142Y-119889286D02*
X116453571Y-119889286D01*
X116667857Y-120639286D02*
X116667857Y-119889286D01*
X118310714Y-118103571D02*
X118203571Y-118139286D01*
X118025000Y-118139286D01*
X117953571Y-118103571D01*
X117917857Y-118067857D01*
X117882142Y-117996429D01*
X117882142Y-117925000D01*
X117917857Y-117853571D01*
X117953571Y-117817857D01*
X118025000Y-117782143D01*
X118167857Y-117746429D01*
X118239285Y-117710714D01*
X118275000Y-117675000D01*
X118310714Y-117603571D01*
X118310714Y-117532143D01*
X118275000Y-117460714D01*
X118239285Y-117425000D01*
X118167857Y-117389286D01*
X117989285Y-117389286D01*
X117882142Y-117425000D01*
X117560714Y-118139286D02*
X117560714Y-117389286D01*
X117382142Y-117389286D01*
X117274999Y-117425000D01*
X117203571Y-117496429D01*
X117167856Y-117567857D01*
X117132142Y-117710714D01*
X117132142Y-117817857D01*
X117167856Y-117960714D01*
X117203571Y-118032143D01*
X117274999Y-118103571D01*
X117382142Y-118139286D01*
X117560714Y-118139286D01*
X116846428Y-117925000D02*
X116489285Y-117925000D01*
X116917856Y-118139286D02*
X116667856Y-117389286D01*
X116417856Y-118139286D01*
X115792857Y-118103571D02*
X115685714Y-118139286D01*
X115507143Y-118139286D01*
X115435714Y-118103571D01*
X115400000Y-118067857D01*
X115364285Y-117996429D01*
X115364285Y-117925000D01*
X115400000Y-117853571D01*
X115435714Y-117817857D01*
X115507143Y-117782143D01*
X115650000Y-117746429D01*
X115721428Y-117710714D01*
X115757143Y-117675000D01*
X115792857Y-117603571D01*
X115792857Y-117532143D01*
X115757143Y-117460714D01*
X115721428Y-117425000D01*
X115650000Y-117389286D01*
X115471428Y-117389286D01*
X115364285Y-117425000D01*
X114614285Y-118067857D02*
X114649999Y-118103571D01*
X114757142Y-118139286D01*
X114828571Y-118139286D01*
X114935714Y-118103571D01*
X115007142Y-118032143D01*
X115042857Y-117960714D01*
X115078571Y-117817857D01*
X115078571Y-117710714D01*
X115042857Y-117567857D01*
X115007142Y-117496429D01*
X114935714Y-117425000D01*
X114828571Y-117389286D01*
X114757142Y-117389286D01*
X114649999Y-117425000D01*
X114614285Y-117460714D01*
X113935714Y-118139286D02*
X114292857Y-118139286D01*
X114292857Y-117389286D01*
X112771428Y-119889286D02*
X112342857Y-119889286D01*
X112557143Y-120639286D02*
X112557143Y-119889286D01*
X112164285Y-119889286D02*
X111664285Y-120639286D01*
X111664285Y-119889286D02*
X112164285Y-120639286D01*
X112485714Y-117753571D02*
X111914285Y-117753571D01*
D13*
X110900000Y-118900000D02*
X121100000Y-118900000D01*
X113500000Y-116400000D02*
X113500000Y-121500000D01*
X118600000Y-116400000D02*
X118600000Y-121500000D01*
X116100000Y-116400000D02*
X116100000Y-121500000D01*
X110900000Y-121500000D02*
X110900000Y-116400000D01*
X121100000Y-121500000D02*
X110900000Y-121500000D01*
X121100000Y-116400000D02*
X121100000Y-121500000D01*
X110900000Y-116400000D02*
X121100000Y-116400000D01*
D11*
X141043523Y-91982996D02*
X140995904Y-91935377D01*
X140853047Y-91887758D01*
X140757809Y-91887758D01*
X140614951Y-91935377D01*
X140519713Y-92030615D01*
X140472094Y-92125853D01*
X140424475Y-92316329D01*
X140424475Y-92459187D01*
X140472094Y-92649663D01*
X140519713Y-92744901D01*
X140614951Y-92840139D01*
X140757809Y-92887758D01*
X140853047Y-92887758D01*
X140995904Y-92840139D01*
X141043523Y-92792520D01*
X141948285Y-91887758D02*
X141472094Y-91887758D01*
X141472094Y-92887758D01*
X143048285Y-91887758D02*
X143048285Y-92887758D01*
X143286380Y-92887758D01*
X143429238Y-92840139D01*
X143524476Y-92744901D01*
X143572095Y-92649663D01*
X143619714Y-92459187D01*
X143619714Y-92316329D01*
X143572095Y-92125853D01*
X143524476Y-92030615D01*
X143429238Y-91935377D01*
X143286380Y-91887758D01*
X143048285Y-91887758D01*
X144000666Y-92173472D02*
X144476857Y-92173472D01*
X143905428Y-91887758D02*
X144238761Y-92887758D01*
X144572095Y-91887758D01*
X106012242Y-122648285D02*
X105012242Y-122648285D01*
X105012242Y-122886380D01*
X105059861Y-123029238D01*
X105155099Y-123124476D01*
X105250337Y-123172095D01*
X105440813Y-123219714D01*
X105583671Y-123219714D01*
X105774147Y-123172095D01*
X105869385Y-123124476D01*
X105964623Y-123029238D01*
X106012242Y-122886380D01*
X106012242Y-122648285D01*
X105726528Y-123600666D02*
X105726528Y-124076857D01*
X106012242Y-123505428D02*
X105012242Y-123838761D01*
X106012242Y-124172095D01*
X105917004Y-120643523D02*
X105964623Y-120595904D01*
X106012242Y-120453047D01*
X106012242Y-120357809D01*
X105964623Y-120214951D01*
X105869385Y-120119713D01*
X105774147Y-120072094D01*
X105583671Y-120024475D01*
X105440813Y-120024475D01*
X105250337Y-120072094D01*
X105155099Y-120119713D01*
X105059861Y-120214951D01*
X105012242Y-120357809D01*
X105012242Y-120453047D01*
X105059861Y-120595904D01*
X105107480Y-120643523D01*
X106012242Y-121548285D02*
X106012242Y-121072094D01*
X105012242Y-121072094D01*
X165709524Y-120447619D02*
X165709524Y-121447619D01*
X165947619Y-121447619D01*
X166090477Y-121400000D01*
X166185715Y-121304762D01*
X166233334Y-121209524D01*
X166280953Y-121019048D01*
X166280953Y-120876190D01*
X166233334Y-120685714D01*
X166185715Y-120590476D01*
X166090477Y-120495238D01*
X165947619Y-120447619D01*
X165709524Y-120447619D01*
X166661905Y-120733333D02*
X167138096Y-120733333D01*
X166566667Y-120447619D02*
X166900000Y-121447619D01*
X167233334Y-120447619D01*
X163704762Y-120542857D02*
X163657143Y-120495238D01*
X163514286Y-120447619D01*
X163419048Y-120447619D01*
X163276190Y-120495238D01*
X163180952Y-120590476D01*
X163133333Y-120685714D01*
X163085714Y-120876190D01*
X163085714Y-121019048D01*
X163133333Y-121209524D01*
X163180952Y-121304762D01*
X163276190Y-121400000D01*
X163419048Y-121447619D01*
X163514286Y-121447619D01*
X163657143Y-121400000D01*
X163704762Y-121352381D01*
X164609524Y-120447619D02*
X164133333Y-120447619D01*
X164133333Y-121447619D01*
X176047619Y-83990476D02*
X177047619Y-83990476D01*
X177047619Y-83752381D01*
X177000000Y-83609523D01*
X176904762Y-83514285D01*
X176809524Y-83466666D01*
X176619048Y-83419047D01*
X176476190Y-83419047D01*
X176285714Y-83466666D01*
X176190476Y-83514285D01*
X176095238Y-83609523D01*
X176047619Y-83752381D01*
X176047619Y-83990476D01*
X176333333Y-83038095D02*
X176333333Y-82561904D01*
X176047619Y-83133333D02*
X177047619Y-82800000D01*
X176047619Y-82466666D01*
X176142857Y-85995238D02*
X176095238Y-86042857D01*
X176047619Y-86185714D01*
X176047619Y-86280952D01*
X176095238Y-86423810D01*
X176190476Y-86519048D01*
X176285714Y-86566667D01*
X176476190Y-86614286D01*
X176619048Y-86614286D01*
X176809524Y-86566667D01*
X176904762Y-86519048D01*
X177000000Y-86423810D01*
X177047619Y-86280952D01*
X177047619Y-86185714D01*
X177000000Y-86042857D01*
X176952381Y-85995238D01*
X176047619Y-85090476D02*
X176047619Y-85566667D01*
X177047619Y-85566667D01*
X116195238Y-86157143D02*
X116242857Y-86204762D01*
X116385714Y-86252381D01*
X116480952Y-86252381D01*
X116623810Y-86204762D01*
X116719048Y-86109524D01*
X116766667Y-86014286D01*
X116814286Y-85823810D01*
X116814286Y-85680952D01*
X116766667Y-85490476D01*
X116719048Y-85395238D01*
X116623810Y-85300000D01*
X116480952Y-85252381D01*
X116385714Y-85252381D01*
X116242857Y-85300000D01*
X116195238Y-85347619D01*
X115290476Y-86252381D02*
X115766667Y-86252381D01*
X115766667Y-85252381D01*
X114190476Y-86252381D02*
X114190476Y-85252381D01*
X113952381Y-85252381D01*
X113809523Y-85300000D01*
X113714285Y-85395238D01*
X113666666Y-85490476D01*
X113619047Y-85680952D01*
X113619047Y-85823810D01*
X113666666Y-86014286D01*
X113714285Y-86109524D01*
X113809523Y-86204762D01*
X113952381Y-86252381D01*
X114190476Y-86252381D01*
X113238095Y-85966667D02*
X112761904Y-85966667D01*
X113333333Y-86252381D02*
X113000000Y-85252381D01*
X112666666Y-86252381D01*
X108761905Y-85352381D02*
X108190476Y-85352381D01*
X108476191Y-86352381D02*
X108476191Y-85352381D01*
X107952381Y-85352381D02*
X107285714Y-86352381D01*
X107285714Y-85352381D02*
X107952381Y-86352381D01*
X110766666Y-86352381D02*
X111100000Y-85876190D01*
X111338095Y-86352381D02*
X111338095Y-85352381D01*
X110957142Y-85352381D01*
X110861904Y-85400000D01*
X110814285Y-85447619D01*
X110766666Y-85542857D01*
X110766666Y-85685714D01*
X110814285Y-85780952D01*
X110861904Y-85828571D01*
X110957142Y-85876190D01*
X111338095Y-85876190D01*
X110433333Y-85352381D02*
X109766666Y-86352381D01*
X109766666Y-85352381D02*
X110433333Y-86352381D01*
X161966666Y-86152381D02*
X162300000Y-85676190D01*
X162538095Y-86152381D02*
X162538095Y-85152381D01*
X162157142Y-85152381D01*
X162061904Y-85200000D01*
X162014285Y-85247619D01*
X161966666Y-85342857D01*
X161966666Y-85485714D01*
X162014285Y-85580952D01*
X162061904Y-85628571D01*
X162157142Y-85676190D01*
X162538095Y-85676190D01*
X161633333Y-85152381D02*
X160966666Y-86152381D01*
X160966666Y-85152381D02*
X161633333Y-86152381D01*
X159961905Y-85152381D02*
X159390476Y-85152381D01*
X159676191Y-86152381D02*
X159676191Y-85152381D01*
X159152381Y-85152381D02*
X158485714Y-86152381D01*
X158485714Y-85152381D02*
X159152381Y-86152381D01*
D14*
X168685714Y-91453571D02*
X168114285Y-91453571D01*
X171642857Y-91739286D02*
X171642857Y-90989286D01*
X171392857Y-91525000D01*
X171142857Y-90989286D01*
X171142857Y-91739286D01*
X170642856Y-90989286D02*
X170499999Y-90989286D01*
X170428571Y-91025000D01*
X170357142Y-91096429D01*
X170321428Y-91239286D01*
X170321428Y-91489286D01*
X170357142Y-91632143D01*
X170428571Y-91703571D01*
X170499999Y-91739286D01*
X170642856Y-91739286D01*
X170714285Y-91703571D01*
X170785714Y-91632143D01*
X170821428Y-91489286D01*
X170821428Y-91239286D01*
X170785714Y-91096429D01*
X170714285Y-91025000D01*
X170642856Y-90989286D01*
X173985714Y-91453571D02*
X173414285Y-91453571D01*
X173699999Y-91739286D02*
X173699999Y-91167857D01*
X174128572Y-89639286D02*
X174128572Y-88889286D01*
X173878572Y-89425000D01*
X173628572Y-88889286D01*
X173628572Y-89639286D01*
X173271429Y-89639286D02*
X173271429Y-88889286D01*
X171964286Y-89603571D02*
X171857143Y-89639286D01*
X171678572Y-89639286D01*
X171607143Y-89603571D01*
X171571429Y-89567857D01*
X171535714Y-89496429D01*
X171535714Y-89425000D01*
X171571429Y-89353571D01*
X171607143Y-89317857D01*
X171678572Y-89282143D01*
X171821429Y-89246429D01*
X171892857Y-89210714D01*
X171928572Y-89175000D01*
X171964286Y-89103571D01*
X171964286Y-89032143D01*
X171928572Y-88960714D01*
X171892857Y-88925000D01*
X171821429Y-88889286D01*
X171642857Y-88889286D01*
X171535714Y-88925000D01*
X170785714Y-89567857D02*
X170821428Y-89603571D01*
X170928571Y-89639286D01*
X171000000Y-89639286D01*
X171107143Y-89603571D01*
X171178571Y-89532143D01*
X171214286Y-89460714D01*
X171250000Y-89317857D01*
X171250000Y-89210714D01*
X171214286Y-89067857D01*
X171178571Y-88996429D01*
X171107143Y-88925000D01*
X171000000Y-88889286D01*
X170928571Y-88889286D01*
X170821428Y-88925000D01*
X170785714Y-88960714D01*
X170464286Y-89639286D02*
X170464286Y-88889286D01*
X170035714Y-89639286D02*
X170357143Y-89210714D01*
X170035714Y-88889286D02*
X170464286Y-89317857D01*
D13*
X167000000Y-90300000D02*
X175000000Y-90300000D01*
X172300000Y-88300000D02*
X172300000Y-92300000D01*
X169700000Y-88300000D02*
X169700000Y-92300000D01*
D14*
X168810714Y-89739286D02*
X169060714Y-89382143D01*
X169239286Y-89739286D02*
X169239286Y-88989286D01*
X168953571Y-88989286D01*
X168882143Y-89025000D01*
X168846428Y-89060714D01*
X168810714Y-89132143D01*
X168810714Y-89239286D01*
X168846428Y-89310714D01*
X168882143Y-89346429D01*
X168953571Y-89382143D01*
X169239286Y-89382143D01*
X168525000Y-89703571D02*
X168417857Y-89739286D01*
X168239286Y-89739286D01*
X168167857Y-89703571D01*
X168132143Y-89667857D01*
X168096428Y-89596429D01*
X168096428Y-89525000D01*
X168132143Y-89453571D01*
X168167857Y-89417857D01*
X168239286Y-89382143D01*
X168382143Y-89346429D01*
X168453571Y-89310714D01*
X168489286Y-89275000D01*
X168525000Y-89203571D01*
X168525000Y-89132143D01*
X168489286Y-89060714D01*
X168453571Y-89025000D01*
X168382143Y-88989286D01*
X168203571Y-88989286D01*
X168096428Y-89025000D01*
X167882142Y-88989286D02*
X167453571Y-88989286D01*
X167667857Y-89739286D02*
X167667857Y-88989286D01*
D13*
X167000000Y-92300000D02*
X167000000Y-88300000D01*
X175000000Y-92300000D02*
X167000000Y-92300000D01*
X175000000Y-88300000D02*
X175000000Y-92300000D01*
X167000000Y-88300000D02*
X175000000Y-88300000D01*
D15*
X106071428Y-115707143D02*
X104928571Y-115707143D01*
X159271428Y-120807143D02*
X158128571Y-120807143D01*
X136671428Y-92407143D02*
X135528571Y-92407143D01*
X149871428Y-87807143D02*
X148728571Y-87807143D01*
X173571428Y-114307143D02*
X172428571Y-114307143D01*
X177071428Y-103307143D02*
X175928571Y-103307143D01*
X177071428Y-90907143D02*
X175928571Y-90907143D01*
X157171428Y-85807143D02*
X156028571Y-85807143D01*
X121771428Y-85807143D02*
X120628571Y-85807143D01*
X106071428Y-85807143D02*
X104928571Y-85807143D01*
X119271428Y-85807143D02*
X118128571Y-85807143D01*
X118700000Y-86378571D02*
X118700000Y-85235714D01*
X103571428Y-85807143D02*
X102428571Y-85807143D01*
X103000000Y-86378571D02*
X103000000Y-85235714D01*
X106071428Y-118207143D02*
X104928571Y-118207143D01*
X105500000Y-118778571D02*
X105500000Y-117635714D01*
X161771428Y-120807143D02*
X160628571Y-120807143D01*
X161200000Y-121378571D02*
X161200000Y-120235714D01*
X177071428Y-88407143D02*
X175928571Y-88407143D01*
X176500000Y-88978571D02*
X176500000Y-87835714D01*
X154671428Y-85807143D02*
X153528571Y-85807143D01*
X154100000Y-86378571D02*
X154100000Y-85235714D01*
X139271428Y-92407143D02*
X138128571Y-92407143D01*
X138700000Y-92978571D02*
X138700000Y-91835714D01*
X147271428Y-87807143D02*
X146128571Y-87807143D01*
X146700000Y-88378571D02*
X146700000Y-87235714D01*
X125407143Y-89357143D02*
X125192857Y-89428571D01*
X124835714Y-89428571D01*
X124692857Y-89357143D01*
X124621428Y-89285714D01*
X124550000Y-89142857D01*
X124550000Y-89000000D01*
X124621428Y-88857143D01*
X124692857Y-88785714D01*
X124835714Y-88714286D01*
X125121428Y-88642857D01*
X125264286Y-88571429D01*
X125335714Y-88500000D01*
X125407143Y-88357143D01*
X125407143Y-88214286D01*
X125335714Y-88071429D01*
X125264286Y-88000000D01*
X125121428Y-87928571D01*
X124764286Y-87928571D01*
X124550000Y-88000000D01*
X123264286Y-88428571D02*
X123264286Y-89428571D01*
X123907143Y-88428571D02*
X123907143Y-89214286D01*
X123835715Y-89357143D01*
X123692857Y-89428571D01*
X123478572Y-89428571D01*
X123335715Y-89357143D01*
X123264286Y-89285714D01*
X122550000Y-88428571D02*
X122550000Y-89928571D01*
X122550000Y-88500000D02*
X122407143Y-88428571D01*
X122121429Y-88428571D01*
X121978572Y-88500000D01*
X121907143Y-88571429D01*
X121835714Y-88714286D01*
X121835714Y-89142857D01*
X121907143Y-89285714D01*
X121978572Y-89357143D01*
X122121429Y-89428571D01*
X122407143Y-89428571D01*
X122550000Y-89357143D01*
X120621429Y-89357143D02*
X120764286Y-89428571D01*
X121050000Y-89428571D01*
X121192857Y-89357143D01*
X121264286Y-89214286D01*
X121264286Y-88642857D01*
X121192857Y-88500000D01*
X121050000Y-88428571D01*
X120764286Y-88428571D01*
X120621429Y-88500000D01*
X120550000Y-88642857D01*
X120550000Y-88785714D01*
X121264286Y-88928571D01*
X119907143Y-89428571D02*
X119907143Y-88428571D01*
X119907143Y-88714286D02*
X119835715Y-88571429D01*
X119764286Y-88500000D01*
X119621429Y-88428571D01*
X119478572Y-88428571D01*
X118978572Y-89428571D02*
X118978572Y-87928571D01*
X118478572Y-89000000D01*
X117978572Y-87928571D01*
X117978572Y-89428571D01*
X116692858Y-89357143D02*
X116835715Y-89428571D01*
X117121429Y-89428571D01*
X117264286Y-89357143D01*
X117335715Y-89214286D01*
X117335715Y-88642857D01*
X117264286Y-88500000D01*
X117121429Y-88428571D01*
X116835715Y-88428571D01*
X116692858Y-88500000D01*
X116621429Y-88642857D01*
X116621429Y-88785714D01*
X117335715Y-88928571D01*
X115335715Y-89357143D02*
X115478572Y-89428571D01*
X115764286Y-89428571D01*
X115907144Y-89357143D01*
X115978572Y-89285714D01*
X116050001Y-89142857D01*
X116050001Y-88714286D01*
X115978572Y-88571429D01*
X115907144Y-88500000D01*
X115764286Y-88428571D01*
X115478572Y-88428571D01*
X115335715Y-88500000D01*
X114692858Y-89428571D02*
X114692858Y-87928571D01*
X114050001Y-89428571D02*
X114050001Y-88642857D01*
X114121430Y-88500000D01*
X114264287Y-88428571D01*
X114478572Y-88428571D01*
X114621430Y-88500000D01*
X114692858Y-88571429D01*
X112692858Y-89428571D02*
X112692858Y-88642857D01*
X112764287Y-88500000D01*
X112907144Y-88428571D01*
X113192858Y-88428571D01*
X113335715Y-88500000D01*
X112692858Y-89357143D02*
X112835715Y-89428571D01*
X113192858Y-89428571D01*
X113335715Y-89357143D01*
X113407144Y-89214286D01*
X113407144Y-89071429D01*
X113335715Y-88928571D01*
X113192858Y-88857143D01*
X112835715Y-88857143D01*
X112692858Y-88785714D01*
X111121429Y-89285714D02*
X111192858Y-89357143D01*
X111407144Y-89428571D01*
X111550001Y-89428571D01*
X111764286Y-89357143D01*
X111907144Y-89214286D01*
X111978572Y-89071429D01*
X112050001Y-88785714D01*
X112050001Y-88571429D01*
X111978572Y-88285714D01*
X111907144Y-88142857D01*
X111764286Y-88000000D01*
X111550001Y-87928571D01*
X111407144Y-87928571D01*
X111192858Y-88000000D01*
X111121429Y-88071429D01*
X110264286Y-89428571D02*
X110407144Y-89357143D01*
X110478572Y-89285714D01*
X110550001Y-89142857D01*
X110550001Y-88714286D01*
X110478572Y-88571429D01*
X110407144Y-88500000D01*
X110264286Y-88428571D01*
X110050001Y-88428571D01*
X109907144Y-88500000D01*
X109835715Y-88571429D01*
X109764286Y-88714286D01*
X109764286Y-89142857D01*
X109835715Y-89285714D01*
X109907144Y-89357143D01*
X110050001Y-89428571D01*
X110264286Y-89428571D01*
X109264286Y-88428571D02*
X108978572Y-89428571D01*
X108692858Y-88714286D01*
X108407143Y-89428571D01*
X108121429Y-88428571D01*
X122121428Y-91978571D02*
X122121428Y-90478571D01*
X121764285Y-90478571D01*
X121550000Y-90550000D01*
X121407142Y-90692857D01*
X121335714Y-90835714D01*
X121264285Y-91121429D01*
X121264285Y-91335714D01*
X121335714Y-91621429D01*
X121407142Y-91764286D01*
X121550000Y-91907143D01*
X121764285Y-91978571D01*
X122121428Y-91978571D01*
X120621428Y-91978571D02*
X120621428Y-90978571D01*
X120621428Y-90478571D02*
X120692857Y-90550000D01*
X120621428Y-90621429D01*
X120550000Y-90550000D01*
X120621428Y-90478571D01*
X120621428Y-90621429D01*
X119264285Y-90978571D02*
X119264285Y-92192857D01*
X119335714Y-92335714D01*
X119407142Y-92407143D01*
X119549999Y-92478571D01*
X119764285Y-92478571D01*
X119907142Y-92407143D01*
X119264285Y-91907143D02*
X119407142Y-91978571D01*
X119692856Y-91978571D01*
X119835714Y-91907143D01*
X119907142Y-91835714D01*
X119978571Y-91692857D01*
X119978571Y-91264286D01*
X119907142Y-91121429D01*
X119835714Y-91050000D01*
X119692856Y-90978571D01*
X119407142Y-90978571D01*
X119264285Y-91050000D01*
X118549999Y-91978571D02*
X118549999Y-90978571D01*
X118549999Y-90478571D02*
X118621428Y-90550000D01*
X118549999Y-90621429D01*
X118478571Y-90550000D01*
X118549999Y-90478571D01*
X118549999Y-90621429D01*
X116978570Y-91835714D02*
X117049999Y-91907143D01*
X117264285Y-91978571D01*
X117407142Y-91978571D01*
X117621427Y-91907143D01*
X117764285Y-91764286D01*
X117835713Y-91621429D01*
X117907142Y-91335714D01*
X117907142Y-91121429D01*
X117835713Y-90835714D01*
X117764285Y-90692857D01*
X117621427Y-90550000D01*
X117407142Y-90478571D01*
X117264285Y-90478571D01*
X117049999Y-90550000D01*
X116978570Y-90621429D01*
X116335713Y-91978571D02*
X116335713Y-90978571D01*
X116335713Y-91264286D02*
X116264285Y-91121429D01*
X116192856Y-91050000D01*
X116049999Y-90978571D01*
X115907142Y-90978571D01*
X115407142Y-91978571D02*
X115407142Y-90978571D01*
X115407142Y-90478571D02*
X115478571Y-90550000D01*
X115407142Y-90621429D01*
X115335714Y-90550000D01*
X115407142Y-90478571D01*
X115407142Y-90621429D01*
X114907142Y-90978571D02*
X114335713Y-90978571D01*
X114692856Y-90478571D02*
X114692856Y-91764286D01*
X114621428Y-91907143D01*
X114478570Y-91978571D01*
X114335713Y-91978571D01*
X114049999Y-90978571D02*
X113478570Y-90978571D01*
X113835713Y-90478571D02*
X113835713Y-91764286D01*
X113764285Y-91907143D01*
X113621427Y-91978571D01*
X113478570Y-91978571D01*
X112407142Y-91907143D02*
X112549999Y-91978571D01*
X112835713Y-91978571D01*
X112978570Y-91907143D01*
X113049999Y-91764286D01*
X113049999Y-91192857D01*
X112978570Y-91050000D01*
X112835713Y-90978571D01*
X112549999Y-90978571D01*
X112407142Y-91050000D01*
X112335713Y-91192857D01*
X112335713Y-91335714D01*
X113049999Y-91478571D01*
X111692856Y-91978571D02*
X111692856Y-90978571D01*
X111692856Y-91264286D02*
X111621428Y-91121429D01*
X111549999Y-91050000D01*
X111407142Y-90978571D01*
X111264285Y-90978571D01*
X122335713Y-94457143D02*
X122121427Y-94528571D01*
X121764284Y-94528571D01*
X121621427Y-94457143D01*
X121549998Y-94385714D01*
X121478570Y-94242857D01*
X121478570Y-94100000D01*
X121549998Y-93957143D01*
X121621427Y-93885714D01*
X121764284Y-93814286D01*
X122049998Y-93742857D01*
X122192856Y-93671429D01*
X122264284Y-93600000D01*
X122335713Y-93457143D01*
X122335713Y-93314286D01*
X122264284Y-93171429D01*
X122192856Y-93100000D01*
X122049998Y-93028571D01*
X121692856Y-93028571D01*
X121478570Y-93100000D01*
X120264285Y-94457143D02*
X120407142Y-94528571D01*
X120692856Y-94528571D01*
X120835713Y-94457143D01*
X120907142Y-94314286D01*
X120907142Y-93742857D01*
X120835713Y-93600000D01*
X120692856Y-93528571D01*
X120407142Y-93528571D01*
X120264285Y-93600000D01*
X120192856Y-93742857D01*
X120192856Y-93885714D01*
X120907142Y-94028571D01*
X119549999Y-93528571D02*
X119549999Y-95028571D01*
X119549999Y-93600000D02*
X119407142Y-93528571D01*
X119121428Y-93528571D01*
X118978571Y-93600000D01*
X118907142Y-93671429D01*
X118835713Y-93814286D01*
X118835713Y-94242857D01*
X118907142Y-94385714D01*
X118978571Y-94457143D01*
X119121428Y-94528571D01*
X119407142Y-94528571D01*
X119549999Y-94457143D01*
X118192856Y-94385714D02*
X118121428Y-94457143D01*
X118192856Y-94528571D01*
X118264285Y-94457143D01*
X118192856Y-94385714D01*
X118192856Y-94528571D01*
X116407142Y-93171429D02*
X116335713Y-93100000D01*
X116192856Y-93028571D01*
X115835713Y-93028571D01*
X115692856Y-93100000D01*
X115621427Y-93171429D01*
X115549999Y-93314286D01*
X115549999Y-93457143D01*
X115621427Y-93671429D01*
X116478570Y-94528571D01*
X115549999Y-94528571D01*
X114621428Y-93028571D02*
X114478571Y-93028571D01*
X114335714Y-93100000D01*
X114264285Y-93171429D01*
X114192856Y-93314286D01*
X114121428Y-93600000D01*
X114121428Y-93957143D01*
X114192856Y-94242857D01*
X114264285Y-94385714D01*
X114335714Y-94457143D01*
X114478571Y-94528571D01*
X114621428Y-94528571D01*
X114764285Y-94457143D01*
X114835714Y-94385714D01*
X114907142Y-94242857D01*
X114978571Y-93957143D01*
X114978571Y-93600000D01*
X114907142Y-93314286D01*
X114835714Y-93171429D01*
X114764285Y-93100000D01*
X114621428Y-93028571D01*
X112692857Y-94528571D02*
X113550000Y-94528571D01*
X113121428Y-94528571D02*
X113121428Y-93028571D01*
X113264285Y-93242857D01*
X113407143Y-93385714D01*
X113550000Y-93457143D01*
X112192857Y-93028571D02*
X111192857Y-93028571D01*
X111835714Y-94528571D01*
D16*
X152357144Y-94157143D02*
X151785715Y-94157143D01*
X151500001Y-94300000D01*
X151214287Y-94585714D01*
X151071429Y-95157143D01*
X151071429Y-96157143D01*
X151214287Y-96728571D01*
X151500001Y-97014286D01*
X151785715Y-97157143D01*
X152357144Y-97157143D01*
X152642858Y-97014286D01*
X152928572Y-96728571D01*
X153071429Y-96157143D01*
X153071429Y-95157143D01*
X152928572Y-94585714D01*
X152642858Y-94300000D01*
X152357144Y-94157143D01*
X149785715Y-95157143D02*
X149785715Y-98157143D01*
X149785715Y-95300000D02*
X149500001Y-95157143D01*
X148928572Y-95157143D01*
X148642858Y-95300000D01*
X148500001Y-95442857D01*
X148357144Y-95728571D01*
X148357144Y-96585714D01*
X148500001Y-96871429D01*
X148642858Y-97014286D01*
X148928572Y-97157143D01*
X149500001Y-97157143D01*
X149785715Y-97014286D01*
X145928572Y-97014286D02*
X146214286Y-97157143D01*
X146785715Y-97157143D01*
X147071429Y-97014286D01*
X147214286Y-96728571D01*
X147214286Y-95585714D01*
X147071429Y-95300000D01*
X146785715Y-95157143D01*
X146214286Y-95157143D01*
X145928572Y-95300000D01*
X145785715Y-95585714D01*
X145785715Y-95871429D01*
X147214286Y-96157143D01*
X144500000Y-95157143D02*
X144500000Y-97157143D01*
X144500000Y-95442857D02*
X144357143Y-95300000D01*
X144071429Y-95157143D01*
X143642857Y-95157143D01*
X143357143Y-95300000D01*
X143214286Y-95585714D01*
X143214286Y-97157143D01*
X140071429Y-96871429D02*
X140214286Y-97014286D01*
X140642857Y-97157143D01*
X140928571Y-97157143D01*
X141357143Y-97014286D01*
X141642857Y-96728571D01*
X141785714Y-96442857D01*
X141928571Y-95871429D01*
X141928571Y-95442857D01*
X141785714Y-94871429D01*
X141642857Y-94585714D01*
X141357143Y-94300000D01*
X140928571Y-94157143D01*
X140642857Y-94157143D01*
X140214286Y-94300000D01*
X140071429Y-94442857D01*
X138785714Y-97157143D02*
X138785714Y-95157143D01*
X138785714Y-95728571D02*
X138642857Y-95442857D01*
X138500000Y-95300000D01*
X138214286Y-95157143D01*
X137928571Y-95157143D01*
X136928571Y-97157143D02*
X136928571Y-95157143D01*
X136928571Y-94157143D02*
X137071428Y-94300000D01*
X136928571Y-94442857D01*
X136785714Y-94300000D01*
X136928571Y-94157143D01*
X136928571Y-94442857D01*
X135928572Y-95157143D02*
X134785715Y-95157143D01*
X135500000Y-94157143D02*
X135500000Y-96728571D01*
X135357143Y-97014286D01*
X135071429Y-97157143D01*
X134785715Y-97157143D01*
X134214286Y-95157143D02*
X133071429Y-95157143D01*
X133785714Y-94157143D02*
X133785714Y-96728571D01*
X133642857Y-97014286D01*
X133357143Y-97157143D01*
X133071429Y-97157143D01*
X130928571Y-97014286D02*
X131214285Y-97157143D01*
X131785714Y-97157143D01*
X132071428Y-97014286D01*
X132214285Y-96728571D01*
X132214285Y-95585714D01*
X132071428Y-95300000D01*
X131785714Y-95157143D01*
X131214285Y-95157143D01*
X130928571Y-95300000D01*
X130785714Y-95585714D01*
X130785714Y-95871429D01*
X132214285Y-96157143D01*
X129499999Y-97157143D02*
X129499999Y-95157143D01*
X129499999Y-95728571D02*
X129357142Y-95442857D01*
X129214285Y-95300000D01*
X128928571Y-95157143D01*
X128642856Y-95157143D01*
X149857142Y-102157143D02*
X149857142Y-99157143D01*
X149142857Y-99157143D01*
X148714285Y-99300000D01*
X148428571Y-99585714D01*
X148285714Y-99871429D01*
X148142857Y-100442857D01*
X148142857Y-100871429D01*
X148285714Y-101442857D01*
X148428571Y-101728571D01*
X148714285Y-102014286D01*
X149142857Y-102157143D01*
X149857142Y-102157143D01*
X145714285Y-102014286D02*
X145999999Y-102157143D01*
X146571428Y-102157143D01*
X146857142Y-102014286D01*
X146999999Y-101728571D01*
X146999999Y-100585714D01*
X146857142Y-100300000D01*
X146571428Y-100157143D01*
X145999999Y-100157143D01*
X145714285Y-100300000D01*
X145571428Y-100585714D01*
X145571428Y-100871429D01*
X146999999Y-101157143D01*
X144571428Y-100157143D02*
X143857142Y-102157143D01*
X143142856Y-100157143D01*
X141999999Y-102157143D02*
X141999999Y-99157143D01*
X140285714Y-102157143D02*
X141571428Y-100442857D01*
X140285714Y-99157143D02*
X141999999Y-100871429D01*
X138999999Y-102157143D02*
X138999999Y-100157143D01*
X138999999Y-99157143D02*
X139142856Y-99300000D01*
X138999999Y-99442857D01*
X138857142Y-99300000D01*
X138999999Y-99157143D01*
X138999999Y-99442857D01*
X138000000Y-100157143D02*
X136857143Y-100157143D01*
X137571428Y-99157143D02*
X137571428Y-101728571D01*
X137428571Y-102014286D01*
X137142857Y-102157143D01*
X136857143Y-102157143D01*
X132000000Y-102157143D02*
X133714285Y-102157143D01*
X132857143Y-102157143D02*
X132857143Y-99157143D01*
X133142857Y-99585714D01*
X133428571Y-99871429D01*
X133714285Y-100014286D01*
X146285715Y-107157143D02*
X147285715Y-105728571D01*
X148000000Y-107157143D02*
X148000000Y-104157143D01*
X146857143Y-104157143D01*
X146571429Y-104300000D01*
X146428572Y-104442857D01*
X146285715Y-104728571D01*
X146285715Y-105157143D01*
X146428572Y-105442857D01*
X146571429Y-105585714D01*
X146857143Y-105728571D01*
X148000000Y-105728571D01*
X145000000Y-105585714D02*
X144000000Y-105585714D01*
X143571429Y-107157143D02*
X145000000Y-107157143D01*
X145000000Y-104157143D01*
X143571429Y-104157143D01*
X142714286Y-104157143D02*
X141714286Y-107157143D01*
X140714286Y-104157143D01*
X137571428Y-106300000D02*
X136142857Y-106300000D01*
X137857143Y-107157143D02*
X136857143Y-104157143D01*
X135857143Y-107157143D01*
X151642857Y-111300000D02*
X150214286Y-111300000D01*
X151928572Y-112157143D02*
X150928572Y-109157143D01*
X149928572Y-112157143D01*
X148928571Y-109157143D02*
X148928571Y-111585714D01*
X148785714Y-111871429D01*
X148642857Y-112014286D01*
X148357143Y-112157143D01*
X147785714Y-112157143D01*
X147500000Y-112014286D01*
X147357143Y-111871429D01*
X147214286Y-111585714D01*
X147214286Y-109157143D01*
X144214286Y-109300000D02*
X144500000Y-109157143D01*
X144928571Y-109157143D01*
X145357143Y-109300000D01*
X145642857Y-109585714D01*
X145785714Y-109871429D01*
X145928571Y-110442857D01*
X145928571Y-110871429D01*
X145785714Y-111442857D01*
X145642857Y-111728571D01*
X145357143Y-112014286D01*
X144928571Y-112157143D01*
X144642857Y-112157143D01*
X144214286Y-112014286D01*
X144071429Y-111871429D01*
X144071429Y-110871429D01*
X144642857Y-110871429D01*
X140642857Y-109442857D02*
X140500000Y-109300000D01*
X140214286Y-109157143D01*
X139500000Y-109157143D01*
X139214286Y-109300000D01*
X139071429Y-109442857D01*
X138928572Y-109728571D01*
X138928572Y-110014286D01*
X139071429Y-110442857D01*
X140785715Y-112157143D01*
X138928572Y-112157143D01*
X137071429Y-109157143D02*
X136785714Y-109157143D01*
X136500000Y-109300000D01*
X136357143Y-109442857D01*
X136214286Y-109728571D01*
X136071429Y-110300000D01*
X136071429Y-111014286D01*
X136214286Y-111585714D01*
X136357143Y-111871429D01*
X136500000Y-112014286D01*
X136785714Y-112157143D01*
X137071429Y-112157143D01*
X137357143Y-112014286D01*
X137500000Y-111871429D01*
X137642857Y-111585714D01*
X137785714Y-111014286D01*
X137785714Y-110300000D01*
X137642857Y-109728571D01*
X137500000Y-109442857D01*
X137357143Y-109300000D01*
X137071429Y-109157143D01*
X133214286Y-112157143D02*
X134928571Y-112157143D01*
X134071429Y-112157143D02*
X134071429Y-109157143D01*
X134357143Y-109585714D01*
X134642857Y-109871429D01*
X134928571Y-110014286D01*
X132214286Y-109157143D02*
X130214286Y-109157143D01*
X131500000Y-112157143D01*
M02*
